{
	"patcher" : 	{
		"fileversion" : 1,
		"rect" : [ 13.0, 674.0, 328.0, 171.0 ],
		"bglocked" : 0,
		"defrect" : [ 13.0, 674.0, 328.0, 171.0 ],
		"openrect" : [ 0.0, 0.0, 0.0, 0.0 ],
		"openinpresentation" : 1,
		"default_fontsize" : 12.0,
		"default_fontface" : 0,
		"default_fontname" : "Arial",
		"gridonopen" : 0,
		"gridsize" : [ 15.0, 15.0 ],
		"gridsnaponopen" : 0,
		"toolbarvisible" : 1,
		"boxanimatetime" : 200,
		"imprint" : 0,
		"metadata" : [  ],
		"boxes" : [ 			{
				"box" : 				{
					"maxclass" : "newobj",
					"text" : "loadbang",
					"fontsize" : 12.0,
					"numinlets" : 1,
					"patching_rect" : [ 47.0, 248.0, 60.0, 20.0 ],
					"id" : "obj-10",
					"numoutlets" : 1,
					"fontname" : "Arial",
					"outlettype" : [ "bang" ]
				}

			}
, 			{
				"box" : 				{
					"maxclass" : "message",
					"text" : "100",
					"fontsize" : 12.0,
					"numinlets" : 2,
					"patching_rect" : [ 47.0, 277.0, 32.5, 18.0 ],
					"id" : "obj-9",
					"numoutlets" : 1,
					"fontname" : "Arial",
					"outlettype" : [ "" ]
				}

			}
, 			{
				"box" : 				{
					"maxclass" : "number",
					"fontsize" : 12.0,
					"numinlets" : 1,
					"patching_rect" : [ 36.0, 195.0, 50.0, 20.0 ],
					"id" : "obj-51",
					"numoutlets" : 2,
					"fontname" : "Arial",
					"outlettype" : [ "int", "bang" ]
				}

			}
, 			{
				"box" : 				{
					"maxclass" : "button",
					"presentation_rect" : [ 25.0, 98.0, 20.0, 20.0 ],
					"numinlets" : 1,
					"patching_rect" : [ 36.0, 170.0, 20.0, 20.0 ],
					"id" : "obj-52",
					"presentation" : 1,
					"numoutlets" : 1,
					"outlettype" : [ "bang" ]
				}

			}
, 			{
				"box" : 				{
					"maxclass" : "number",
					"fontsize" : 12.0,
					"numinlets" : 1,
					"patching_rect" : [ 36.0, 145.0, 50.0, 20.0 ],
					"id" : "obj-49",
					"numoutlets" : 2,
					"fontname" : "Arial",
					"outlettype" : [ "int", "bang" ]
				}

			}
, 			{
				"box" : 				{
					"maxclass" : "button",
					"presentation_rect" : [ 25.0, 70.0, 20.0, 20.0 ],
					"numinlets" : 1,
					"patching_rect" : [ 36.0, 118.0, 20.0, 20.0 ],
					"id" : "obj-50",
					"presentation" : 1,
					"numoutlets" : 1,
					"outlettype" : [ "bang" ]
				}

			}
, 			{
				"box" : 				{
					"maxclass" : "number",
					"fontsize" : 12.0,
					"numinlets" : 1,
					"patching_rect" : [ 36.0, 91.0, 50.0, 20.0 ],
					"id" : "obj-48",
					"numoutlets" : 2,
					"fontname" : "Arial",
					"outlettype" : [ "int", "bang" ]
				}

			}
, 			{
				"box" : 				{
					"maxclass" : "button",
					"presentation_rect" : [ 25.0, 51.0, 20.0, 20.0 ],
					"numinlets" : 1,
					"patching_rect" : [ 36.0, 64.0, 20.0, 20.0 ],
					"id" : "obj-47",
					"presentation" : 1,
					"numoutlets" : 1,
					"outlettype" : [ "bang" ]
				}

			}
, 			{
				"box" : 				{
					"maxclass" : "newobj",
					"text" : "if $i1== 1 then 0",
					"fontsize" : 12.0,
					"numinlets" : 1,
					"patching_rect" : [ 560.0, 105.0, 97.0, 20.0 ],
					"id" : "obj-44",
					"numoutlets" : 1,
					"fontname" : "Arial",
					"outlettype" : [ "" ]
				}

			}
, 			{
				"box" : 				{
					"maxclass" : "newobj",
					"text" : "if $i1== 1 then 0",
					"fontsize" : 12.0,
					"numinlets" : 1,
					"patching_rect" : [ 560.0, 74.0, 97.0, 20.0 ],
					"id" : "obj-43",
					"numoutlets" : 1,
					"fontname" : "Arial",
					"outlettype" : [ "" ]
				}

			}
, 			{
				"box" : 				{
					"maxclass" : "newobj",
					"text" : "p clock",
					"fontsize" : 12.0,
					"numinlets" : 2,
					"patching_rect" : [ 531.0, 144.0, 48.0, 20.0 ],
					"id" : "obj-42",
					"numoutlets" : 2,
					"fontname" : "Arial",
					"outlettype" : [ "int", "" ],
					"patcher" : 					{
						"fileversion" : 1,
						"rect" : [ 195.0, 99.0, 332.0, 356.0 ],
						"bglocked" : 0,
						"defrect" : [ 195.0, 99.0, 332.0, 356.0 ],
						"openrect" : [ 0.0, 0.0, 0.0, 0.0 ],
						"openinpresentation" : 0,
						"default_fontsize" : 12.0,
						"default_fontface" : 0,
						"default_fontname" : "Arial",
						"gridonopen" : 0,
						"gridsize" : [ 15.0, 15.0 ],
						"gridsnaponopen" : 0,
						"toolbarvisible" : 1,
						"boxanimatetime" : 200,
						"imprint" : 0,
						"metadata" : [  ],
						"boxes" : [ 							{
								"box" : 								{
									"maxclass" : "outlet",
									"numinlets" : 1,
									"patching_rect" : [ 65.0, 235.0, 25.0, 25.0 ],
									"id" : "obj-4",
									"numoutlets" : 0,
									"comment" : ""
								}

							}
, 							{
								"box" : 								{
									"maxclass" : "outlet",
									"numinlets" : 1,
									"patching_rect" : [ 115.0, 235.0, 25.0, 25.0 ],
									"id" : "obj-3",
									"numoutlets" : 0,
									"comment" : ""
								}

							}
, 							{
								"box" : 								{
									"maxclass" : "inlet",
									"numinlets" : 0,
									"patching_rect" : [ 191.0, 80.0, 25.0, 25.0 ],
									"id" : "obj-2",
									"numoutlets" : 1,
									"outlettype" : [ "" ],
									"comment" : ""
								}

							}
, 							{
								"box" : 								{
									"maxclass" : "inlet",
									"numinlets" : 0,
									"patching_rect" : [ 115.0, 80.0, 25.0, 25.0 ],
									"id" : "obj-1",
									"numoutlets" : 1,
									"outlettype" : [ "int" ],
									"comment" : ""
								}

							}
, 							{
								"box" : 								{
									"maxclass" : "newobj",
									"text" : "if $i1 > 1000 then 0",
									"fontsize" : 12.0,
									"numinlets" : 1,
									"patching_rect" : [ 115.0, 197.0, 113.0, 20.0 ],
									"id" : "obj-43",
									"numoutlets" : 1,
									"fontname" : "Arial",
									"outlettype" : [ "" ]
								}

							}
, 							{
								"box" : 								{
									"maxclass" : "newobj",
									"text" : "/ 10",
									"fontsize" : 12.0,
									"numinlets" : 2,
									"patching_rect" : [ 115.0, 168.0, 32.5, 20.0 ],
									"id" : "obj-33",
									"numoutlets" : 1,
									"fontname" : "Arial",
									"outlettype" : [ "int" ]
								}

							}
, 							{
								"box" : 								{
									"maxclass" : "newobj",
									"text" : "clocker 10",
									"fontsize" : 12.0,
									"numinlets" : 2,
									"patching_rect" : [ 115.0, 141.0, 65.0, 20.0 ],
									"id" : "obj-61",
									"numoutlets" : 1,
									"fontname" : "Arial",
									"outlettype" : [ "float" ]
								}

							}
 ],
						"lines" : [ 							{
								"patchline" : 								{
									"source" : [ "obj-43", 0 ],
									"destination" : [ "obj-3", 0 ],
									"hidden" : 0,
									"midpoints" : [  ]
								}

							}
, 							{
								"patchline" : 								{
									"source" : [ "obj-33", 0 ],
									"destination" : [ "obj-4", 0 ],
									"hidden" : 0,
									"midpoints" : [ 124.5, 189.0, 74.5, 189.0 ]
								}

							}
, 							{
								"patchline" : 								{
									"source" : [ "obj-1", 0 ],
									"destination" : [ "obj-61", 0 ],
									"hidden" : 0,
									"midpoints" : [ 124.5, 138.0, 124.5, 138.0 ]
								}

							}
, 							{
								"patchline" : 								{
									"source" : [ "obj-2", 0 ],
									"destination" : [ "obj-61", 1 ],
									"hidden" : 0,
									"midpoints" : [ 200.5, 126.0, 170.5, 126.0 ]
								}

							}
, 							{
								"patchline" : 								{
									"source" : [ "obj-33", 0 ],
									"destination" : [ "obj-43", 0 ],
									"hidden" : 0,
									"midpoints" : [ 124.5, 202.0, 124.5, 202.0 ]
								}

							}
, 							{
								"patchline" : 								{
									"source" : [ "obj-61", 0 ],
									"destination" : [ "obj-33", 0 ],
									"hidden" : 0,
									"midpoints" : [  ]
								}

							}
 ]
					}
,
					"saved_object_attributes" : 					{
						"default_fontface" : 0,
						"fontface" : 0,
						"fontsize" : 12.0,
						"default_fontname" : "Arial",
						"default_fontsize" : 12.0,
						"globalpatchername" : "",
						"fontname" : "Arial"
					}

				}

			}
, 			{
				"box" : 				{
					"maxclass" : "newobj",
					"text" : "p clock",
					"fontsize" : 12.0,
					"numinlets" : 2,
					"patching_rect" : [ 475.0, 144.0, 48.0, 20.0 ],
					"id" : "obj-41",
					"numoutlets" : 2,
					"fontname" : "Arial",
					"outlettype" : [ "int", "" ],
					"patcher" : 					{
						"fileversion" : 1,
						"rect" : [ 195.0, 99.0, 332.0, 356.0 ],
						"bglocked" : 0,
						"defrect" : [ 195.0, 99.0, 332.0, 356.0 ],
						"openrect" : [ 0.0, 0.0, 0.0, 0.0 ],
						"openinpresentation" : 0,
						"default_fontsize" : 12.0,
						"default_fontface" : 0,
						"default_fontname" : "Arial",
						"gridonopen" : 0,
						"gridsize" : [ 15.0, 15.0 ],
						"gridsnaponopen" : 0,
						"toolbarvisible" : 1,
						"boxanimatetime" : 200,
						"imprint" : 0,
						"metadata" : [  ],
						"boxes" : [ 							{
								"box" : 								{
									"maxclass" : "outlet",
									"numinlets" : 1,
									"patching_rect" : [ 65.0, 235.0, 25.0, 25.0 ],
									"id" : "obj-4",
									"numoutlets" : 0,
									"comment" : ""
								}

							}
, 							{
								"box" : 								{
									"maxclass" : "outlet",
									"numinlets" : 1,
									"patching_rect" : [ 115.0, 235.0, 25.0, 25.0 ],
									"id" : "obj-3",
									"numoutlets" : 0,
									"comment" : ""
								}

							}
, 							{
								"box" : 								{
									"maxclass" : "inlet",
									"numinlets" : 0,
									"patching_rect" : [ 191.0, 80.0, 25.0, 25.0 ],
									"id" : "obj-2",
									"numoutlets" : 1,
									"outlettype" : [ "" ],
									"comment" : ""
								}

							}
, 							{
								"box" : 								{
									"maxclass" : "inlet",
									"numinlets" : 0,
									"patching_rect" : [ 115.0, 80.0, 25.0, 25.0 ],
									"id" : "obj-1",
									"numoutlets" : 1,
									"outlettype" : [ "int" ],
									"comment" : ""
								}

							}
, 							{
								"box" : 								{
									"maxclass" : "newobj",
									"text" : "if $i1 > 1000 then 0",
									"fontsize" : 12.0,
									"numinlets" : 1,
									"patching_rect" : [ 115.0, 197.0, 113.0, 20.0 ],
									"id" : "obj-43",
									"numoutlets" : 1,
									"fontname" : "Arial",
									"outlettype" : [ "" ]
								}

							}
, 							{
								"box" : 								{
									"maxclass" : "newobj",
									"text" : "/ 10",
									"fontsize" : 12.0,
									"numinlets" : 2,
									"patching_rect" : [ 115.0, 168.0, 32.5, 20.0 ],
									"id" : "obj-33",
									"numoutlets" : 1,
									"fontname" : "Arial",
									"outlettype" : [ "int" ]
								}

							}
, 							{
								"box" : 								{
									"maxclass" : "newobj",
									"text" : "clocker 10",
									"fontsize" : 12.0,
									"numinlets" : 2,
									"patching_rect" : [ 115.0, 141.0, 65.0, 20.0 ],
									"id" : "obj-61",
									"numoutlets" : 1,
									"fontname" : "Arial",
									"outlettype" : [ "float" ]
								}

							}
 ],
						"lines" : [ 							{
								"patchline" : 								{
									"source" : [ "obj-61", 0 ],
									"destination" : [ "obj-33", 0 ],
									"hidden" : 0,
									"midpoints" : [  ]
								}

							}
, 							{
								"patchline" : 								{
									"source" : [ "obj-33", 0 ],
									"destination" : [ "obj-43", 0 ],
									"hidden" : 0,
									"midpoints" : [ 124.5, 202.0, 124.5, 202.0 ]
								}

							}
, 							{
								"patchline" : 								{
									"source" : [ "obj-2", 0 ],
									"destination" : [ "obj-61", 1 ],
									"hidden" : 0,
									"midpoints" : [ 200.5, 126.0, 170.5, 126.0 ]
								}

							}
, 							{
								"patchline" : 								{
									"source" : [ "obj-1", 0 ],
									"destination" : [ "obj-61", 0 ],
									"hidden" : 0,
									"midpoints" : [ 124.5, 138.0, 124.5, 138.0 ]
								}

							}
, 							{
								"patchline" : 								{
									"source" : [ "obj-33", 0 ],
									"destination" : [ "obj-4", 0 ],
									"hidden" : 0,
									"midpoints" : [ 124.5, 189.0, 74.5, 189.0 ]
								}

							}
, 							{
								"patchline" : 								{
									"source" : [ "obj-43", 0 ],
									"destination" : [ "obj-3", 0 ],
									"hidden" : 0,
									"midpoints" : [  ]
								}

							}
 ]
					}
,
					"saved_object_attributes" : 					{
						"default_fontface" : 0,
						"fontface" : 0,
						"fontsize" : 12.0,
						"default_fontname" : "Arial",
						"default_fontsize" : 12.0,
						"globalpatchername" : "",
						"fontname" : "Arial"
					}

				}

			}
, 			{
				"box" : 				{
					"maxclass" : "toggle",
					"presentation_rect" : [ 122.0, 22.0, 20.0, 20.0 ],
					"numinlets" : 1,
					"patching_rect" : [ 244.0, 53.0, 20.0, 20.0 ],
					"id" : "obj-40",
					"presentation" : 1,
					"numoutlets" : 1,
					"outlettype" : [ "int" ]
				}

			}
, 			{
				"box" : 				{
					"maxclass" : "toggle",
					"presentation_rect" : [ 92.0, 22.0, 20.0, 20.0 ],
					"numinlets" : 1,
					"patching_rect" : [ 210.0, 52.0, 20.0, 20.0 ],
					"id" : "obj-34",
					"presentation" : 1,
					"numoutlets" : 1,
					"outlettype" : [ "int" ]
				}

			}
, 			{
				"box" : 				{
					"maxclass" : "button",
					"numinlets" : 1,
					"patching_rect" : [ 245.0, 213.0, 20.0, 20.0 ],
					"id" : "obj-31",
					"numoutlets" : 1,
					"outlettype" : [ "bang" ]
				}

			}
, 			{
				"box" : 				{
					"maxclass" : "number",
					"fontsize" : 12.0,
					"numinlets" : 1,
					"patching_rect" : [ 292.0, 299.0, 50.0, 20.0 ],
					"id" : "obj-30",
					"numoutlets" : 2,
					"fontname" : "Arial",
					"outlettype" : [ "int", "bang" ]
				}

			}
, 			{
				"box" : 				{
					"maxclass" : "number",
					"fontsize" : 12.0,
					"numinlets" : 1,
					"patching_rect" : [ 228.0, 299.0, 50.0, 20.0 ],
					"id" : "obj-29",
					"numoutlets" : 2,
					"fontname" : "Arial",
					"outlettype" : [ "int", "bang" ]
				}

			}
, 			{
				"box" : 				{
					"maxclass" : "number",
					"fontsize" : 12.0,
					"numinlets" : 1,
					"patching_rect" : [ 165.0, 299.0, 50.0, 20.0 ],
					"id" : "obj-28",
					"numoutlets" : 2,
					"fontname" : "Arial",
					"outlettype" : [ "int", "bang" ]
				}

			}
, 			{
				"box" : 				{
					"maxclass" : "newobj",
					"text" : "+ 100",
					"fontsize" : 12.0,
					"numinlets" : 2,
					"patching_rect" : [ 245.0, 248.0, 41.0, 20.0 ],
					"id" : "obj-21",
					"numoutlets" : 1,
					"fontname" : "Arial",
					"outlettype" : [ "int" ]
				}

			}
, 			{
				"box" : 				{
					"maxclass" : "comment",
					"text" : "range size",
					"linecount" : 2,
					"presentation_rect" : [ 24.0, 122.0, 68.0, 20.0 ],
					"fontface" : 1,
					"fontsize" : 12.0,
					"numinlets" : 1,
					"patching_rect" : [ 166.0, 162.0, 48.0, 34.0 ],
					"id" : "obj-6",
					"presentation" : 1,
					"numoutlets" : 0,
					"fontname" : "Arial"
				}

			}
, 			{
				"box" : 				{
					"maxclass" : "slider",
					"presentation_rect" : [ 92.0, 122.0, 201.0, 19.0 ],
					"numinlets" : 1,
					"patching_rect" : [ 220.0, 164.0, 201.0, 19.0 ],
					"id" : "obj-5",
					"presentation" : 1,
					"numoutlets" : 1,
					"outlettype" : [ "" ],
					"floatoutput" : 1,
					"size" : 1000.0
				}

			}
, 			{
				"box" : 				{
					"maxclass" : "comment",
					"text" : "range",
					"presentation_rect" : [ 46.0, 99.0, 42.0, 20.0 ],
					"fontface" : 1,
					"fontsize" : 12.0,
					"numinlets" : 1,
					"patching_rect" : [ 166.0, 139.0, 42.0, 20.0 ],
					"id" : "obj-3",
					"presentation" : 1,
					"numoutlets" : 0,
					"fontname" : "Arial"
				}

			}
, 			{
				"box" : 				{
					"maxclass" : "slider",
					"presentation_rect" : [ 92.0, 100.0, 201.0, 19.0 ],
					"numinlets" : 1,
					"patching_rect" : [ 220.0, 140.0, 201.0, 19.0 ],
					"id" : "obj-2",
					"presentation" : 1,
					"numoutlets" : 1,
					"outlettype" : [ "" ],
					"floatoutput" : 1,
					"size" : 1000.0
				}

			}
, 			{
				"box" : 				{
					"maxclass" : "newobj",
					"text" : "prepend /oscaddress",
					"fontsize" : 12.0,
					"numinlets" : 1,
					"patching_rect" : [ 445.0, 270.0, 123.0, 20.0 ],
					"id" : "obj-19",
					"numoutlets" : 1,
					"fontname" : "Arial",
					"outlettype" : [ "" ]
				}

			}
, 			{
				"box" : 				{
					"maxclass" : "newobj",
					"text" : "receive address",
					"fontsize" : 12.0,
					"numinlets" : 0,
					"patching_rect" : [ 512.0, 301.0, 95.0, 20.0 ],
					"id" : "obj-18",
					"numoutlets" : 1,
					"fontname" : "Arial",
					"outlettype" : [ "" ]
				}

			}
, 			{
				"box" : 				{
					"maxclass" : "comment",
					"text" : "end",
					"presentation_rect" : [ 46.0, 72.0, 37.0, 20.0 ],
					"fontface" : 1,
					"fontsize" : 12.0,
					"numinlets" : 1,
					"patching_rect" : [ 164.0, 105.0, 34.0, 20.0 ],
					"id" : "obj-17",
					"presentation" : 1,
					"numoutlets" : 0,
					"fontname" : "Arial"
				}

			}
, 			{
				"box" : 				{
					"maxclass" : "comment",
					"text" : "Display",
					"presentation_rect" : [ 31.0, 23.0, 68.0, 20.0 ],
					"fontface" : 1,
					"fontsize" : 12.0,
					"numinlets" : 1,
					"patching_rect" : [ 149.0, 52.0, 81.0, 20.0 ],
					"id" : "obj-16",
					"presentation" : 1,
					"numoutlets" : 0,
					"fontname" : "Arial"
				}

			}
, 			{
				"box" : 				{
					"maxclass" : "comment",
					"text" : "start",
					"presentation_rect" : [ 46.0, 49.0, 37.0, 20.0 ],
					"fontface" : 1,
					"fontsize" : 12.0,
					"numinlets" : 1,
					"patching_rect" : [ 164.0, 77.0, 37.0, 20.0 ],
					"id" : "obj-8",
					"presentation" : 1,
					"numoutlets" : 0,
					"fontname" : "Arial"
				}

			}
, 			{
				"box" : 				{
					"maxclass" : "newobj",
					"text" : "send osc",
					"fontsize" : 12.0,
					"numinlets" : 1,
					"patching_rect" : [ 445.0, 302.0, 59.0, 20.0 ],
					"id" : "obj-15",
					"numoutlets" : 0,
					"fontname" : "Arial"
				}

			}
, 			{
				"box" : 				{
					"maxclass" : "newobj",
					"text" : "prepend dispend",
					"fontsize" : 12.0,
					"numinlets" : 1,
					"patching_rect" : [ 446.0, 238.0, 100.0, 20.0 ],
					"id" : "obj-14",
					"numoutlets" : 1,
					"fontname" : "Arial",
					"outlettype" : [ "" ]
				}

			}
, 			{
				"box" : 				{
					"maxclass" : "newobj",
					"text" : "prepend dispbeg",
					"fontsize" : 12.0,
					"numinlets" : 1,
					"patching_rect" : [ 447.0, 203.0, 100.0, 20.0 ],
					"id" : "obj-13",
					"numoutlets" : 1,
					"fontname" : "Arial",
					"outlettype" : [ "" ]
				}

			}
, 			{
				"box" : 				{
					"maxclass" : "newobj",
					"text" : "/ 1000.",
					"fontsize" : 12.0,
					"numinlets" : 2,
					"patching_rect" : [ 451.0, 104.0, 47.0, 20.0 ],
					"id" : "obj-12",
					"numoutlets" : 1,
					"fontname" : "Arial",
					"outlettype" : [ "float" ]
				}

			}
, 			{
				"box" : 				{
					"maxclass" : "newobj",
					"text" : "/ 1000.",
					"fontsize" : 12.0,
					"numinlets" : 2,
					"patching_rect" : [ 451.0, 76.0, 47.0, 20.0 ],
					"id" : "obj-11",
					"numoutlets" : 1,
					"fontname" : "Arial",
					"outlettype" : [ "float" ]
				}

			}
, 			{
				"box" : 				{
					"maxclass" : "slider",
					"presentation_rect" : [ 92.0, 48.0, 201.0, 19.0 ],
					"numinlets" : 1,
					"patching_rect" : [ 220.0, 77.0, 201.0, 19.0 ],
					"id" : "obj-7",
					"presentation" : 1,
					"numoutlets" : 1,
					"outlettype" : [ "" ],
					"floatoutput" : 1,
					"size" : 1000.0
				}

			}
, 			{
				"box" : 				{
					"maxclass" : "slider",
					"presentation_rect" : [ 92.0, 70.0, 201.0, 19.0 ],
					"numinlets" : 1,
					"patching_rect" : [ 220.0, 105.0, 201.0, 19.0 ],
					"id" : "obj-1",
					"presentation" : 1,
					"numoutlets" : 1,
					"outlettype" : [ "" ],
					"floatoutput" : 1,
					"size" : 1000.0
				}

			}
, 			{
				"box" : 				{
					"maxclass" : "panel",
					"presentation_rect" : [ 18.0, 16.0, 289.0, 141.0 ],
					"numinlets" : 1,
					"patching_rect" : [ 134.0, 43.0, 304.0, 160.0 ],
					"id" : "obj-22",
					"presentation" : 1,
					"bgcolor" : [ 0.992157, 0.905882, 0.65098, 1.0 ],
					"numoutlets" : 0,
					"rounded" : 24
				}

			}
 ],
		"lines" : [ 			{
				"patchline" : 				{
					"source" : [ "obj-9", 0 ],
					"destination" : [ "obj-21", 1 ],
					"hidden" : 0,
					"midpoints" : [ 56.5, 306.0, 150.0, 306.0, 150.0, 243.0, 276.5, 243.0 ]
				}

			}
, 			{
				"patchline" : 				{
					"source" : [ "obj-9", 0 ],
					"destination" : [ "obj-5", 0 ],
					"hidden" : 0,
					"midpoints" : [ 56.5, 306.0, 150.0, 306.0, 150.0, 207.0, 216.0, 207.0, 216.0, 159.0, 229.5, 159.0 ]
				}

			}
, 			{
				"patchline" : 				{
					"source" : [ "obj-10", 0 ],
					"destination" : [ "obj-9", 0 ],
					"hidden" : 0,
					"midpoints" : [  ]
				}

			}
, 			{
				"patchline" : 				{
					"source" : [ "obj-11", 0 ],
					"destination" : [ "obj-13", 0 ],
					"hidden" : 0,
					"midpoints" : [ 460.5, 96.0, 447.0, 96.0, 447.0, 135.0, 456.5, 135.0 ]
				}

			}
, 			{
				"patchline" : 				{
					"source" : [ "obj-13", 0 ],
					"destination" : [ "obj-19", 0 ],
					"hidden" : 0,
					"midpoints" : [ 456.5, 225.0, 432.0, 225.0, 432.0, 267.0, 454.5, 267.0 ]
				}

			}
, 			{
				"patchline" : 				{
					"source" : [ "obj-14", 0 ],
					"destination" : [ "obj-19", 0 ],
					"hidden" : 0,
					"midpoints" : [ 455.5, 258.0, 454.5, 258.0 ]
				}

			}
, 			{
				"patchline" : 				{
					"source" : [ "obj-12", 0 ],
					"destination" : [ "obj-14", 0 ],
					"hidden" : 0,
					"midpoints" : [ 460.5, 189.0, 444.0, 189.0, 444.0, 234.0, 455.5, 234.0 ]
				}

			}
, 			{
				"patchline" : 				{
					"source" : [ "obj-19", 0 ],
					"destination" : [ "obj-15", 0 ],
					"hidden" : 0,
					"midpoints" : [  ]
				}

			}
, 			{
				"patchline" : 				{
					"source" : [ "obj-18", 0 ],
					"destination" : [ "obj-19", 0 ],
					"hidden" : 0,
					"midpoints" : [ 521.5, 334.0, 431.0, 334.0, 431.0, 265.0, 454.5, 265.0 ]
				}

			}
, 			{
				"patchline" : 				{
					"source" : [ "obj-1", 0 ],
					"destination" : [ "obj-12", 0 ],
					"hidden" : 0,
					"midpoints" : [ 229.5, 135.0, 423.0, 135.0, 423.0, 102.0, 460.5, 102.0 ]
				}

			}
, 			{
				"patchline" : 				{
					"source" : [ "obj-7", 0 ],
					"destination" : [ "obj-11", 0 ],
					"hidden" : 0,
					"midpoints" : [ 229.5, 90.0, 207.0, 90.0, 207.0, 54.0, 460.5, 54.0 ]
				}

			}
, 			{
				"patchline" : 				{
					"source" : [ "obj-2", 0 ],
					"destination" : [ "obj-7", 0 ],
					"hidden" : 0,
					"midpoints" : [ 229.5, 159.0, 213.0, 159.0, 213.0, 72.0, 229.5, 72.0 ]
				}

			}
, 			{
				"patchline" : 				{
					"source" : [ "obj-2", 0 ],
					"destination" : [ "obj-21", 0 ],
					"hidden" : 0,
					"midpoints" : [ 229.5, 159.0, 153.0, 159.0, 153.0, 234.0, 254.5, 234.0 ]
				}

			}
, 			{
				"patchline" : 				{
					"source" : [ "obj-5", 0 ],
					"destination" : [ "obj-21", 1 ],
					"hidden" : 0,
					"midpoints" : [ 229.5, 234.0, 276.5, 234.0 ]
				}

			}
, 			{
				"patchline" : 				{
					"source" : [ "obj-21", 0 ],
					"destination" : [ "obj-29", 0 ],
					"hidden" : 0,
					"midpoints" : [ 254.5, 285.0, 237.5, 285.0 ]
				}

			}
, 			{
				"patchline" : 				{
					"source" : [ "obj-5", 0 ],
					"destination" : [ "obj-30", 0 ],
					"hidden" : 0,
					"midpoints" : [ 229.5, 285.0, 301.5, 285.0 ]
				}

			}
, 			{
				"patchline" : 				{
					"source" : [ "obj-2", 0 ],
					"destination" : [ "obj-28", 0 ],
					"hidden" : 0,
					"midpoints" : [ 229.5, 159.0, 153.0, 159.0, 153.0, 285.0, 174.5, 285.0 ]
				}

			}
, 			{
				"patchline" : 				{
					"source" : [ "obj-29", 0 ],
					"destination" : [ "obj-1", 0 ],
					"hidden" : 0,
					"midpoints" : [ 237.5, 330.0, 150.0, 330.0, 150.0, 102.0, 229.5, 102.0 ]
				}

			}
, 			{
				"patchline" : 				{
					"source" : [ "obj-5", 0 ],
					"destination" : [ "obj-31", 0 ],
					"hidden" : 0,
					"midpoints" : [ 229.5, 198.0, 254.5, 198.0 ]
				}

			}
, 			{
				"patchline" : 				{
					"source" : [ "obj-31", 0 ],
					"destination" : [ "obj-21", 0 ],
					"hidden" : 0,
					"midpoints" : [ 254.5, 231.0, 254.5, 231.0 ]
				}

			}
, 			{
				"patchline" : 				{
					"source" : [ "obj-41", 1 ],
					"destination" : [ "obj-34", 0 ],
					"hidden" : 0,
					"midpoints" : [ 513.5, 180.0, 432.0, 180.0, 432.0, 39.0, 219.5, 39.0 ]
				}

			}
, 			{
				"patchline" : 				{
					"source" : [ "obj-42", 1 ],
					"destination" : [ "obj-40", 0 ],
					"hidden" : 0,
					"midpoints" : [ 569.5, 180.0, 432.0, 180.0, 432.0, 48.0, 253.5, 48.0 ]
				}

			}
, 			{
				"patchline" : 				{
					"source" : [ "obj-41", 0 ],
					"destination" : [ "obj-2", 0 ],
					"hidden" : 0,
					"midpoints" : [ 484.5, 189.0, 432.0, 189.0, 432.0, 195.0, 216.0, 195.0, 216.0, 135.0, 229.5, 135.0 ]
				}

			}
, 			{
				"patchline" : 				{
					"source" : [ "obj-42", 0 ],
					"destination" : [ "obj-1", 0 ],
					"hidden" : 0,
					"midpoints" : [ 540.5, 189.0, 432.0, 189.0, 432.0, 195.0, 216.0, 195.0, 216.0, 102.0, 229.5, 102.0 ]
				}

			}
, 			{
				"patchline" : 				{
					"source" : [ "obj-34", 0 ],
					"destination" : [ "obj-41", 0 ],
					"hidden" : 0,
					"midpoints" : [ 219.5, 72.0, 240.0, 72.0, 240.0, 39.0, 438.0, 39.0, 438.0, 141.0, 484.5, 141.0 ]
				}

			}
, 			{
				"patchline" : 				{
					"source" : [ "obj-40", 0 ],
					"destination" : [ "obj-42", 0 ],
					"hidden" : 0,
					"midpoints" : [ 253.5, 75.0, 264.0, 75.0, 264.0, 63.0, 540.5, 63.0 ]
				}

			}
, 			{
				"patchline" : 				{
					"source" : [ "obj-34", 0 ],
					"destination" : [ "obj-43", 0 ],
					"hidden" : 0,
					"midpoints" : [ 219.5, 72.0, 240.0, 72.0, 240.0, 39.0, 569.5, 39.0 ]
				}

			}
, 			{
				"patchline" : 				{
					"source" : [ "obj-43", 0 ],
					"destination" : [ "obj-40", 0 ],
					"hidden" : 0,
					"midpoints" : [ 569.5, 96.0, 510.0, 96.0, 510.0, 48.0, 253.5, 48.0 ]
				}

			}
, 			{
				"patchline" : 				{
					"source" : [ "obj-40", 0 ],
					"destination" : [ "obj-44", 0 ],
					"hidden" : 0,
					"midpoints" : [ 253.5, 75.0, 264.0, 75.0, 264.0, 63.0, 546.0, 63.0, 546.0, 102.0, 569.5, 102.0 ]
				}

			}
, 			{
				"patchline" : 				{
					"source" : [ "obj-44", 0 ],
					"destination" : [ "obj-34", 0 ],
					"hidden" : 0,
					"midpoints" : [ 569.5, 126.0, 510.0, 126.0, 510.0, 39.0, 219.5, 39.0 ]
				}

			}
, 			{
				"patchline" : 				{
					"source" : [ "obj-47", 0 ],
					"destination" : [ "obj-48", 0 ],
					"hidden" : 0,
					"midpoints" : [  ]
				}

			}
, 			{
				"patchline" : 				{
					"source" : [ "obj-50", 0 ],
					"destination" : [ "obj-49", 0 ],
					"hidden" : 0,
					"midpoints" : [  ]
				}

			}
, 			{
				"patchline" : 				{
					"source" : [ "obj-52", 0 ],
					"destination" : [ "obj-51", 0 ],
					"hidden" : 0,
					"midpoints" : [  ]
				}

			}
, 			{
				"patchline" : 				{
					"source" : [ "obj-48", 0 ],
					"destination" : [ "obj-7", 0 ],
					"hidden" : 0,
					"midpoints" : [ 45.5, 117.0, 150.0, 117.0, 150.0, 72.0, 229.5, 72.0 ]
				}

			}
, 			{
				"patchline" : 				{
					"source" : [ "obj-49", 0 ],
					"destination" : [ "obj-1", 0 ],
					"hidden" : 0,
					"midpoints" : [ 45.5, 171.0, 150.0, 171.0, 150.0, 102.0, 229.5, 102.0 ]
				}

			}
, 			{
				"patchline" : 				{
					"source" : [ "obj-51", 0 ],
					"destination" : [ "obj-2", 0 ],
					"hidden" : 0,
					"midpoints" : [ 45.5, 225.0, 153.0, 225.0, 153.0, 135.0, 229.5, 135.0 ]
				}

			}
 ]
	}

}
