{
	"patcher" : 	{
		"fileversion" : 1,
		"rect" : [ 363.0, 44.0, 867.0, 566.0 ],
		"bglocked" : 0,
		"defrect" : [ 363.0, 44.0, 867.0, 566.0 ],
		"openrect" : [ 0.0, 700.0, 550.0, 75.0 ],
		"openinpresentation" : 1,
		"default_fontsize" : 12.0,
		"default_fontface" : 0,
		"default_fontname" : "Arial",
		"gridonopen" : 0,
		"gridsize" : [ 15.0, 15.0 ],
		"gridsnaponopen" : 0,
		"toolbarvisible" : 1,
		"boxanimatetime" : 200,
		"imprint" : 0,
		"metadata" : [  ],
		"boxes" : [ 			{
				"box" : 				{
					"maxclass" : "newobj",
					"text" : "t b b",
					"patching_rect" : [ 30.0, 358.0, 34.0, 20.0 ],
					"fontsize" : 12.0,
					"id" : "obj-16",
					"numoutlets" : 2,
					"outlettype" : [ "bang", "bang" ],
					"fontname" : "Arial",
					"numinlets" : 1
				}

			}
, 			{
				"box" : 				{
					"maxclass" : "message",
					"text" : "Free slave",
					"fontface" : 1,
					"patching_rect" : [ 30.0, 327.0, 67.0, 18.0 ],
					"fontsize" : 11.595187,
					"presentation" : 1,
					"id" : "obj-17",
					"numoutlets" : 1,
					"outlettype" : [ "" ],
					"fontname" : "Arial",
					"presentation_rect" : [ 402.0, 49.0, 69.0, 18.0 ],
					"numinlets" : 2
				}

			}
, 			{
				"box" : 				{
					"maxclass" : "newobj",
					"text" : "zl reg",
					"patching_rect" : [ 74.0, 403.0, 40.0, 20.0 ],
					"fontsize" : 12.0,
					"id" : "obj-18",
					"numoutlets" : 2,
					"outlettype" : [ "", "" ],
					"fontname" : "Arial",
					"numinlets" : 2
				}

			}
, 			{
				"box" : 				{
					"maxclass" : "newobj",
					"text" : "sprintf /ITL/scene/sync %s",
					"patching_rect" : [ 93.0, 355.0, 151.0, 20.0 ],
					"fontsize" : 12.0,
					"id" : "obj-19",
					"numoutlets" : 1,
					"outlettype" : [ "" ],
					"fontname" : "Arial",
					"numinlets" : 1
				}

			}
, 			{
				"box" : 				{
					"maxclass" : "message",
					"text" : "\" \"",
					"fontface" : 1,
					"patching_rect" : [ 707.0, 301.0, 32.5, 18.0 ],
					"fontsize" : 11.595187,
					"id" : "obj-13",
					"numoutlets" : 1,
					"outlettype" : [ "" ],
					"fontname" : "Arial",
					"numinlets" : 2
				}

			}
, 			{
				"box" : 				{
					"maxclass" : "newobj",
					"text" : "if $i1 == 0 then bang",
					"linecount" : 2,
					"patching_rect" : [ 692.0, 259.0, 67.0, 33.0 ],
					"fontsize" : 11.595187,
					"id" : "obj-15",
					"numoutlets" : 1,
					"outlettype" : [ "" ],
					"fontname" : "Arial",
					"numinlets" : 1
				}

			}
, 			{
				"box" : 				{
					"maxclass" : "message",
					"text" : "\" \"",
					"fontface" : 1,
					"patching_rect" : [ 598.0, 299.0, 32.5, 18.0 ],
					"fontsize" : 11.595187,
					"id" : "obj-10",
					"numoutlets" : 1,
					"outlettype" : [ "" ],
					"fontname" : "Arial",
					"numinlets" : 2
				}

			}
, 			{
				"box" : 				{
					"maxclass" : "newobj",
					"text" : "if $i1 == 0 then bang",
					"linecount" : 2,
					"patching_rect" : [ 583.0, 257.0, 67.0, 33.0 ],
					"fontsize" : 11.595187,
					"id" : "obj-11",
					"numoutlets" : 1,
					"outlettype" : [ "" ],
					"fontname" : "Arial",
					"numinlets" : 1
				}

			}
, 			{
				"box" : 				{
					"maxclass" : "message",
					"text" : "\" \"",
					"fontface" : 1,
					"patching_rect" : [ 417.0, 302.0, 32.5, 18.0 ],
					"fontsize" : 11.595187,
					"id" : "obj-5",
					"numoutlets" : 1,
					"outlettype" : [ "" ],
					"fontname" : "Arial",
					"numinlets" : 2
				}

			}
, 			{
				"box" : 				{
					"maxclass" : "newobj",
					"text" : "if $i1 == 0 then bang",
					"linecount" : 2,
					"patching_rect" : [ 402.0, 260.0, 67.0, 33.0 ],
					"fontsize" : 11.595187,
					"id" : "obj-9",
					"numoutlets" : 1,
					"outlettype" : [ "" ],
					"fontname" : "Arial",
					"numinlets" : 1
				}

			}
, 			{
				"box" : 				{
					"maxclass" : "message",
					"text" : "\" \"",
					"fontface" : 1,
					"patching_rect" : [ 505.0, 303.0, 32.5, 18.0 ],
					"fontsize" : 11.595187,
					"id" : "obj-4",
					"numoutlets" : 1,
					"outlettype" : [ "" ],
					"fontname" : "Arial",
					"numinlets" : 2
				}

			}
, 			{
				"box" : 				{
					"maxclass" : "newobj",
					"text" : "if $i1 == 0 then bang",
					"linecount" : 2,
					"patching_rect" : [ 490.0, 261.0, 67.0, 33.0 ],
					"fontsize" : 11.595187,
					"id" : "obj-12",
					"numoutlets" : 1,
					"outlettype" : [ "" ],
					"fontname" : "Arial",
					"numinlets" : 1
				}

			}
, 			{
				"box" : 				{
					"maxclass" : "newobj",
					"text" : "t b b",
					"patching_rect" : [ 336.0, 380.0, 34.0, 20.0 ],
					"fontsize" : 12.0,
					"id" : "obj-1",
					"numoutlets" : 2,
					"outlettype" : [ "bang", "bang" ],
					"fontname" : "Arial",
					"numinlets" : 1
				}

			}
, 			{
				"box" : 				{
					"maxclass" : "message",
					"text" : "Send",
					"fontface" : 1,
					"patching_rect" : [ 330.0, 352.0, 40.0, 18.0 ],
					"fontsize" : 11.595187,
					"presentation" : 1,
					"id" : "obj-60",
					"numoutlets" : 1,
					"outlettype" : [ "" ],
					"fontname" : "Arial",
					"presentation_rect" : [ 353.0, 49.0, 40.0, 18.0 ],
					"numinlets" : 2
				}

			}
, 			{
				"box" : 				{
					"maxclass" : "newobj",
					"text" : "zl reg",
					"patching_rect" : [ 379.0, 415.0, 40.0, 20.0 ],
					"fontsize" : 12.0,
					"id" : "obj-58",
					"numoutlets" : 2,
					"outlettype" : [ "", "" ],
					"fontname" : "Arial",
					"numinlets" : 2
				}

			}
, 			{
				"box" : 				{
					"maxclass" : "comment",
					"text" : "Map name",
					"patching_rect" : [ 635.0, 94.0, 82.0, 20.0 ],
					"fontsize" : 12.0,
					"presentation" : 1,
					"id" : "obj-57",
					"numoutlets" : 0,
					"fontname" : "Arial",
					"presentation_rect" : [ 447.0, 6.0, 82.0, 20.0 ],
					"numinlets" : 1
				}

			}
, 			{
				"box" : 				{
					"maxclass" : "comment",
					"text" : "Position",
					"patching_rect" : [ 530.0, 95.0, 82.0, 20.0 ],
					"fontsize" : 12.0,
					"presentation" : 1,
					"id" : "obj-56",
					"numoutlets" : 0,
					"fontname" : "Arial",
					"presentation_rect" : [ 342.0, 6.0, 82.0, 20.0 ],
					"numinlets" : 1
				}

			}
, 			{
				"box" : 				{
					"maxclass" : "comment",
					"text" : "Stretch",
					"patching_rect" : [ 419.0, 93.0, 82.0, 20.0 ],
					"fontsize" : 12.0,
					"presentation" : 1,
					"id" : "obj-55",
					"numoutlets" : 0,
					"fontname" : "Arial",
					"presentation_rect" : [ 241.0, 6.0, 82.0, 20.0 ],
					"numinlets" : 1
				}

			}
, 			{
				"box" : 				{
					"maxclass" : "message",
					"text" : "1",
					"patching_rect" : [ 542.0, 62.0, 32.5, 18.0 ],
					"fontsize" : 11.595187,
					"id" : "obj-53",
					"numoutlets" : 1,
					"outlettype" : [ "" ],
					"fontname" : "Arial",
					"numinlets" : 2
				}

			}
, 			{
				"box" : 				{
					"maxclass" : "newobj",
					"text" : "loadbang",
					"patching_rect" : [ 527.0, 28.0, 60.0, 20.0 ],
					"fontsize" : 12.0,
					"id" : "obj-54",
					"numoutlets" : 1,
					"outlettype" : [ "bang" ],
					"fontname" : "Arial",
					"numinlets" : 1
				}

			}
, 			{
				"box" : 				{
					"maxclass" : "umenu",
					"patching_rect" : [ 632.0, 126.0, 100.0, 20.0 ],
					"fontsize" : 12.0,
					"presentation" : 1,
					"id" : "obj-52",
					"numoutlets" : 3,
					"types" : [  ],
					"outlettype" : [ "int", "", "" ],
					"fontname" : "Arial",
					"presentation_rect" : [ 447.0, 27.0, 100.0, 20.0 ],
					"items" : [ ",", "page", ",", "staff1", ",", "staff2", ",", "voice1", ",", "voice2" ],
					"numinlets" : 1
				}

			}
, 			{
				"box" : 				{
					"maxclass" : "umenu",
					"patching_rect" : [ 526.0, 126.0, 100.0, 20.0 ],
					"fontsize" : 12.0,
					"presentation" : 1,
					"id" : "obj-51",
					"numoutlets" : 3,
					"types" : [  ],
					"outlettype" : [ "int", "", "" ],
					"fontname" : "Arial",
					"presentation_rect" : [ 342.0, 27.0, 100.0, 20.0 ],
					"items" : [ ",", "syncTop", ",", "syncBottom", ",", "syncOver" ],
					"numinlets" : 1
				}

			}
, 			{
				"box" : 				{
					"maxclass" : "umenu",
					"patching_rect" : [ 419.0, 126.0, 100.0, 20.0 ],
					"fontsize" : 12.0,
					"presentation" : 1,
					"id" : "obj-49",
					"numoutlets" : 3,
					"types" : [  ],
					"outlettype" : [ "int", "", "" ],
					"fontname" : "Arial",
					"presentation_rect" : [ 241.0, 27.0, 100.0, 20.0 ],
					"items" : [ ",", "h", ",", "v", ",", "hv" ],
					"numinlets" : 1
				}

			}
, 			{
				"box" : 				{
					"maxclass" : "comment",
					"text" : "Master",
					"patching_rect" : [ 295.0, 104.0, 82.0, 20.0 ],
					"fontsize" : 12.0,
					"presentation" : 1,
					"id" : "obj-31",
					"numoutlets" : 0,
					"fontname" : "Arial",
					"presentation_rect" : [ 139.0, 6.0, 82.0, 20.0 ],
					"numinlets" : 1
				}

			}
, 			{
				"box" : 				{
					"maxclass" : "message",
					"text" : "1",
					"patching_rect" : [ 220.0, 58.0, 32.5, 18.0 ],
					"fontsize" : 11.595187,
					"id" : "obj-36",
					"numoutlets" : 1,
					"outlettype" : [ "" ],
					"fontname" : "Arial",
					"numinlets" : 2
				}

			}
, 			{
				"box" : 				{
					"maxclass" : "button",
					"patching_rect" : [ 218.0, 276.0, 20.0, 20.0 ],
					"id" : "obj-37",
					"numoutlets" : 1,
					"outlettype" : [ "bang" ],
					"numinlets" : 1
				}

			}
, 			{
				"box" : 				{
					"maxclass" : "button",
					"patching_rect" : [ 196.0, 276.0, 20.0, 20.0 ],
					"id" : "obj-38",
					"numoutlets" : 1,
					"outlettype" : [ "bang" ],
					"numinlets" : 1
				}

			}
, 			{
				"box" : 				{
					"maxclass" : "newobj",
					"text" : "select 0 1",
					"patching_rect" : [ 196.0, 247.0, 62.0, 20.0 ],
					"fontsize" : 12.0,
					"id" : "obj-39",
					"numoutlets" : 3,
					"outlettype" : [ "bang", "bang", "" ],
					"fontname" : "Arial",
					"numinlets" : 1
				}

			}
, 			{
				"box" : 				{
					"maxclass" : "button",
					"patching_rect" : [ 366.0, 184.0, 20.0, 20.0 ],
					"id" : "obj-40",
					"numoutlets" : 1,
					"outlettype" : [ "bang" ],
					"numinlets" : 1
				}

			}
, 			{
				"box" : 				{
					"maxclass" : "gswitch",
					"patching_rect" : [ 311.0, 277.0, 41.0, 32.0 ],
					"id" : "obj-42",
					"numoutlets" : 1,
					"outlettype" : [ "" ],
					"numinlets" : 3
				}

			}
, 			{
				"box" : 				{
					"maxclass" : "newobj",
					"text" : "route text",
					"patching_rect" : [ 284.0, 182.0, 61.0, 20.0 ],
					"fontsize" : 12.0,
					"id" : "obj-44",
					"numoutlets" : 2,
					"outlettype" : [ "", "" ],
					"fontname" : "Arial",
					"numinlets" : 1
				}

			}
, 			{
				"box" : 				{
					"maxclass" : "textedit",
					"text" : "*",
					"patching_rect" : [ 282.0, 156.0, 98.0, 21.0 ],
					"fontsize" : 11.0,
					"presentation" : 1,
					"id" : "obj-45",
					"numoutlets" : 4,
					"outlettype" : [ "", "int", "", "" ],
					"lines" : 1,
					"fontname" : "Arial",
					"presentation_rect" : [ 139.0, 47.0, 98.0, 21.0 ],
					"numinlets" : 1
				}

			}
, 			{
				"box" : 				{
					"maxclass" : "radiogroup",
					"patching_rect" : [ 232.0, 152.0, 19.0, 34.0 ],
					"presentation" : 1,
					"id" : "obj-46",
					"numoutlets" : 1,
					"outlettype" : [ "" ],
					"presentation_rect" : [ 122.0, 28.0, 19.0, 34.0 ],
					"numinlets" : 1,
					"itemtype" : 0,
					"size" : 2,
					"value" : 0,
					"disabled" : [ 0, 0 ]
				}

			}
, 			{
				"box" : 				{
					"maxclass" : "umenu",
					"patching_rect" : [ 281.0, 124.0, 100.0, 20.0 ],
					"fontsize" : 12.0,
					"presentation" : 1,
					"id" : "obj-47",
					"numoutlets" : 3,
					"types" : [  ],
					"outlettype" : [ "int", "", "" ],
					"fontname" : "Arial",
					"presentation_rect" : [ 139.0, 27.0, 100.0, 20.0 ],
					"items" : [ ",", "myText", ",", "myFile", ",", "myTextFile", ",", "myScore", ",", "myImage", ",", "myGuidoFile", ",", "myGraph", ",", "myClock", ",", "myEllipse", ",", "myRect", ",", "myPolygon", ",", "wiiGraphX", ",", "wiiGraphY", ",", "wiiGraphZ" ],
					"numinlets" : 1
				}

			}
, 			{
				"box" : 				{
					"maxclass" : "newobj",
					"text" : "loadbang",
					"patching_rect" : [ 205.0, 24.0, 60.0, 20.0 ],
					"fontsize" : 12.0,
					"id" : "obj-48",
					"numoutlets" : 1,
					"outlettype" : [ "bang" ],
					"fontname" : "Arial",
					"numinlets" : 1
				}

			}
, 			{
				"box" : 				{
					"maxclass" : "comment",
					"text" : "Slave",
					"patching_rect" : [ 109.0, 105.0, 82.0, 20.0 ],
					"fontsize" : 12.0,
					"presentation" : 1,
					"id" : "obj-14",
					"numoutlets" : 0,
					"fontname" : "Arial",
					"presentation_rect" : [ 22.0, 6.0, 82.0, 20.0 ],
					"numinlets" : 1
				}

			}
, 			{
				"box" : 				{
					"maxclass" : "newobj",
					"text" : "sprintf /ITL/scene/sync %s %s %s %s %s",
					"patching_rect" : [ 399.0, 347.0, 231.0, 20.0 ],
					"fontsize" : 12.0,
					"id" : "obj-43",
					"numoutlets" : 1,
					"outlettype" : [ "" ],
					"fontname" : "Arial",
					"numinlets" : 5
				}

			}
, 			{
				"box" : 				{
					"maxclass" : "newobj",
					"text" : "send osc",
					"patching_rect" : [ 313.0, 445.0, 59.0, 20.0 ],
					"fontsize" : 12.0,
					"id" : "obj-41",
					"numoutlets" : 0,
					"fontname" : "Arial",
					"numinlets" : 1
				}

			}
, 			{
				"box" : 				{
					"maxclass" : "message",
					"text" : "1",
					"patching_rect" : [ 34.0, 59.0, 32.5, 18.0 ],
					"fontsize" : 11.595187,
					"id" : "obj-71",
					"numoutlets" : 1,
					"outlettype" : [ "" ],
					"fontname" : "Arial",
					"numinlets" : 2
				}

			}
, 			{
				"box" : 				{
					"maxclass" : "button",
					"patching_rect" : [ 32.0, 277.0, 20.0, 20.0 ],
					"id" : "obj-23",
					"numoutlets" : 1,
					"outlettype" : [ "bang" ],
					"numinlets" : 1
				}

			}
, 			{
				"box" : 				{
					"maxclass" : "button",
					"patching_rect" : [ 10.0, 277.0, 20.0, 20.0 ],
					"id" : "obj-25",
					"numoutlets" : 1,
					"outlettype" : [ "bang" ],
					"numinlets" : 1
				}

			}
, 			{
				"box" : 				{
					"maxclass" : "newobj",
					"text" : "select 0 1",
					"patching_rect" : [ 10.0, 248.0, 62.0, 20.0 ],
					"fontsize" : 12.0,
					"id" : "obj-27",
					"numoutlets" : 3,
					"outlettype" : [ "bang", "bang", "" ],
					"fontname" : "Arial",
					"numinlets" : 1
				}

			}
, 			{
				"box" : 				{
					"maxclass" : "button",
					"patching_rect" : [ 183.0, 183.0, 20.0, 20.0 ],
					"id" : "obj-32",
					"numoutlets" : 1,
					"outlettype" : [ "bang" ],
					"numinlets" : 1
				}

			}
, 			{
				"box" : 				{
					"maxclass" : "gswitch",
					"patching_rect" : [ 125.0, 278.0, 41.0, 32.0 ],
					"id" : "obj-33",
					"numoutlets" : 1,
					"outlettype" : [ "" ],
					"numinlets" : 3
				}

			}
, 			{
				"box" : 				{
					"maxclass" : "newobj",
					"text" : "route text",
					"patching_rect" : [ 98.0, 183.0, 61.0, 20.0 ],
					"fontsize" : 12.0,
					"id" : "obj-34",
					"numoutlets" : 2,
					"outlettype" : [ "", "" ],
					"fontname" : "Arial",
					"numinlets" : 1
				}

			}
, 			{
				"box" : 				{
					"maxclass" : "textedit",
					"text" : "*",
					"patching_rect" : [ 97.0, 157.0, 98.0, 21.0 ],
					"fontsize" : 11.0,
					"presentation" : 1,
					"id" : "obj-6",
					"numoutlets" : 4,
					"outlettype" : [ "", "int", "", "" ],
					"lines" : 1,
					"fontname" : "Arial",
					"presentation_rect" : [ 22.0, 46.0, 98.0, 21.0 ],
					"numinlets" : 1
				}

			}
, 			{
				"box" : 				{
					"maxclass" : "radiogroup",
					"patching_rect" : [ 46.0, 153.0, 19.0, 34.0 ],
					"presentation" : 1,
					"id" : "obj-7",
					"numoutlets" : 1,
					"outlettype" : [ "" ],
					"presentation_rect" : [ 5.0, 28.0, 19.0, 34.0 ],
					"numinlets" : 1,
					"itemtype" : 0,
					"size" : 2,
					"value" : 0,
					"disabled" : [ 0, 0 ]
				}

			}
, 			{
				"box" : 				{
					"maxclass" : "umenu",
					"patching_rect" : [ 95.0, 125.0, 100.0, 20.0 ],
					"fontsize" : 12.0,
					"presentation" : 1,
					"id" : "obj-8",
					"numoutlets" : 3,
					"types" : [  ],
					"outlettype" : [ "int", "", "" ],
					"fontname" : "Arial",
					"presentation_rect" : [ 22.0, 26.0, 100.0, 20.0 ],
					"items" : [ "myText", ",", "myFile", ",", "myTextFile", ",", "myScore", ",", "myImage", ",", "myGuidoFile", ",", "myGraph", ",", "myClock", ",", "myEllipse", ",", "myRect", ",", "myPolygon", ",", "wiiGraphX", ",", "wiiGraphY", ",", "wiiGraphZ" ],
					"numinlets" : 1
				}

			}
, 			{
				"box" : 				{
					"maxclass" : "newobj",
					"text" : "loadbang",
					"patching_rect" : [ 19.0, 25.0, 60.0, 20.0 ],
					"fontsize" : 12.0,
					"id" : "obj-28",
					"numoutlets" : 1,
					"outlettype" : [ "bang" ],
					"fontname" : "Arial",
					"numinlets" : 1
				}

			}
, 			{
				"box" : 				{
					"maxclass" : "panel",
					"patching_rect" : [ 33.0, 86.0, 707.0, 122.0 ],
					"presentation" : 1,
					"id" : "obj-50",
					"numoutlets" : 0,
					"rounded" : 24,
					"bgcolor" : [ 0.992157, 0.905882, 0.65098, 1.0 ],
					"presentation_rect" : [ 4.0, 4.0, 544.0, 65.0 ],
					"numinlets" : 1
				}

			}
 ],
		"lines" : [ 			{
				"patchline" : 				{
					"source" : [ "obj-18", 0 ],
					"destination" : [ "obj-41", 0 ],
					"hidden" : 0,
					"midpoints" : [ 83.5, 441.0, 322.5, 441.0 ]
				}

			}
, 			{
				"patchline" : 				{
					"source" : [ "obj-33", 0 ],
					"destination" : [ "obj-19", 0 ],
					"hidden" : 0,
					"midpoints" : [  ]
				}

			}
, 			{
				"patchline" : 				{
					"source" : [ "obj-16", 1 ],
					"destination" : [ "obj-19", 0 ],
					"hidden" : 0,
					"midpoints" : [ 54.5, 382.0, 75.0, 382.0, 75.0, 350.0, 102.5, 350.0 ]
				}

			}
, 			{
				"patchline" : 				{
					"source" : [ "obj-19", 0 ],
					"destination" : [ "obj-18", 1 ],
					"hidden" : 0,
					"midpoints" : [  ]
				}

			}
, 			{
				"patchline" : 				{
					"source" : [ "obj-16", 0 ],
					"destination" : [ "obj-18", 0 ],
					"hidden" : 0,
					"midpoints" : [ 39.5, 389.0, 83.5, 389.0 ]
				}

			}
, 			{
				"patchline" : 				{
					"source" : [ "obj-17", 0 ],
					"destination" : [ "obj-16", 0 ],
					"hidden" : 0,
					"midpoints" : [  ]
				}

			}
, 			{
				"patchline" : 				{
					"source" : [ "obj-60", 0 ],
					"destination" : [ "obj-1", 0 ],
					"hidden" : 0,
					"midpoints" : [  ]
				}

			}
, 			{
				"patchline" : 				{
					"source" : [ "obj-1", 1 ],
					"destination" : [ "obj-43", 0 ],
					"hidden" : 0,
					"midpoints" : [ 360.5, 402.0, 381.0, 402.0, 381.0, 342.0, 408.5, 342.0 ]
				}

			}
, 			{
				"patchline" : 				{
					"source" : [ "obj-1", 0 ],
					"destination" : [ "obj-58", 0 ],
					"hidden" : 0,
					"midpoints" : [ 345.5, 409.0, 388.5, 409.0 ]
				}

			}
, 			{
				"patchline" : 				{
					"source" : [ "obj-58", 0 ],
					"destination" : [ "obj-41", 0 ],
					"hidden" : 0,
					"midpoints" : [ 388.5, 435.0, 324.0, 435.0, 324.0, 441.0, 322.5, 441.0 ]
				}

			}
, 			{
				"patchline" : 				{
					"source" : [ "obj-53", 0 ],
					"destination" : [ "obj-52", 0 ],
					"hidden" : 0,
					"midpoints" : [ 551.5, 82.0, 622.0, 82.0, 622.0, 118.0, 641.5, 118.0 ]
				}

			}
, 			{
				"patchline" : 				{
					"source" : [ "obj-53", 0 ],
					"destination" : [ "obj-51", 0 ],
					"hidden" : 0,
					"midpoints" : [ 551.5, 82.0, 526.0, 82.0, 526.0, 121.0, 535.5, 121.0 ]
				}

			}
, 			{
				"patchline" : 				{
					"source" : [ "obj-53", 0 ],
					"destination" : [ "obj-49", 0 ],
					"hidden" : 0,
					"midpoints" : [ 551.5, 82.0, 511.0, 82.0, 511.0, 118.0, 428.5, 118.0 ]
				}

			}
, 			{
				"patchline" : 				{
					"source" : [ "obj-54", 0 ],
					"destination" : [ "obj-53", 0 ],
					"hidden" : 0,
					"midpoints" : [ 536.5, 55.0, 551.5, 55.0 ]
				}

			}
, 			{
				"patchline" : 				{
					"source" : [ "obj-48", 0 ],
					"destination" : [ "obj-36", 0 ],
					"hidden" : 0,
					"midpoints" : [ 214.5, 51.0, 229.5, 51.0 ]
				}

			}
, 			{
				"patchline" : 				{
					"source" : [ "obj-48", 0 ],
					"destination" : [ "obj-46", 0 ],
					"hidden" : 0,
					"midpoints" : [ 214.5, 137.0, 241.5, 137.0 ]
				}

			}
, 			{
				"patchline" : 				{
					"source" : [ "obj-37", 0 ],
					"destination" : [ "obj-45", 0 ],
					"hidden" : 0,
					"midpoints" : [ 227.5, 322.0, 259.0, 322.0, 259.0, 256.0, 273.0, 256.0, 273.0, 151.0, 291.5, 151.0 ]
				}

			}
, 			{
				"patchline" : 				{
					"source" : [ "obj-39", 1 ],
					"destination" : [ "obj-37", 0 ],
					"hidden" : 0,
					"midpoints" : [  ]
				}

			}
, 			{
				"patchline" : 				{
					"source" : [ "obj-46", 0 ],
					"destination" : [ "obj-39", 0 ],
					"hidden" : 0,
					"midpoints" : [ 241.5, 232.0, 205.5, 232.0 ]
				}

			}
, 			{
				"patchline" : 				{
					"source" : [ "obj-39", 0 ],
					"destination" : [ "obj-38", 0 ],
					"hidden" : 0,
					"midpoints" : [  ]
				}

			}
, 			{
				"patchline" : 				{
					"source" : [ "obj-40", 0 ],
					"destination" : [ "obj-45", 0 ],
					"hidden" : 0,
					"midpoints" : [ 375.5, 214.0, 268.0, 214.0, 268.0, 151.0, 291.5, 151.0 ]
				}

			}
, 			{
				"patchline" : 				{
					"source" : [ "obj-45", 3 ],
					"destination" : [ "obj-40", 0 ],
					"hidden" : 0,
					"midpoints" : [ 370.5, 177.0, 375.5, 177.0 ]
				}

			}
, 			{
				"patchline" : 				{
					"source" : [ "obj-44", 0 ],
					"destination" : [ "obj-42", 2 ],
					"hidden" : 0,
					"midpoints" : [ 293.5, 224.0, 342.5, 224.0 ]
				}

			}
, 			{
				"patchline" : 				{
					"source" : [ "obj-46", 0 ],
					"destination" : [ "obj-42", 0 ],
					"hidden" : 0,
					"midpoints" : [ 241.5, 232.0, 320.5, 232.0 ]
				}

			}
, 			{
				"patchline" : 				{
					"source" : [ "obj-45", 0 ],
					"destination" : [ "obj-44", 0 ],
					"hidden" : 0,
					"midpoints" : [  ]
				}

			}
, 			{
				"patchline" : 				{
					"source" : [ "obj-47", 1 ],
					"destination" : [ "obj-42", 1 ],
					"hidden" : 0,
					"midpoints" : [ 331.0, 145.0, 268.0, 145.0, 268.0, 228.0, 331.5, 228.0 ]
				}

			}
, 			{
				"patchline" : 				{
					"source" : [ "obj-38", 0 ],
					"destination" : [ "obj-47", 0 ],
					"hidden" : 0,
					"midpoints" : [ 205.5, 307.0, 269.0, 307.0, 269.0, 256.0, 268.0, 256.0, 268.0, 121.0, 290.5, 121.0 ]
				}

			}
, 			{
				"patchline" : 				{
					"source" : [ "obj-36", 0 ],
					"destination" : [ "obj-47", 0 ],
					"hidden" : 0,
					"midpoints" : [ 229.5, 109.0, 290.5, 109.0 ]
				}

			}
, 			{
				"patchline" : 				{
					"source" : [ "obj-71", 0 ],
					"destination" : [ "obj-8", 0 ],
					"hidden" : 0,
					"midpoints" : [ 43.5, 110.0, 104.5, 110.0 ]
				}

			}
, 			{
				"patchline" : 				{
					"source" : [ "obj-25", 0 ],
					"destination" : [ "obj-8", 0 ],
					"hidden" : 0,
					"midpoints" : [ 19.5, 308.0, 83.0, 308.0, 83.0, 257.0, 82.0, 257.0, 82.0, 122.0, 104.5, 122.0 ]
				}

			}
, 			{
				"patchline" : 				{
					"source" : [ "obj-8", 1 ],
					"destination" : [ "obj-33", 1 ],
					"hidden" : 0,
					"midpoints" : [ 145.0, 146.0, 82.0, 146.0, 82.0, 229.0, 145.5, 229.0 ]
				}

			}
, 			{
				"patchline" : 				{
					"source" : [ "obj-6", 0 ],
					"destination" : [ "obj-34", 0 ],
					"hidden" : 0,
					"midpoints" : [  ]
				}

			}
, 			{
				"patchline" : 				{
					"source" : [ "obj-7", 0 ],
					"destination" : [ "obj-33", 0 ],
					"hidden" : 0,
					"midpoints" : [ 55.5, 233.0, 134.5, 233.0 ]
				}

			}
, 			{
				"patchline" : 				{
					"source" : [ "obj-34", 0 ],
					"destination" : [ "obj-33", 2 ],
					"hidden" : 0,
					"midpoints" : [ 107.5, 225.0, 156.5, 225.0 ]
				}

			}
, 			{
				"patchline" : 				{
					"source" : [ "obj-6", 3 ],
					"destination" : [ "obj-32", 0 ],
					"hidden" : 0,
					"midpoints" : [ 185.5, 180.0, 192.5, 180.0 ]
				}

			}
, 			{
				"patchline" : 				{
					"source" : [ "obj-32", 0 ],
					"destination" : [ "obj-6", 0 ],
					"hidden" : 0,
					"midpoints" : [ 192.5, 215.0, 82.0, 215.0, 82.0, 152.0, 106.5, 152.0 ]
				}

			}
, 			{
				"patchline" : 				{
					"source" : [ "obj-27", 0 ],
					"destination" : [ "obj-25", 0 ],
					"hidden" : 0,
					"midpoints" : [  ]
				}

			}
, 			{
				"patchline" : 				{
					"source" : [ "obj-7", 0 ],
					"destination" : [ "obj-27", 0 ],
					"hidden" : 0,
					"midpoints" : [ 55.5, 233.0, 19.5, 233.0 ]
				}

			}
, 			{
				"patchline" : 				{
					"source" : [ "obj-27", 1 ],
					"destination" : [ "obj-23", 0 ],
					"hidden" : 0,
					"midpoints" : [  ]
				}

			}
, 			{
				"patchline" : 				{
					"source" : [ "obj-23", 0 ],
					"destination" : [ "obj-6", 0 ],
					"hidden" : 0,
					"midpoints" : [ 41.5, 302.0, 73.0, 302.0, 73.0, 257.0, 87.0, 257.0, 87.0, 152.0, 106.5, 152.0 ]
				}

			}
, 			{
				"patchline" : 				{
					"source" : [ "obj-28", 0 ],
					"destination" : [ "obj-7", 0 ],
					"hidden" : 0,
					"midpoints" : [ 28.5, 138.0, 55.5, 138.0 ]
				}

			}
, 			{
				"patchline" : 				{
					"source" : [ "obj-28", 0 ],
					"destination" : [ "obj-71", 0 ],
					"hidden" : 0,
					"midpoints" : [ 28.5, 52.0, 43.5, 52.0 ]
				}

			}
, 			{
				"patchline" : 				{
					"source" : [ "obj-43", 0 ],
					"destination" : [ "obj-58", 1 ],
					"hidden" : 0,
					"midpoints" : [  ]
				}

			}
, 			{
				"patchline" : 				{
					"source" : [ "obj-51", 1 ],
					"destination" : [ "obj-43", 3 ],
					"hidden" : 0,
					"midpoints" : [ 576.0, 333.0, 567.5, 333.0 ]
				}

			}
, 			{
				"patchline" : 				{
					"source" : [ "obj-49", 1 ],
					"destination" : [ "obj-43", 2 ],
					"hidden" : 0,
					"midpoints" : [ 469.0, 330.0, 514.5, 330.0 ]
				}

			}
, 			{
				"patchline" : 				{
					"source" : [ "obj-42", 0 ],
					"destination" : [ "obj-43", 1 ],
					"hidden" : 0,
					"midpoints" : [ 320.5, 336.0, 461.5, 336.0 ]
				}

			}
, 			{
				"patchline" : 				{
					"source" : [ "obj-33", 0 ],
					"destination" : [ "obj-43", 0 ],
					"hidden" : 0,
					"midpoints" : [ 134.5, 340.0, 408.5, 340.0 ]
				}

			}
, 			{
				"patchline" : 				{
					"source" : [ "obj-52", 1 ],
					"destination" : [ "obj-43", 4 ],
					"hidden" : 0,
					"midpoints" : [ 682.0, 333.0, 620.5, 333.0 ]
				}

			}
, 			{
				"patchline" : 				{
					"source" : [ "obj-49", 0 ],
					"destination" : [ "obj-12", 0 ],
					"hidden" : 0,
					"midpoints" : [ 428.5, 246.0, 499.5, 246.0 ]
				}

			}
, 			{
				"patchline" : 				{
					"source" : [ "obj-4", 0 ],
					"destination" : [ "obj-43", 2 ],
					"hidden" : 0,
					"midpoints" : [  ]
				}

			}
, 			{
				"patchline" : 				{
					"source" : [ "obj-12", 0 ],
					"destination" : [ "obj-4", 0 ],
					"hidden" : 0,
					"midpoints" : [  ]
				}

			}
, 			{
				"patchline" : 				{
					"source" : [ "obj-9", 0 ],
					"destination" : [ "obj-5", 0 ],
					"hidden" : 0,
					"midpoints" : [  ]
				}

			}
, 			{
				"patchline" : 				{
					"source" : [ "obj-11", 0 ],
					"destination" : [ "obj-10", 0 ],
					"hidden" : 0,
					"midpoints" : [  ]
				}

			}
, 			{
				"patchline" : 				{
					"source" : [ "obj-15", 0 ],
					"destination" : [ "obj-13", 0 ],
					"hidden" : 0,
					"midpoints" : [  ]
				}

			}
, 			{
				"patchline" : 				{
					"source" : [ "obj-13", 0 ],
					"destination" : [ "obj-43", 4 ],
					"hidden" : 0,
					"midpoints" : [  ]
				}

			}
, 			{
				"patchline" : 				{
					"source" : [ "obj-10", 0 ],
					"destination" : [ "obj-43", 3 ],
					"hidden" : 0,
					"midpoints" : [  ]
				}

			}
, 			{
				"patchline" : 				{
					"source" : [ "obj-5", 0 ],
					"destination" : [ "obj-43", 1 ],
					"hidden" : 0,
					"midpoints" : [  ]
				}

			}
, 			{
				"patchline" : 				{
					"source" : [ "obj-47", 0 ],
					"destination" : [ "obj-9", 0 ],
					"hidden" : 0,
					"midpoints" : [ 290.5, 148.0, 411.5, 148.0 ]
				}

			}
, 			{
				"patchline" : 				{
					"source" : [ "obj-51", 0 ],
					"destination" : [ "obj-11", 0 ],
					"hidden" : 0,
					"midpoints" : [ 535.5, 243.0, 592.5, 243.0 ]
				}

			}
, 			{
				"patchline" : 				{
					"source" : [ "obj-52", 0 ],
					"destination" : [ "obj-15", 0 ],
					"hidden" : 0,
					"midpoints" : [ 641.5, 243.0, 701.5, 243.0 ]
				}

			}
 ]
	}

}
