{
	"patcher" : 	{
		"fileversion" : 1,
		"rect" : [ 10.0, 55.0, 862.0, 504.0 ],
		"bglocked" : 0,
		"defrect" : [ 10.0, 55.0, 862.0, 504.0 ],
		"openrect" : [ 10.0, 55.0, 255.0, 157.0 ],
		"openinpresentation" : 1,
		"default_fontsize" : 12.0,
		"default_fontface" : 0,
		"default_fontname" : "Arial",
		"gridonopen" : 0,
		"gridsize" : [ 15.0, 15.0 ],
		"gridsnaponopen" : 0,
		"toolbarvisible" : 1,
		"boxanimatetime" : 200,
		"imprint" : 0,
		"enablehscroll" : 1,
		"enablevscroll" : 1,
		"devicewidth" : 0.0,
		"boxes" : [ 			{
				"box" : 				{
					"maxclass" : "newobj",
					"text" : "prepend /ITL rootPath",
					"outlettype" : [ "" ],
					"patching_rect" : [ 520.0, 173.0, 127.0, 20.0 ],
					"fontsize" : 12.0,
					"id" : "obj-3",
					"numinlets" : 1,
					"numoutlets" : 1,
					"fontname" : "Arial"
				}

			}
, 			{
				"box" : 				{
					"maxclass" : "newobj",
					"text" : "conformpath native boot",
					"outlettype" : [ "", "int" ],
					"patching_rect" : [ 520.0, 149.0, 139.0, 20.0 ],
					"fontsize" : 12.0,
					"id" : "obj-7",
					"numinlets" : 1,
					"numoutlets" : 2,
					"fontname" : "Arial"
				}

			}
, 			{
				"box" : 				{
					"maxclass" : "comment",
					"text" : "Zoom out",
					"presentation_rect" : [ 133.0, 42.0, 76.0, 23.0 ],
					"fontface" : 1,
					"patching_rect" : [ 348.0, 257.0, 74.0, 23.0 ],
					"fontsize" : 14.0,
					"presentation" : 1,
					"id" : "obj-26",
					"numinlets" : 1,
					"numoutlets" : 0,
					"fontname" : "Arial"
				}

			}
, 			{
				"box" : 				{
					"maxclass" : "comment",
					"text" : "Zoom in",
					"presentation_rect" : [ 145.0, 18.0, 65.0, 23.0 ],
					"fontface" : 1,
					"patching_rect" : [ 429.0, 257.0, 70.0, 23.0 ],
					"fontsize" : 14.0,
					"presentation" : 1,
					"id" : "obj-25",
					"numinlets" : 1,
					"numoutlets" : 0,
					"fontname" : "Arial"
				}

			}
, 			{
				"box" : 				{
					"maxclass" : "comment",
					"text" : "Rotate",
					"presentation_rect" : [ 17.0, 15.0, 52.0, 23.0 ],
					"fontface" : 1,
					"patching_rect" : [ 229.0, 244.0, 62.0, 23.0 ],
					"fontsize" : 14.0,
					"presentation" : 1,
					"id" : "obj-24",
					"numinlets" : 1,
					"numoutlets" : 0,
					"fontname" : "Arial"
				}

			}
, 			{
				"box" : 				{
					"maxclass" : "button",
					"presentation_rect" : [ 217.0, 20.0, 20.0, 20.0 ],
					"outlettype" : [ "bang" ],
					"patching_rect" : [ 438.0, 293.0, 20.0, 20.0 ],
					"presentation" : 1,
					"id" : "obj-19",
					"numinlets" : 1,
					"numoutlets" : 1
				}

			}
, 			{
				"box" : 				{
					"maxclass" : "message",
					"text" : "1.1",
					"outlettype" : [ "" ],
					"patching_rect" : [ 438.0, 334.0, 32.5, 18.0 ],
					"fontsize" : 12.0,
					"id" : "obj-20",
					"numinlets" : 2,
					"numoutlets" : 1,
					"fontname" : "Arial"
				}

			}
, 			{
				"box" : 				{
					"maxclass" : "newobj",
					"text" : "prepend /ITL/scene/* dscale",
					"outlettype" : [ "" ],
					"patching_rect" : [ 394.0, 360.0, 160.0, 20.0 ],
					"fontsize" : 12.0,
					"id" : "obj-18",
					"numinlets" : 1,
					"numoutlets" : 1,
					"fontname" : "Arial"
				}

			}
, 			{
				"box" : 				{
					"maxclass" : "button",
					"presentation_rect" : [ 217.0, 44.0, 20.0, 20.0 ],
					"outlettype" : [ "bang" ],
					"patching_rect" : [ 394.0, 293.0, 20.0, 20.0 ],
					"presentation" : 1,
					"id" : "obj-17",
					"numinlets" : 1,
					"numoutlets" : 1
				}

			}
, 			{
				"box" : 				{
					"maxclass" : "newobj",
					"text" : "s scene",
					"patching_rect" : [ 394.0, 396.0, 52.0, 20.0 ],
					"fontsize" : 12.0,
					"id" : "obj-8",
					"numinlets" : 1,
					"numoutlets" : 0,
					"fontname" : "Arial"
				}

			}
, 			{
				"box" : 				{
					"maxclass" : "message",
					"text" : "0.9",
					"outlettype" : [ "" ],
					"patching_rect" : [ 394.0, 333.0, 32.5, 18.0 ],
					"fontsize" : 12.0,
					"id" : "obj-10",
					"numinlets" : 2,
					"numoutlets" : 1,
					"fontname" : "Arial"
				}

			}
, 			{
				"box" : 				{
					"maxclass" : "message",
					"text" : "0",
					"presentation_rect" : [ 20.0, 41.0, 32.5, 18.0 ],
					"outlettype" : [ "" ],
					"patching_rect" : [ 226.0, 287.0, 32.5, 18.0 ],
					"fontsize" : 12.0,
					"presentation" : 1,
					"id" : "obj-6",
					"numinlets" : 2,
					"numoutlets" : 1,
					"fontname" : "Arial"
				}

			}
, 			{
				"box" : 				{
					"maxclass" : "newobj",
					"text" : "s scene",
					"patching_rect" : [ 226.0, 388.0, 52.0, 20.0 ],
					"fontsize" : 12.0,
					"id" : "obj-5",
					"numinlets" : 1,
					"numoutlets" : 0,
					"fontname" : "Arial"
				}

			}
, 			{
				"box" : 				{
					"maxclass" : "message",
					"text" : "/ITL/scene/* angle $1",
					"outlettype" : [ "" ],
					"patching_rect" : [ 226.0, 362.0, 124.0, 18.0 ],
					"fontsize" : 12.0,
					"id" : "obj-4",
					"numinlets" : 2,
					"numoutlets" : 1,
					"fontname" : "Arial"
				}

			}
, 			{
				"box" : 				{
					"maxclass" : "dial",
					"floatoutput" : 1,
					"presentation_rect" : [ 20.0, 66.0, 40.0, 40.0 ],
					"outlettype" : [ "float" ],
					"size" : 360.0,
					"patching_rect" : [ 226.0, 312.0, 40.0, 40.0 ],
					"presentation" : 1,
					"id" : "obj-1",
					"degrees" : 360,
					"numinlets" : 1,
					"numoutlets" : 1,
					"clip" : 0
				}

			}
, 			{
				"box" : 				{
					"maxclass" : "comment",
					"text" : "This patch loads the 'scene.inscore' file and provides basic interaction.",
					"linecount" : 4,
					"presentation_linecount" : 3,
					"presentation_rect" : [ 77.0, 92.0, 164.0, 51.0 ],
					"patching_rect" : [ 18.0, 218.0, 146.0, 66.0 ],
					"fontsize" : 13.0,
					"presentation" : 1,
					"id" : "obj-2",
					"textcolor" : [ 0.282353, 0.282353, 0.282353, 1.0 ],
					"frgb" : [ 0.282353, 0.282353, 0.282353, 1.0 ],
					"numinlets" : 1,
					"numoutlets" : 0,
					"fontname" : "Arial"
				}

			}
, 			{
				"box" : 				{
					"maxclass" : "message",
					"text" : "path",
					"outlettype" : [ "" ],
					"patching_rect" : [ 586.0, 96.0, 34.0, 18.0 ],
					"fontsize" : 12.0,
					"id" : "obj-21",
					"numinlets" : 2,
					"numoutlets" : 1,
					"fontname" : "Arial"
				}

			}
, 			{
				"box" : 				{
					"maxclass" : "newobj",
					"text" : "thispatcher",
					"outlettype" : [ "", "" ],
					"patching_rect" : [ 586.0, 121.0, 69.0, 20.0 ],
					"fontsize" : 12.0,
					"id" : "obj-22",
					"numinlets" : 1,
					"numoutlets" : 2,
					"fontname" : "Arial",
					"save" : [ "#N", "thispatcher", ";", "#Q", "end", ";" ]
				}

			}
, 			{
				"box" : 				{
					"maxclass" : "comment",
					"text" : "Initialization",
					"fontface" : 1,
					"patching_rect" : [ 503.0, 35.0, 91.0, 23.0 ],
					"fontsize" : 14.0,
					"id" : "obj-32",
					"numinlets" : 1,
					"numoutlets" : 0,
					"fontname" : "Arial"
				}

			}
, 			{
				"box" : 				{
					"maxclass" : "message",
					"text" : "/ITL load scene.inscore",
					"outlettype" : [ "" ],
					"patching_rect" : [ 438.0, 91.0, 134.0, 18.0 ],
					"fontsize" : 12.0,
					"id" : "obj-50",
					"numinlets" : 2,
					"numoutlets" : 1,
					"fontname" : "Arial"
				}

			}
, 			{
				"box" : 				{
					"maxclass" : "comment",
					"text" : "reload",
					"presentation_rect" : [ 83.0, 45.0, 41.0, 18.0 ],
					"patching_rect" : [ 393.0, 59.0, 41.0, 18.0 ],
					"fontsize" : 10.0,
					"presentation" : 1,
					"id" : "obj-46",
					"numinlets" : 1,
					"numoutlets" : 0,
					"fontname" : "Arial"
				}

			}
, 			{
				"box" : 				{
					"maxclass" : "button",
					"presentation_rect" : [ 90.0, 19.0, 20.0, 20.0 ],
					"outlettype" : [ "bang" ],
					"patching_rect" : [ 400.0, 33.0, 20.0, 20.0 ],
					"presentation" : 1,
					"id" : "obj-45",
					"numinlets" : 1,
					"numoutlets" : 1
				}

			}
, 			{
				"box" : 				{
					"maxclass" : "newobj",
					"text" : "s scene",
					"patching_rect" : [ 438.0, 178.0, 52.0, 20.0 ],
					"fontsize" : 12.0,
					"id" : "obj-48",
					"numinlets" : 1,
					"numoutlets" : 0,
					"fontname" : "Arial"
				}

			}
, 			{
				"box" : 				{
					"maxclass" : "newobj",
					"text" : "t b b b b",
					"outlettype" : [ "bang", "bang", "bang", "bang" ],
					"patching_rect" : [ 438.0, 62.0, 59.5, 20.0 ],
					"fontsize" : 12.0,
					"id" : "obj-33",
					"numinlets" : 1,
					"numoutlets" : 4,
					"fontname" : "Arial"
				}

			}
, 			{
				"box" : 				{
					"maxclass" : "newobj",
					"text" : "loadbang",
					"outlettype" : [ "bang" ],
					"patching_rect" : [ 438.0, 33.0, 60.0, 20.0 ],
					"fontsize" : 12.0,
					"id" : "obj-57",
					"numinlets" : 1,
					"numoutlets" : 1,
					"fontname" : "Arial"
				}

			}
, 			{
				"box" : 				{
					"maxclass" : "panel",
					"bgcolor" : [ 0.878431, 0.94902, 0.839216, 1.0 ],
					"patching_rect" : [ 384.0, 27.0, 281.0, 177.0 ],
					"id" : "obj-31",
					"numinlets" : 1,
					"numoutlets" : 0
				}

			}
, 			{
				"box" : 				{
					"maxclass" : "comment",
					"text" : "Communication avec OSC",
					"fontface" : 1,
					"patching_rect" : [ 32.0, 24.0, 189.0, 23.0 ],
					"fontsize" : 14.0,
					"id" : "obj-9",
					"numinlets" : 1,
					"numoutlets" : 0,
					"fontname" : "Arial"
				}

			}
, 			{
				"box" : 				{
					"maxclass" : "newobj",
					"text" : "print",
					"patching_rect" : [ 270.0, 73.0, 34.0, 20.0 ],
					"fontsize" : 12.0,
					"id" : "obj-13",
					"numinlets" : 1,
					"numoutlets" : 0,
					"fontname" : "Arial"
				}

			}
, 			{
				"box" : 				{
					"maxclass" : "newobj",
					"text" : "print ITL",
					"patching_rect" : [ 210.0, 166.0, 55.0, 20.0 ],
					"fontsize" : 12.0,
					"id" : "obj-14",
					"numinlets" : 1,
					"numoutlets" : 0,
					"fontname" : "Arial"
				}

			}
, 			{
				"box" : 				{
					"maxclass" : "newobj",
					"text" : "print ITLOut",
					"patching_rect" : [ 70.0, 165.0, 74.0, 20.0 ],
					"fontsize" : 12.0,
					"id" : "obj-15",
					"numinlets" : 1,
					"numoutlets" : 0,
					"fontname" : "Arial"
				}

			}
, 			{
				"box" : 				{
					"maxclass" : "newobj",
					"text" : "udpreceive 7002",
					"outlettype" : [ "" ],
					"patching_rect" : [ 210.0, 135.0, 99.0, 20.0 ],
					"fontsize" : 12.0,
					"id" : "obj-28",
					"numinlets" : 1,
					"numoutlets" : 1,
					"fontname" : "Arial"
				}

			}
, 			{
				"box" : 				{
					"maxclass" : "newobj",
					"text" : "udpreceive 7001",
					"outlettype" : [ "" ],
					"patching_rect" : [ 70.0, 132.0, 99.0, 20.0 ],
					"fontsize" : 12.0,
					"id" : "obj-34",
					"numinlets" : 1,
					"numoutlets" : 1,
					"fontname" : "Arial"
				}

			}
, 			{
				"box" : 				{
					"maxclass" : "newobj",
					"text" : "r scene",
					"outlettype" : [ "" ],
					"patching_rect" : [ 70.0, 54.0, 50.0, 20.0 ],
					"fontsize" : 12.0,
					"id" : "obj-37",
					"numinlets" : 0,
					"numoutlets" : 1,
					"fontname" : "Arial"
				}

			}
, 			{
				"box" : 				{
					"maxclass" : "newobj",
					"text" : "udpsend 127.0.0.1 7000",
					"patching_rect" : [ 70.0, 94.0, 136.0, 20.0 ],
					"fontsize" : 11.595187,
					"id" : "obj-38",
					"numinlets" : 1,
					"numoutlets" : 0,
					"fontname" : "Arial"
				}

			}
, 			{
				"box" : 				{
					"maxclass" : "panel",
					"bgcolor" : [ 0.878431, 0.94902, 0.839216, 1.0 ],
					"patching_rect" : [ 17.0, 14.0, 335.0, 193.0 ],
					"id" : "obj-47",
					"numinlets" : 1,
					"numoutlets" : 0
				}

			}
 ],
		"lines" : [ 			{
				"patchline" : 				{
					"source" : [ "obj-20", 0 ],
					"destination" : [ "obj-18", 0 ],
					"hidden" : 0,
					"midpoints" : [ 447.5, 355.5, 403.5, 355.5 ]
				}

			}
, 			{
				"patchline" : 				{
					"source" : [ "obj-19", 0 ],
					"destination" : [ "obj-20", 0 ],
					"hidden" : 0,
					"midpoints" : [  ]
				}

			}
, 			{
				"patchline" : 				{
					"source" : [ "obj-18", 0 ],
					"destination" : [ "obj-8", 0 ],
					"hidden" : 0,
					"midpoints" : [  ]
				}

			}
, 			{
				"patchline" : 				{
					"source" : [ "obj-10", 0 ],
					"destination" : [ "obj-18", 0 ],
					"hidden" : 0,
					"midpoints" : [  ]
				}

			}
, 			{
				"patchline" : 				{
					"source" : [ "obj-17", 0 ],
					"destination" : [ "obj-10", 0 ],
					"hidden" : 0,
					"midpoints" : [  ]
				}

			}
, 			{
				"patchline" : 				{
					"source" : [ "obj-6", 0 ],
					"destination" : [ "obj-1", 0 ],
					"hidden" : 0,
					"midpoints" : [  ]
				}

			}
, 			{
				"patchline" : 				{
					"source" : [ "obj-4", 0 ],
					"destination" : [ "obj-5", 0 ],
					"hidden" : 0,
					"midpoints" : [  ]
				}

			}
, 			{
				"patchline" : 				{
					"source" : [ "obj-1", 0 ],
					"destination" : [ "obj-4", 0 ],
					"hidden" : 0,
					"midpoints" : [  ]
				}

			}
, 			{
				"patchline" : 				{
					"source" : [ "obj-37", 0 ],
					"destination" : [ "obj-38", 0 ],
					"hidden" : 0,
					"midpoints" : [  ]
				}

			}
, 			{
				"patchline" : 				{
					"source" : [ "obj-50", 0 ],
					"destination" : [ "obj-48", 0 ],
					"hidden" : 0,
					"midpoints" : [ 447.5, 144.0, 447.5, 144.0 ]
				}

			}
, 			{
				"patchline" : 				{
					"source" : [ "obj-33", 0 ],
					"destination" : [ "obj-50", 0 ],
					"hidden" : 0,
					"midpoints" : [ 447.5, 84.0, 447.5, 84.0 ]
				}

			}
, 			{
				"patchline" : 				{
					"source" : [ "obj-57", 0 ],
					"destination" : [ "obj-33", 0 ],
					"hidden" : 0,
					"midpoints" : [  ]
				}

			}
, 			{
				"patchline" : 				{
					"source" : [ "obj-45", 0 ],
					"destination" : [ "obj-33", 0 ],
					"hidden" : 0,
					"midpoints" : [ 409.5, 55.0, 447.5, 55.0 ]
				}

			}
, 			{
				"patchline" : 				{
					"source" : [ "obj-34", 0 ],
					"destination" : [ "obj-15", 0 ],
					"hidden" : 0,
					"midpoints" : [  ]
				}

			}
, 			{
				"patchline" : 				{
					"source" : [ "obj-28", 0 ],
					"destination" : [ "obj-14", 0 ],
					"hidden" : 0,
					"midpoints" : [  ]
				}

			}
, 			{
				"patchline" : 				{
					"source" : [ "obj-21", 0 ],
					"destination" : [ "obj-22", 0 ],
					"hidden" : 0,
					"midpoints" : [  ]
				}

			}
, 			{
				"patchline" : 				{
					"source" : [ "obj-33", 3 ],
					"destination" : [ "obj-21", 0 ],
					"hidden" : 0,
					"midpoints" : [ 488.0, 84.0, 595.5, 84.0 ]
				}

			}
, 			{
				"patchline" : 				{
					"source" : [ "obj-7", 0 ],
					"destination" : [ "obj-3", 0 ],
					"hidden" : 0,
					"midpoints" : [  ]
				}

			}
, 			{
				"patchline" : 				{
					"source" : [ "obj-22", 1 ],
					"destination" : [ "obj-7", 0 ],
					"hidden" : 0,
					"midpoints" : [ 645.5, 144.5, 529.5, 144.5 ]
				}

			}
, 			{
				"patchline" : 				{
					"source" : [ "obj-3", 0 ],
					"destination" : [ "obj-48", 0 ],
					"hidden" : 0,
					"midpoints" : [ 529.5, 198.0, 494.5, 198.0, 494.5, 171.0, 447.5, 171.0 ]
				}

			}
 ]
	}

}
