#N canvas 324 213 1169 685 12;
#X obj 386 107 adc~ 1;
#X text 383 84 micro guitare;
#X obj 441 237 abc_meter;
#X obj 586 252 tgl 50 0 empty empty DSP_ON_OFF 0 -10 0 14 -4034 -1
-1 1 1;
#X msg 586 307 \; pd dsp \$1 \;;
#X obj 208 477 dac~;
#X obj 149 504 abc_meter;
#X obj 284 506 abc_meter;
#X obj 158 325 r toMT;
#N canvas 0 55 1680 820 initialisation 0;
#X obj 83 25 inlet;
#X text 579 433 feedbacks delays;
#X text 424 430 durées delays (msec);
#X text 731 434 transpositions (midicents;
#X text 919 435 pitchshifters vs delays;
#X text 1139 432 input levels;
#X text 1308 434 output levels;
#X text 102 332 general controls;
#X text 261 528 spatialization controls;
#X text 1437 131 reinjection matrix;
#X obj 83 66 t b b b b b b b b b;
#X msg 274 162 \; toMT sp119 1 \; toMT sp137 1 \; toMT sp157 1 \; toMT
sp-23 1 \; toMT sp-80 1 \; toMT sp-47 1 \; toMT sp116 1 \; toMT sp100
1 \; toMT sp-16 1 \; toMT sp-19 0 \; toMT sp-21 0 \; toMT sp-40 0 \;
toMT sp-63 0 \; toMT sp-81 0 \; toMT sp-99 0 \; toMT sp117 0 \; toMT
rotfreq3 0 \; toMT rotfreq2 0.8 \; toMT rotfreq1 -0.4 \; toMT rotfreq0
0.3 \; toMT rotphase3 0 \; toMT rotphase2 0 \; toMT rotphase1 0 \;
toMT rotphase0 0 \;;
#X msg 448 163 \; toMT d-0 300 \; toMT d-1 425 \; toMT d-2 800 \; toMT
d-3 925 \; toMT d-4 1300 \; toMT d-5 1800 \; toMT d-6 2050 \; toMT
d-7 2300 \; toMT d-8 200 \; toMT d-9 500 \; toMT d10 600 \; toMT d11
1000 \; toMT d12 3000 \; toMT d13 2500 \; toMT d14 700 \; toMT d15
300 \;;
#X msg 582 164 \; toMT fd-0 0.8 \; toMT fd-1 0.9 \; toMT fd-2 0.9 \;
toMT fd-3 0.9 \; toMT fd-4 0.9 \; toMT fd-5 0.9 \; toMT fd-6 0.9 \;
toMT fd-7 0.9 \; toMT fd-8 0.5 \; toMT fd-9 0.5 \; toMT fd10 0.2 \;
toMT fd11 0.5 \; toMT fd12 0.9 \; toMT fd13 0 \; toMT fd14 0.9 \; toMT
fd15 0.9 \;;
#X msg 949 163 \; toMT xvd-0 1 \; toMT xvd-1 1 \; toMT xvd-2 1 \; toMT
xvd-3 1 \; toMT xvd-4 1 \; toMT xvd-5 1 \; toMT xvd-6 1 \; toMT xvd-7
1 \; toMT xvd-8 0 \; toMT xvd-9 0 \; toMT xvd10 0 \; toMT xvd11 0 \;
toMT xvd12 1 \; toMT xvd13 1 \; toMT xvd14 1 \; toMT xvd15 1 \;;
#X msg 1129 162 \; toMT inp-0 0 \; toMT inp-1 0 \; toMT inp-2 0 \;
toMT inp-3 0 \; toMT inp-4 0 \; toMT inp-5 0 \; toMT inp-6 0 \; toMT
inp-7 0 \; toMT inp-8 1 \; toMT inp-9 1 \; toMT inp10 1 \; toMT inp11
1 \; toMT inp12 1 \; toMT inp13 1 \; toMT inp14 0.5 \; toMT inp15 1
\;;
#X msg 1298 164 \; toMT out-0 0.25 \; toMT out-1 0.3 \; toMT out-2
0.35 \; toMT out-3 0 \; toMT out-4 0.25 \; toMT out-5 0 \; toMT out-6
0.9 \; toMT out-7 0 \; toMT out-8 0 \; toMT out-9 0 \; toMT out10 0
\; toMT out11 0 \; toMT out12 0.4 \; toMT out13 0.4 \; toMT out14 0.3
\; toMT out15 0.3 \;;
#X msg 1437 163 \; toMT r-0 1 \; toMT r-16 0 \; toMT r-32 0 \; toMT
r-48 0 \; toMT r-64 0 \; toMT r-80 0 \; toMT r-96 0 \; toMT r112 0
\; toMT r128 0 \; toMT r144 0 \; toMT r160 0 \; toMT r176 0 \; toMT
r192 0 \; toMT r208 0 \; toMT r224 0 \; toMT r240 0 \; toMT r-1 0 \;
toMT r-17 1 \; toMT r-33 0 \; toMT r-49 0 \; toMT r-65 0 \; toMT r-81
0 \; toMT r-97 0 \; toMT r113 0 \; toMT r129 0 \; toMT r145 0 \; toMT
r161 0 \; toMT r177 0 \; toMT r193 0 \; toMT r209 0 \; toMT r225 0
\; toMT r241 0 \; toMT r-2 0 \; toMT r-18 0 \; toMT r-34 1 \; toMT
r-50 0 \; toMT r-66 0 \; toMT r-82 0 \; toMT r-98 0 \; toMT r114 0
\; toMT r130 0 \; toMT r146 0 \; toMT r162 0 \; toMT r178 0 \; toMT
r194 0 \; toMT r210 0 \; toMT r226 0 \; toMT r242 0 \; toMT r-3 0 \;
toMT r-19 0 \; toMT r-35 0 \; toMT r-51 1 \; toMT r-67 0 \; toMT r-83
0 \; toMT r-99 0 \; toMT r115 0 \; toMT r131 0 \; toMT r147 0 \; toMT
r163 0 \; toMT r179 0 \; toMT r195 0 \; toMT r211 0 \; toMT r227 0
\; toMT r243 0 \; toMT r-4 0 \; toMT r-20 0 \; toMT r-36 0 \; toMT
r-52 0 \; toMT r-68 1 \; toMT r-84 0 \; toMT r100 0 \; toMT r116 0
\; toMT r132 0 \; toMT r148 0 \; toMT r164 0 \; toMT r180 0 \; toMT
r196 0 \; toMT r212 0 \; toMT r228 0 \; toMT r244 0 \; toMT r-5 0 \;
toMT r-21 0 \; toMT r-37 0 \; toMT r-53 0 \; toMT r-69 0 \; toMT r-85
1 \; toMT r101 0 \; toMT r117 0 \; toMT r133 0 \; toMT r149 0 \; toMT
r165 0 \; toMT r181 0 \; toMT r197 0 \; toMT r213 0 \; toMT r229 0
\; toMT r245 0 \; toMT r-6 0 \; toMT r-22 0 \; toMT r-38 0 \; toMT
r-54 0 \; toMT r-70 0 \; toMT r-86 0 \; toMT r102 1 \; toMT r118 0
\; toMT r134 0 \; toMT r150 0 \; toMT r166 0 \; toMT r182 0 \; toMT
r198 0 \; toMT r214 0 \; toMT r230 0 \; toMT r246 0 \; toMT r-7 0 \;
toMT r-23 0 \; toMT r-39 0 \; toMT r-55 0 \; toMT r-71 0 \; toMT r-87
0 \; toMT r103 0 \; toMT r119 1 \; toMT r135 0 \; toMT r151 0 \; toMT
r167 0 \; toMT r183 0 \; toMT r199 0 \; toMT r215 0 \; toMT r231 0
\; toMT r247 0 \; toMT r-8 1 \; toMT r-24 0 \; toMT r-40 0 \; toMT
r-56 0 \; toMT r-72 1 \; toMT r-88 0 \; toMT r104 0 \; toMT r120 0
\; toMT r136 1 \; toMT r152 0 \; toMT r168 0 \; toMT r184 0 \; toMT
r200 0 \; toMT r216 0 \; toMT r232 0 \; toMT r248 0 \; toMT r-9 0 \;
toMT r-25 1 \; toMT r-41 0 \; toMT r-57 0 \; toMT r-73 0 \; toMT r-89
1 \; toMT r105 0 \; toMT r121 0 \; toMT r137 0 \; toMT r153 1 \; toMT
r169 0 \; toMT r185 0 \; toMT r201 0 \; toMT r217 0 \; toMT r233 0
\; toMT r249 0 \; toMT r-10 0 \; toMT r-26 0 \; toMT r-42 1 \; toMT
r-58 0 \; toMT r-74 0 \; toMT r-90 0 \; toMT r106 1 \; toMT r122 0
\; toMT r138 0 \; toMT r154 0 \; toMT r170 1 \; toMT r186 0 \; toMT
r202 0 \; toMT r218 0 \; toMT r234 0 \; toMT r250 0 \; toMT r-11 0
\; toMT r-27 0 \; toMT r-43 0 \; toMT r-59 1 \; toMT r-75 0 \; toMT
r-91 0 \; toMT r107 0 \; toMT r123 1 \; toMT r139 0 \; toMT r155 0
\; toMT r171 0 \; toMT r187 1 \; toMT r203 0 \; toMT r219 0 \; toMT
r235 0 \; toMT r251 0 \; toMT r-12 0 \; toMT r-28 0 \; toMT r-44 0
\; toMT r-60 0 \; toMT r-76 0 \; toMT r-92 0 \; toMT r108 0 \; toMT
r124 0 \; toMT r140 0 \; toMT r156 0 \; toMT r172 0 \; toMT r188 0
\; toMT r204 0 \; toMT r220 0 \; toMT r236 0 \; toMT r252 0 \; toMT
r-13 1 \; toMT r-29 1 \; toMT r-45 1 \; toMT r-61 0 \; toMT r-77 1
\; toMT r-93 0 \; toMT r109 1 \; toMT r125 0 \; toMT r141 0 \; toMT
r157 0 \; toMT r173 0 \; toMT r189 0 \; toMT r205 1 \; toMT r221 1
\; toMT r237 1 \; toMT r253 1 \; toMT r-14 0 \; toMT r-30 0 \; toMT
r-46 0 \; toMT r-62 0 \; toMT r-78 0 \; toMT r-94 0 \; toMT r110 0
\; toMT r126 0 \; toMT r142 0 \; toMT r158 0 \; toMT r174 0 \; toMT
r190 0 \; toMT r206 0 \; toMT r222 0 \; toMT r238 0 \; toMT r254 0
\; toMT r-15 0 \; toMT r-31 0 \; toMT r-47 0 \; toMT r-63 0 \; toMT
r-79 0 \; toMT r-95 0 \; toMT r111 0 \; toMT r127 0 \; toMT r143 0
\; toMT r159 0 \; toMT r175 0 \; toMT r191 0 \; toMT r207 0 \; toMT
r223 0 \; toMT r239 0 \; toMT r255 0 \;;
#X msg 748 164 \; toMT tr-0 386 \; toMT tr-1 772 \; toMT tr-2 -386
\; toMT tr-3 180 \; toMT tr-4 386 \; toMT tr-5 -772 \; toMT tr-6 -45
\; toMT tr-7 180 \; toMT tr-8 0 \; toMT tr-9 0 \; toMT tr10 0 \; toMT
tr11 0 \; toMT tr12 -500 \; toMT tr13 50 \; toMT tr14 -1000 \; toMT
tr15 -1200 \;;
#X msg 82 163 \; toMT dStretch 0.8 \; toMT hStretch 4 \; toMT hWin
24 \; toMT smoothDuration 50 \; toMT guitarGain -10.2 \; toMT delharmoGain
0 \; toMT renv_trim 0 \; toMT renv_freq 13 \; toMT renv_short 0.5 \;
toMT generalGain 0 \;;
#X connect 0 0 10 0;
#X connect 10 0 19 0;
#X connect 10 1 11 0;
#X connect 10 2 12 0;
#X connect 10 3 13 0;
#X connect 10 4 18 0;
#X connect 10 5 14 0;
#X connect 10 6 15 0;
#X connect 10 7 16 0;
#X connect 10 8 17 0;
#X restore 518 582 pd initialisation;
#X obj 93 363 print;
#X obj 518 519 bng 50 250 50 0 empty empty reset 0 -10 0 10 -4032 -1
-1;
#X obj 659 108 player;
#X obj 408 196 +~;
#X text 656 84 player partie guitare enregistree;
#X msg 212 324 generalGain \$1;
#X obj 212 153 vsl 15 128 -127 18 0 0 empty empty generalGain 0 -9
0 10 -262144 -1 -1 11123 1;
#X floatatom 212 289 5 -127 18 1 dB - -;
#X obj 212 69 loadbang;
#X obj 518 464 loadbang;
#X obj 408 155 *~;
#X obj 496 112 tgl 15 0 empty empty micro_on_off 17 7 0 10 -262144
-1 -1 0 1;
#X obj 496 57 loadbang;
#X msg 496 84 0;
#X obj 186 435 +~;
#X obj 249 436 +~;
#X obj 158 391 FilDeSoi1PanStereo~ ----------;
#X text 716 387 EVENEMENTS;
#X msg 648 460 \; toMT dStretch 0.75 \; toMT hWin 22 \;;
#X msg 810 461 \; toMT dStretch 0.7 \; toMT hWin 24 \;;
#X text 527 427 EVT1;
#X text 644 426 EVT2;
#X msg 961 463 \; toMT dStretch 0.8 \; toMT hStretch 2 \; toMT hWin
22 \; toMT fd13 0.4 \;;
#X text 812 425 EVT3;
#X text 960 425 EVT4;
#X msg 212 104 0;
#X text 11 8 FIL DE SOI 1 - EVENEMENTS 1 A 4 - RAW PATCH;
#X text 361 10 Alain Bonardi;
#X connect 0 0 20 0;
#X connect 3 0 4 0;
#X connect 8 0 10 0;
#X connect 8 0 26 0;
#X connect 11 0 9 0;
#X connect 12 0 13 1;
#X connect 13 0 2 0;
#X connect 13 0 26 1;
#X connect 15 0 26 0;
#X connect 16 0 17 0;
#X connect 17 0 15 0;
#X connect 18 0 35 0;
#X connect 19 0 11 0;
#X connect 20 0 13 0;
#X connect 21 0 20 1;
#X connect 22 0 23 0;
#X connect 23 0 21 0;
#X connect 24 0 5 0;
#X connect 24 0 6 0;
#X connect 25 0 5 1;
#X connect 25 0 7 0;
#X connect 26 1 24 0;
#X connect 26 2 25 0;
#X connect 35 0 16 0;
