#N canvas 931 398 749 597 10;
#X obj 334 468 *~;
#X obj 497 433 line~;
#X msg 496 410 \$1 20;
#X obj 257 117 hsl 80 15 0 1 0 0 empty empty vol -2 -8 0 10 -262144
-1 -1 0 1;
#X obj 333 343 readsf~ 1;
#X obj 384 371 bang;
#X obj 384 406 f 0;
#X obj 206 116 tgl 15 0 empty empty loop 17 7 0 10 -262144 -1 -1 0
1;
#X text 419 352 loop;
#X obj 333 168 openpanel;
#X obj 110 116 bng 15 250 50 0 empty empty open 17 7 0 10 -13330 -1
-1;
#X obj 333 191 list prepend set open;
#X obj 333 215 list trim;
#X msg 333 239 open /Users/alainbonardi/Dropbox/ENSEIGNEMENT/PARIS8_MUSIQUE/SAMPLES/captationsInstruments/piano1_mono.wav
;
#X obj 157 116 tgl 15 0 empty empty play 17 7 0 10 -262144 -1 -1 0
1;
#X obj 236 202 t f b;
#X obj 334 535 outlet~;
#X obj 254 35 inlet;
#X obj 254 63 route vol play loop;
#X obj 187 34 loadbang;
#X msg 187 55 1;
#X connect 0 0 16 0;
#X connect 1 0 0 1;
#X connect 2 0 1 0;
#X connect 3 0 2 0;
#X connect 4 0 0 0;
#X connect 4 1 5 0;
#X connect 5 0 6 0;
#X connect 6 0 14 0;
#X connect 7 0 6 1;
#X connect 9 0 11 0;
#X connect 10 0 9 0;
#X connect 11 0 12 0;
#X connect 12 0 13 0;
#X connect 13 0 4 0;
#X connect 14 0 15 0;
#X connect 15 0 4 0;
#X connect 15 1 13 0;
#X connect 17 0 18 0;
#X connect 18 0 3 0;
#X connect 18 1 14 0;
#X connect 18 2 7 0;
#X connect 19 0 20 0;
#X connect 20 0 3 0;
#X coords 0 -1 1 1 250 40 1 100 100;
