#N canvas 329 40 409 113 10;
#X obj -226 55 bng 15 250 50 0 \$0-reload empty empty 17 7 0 10 -262144
-1 -1;
#X text -208 55 Reload;
#N canvas 206 295 695 548 inside 0;
#X obj -127 217 cnv 15 250 180 empty empty OSC_Comm 20 12 0 12 -204800
-66577 0;
#X obj -26 337 dumpOSC 7002;
#X obj -26 368 print ITL;
#X obj 40 305 sendOSC;
#X msg -120 272 connect localhost 7000;
#X obj -120 242 loadbang;
#X obj 40 271 prepend send;
#X obj 142 216 cnv 15 230 180 empty empty Init 20 12 0 12 -204800 -66577
0;
#X obj 229 282 getdir;
#X obj 178 259 t b b b b;
#X obj 229 305 prepend /ITL rootPath;
#X obj 292 228 loadbang;
#X obj 203 229 r \$0-reload;
#X obj 174 362 s interact;
#X obj 40 244 r interact;
#X obj -126 -143 dumpOSC 7100;
#X obj -126 -119 route /vol /play /date;
#X obj 198 182 dac~;
#X obj 259 -56 bng 15 250 50 0 empty empty empty 17 7 0 10 -262144
-1 -1;
#X msg 259 -29 1;
#X obj 262 71 readsf~;
#X obj 189 -41 vsl 15 128 0 100 0 0 empty empty empty 0 -9 0 10 -262144
-1 -1 6350 1;
#X obj 210 140 *~;
#X obj 190 104 / 100;
#X obj -126 -92 * 100;
#X msg 177 326 /ITL load interact.inscore;
#X obj -74 -92 route 0 1;
#X obj -108 58 metro 34.72;
#X msg -108 80 clock;
#X obj -108 118 prepend /ITL/scene/cursor;
#X obj -108 146 s interact;
#N canvas 34 586 450 300 date 0;
#X obj 109 30 inlet;
#X obj 217 219 outlet;
#X obj 99 217 outlet;
#X obj 109 62 unpack 1 1;
#X obj 82 84 >= 0;
#X obj 99 151 pack 1 1;
#X msg 99 177 date \$1 \$2;
#X obj 217 142 / 1;
#X obj 100 110 gate;
#X obj 217 174 * 146985;
#X connect 0 0 3 0;
#X connect 3 0 4 0;
#X connect 3 0 8 1;
#X connect 3 1 5 1;
#X connect 3 1 7 1;
#X connect 4 0 8 0;
#X connect 5 0 6 0;
#X connect 6 0 2 0;
#X connect 7 0 9 0;
#X connect 8 0 5 0;
#X connect 8 0 7 0;
#X connect 9 0 1 0;
#X restore 36 8 pd date;
#X msg 382 -29 open gamme.wav \$1;
#X obj -108 -3 tgl 15 0 empty empty empty 17 7 0 10 -262144 -1 -1 0
1;
#X obj 382 -87 prepend set;
#X msg 382 -60 0;
#X obj -74 -38 s _stop;
#X msg 222 -30 0;
#X obj 222 -86 r _stop;
#X obj 248 113 gate;
#X obj 222 -57 bng 15 250 50 0 empty empty empty 17 7 0 10 -262144
-1 -1;
#X obj 259 -120 r _start;
#X msg 339 150 /ITL/scene/cursor date 0 1;
#X obj 339 179 s interact;
#X obj 82 35 s _pos;
#X obj 382 -118 r _pos;
#X obj 339 120 r _start;
#X obj 332 -65 bng 15 250 50 0 empty empty empty 17 7 0 10 -262144
-1 -1;
#N canvas 0 22 224 209 start 0;
#X obj 36 -44 inlet;
#X obj 30 31 s _start;
#X obj 99 55 s _pos;
#X msg 99 34 0;
#X obj 36 4 t b b;
#X connect 0 0 4 0;
#X connect 3 0 2 0;
#X connect 4 0 1 0;
#X connect 4 1 3 0;
#X restore -13 -38 pd start;
#X obj 293 8 gate;
#X msg 274 31 1;
#X obj 332 -86 t b b;
#X msg 248 140 0;
#X obj 248 161 s _pos;
#X obj 137 -115 loadbang;
#X msg 137 -90 50;
#X obj -87 32 dsp;
#X connect 1 0 2 0;
#X connect 4 0 3 0;
#X connect 5 0 4 0;
#X connect 6 0 3 0;
#X connect 8 0 10 0;
#X connect 9 2 25 0;
#X connect 9 3 8 0;
#X connect 10 0 13 0;
#X connect 11 0 9 0;
#X connect 12 0 9 0;
#X connect 14 0 6 0;
#X connect 15 0 16 0;
#X connect 16 0 24 0;
#X connect 16 1 26 0;
#X connect 16 1 33 0;
#X connect 16 2 31 0;
#X connect 18 0 19 0;
#X connect 19 0 20 0;
#X connect 19 0 39 0;
#X connect 19 0 49 0;
#X connect 20 0 22 0;
#X connect 20 1 39 1;
#X connect 21 0 23 0;
#X connect 22 0 17 0;
#X connect 22 0 17 1;
#X connect 23 0 22 1;
#X connect 24 0 21 0;
#X connect 25 0 13 0;
#X connect 26 0 36 0;
#X connect 26 1 48 0;
#X connect 27 0 28 0;
#X connect 28 0 29 0;
#X connect 29 0 30 0;
#X connect 31 0 29 0;
#X connect 31 1 44 0;
#X connect 32 0 20 0;
#X connect 33 0 27 0;
#X connect 33 0 56 0;
#X connect 34 0 35 0;
#X connect 35 0 32 0;
#X connect 37 0 20 0;
#X connect 37 0 39 0;
#X connect 37 0 49 0;
#X connect 38 0 40 0;
#X connect 39 0 42 0;
#X connect 39 0 52 0;
#X connect 40 0 37 0;
#X connect 41 0 18 0;
#X connect 42 0 43 0;
#X connect 45 0 34 0;
#X connect 45 0 51 0;
#X connect 46 0 42 0;
#X connect 47 0 49 1;
#X connect 49 0 50 0;
#X connect 50 0 20 0;
#X connect 51 0 47 0;
#X connect 51 1 35 0;
#X connect 52 0 53 0;
#X connect 54 0 55 0;
#X connect 55 0 21 0;
#X restore -226 81 pd inside;
#X text -227 7 This patch only plays a sound file and send 'clock'
messages. The player is controlled by INScore using the interaction
features.;
