{
	"patcher" : 	{
		"fileversion" : 1,
		"rect" : [ 52.0, 57.0, 271.0, 192.0 ],
		"bglocked" : 0,
		"defrect" : [ 52.0, 57.0, 271.0, 192.0 ],
		"openrect" : [ 52.0, 57.0, 271.0, 192.0 ],
		"openinpresentation" : 1,
		"default_fontsize" : 12.0,
		"default_fontface" : 0,
		"default_fontname" : "Arial",
		"gridonopen" : 0,
		"gridsize" : [ 15.0, 15.0 ],
		"gridsnaponopen" : 0,
		"toolbarvisible" : 1,
		"boxanimatetime" : 200,
		"imprint" : 0,
		"enablehscroll" : 1,
		"enablevscroll" : 1,
		"devicewidth" : 0.0,
		"boxes" : [ 			{
				"box" : 				{
					"maxclass" : "newobj",
					"text" : "p rootpath",
					"numinlets" : 1,
					"numoutlets" : 1,
					"id" : "obj-87",
					"fontname" : "Arial",
					"outlettype" : [ "" ],
					"patching_rect" : [ 540.0, 426.0, 65.0, 20.0 ],
					"fontsize" : 12.0,
					"patcher" : 					{
						"fileversion" : 1,
						"rect" : [ 25.0, 69.0, 312.0, 240.0 ],
						"bglocked" : 0,
						"defrect" : [ 25.0, 69.0, 312.0, 240.0 ],
						"openrect" : [ 0.0, 0.0, 0.0, 0.0 ],
						"openinpresentation" : 0,
						"default_fontsize" : 12.0,
						"default_fontface" : 0,
						"default_fontname" : "Arial",
						"gridonopen" : 0,
						"gridsize" : [ 15.0, 15.0 ],
						"gridsnaponopen" : 0,
						"toolbarvisible" : 1,
						"boxanimatetime" : 200,
						"imprint" : 0,
						"enablehscroll" : 1,
						"enablevscroll" : 1,
						"devicewidth" : 0.0,
						"boxes" : [ 							{
								"box" : 								{
									"maxclass" : "newobj",
									"text" : "prepend /ITL/scene rootPath",
									"numinlets" : 1,
									"numoutlets" : 1,
									"id" : "obj-3",
									"fontname" : "Arial",
									"outlettype" : [ "" ],
									"patching_rect" : [ 58.0, 116.0, 163.0, 20.0 ],
									"fontsize" : 12.0
								}

							}
, 							{
								"box" : 								{
									"maxclass" : "outlet",
									"numinlets" : 1,
									"numoutlets" : 0,
									"id" : "obj-2",
									"patching_rect" : [ 36.0, 151.0, 25.0, 25.0 ],
									"comment" : ""
								}

							}
, 							{
								"box" : 								{
									"maxclass" : "inlet",
									"numinlets" : 0,
									"numoutlets" : 1,
									"id" : "obj-1",
									"outlettype" : [ "" ],
									"patching_rect" : [ 36.0, 31.0, 25.0, 25.0 ],
									"comment" : ""
								}

							}
, 							{
								"box" : 								{
									"maxclass" : "newobj",
									"text" : "prepend /ITL rootPath",
									"numinlets" : 1,
									"numoutlets" : 1,
									"id" : "obj-6",
									"fontname" : "Arial",
									"outlettype" : [ "" ],
									"patching_rect" : [ 36.0, 76.0, 127.0, 20.0 ],
									"fontsize" : 12.0
								}

							}
 ],
						"lines" : [ 							{
								"patchline" : 								{
									"source" : [ "obj-6", 0 ],
									"destination" : [ "obj-2", 0 ],
									"hidden" : 0,
									"midpoints" : [  ]
								}

							}
, 							{
								"patchline" : 								{
									"source" : [ "obj-3", 0 ],
									"destination" : [ "obj-2", 0 ],
									"hidden" : 0,
									"midpoints" : [  ]
								}

							}
, 							{
								"patchline" : 								{
									"source" : [ "obj-1", 0 ],
									"destination" : [ "obj-3", 0 ],
									"hidden" : 0,
									"midpoints" : [  ]
								}

							}
, 							{
								"patchline" : 								{
									"source" : [ "obj-1", 0 ],
									"destination" : [ "obj-6", 0 ],
									"hidden" : 0,
									"midpoints" : [  ]
								}

							}
 ]
					}
,
					"saved_object_attributes" : 					{
						"default_fontname" : "Arial",
						"default_fontsize" : 12.0,
						"fontname" : "Arial",
						"globalpatchername" : "",
						"default_fontface" : 0,
						"fontface" : 0,
						"fontsize" : 12.0
					}

				}

			}
, 			{
				"box" : 				{
					"maxclass" : "toggle",
					"numinlets" : 1,
					"numoutlets" : 1,
					"id" : "obj-333",
					"presentation_rect" : [ 229.0, 63.0, 15.0, 15.0 ],
					"outlettype" : [ "int" ],
					"patching_rect" : [ 241.0, 151.0, 20.0, 20.0 ],
					"presentation" : 1
				}

			}
, 			{
				"box" : 				{
					"maxclass" : "comment",
					"text" : "Full screen",
					"numinlets" : 1,
					"numoutlets" : 0,
					"id" : "obj-328",
					"presentation_rect" : [ 159.0, 59.0, 68.0, 20.0 ],
					"fontname" : "Arial",
					"patching_rect" : [ 165.0, 146.0, 69.0, 20.0 ],
					"presentation" : 1,
					"fontsize" : 12.0
				}

			}
, 			{
				"box" : 				{
					"maxclass" : "message",
					"text" : "/ITL/scene fullscreen $1",
					"numinlets" : 2,
					"numoutlets" : 1,
					"id" : "obj-23",
					"fontname" : "Arial",
					"outlettype" : [ "" ],
					"patching_rect" : [ 163.0, 178.0, 138.0, 18.0 ],
					"fontsize" : 12.0
				}

			}
, 			{
				"box" : 				{
					"maxclass" : "newobj",
					"text" : "conformpath native boot",
					"numinlets" : 1,
					"numoutlets" : 2,
					"id" : "obj-25",
					"fontname" : "Arial",
					"outlettype" : [ "", "int" ],
					"patching_rect" : [ 540.0, 401.0, 139.0, 20.0 ],
					"fontsize" : 12.0
				}

			}
, 			{
				"box" : 				{
					"maxclass" : "comment",
					"text" : "Displays various graphic signals based on a single sinus values stream.",
					"linecount" : 3,
					"presentation_linecount" : 3,
					"textcolor" : [ 0.282353, 0.282353, 0.282353, 1.0 ],
					"numinlets" : 1,
					"numoutlets" : 0,
					"frgb" : [ 0.282353, 0.282353, 0.282353, 1.0 ],
					"id" : "obj-19",
					"presentation_rect" : [ 13.0, 126.0, 173.0, 55.0 ],
					"fontname" : "Arial",
					"patching_rect" : [ 306.0, 65.0, 206.0, 55.0 ],
					"presentation" : 1,
					"fontsize" : 14.0
				}

			}
, 			{
				"box" : 				{
					"maxclass" : "comment",
					"text" : "Note: the OSC communication bus is named \"itlsig\"",
					"linecount" : 2,
					"textcolor" : [ 0.282353, 0.282353, 0.282353, 1.0 ],
					"numinlets" : 1,
					"numoutlets" : 0,
					"frgb" : [ 0.282353, 0.282353, 0.282353, 1.0 ],
					"id" : "obj-35",
					"fontname" : "Arial",
					"patching_rect" : [ 44.0, 476.0, 203.0, 39.0 ],
					"fontsize" : 14.0
				}

			}
, 			{
				"box" : 				{
					"maxclass" : "message",
					"text" : "path",
					"numinlets" : 2,
					"numoutlets" : 1,
					"id" : "obj-21",
					"fontname" : "Arial",
					"outlettype" : [ "" ],
					"patching_rect" : [ 611.0, 351.0, 34.0, 18.0 ],
					"fontsize" : 12.0
				}

			}
, 			{
				"box" : 				{
					"maxclass" : "newobj",
					"text" : "thispatcher",
					"numinlets" : 1,
					"numoutlets" : 2,
					"id" : "obj-22",
					"fontname" : "Arial",
					"outlettype" : [ "", "" ],
					"patching_rect" : [ 611.0, 376.0, 69.0, 20.0 ],
					"fontsize" : 12.0,
					"save" : [ "#N", "thispatcher", ";", "#Q", "end", ";" ]
				}

			}
, 			{
				"box" : 				{
					"maxclass" : "comment",
					"text" : "Ampl.",
					"numinlets" : 1,
					"numoutlets" : 0,
					"id" : "obj-18",
					"presentation_rect" : [ 212.0, 35.0, 42.0, 20.0 ],
					"fontname" : "Arial",
					"patching_rect" : [ 606.0, 31.0, 150.0, 20.0 ],
					"presentation" : 1,
					"fontsize" : 12.0
				}

			}
, 			{
				"box" : 				{
					"maxclass" : "comment",
					"text" : "Speed",
					"numinlets" : 1,
					"numoutlets" : 0,
					"id" : "obj-17",
					"presentation_rect" : [ 154.0, 35.0, 46.0, 20.0 ],
					"fontname" : "Arial",
					"patching_rect" : [ 606.0, 56.0, 150.0, 20.0 ],
					"presentation" : 1,
					"fontsize" : 12.0
				}

			}
, 			{
				"box" : 				{
					"maxclass" : "comment",
					"text" : "Start/Stop",
					"numinlets" : 1,
					"numoutlets" : 0,
					"id" : "obj-16",
					"presentation_rect" : [ 20.0, 15.0, 63.0, 20.0 ],
					"fontname" : "Arial",
					"patching_rect" : [ 606.0, 7.0, 150.0, 20.0 ],
					"presentation" : 1,
					"fontsize" : 12.0
				}

			}
, 			{
				"box" : 				{
					"maxclass" : "comment",
					"text" : "a",
					"numinlets" : 1,
					"numoutlets" : 0,
					"id" : "obj-12",
					"presentation_rect" : [ 116.0, 66.0, 18.0, 20.0 ],
					"fontname" : "Arial",
					"patching_rect" : [ 606.0, 130.0, 150.0, 20.0 ],
					"presentation" : 1,
					"fontsize" : 12.0
				}

			}
, 			{
				"box" : 				{
					"maxclass" : "comment",
					"text" : "b",
					"numinlets" : 1,
					"numoutlets" : 0,
					"id" : "obj-11",
					"presentation_rect" : [ 99.0, 66.0, 18.0, 20.0 ],
					"fontname" : "Arial",
					"patching_rect" : [ 606.0, 154.0, 150.0, 20.0 ],
					"presentation" : 1,
					"fontsize" : 12.0
				}

			}
, 			{
				"box" : 				{
					"maxclass" : "comment",
					"text" : "s",
					"numinlets" : 1,
					"numoutlets" : 0,
					"id" : "obj-10",
					"presentation_rect" : [ 81.0, 66.0, 18.0, 20.0 ],
					"fontname" : "Arial",
					"patching_rect" : [ 606.0, 179.0, 150.0, 20.0 ],
					"presentation" : 1,
					"fontsize" : 12.0
				}

			}
, 			{
				"box" : 				{
					"maxclass" : "comment",
					"text" : "h",
					"numinlets" : 1,
					"numoutlets" : 0,
					"id" : "obj-8",
					"presentation_rect" : [ 62.0, 66.0, 18.0, 20.0 ],
					"fontname" : "Arial",
					"patching_rect" : [ 606.0, 105.0, 150.0, 20.0 ],
					"presentation" : 1,
					"fontsize" : 12.0
				}

			}
, 			{
				"box" : 				{
					"maxclass" : "comment",
					"text" : "th",
					"numinlets" : 1,
					"numoutlets" : 0,
					"id" : "obj-7",
					"presentation_rect" : [ 39.0, 66.0, 20.0, 20.0 ],
					"fontname" : "Arial",
					"patching_rect" : [ 606.0, 199.0, 150.0, 20.0 ],
					"presentation" : 1,
					"fontsize" : 12.0
				}

			}
, 			{
				"box" : 				{
					"maxclass" : "comment",
					"text" : "y",
					"numinlets" : 1,
					"numoutlets" : 0,
					"id" : "obj-5",
					"presentation_rect" : [ 21.0, 66.0, 18.0, 20.0 ],
					"fontname" : "Arial",
					"patching_rect" : [ 606.0, 81.0, 150.0, 20.0 ],
					"presentation" : 1,
					"fontsize" : 12.0
				}

			}
, 			{
				"box" : 				{
					"maxclass" : "newobj",
					"text" : "t b b b b",
					"numinlets" : 1,
					"numoutlets" : 4,
					"id" : "obj-61",
					"fontname" : "Arial",
					"outlettype" : [ "bang", "bang", "bang", "bang" ],
					"patching_rect" : [ 276.0, 44.0, 59.5, 20.0 ],
					"fontsize" : 12.0
				}

			}
, 			{
				"box" : 				{
					"maxclass" : "newobj",
					"text" : "loadbang",
					"numinlets" : 1,
					"numoutlets" : 1,
					"id" : "obj-60",
					"fontname" : "Arial",
					"outlettype" : [ "bang" ],
					"patching_rect" : [ 275.0, 15.0, 60.0, 20.0 ],
					"fontsize" : 12.0
				}

			}
, 			{
				"box" : 				{
					"maxclass" : "comment",
					"text" : "Initialization",
					"numinlets" : 1,
					"numoutlets" : 0,
					"id" : "obj-32",
					"fontname" : "Arial",
					"patching_rect" : [ 528.0, 290.0, 91.0, 23.0 ],
					"fontface" : 1,
					"fontsize" : 14.0
				}

			}
, 			{
				"box" : 				{
					"maxclass" : "message",
					"text" : "/ITL load sinus.inscore",
					"numinlets" : 2,
					"numoutlets" : 1,
					"id" : "obj-50",
					"fontname" : "Arial",
					"outlettype" : [ "" ],
					"patching_rect" : [ 463.0, 352.0, 130.0, 18.0 ],
					"fontsize" : 12.0
				}

			}
, 			{
				"box" : 				{
					"maxclass" : "comment",
					"text" : "reload",
					"numinlets" : 1,
					"numoutlets" : 0,
					"id" : "obj-46",
					"presentation_rect" : [ 186.0, 108.0, 43.0, 18.0 ],
					"fontname" : "Arial",
					"patching_rect" : [ 417.0, 314.0, 41.0, 18.0 ],
					"presentation" : 1,
					"fontsize" : 10.0
				}

			}
, 			{
				"box" : 				{
					"maxclass" : "button",
					"numinlets" : 1,
					"numoutlets" : 1,
					"id" : "obj-45",
					"presentation_rect" : [ 192.0, 85.0, 20.0, 20.0 ],
					"outlettype" : [ "bang" ],
					"patching_rect" : [ 424.0, 288.0, 20.0, 20.0 ],
					"presentation" : 1
				}

			}
, 			{
				"box" : 				{
					"maxclass" : "newobj",
					"text" : "s itlsig",
					"numinlets" : 1,
					"numoutlets" : 0,
					"id" : "obj-48",
					"fontname" : "Arial",
					"patching_rect" : [ 463.0, 431.0, 44.0, 20.0 ],
					"fontsize" : 12.0
				}

			}
, 			{
				"box" : 				{
					"maxclass" : "newobj",
					"text" : "t b b b b",
					"numinlets" : 1,
					"numoutlets" : 4,
					"id" : "obj-33",
					"fontname" : "Arial",
					"outlettype" : [ "bang", "bang", "bang", "bang" ],
					"patching_rect" : [ 463.0, 317.0, 59.5, 20.0 ],
					"fontsize" : 12.0
				}

			}
, 			{
				"box" : 				{
					"maxclass" : "newobj",
					"text" : "loadbang",
					"numinlets" : 1,
					"numoutlets" : 1,
					"id" : "obj-57",
					"fontname" : "Arial",
					"outlettype" : [ "bang" ],
					"patching_rect" : [ 463.0, 288.0, 60.0, 20.0 ],
					"fontsize" : 12.0
				}

			}
, 			{
				"box" : 				{
					"maxclass" : "panel",
					"bgcolor" : [ 0.878431, 0.94902, 0.839216, 1.0 ],
					"numinlets" : 1,
					"numoutlets" : 0,
					"id" : "obj-31",
					"patching_rect" : [ 409.0, 282.0, 281.0, 177.0 ]
				}

			}
, 			{
				"box" : 				{
					"maxclass" : "newobj",
					"text" : "prepend /ITL/scene/signal/[ythsba]",
					"numinlets" : 1,
					"numoutlets" : 1,
					"id" : "obj-41",
					"fontname" : "Arial",
					"outlettype" : [ "" ],
					"patching_rect" : [ 484.0, 224.0, 194.0, 20.0 ],
					"fontsize" : 12.0
				}

			}
, 			{
				"box" : 				{
					"maxclass" : "newobj",
					"text" : "s itlsig",
					"numinlets" : 1,
					"numoutlets" : 0,
					"id" : "obj-43",
					"fontname" : "Arial",
					"patching_rect" : [ 484.0, 248.0, 44.0, 20.0 ],
					"fontsize" : 12.0
				}

			}
, 			{
				"box" : 				{
					"maxclass" : "comment",
					"text" : "OSC communication",
					"numinlets" : 1,
					"numoutlets" : 0,
					"id" : "obj-9",
					"fontname" : "Arial",
					"patching_rect" : [ 57.0, 279.0, 189.0, 23.0 ],
					"fontface" : 1,
					"fontsize" : 14.0
				}

			}
, 			{
				"box" : 				{
					"maxclass" : "newobj",
					"text" : "print",
					"numinlets" : 1,
					"numoutlets" : 0,
					"id" : "obj-13",
					"fontname" : "Arial",
					"patching_rect" : [ 295.0, 328.0, 34.0, 20.0 ],
					"fontsize" : 12.0
				}

			}
, 			{
				"box" : 				{
					"maxclass" : "newobj",
					"text" : "print ITL",
					"numinlets" : 1,
					"numoutlets" : 0,
					"id" : "obj-14",
					"fontname" : "Arial",
					"patching_rect" : [ 235.0, 421.0, 55.0, 20.0 ],
					"fontsize" : 12.0
				}

			}
, 			{
				"box" : 				{
					"maxclass" : "newobj",
					"text" : "print ITLOut",
					"numinlets" : 1,
					"numoutlets" : 0,
					"id" : "obj-15",
					"fontname" : "Arial",
					"patching_rect" : [ 95.0, 420.0, 74.0, 20.0 ],
					"fontsize" : 12.0
				}

			}
, 			{
				"box" : 				{
					"maxclass" : "newobj",
					"text" : "udpreceive 7002",
					"numinlets" : 1,
					"numoutlets" : 1,
					"id" : "obj-28",
					"fontname" : "Arial",
					"outlettype" : [ "" ],
					"patching_rect" : [ 235.0, 390.0, 99.0, 20.0 ],
					"fontsize" : 12.0
				}

			}
, 			{
				"box" : 				{
					"maxclass" : "newobj",
					"text" : "udpreceive 7001",
					"numinlets" : 1,
					"numoutlets" : 1,
					"id" : "obj-34",
					"fontname" : "Arial",
					"outlettype" : [ "" ],
					"patching_rect" : [ 95.0, 387.0, 99.0, 20.0 ],
					"fontsize" : 12.0
				}

			}
, 			{
				"box" : 				{
					"maxclass" : "newobj",
					"text" : "r itlsig",
					"numinlets" : 0,
					"numoutlets" : 1,
					"id" : "obj-37",
					"fontname" : "Arial",
					"outlettype" : [ "" ],
					"patching_rect" : [ 95.0, 309.0, 42.0, 20.0 ],
					"fontsize" : 12.0
				}

			}
, 			{
				"box" : 				{
					"maxclass" : "newobj",
					"text" : "udpsend 127.0.0.1 7000",
					"numinlets" : 1,
					"numoutlets" : 0,
					"id" : "obj-38",
					"fontname" : "Arial",
					"patching_rect" : [ 95.0, 349.0, 136.0, 20.0 ],
					"fontsize" : 11.595187
				}

			}
, 			{
				"box" : 				{
					"maxclass" : "panel",
					"bgcolor" : [ 0.878431, 0.94902, 0.839216, 1.0 ],
					"numinlets" : 1,
					"numoutlets" : 0,
					"id" : "obj-47",
					"patching_rect" : [ 42.0, 269.0, 335.0, 193.0 ]
				}

			}
, 			{
				"box" : 				{
					"maxclass" : "newobj",
					"text" : "send itlsig",
					"numinlets" : 1,
					"numoutlets" : 0,
					"id" : "obj-67",
					"fontname" : "Arial",
					"patching_rect" : [ 54.0, 143.0, 64.0, 20.0 ],
					"fontsize" : 12.0
				}

			}
, 			{
				"box" : 				{
					"maxclass" : "message",
					"text" : "/ITL/scene/signal/sig set $1 $2 $3 $4 $5 $6",
					"numinlets" : 2,
					"numoutlets" : 1,
					"id" : "obj-64",
					"fontname" : "Arial",
					"outlettype" : [ "" ],
					"patching_rect" : [ 53.0, 110.0, 239.0, 18.0 ],
					"fontsize" : 12.0
				}

			}
, 			{
				"box" : 				{
					"maxclass" : "toggle",
					"numinlets" : 1,
					"numoutlets" : 1,
					"id" : "obj-54",
					"presentation_rect" : [ 117.0, 91.0, 15.0, 15.0 ],
					"outlettype" : [ "int" ],
					"patching_rect" : [ 127.0, 26.0, 15.0, 15.0 ],
					"presentation" : 1
				}

			}
, 			{
				"box" : 				{
					"maxclass" : "toggle",
					"numinlets" : 1,
					"numoutlets" : 1,
					"id" : "obj-53",
					"presentation_rect" : [ 99.0, 91.0, 15.0, 15.0 ],
					"outlettype" : [ "int" ],
					"patching_rect" : [ 108.0, 26.0, 15.0, 15.0 ],
					"presentation" : 1
				}

			}
, 			{
				"box" : 				{
					"maxclass" : "toggle",
					"numinlets" : 1,
					"numoutlets" : 1,
					"id" : "obj-52",
					"presentation_rect" : [ 81.0, 91.0, 15.0, 15.0 ],
					"outlettype" : [ "int" ],
					"patching_rect" : [ 90.0, 26.0, 15.0, 15.0 ],
					"presentation" : 1
				}

			}
, 			{
				"box" : 				{
					"maxclass" : "toggle",
					"numinlets" : 1,
					"numoutlets" : 1,
					"id" : "obj-51",
					"presentation_rect" : [ 62.0, 91.0, 15.0, 15.0 ],
					"outlettype" : [ "int" ],
					"patching_rect" : [ 71.0, 26.0, 15.0, 15.0 ],
					"presentation" : 1
				}

			}
, 			{
				"box" : 				{
					"maxclass" : "toggle",
					"numinlets" : 1,
					"numoutlets" : 1,
					"id" : "obj-40",
					"presentation_rect" : [ 41.0, 91.0, 15.0, 15.0 ],
					"outlettype" : [ "int" ],
					"patching_rect" : [ 52.0, 26.0, 15.0, 15.0 ],
					"presentation" : 1
				}

			}
, 			{
				"box" : 				{
					"maxclass" : "toggle",
					"numinlets" : 1,
					"numoutlets" : 1,
					"id" : "obj-39",
					"presentation_rect" : [ 21.0, 91.0, 15.0, 15.0 ],
					"outlettype" : [ "int" ],
					"patching_rect" : [ 34.0, 26.0, 15.0, 15.0 ],
					"presentation" : 1
				}

			}
, 			{
				"box" : 				{
					"maxclass" : "newobj",
					"text" : "p signal",
					"numinlets" : 6,
					"numoutlets" : 1,
					"id" : "obj-36",
					"fontname" : "Arial",
					"outlettype" : [ "" ],
					"patching_rect" : [ 53.0, 77.0, 77.0, 20.0 ],
					"fontsize" : 12.0,
					"patcher" : 					{
						"fileversion" : 1,
						"rect" : [ 56.0, 351.0, 538.0, 415.0 ],
						"bglocked" : 0,
						"defrect" : [ 56.0, 351.0, 538.0, 415.0 ],
						"openrect" : [ 0.0, 0.0, 0.0, 0.0 ],
						"openinpresentation" : 0,
						"default_fontsize" : 12.0,
						"default_fontface" : 0,
						"default_fontname" : "Arial",
						"gridonopen" : 0,
						"gridsize" : [ 15.0, 15.0 ],
						"gridsnaponopen" : 0,
						"toolbarvisible" : 1,
						"boxanimatetime" : 200,
						"imprint" : 0,
						"enablehscroll" : 1,
						"enablevscroll" : 1,
						"devicewidth" : 0.0,
						"boxes" : [ 							{
								"box" : 								{
									"maxclass" : "button",
									"numinlets" : 1,
									"numoutlets" : 1,
									"id" : "obj-45",
									"outlettype" : [ "bang" ],
									"patching_rect" : [ 164.0, 309.0, 20.0, 20.0 ]
								}

							}
, 							{
								"box" : 								{
									"maxclass" : "outlet",
									"numinlets" : 1,
									"numoutlets" : 0,
									"id" : "obj-44",
									"patching_rect" : [ 121.0, 354.0, 25.0, 25.0 ],
									"comment" : ""
								}

							}
, 							{
								"box" : 								{
									"maxclass" : "message",
									"text" : "open",
									"numinlets" : 2,
									"numoutlets" : 1,
									"id" : "obj-43",
									"fontname" : "Arial",
									"outlettype" : [ "" ],
									"patching_rect" : [ 444.0, 298.0, 37.0, 18.0 ],
									"fontsize" : 12.0
								}

							}
, 							{
								"box" : 								{
									"maxclass" : "button",
									"numinlets" : 1,
									"numoutlets" : 1,
									"id" : "obj-42",
									"outlettype" : [ "bang" ],
									"patching_rect" : [ 291.0, 330.0, 20.0, 20.0 ]
								}

							}
, 							{
								"box" : 								{
									"maxclass" : "message",
									"text" : "0 0. 0.02 0. 1. 1. 1.",
									"numinlets" : 2,
									"numoutlets" : 1,
									"id" : "obj-41",
									"fontname" : "Arial",
									"outlettype" : [ "" ],
									"patching_rect" : [ 291.0, 358.0, 111.0, 18.0 ],
									"fontsize" : 12.0
								}

							}
, 							{
								"box" : 								{
									"maxclass" : "button",
									"numinlets" : 1,
									"numoutlets" : 1,
									"id" : "obj-39",
									"outlettype" : [ "bang" ],
									"patching_rect" : [ 10.0, 88.0, 20.0, 20.0 ]
								}

							}
, 							{
								"box" : 								{
									"maxclass" : "message",
									"text" : "nsub 0 6 $1",
									"numinlets" : 2,
									"numoutlets" : 1,
									"id" : "obj-38",
									"fontname" : "Arial",
									"outlettype" : [ "" ],
									"patching_rect" : [ 441.0, 244.0, 73.0, 18.0 ],
									"fontsize" : 12.0
								}

							}
, 							{
								"box" : 								{
									"maxclass" : "message",
									"text" : "nsub 0 5 $1",
									"numinlets" : 2,
									"numoutlets" : 1,
									"id" : "obj-37",
									"fontname" : "Arial",
									"outlettype" : [ "" ],
									"patching_rect" : [ 363.0, 243.0, 73.0, 18.0 ],
									"fontsize" : 12.0
								}

							}
, 							{
								"box" : 								{
									"maxclass" : "message",
									"text" : "nsub 0 4 $1",
									"numinlets" : 2,
									"numoutlets" : 1,
									"id" : "obj-36",
									"fontname" : "Arial",
									"outlettype" : [ "" ],
									"patching_rect" : [ 283.0, 244.0, 73.0, 18.0 ],
									"fontsize" : 12.0
								}

							}
, 							{
								"box" : 								{
									"maxclass" : "message",
									"text" : "nsub 0 3 $1",
									"numinlets" : 2,
									"numoutlets" : 1,
									"id" : "obj-35",
									"fontname" : "Arial",
									"outlettype" : [ "" ],
									"patching_rect" : [ 199.0, 243.0, 73.0, 18.0 ],
									"fontsize" : 12.0
								}

							}
, 							{
								"box" : 								{
									"maxclass" : "message",
									"text" : "nsub 0 2 $1",
									"numinlets" : 2,
									"numoutlets" : 1,
									"id" : "obj-34",
									"fontname" : "Arial",
									"outlettype" : [ "" ],
									"patching_rect" : [ 118.0, 243.0, 73.0, 18.0 ],
									"fontsize" : 12.0
								}

							}
, 							{
								"box" : 								{
									"maxclass" : "message",
									"text" : "nsub 0 1 $1",
									"numinlets" : 2,
									"numoutlets" : 1,
									"id" : "obj-63",
									"fontname" : "Arial",
									"outlettype" : [ "" ],
									"patching_rect" : [ 37.0, 243.0, 73.0, 18.0 ],
									"fontsize" : 12.0
								}

							}
, 							{
								"box" : 								{
									"maxclass" : "newobj",
									"text" : "coll",
									"numinlets" : 1,
									"numoutlets" : 4,
									"id" : "obj-59",
									"fontname" : "Arial",
									"outlettype" : [ "", "", "", "" ],
									"patching_rect" : [ 123.0, 284.0, 59.5, 20.0 ],
									"fontsize" : 12.0,
									"saved_object_attributes" : 									{
										"embed" : 0
									}

								}

							}
, 							{
								"box" : 								{
									"maxclass" : "newobj",
									"text" : "loadbang",
									"numinlets" : 1,
									"numoutlets" : 1,
									"id" : "obj-28",
									"fontname" : "Arial",
									"outlettype" : [ "bang" ],
									"patching_rect" : [ 291.0, 302.0, 60.0, 20.0 ],
									"fontsize" : 12.0
								}

							}
, 							{
								"box" : 								{
									"maxclass" : "newobj",
									"text" : "if $i1 then a else 1.",
									"numinlets" : 1,
									"numoutlets" : 1,
									"id" : "obj-12",
									"fontname" : "Arial",
									"outlettype" : [ "" ],
									"patching_rect" : [ 362.0, 124.0, 111.0, 20.0 ],
									"fontsize" : 12.0
								}

							}
, 							{
								"box" : 								{
									"maxclass" : "newobj",
									"text" : "if $i1 then b else 1.",
									"numinlets" : 1,
									"numoutlets" : 1,
									"id" : "obj-11",
									"fontname" : "Arial",
									"outlettype" : [ "" ],
									"patching_rect" : [ 292.0, 88.0, 111.0, 20.0 ],
									"fontsize" : 12.0
								}

							}
, 							{
								"box" : 								{
									"maxclass" : "newobj",
									"text" : "if $i1 then s else 1.",
									"numinlets" : 1,
									"numoutlets" : 1,
									"id" : "obj-10",
									"fontname" : "Arial",
									"outlettype" : [ "" ],
									"patching_rect" : [ 223.0, 124.0, 111.0, 20.0 ],
									"fontsize" : 12.0
								}

							}
, 							{
								"box" : 								{
									"maxclass" : "newobj",
									"text" : "if $i1 then h else 0.",
									"numinlets" : 1,
									"numoutlets" : 1,
									"id" : "obj-9",
									"fontname" : "Arial",
									"outlettype" : [ "" ],
									"patching_rect" : [ 163.0, 88.0, 111.0, 20.0 ],
									"fontsize" : 12.0
								}

							}
, 							{
								"box" : 								{
									"maxclass" : "newobj",
									"text" : "if $i1 then t else 0.02",
									"numinlets" : 1,
									"numoutlets" : 1,
									"id" : "obj-8",
									"fontname" : "Arial",
									"outlettype" : [ "" ],
									"patching_rect" : [ 92.0, 124.0, 122.0, 20.0 ],
									"fontsize" : 12.0
								}

							}
, 							{
								"box" : 								{
									"maxclass" : "newobj",
									"text" : "if $i1 then y else 0.",
									"numinlets" : 1,
									"numoutlets" : 1,
									"id" : "obj-7",
									"fontname" : "Arial",
									"outlettype" : [ "" ],
									"patching_rect" : [ 40.0, 88.0, 112.0, 20.0 ],
									"fontsize" : 12.0
								}

							}
, 							{
								"box" : 								{
									"maxclass" : "inlet",
									"numinlets" : 0,
									"numoutlets" : 1,
									"id" : "obj-6",
									"outlettype" : [ "int" ],
									"patching_rect" : [ 353.0, 30.0, 25.0, 25.0 ],
									"comment" : "alpha"
								}

							}
, 							{
								"box" : 								{
									"maxclass" : "inlet",
									"numinlets" : 0,
									"numoutlets" : 1,
									"id" : "obj-5",
									"outlettype" : [ "int" ],
									"patching_rect" : [ 293.0, 30.0, 25.0, 25.0 ],
									"comment" : "value"
								}

							}
, 							{
								"box" : 								{
									"maxclass" : "inlet",
									"numinlets" : 0,
									"numoutlets" : 1,
									"id" : "obj-4",
									"outlettype" : [ "int" ],
									"patching_rect" : [ 235.0, 30.0, 25.0, 25.0 ],
									"comment" : "saturation"
								}

							}
, 							{
								"box" : 								{
									"maxclass" : "inlet",
									"numinlets" : 0,
									"numoutlets" : 1,
									"id" : "obj-3",
									"outlettype" : [ "int" ],
									"patching_rect" : [ 171.0, 30.0, 25.0, 25.0 ],
									"comment" : "hue"
								}

							}
, 							{
								"box" : 								{
									"maxclass" : "inlet",
									"numinlets" : 0,
									"numoutlets" : 1,
									"id" : "obj-2",
									"outlettype" : [ "int" ],
									"patching_rect" : [ 100.0, 30.0, 25.0, 25.0 ],
									"comment" : "thickness"
								}

							}
, 							{
								"box" : 								{
									"maxclass" : "inlet",
									"numinlets" : 0,
									"numoutlets" : 1,
									"id" : "obj-1",
									"outlettype" : [ "int" ],
									"patching_rect" : [ 51.0, 30.0, 25.0, 25.0 ],
									"comment" : "y"
								}

							}
 ],
						"lines" : [ 							{
								"patchline" : 								{
									"source" : [ "obj-9", 0 ],
									"destination" : [ "obj-35", 0 ],
									"hidden" : 0,
									"midpoints" : [ 172.5, 175.0, 208.5, 175.0 ]
								}

							}
, 							{
								"patchline" : 								{
									"source" : [ "obj-8", 0 ],
									"destination" : [ "obj-34", 0 ],
									"hidden" : 0,
									"midpoints" : [ 101.5, 193.0, 127.5, 193.0 ]
								}

							}
, 							{
								"patchline" : 								{
									"source" : [ "obj-7", 0 ],
									"destination" : [ "obj-63", 0 ],
									"hidden" : 0,
									"midpoints" : [  ]
								}

							}
, 							{
								"patchline" : 								{
									"source" : [ "obj-63", 0 ],
									"destination" : [ "obj-59", 0 ],
									"hidden" : 0,
									"midpoints" : [ 46.5, 273.0, 132.5, 273.0 ]
								}

							}
, 							{
								"patchline" : 								{
									"source" : [ "obj-6", 0 ],
									"destination" : [ "obj-39", 0 ],
									"hidden" : 0,
									"midpoints" : [ 362.5, 75.0, 19.5, 75.0 ]
								}

							}
, 							{
								"patchline" : 								{
									"source" : [ "obj-6", 0 ],
									"destination" : [ "obj-12", 0 ],
									"hidden" : 0,
									"midpoints" : [ 362.5, 56.0, 412.0, 56.0, 412.0, 110.0, 371.5, 110.0 ]
								}

							}
, 							{
								"patchline" : 								{
									"source" : [ "obj-59", 3 ],
									"destination" : [ "obj-45", 0 ],
									"hidden" : 0,
									"midpoints" : [  ]
								}

							}
, 							{
								"patchline" : 								{
									"source" : [ "obj-59", 0 ],
									"destination" : [ "obj-44", 0 ],
									"hidden" : 0,
									"midpoints" : [  ]
								}

							}
, 							{
								"patchline" : 								{
									"source" : [ "obj-5", 0 ],
									"destination" : [ "obj-39", 0 ],
									"hidden" : 0,
									"midpoints" : [ 302.5, 75.0, 19.5, 75.0 ]
								}

							}
, 							{
								"patchline" : 								{
									"source" : [ "obj-5", 0 ],
									"destination" : [ "obj-11", 0 ],
									"hidden" : 0,
									"midpoints" : [ 302.5, 74.0, 301.5, 74.0 ]
								}

							}
, 							{
								"patchline" : 								{
									"source" : [ "obj-43", 0 ],
									"destination" : [ "obj-59", 0 ],
									"hidden" : 0,
									"midpoints" : [ 453.5, 318.0, 363.0, 318.0, 363.0, 273.0, 132.5, 273.0 ]
								}

							}
, 							{
								"patchline" : 								{
									"source" : [ "obj-42", 0 ],
									"destination" : [ "obj-41", 0 ],
									"hidden" : 0,
									"midpoints" : [  ]
								}

							}
, 							{
								"patchline" : 								{
									"source" : [ "obj-41", 0 ],
									"destination" : [ "obj-59", 0 ],
									"hidden" : 0,
									"midpoints" : [ 300.5, 389.0, 192.0, 389.0, 192.0, 273.0, 132.5, 273.0 ]
								}

							}
, 							{
								"patchline" : 								{
									"source" : [ "obj-4", 0 ],
									"destination" : [ "obj-39", 0 ],
									"hidden" : 0,
									"midpoints" : [ 244.5, 75.0, 19.5, 75.0 ]
								}

							}
, 							{
								"patchline" : 								{
									"source" : [ "obj-4", 0 ],
									"destination" : [ "obj-10", 0 ],
									"hidden" : 0,
									"midpoints" : [ 244.5, 56.0, 274.0, 56.0, 274.0, 110.0, 232.5, 110.0 ]
								}

							}
, 							{
								"patchline" : 								{
									"source" : [ "obj-39", 0 ],
									"destination" : [ "obj-59", 0 ],
									"hidden" : 0,
									"midpoints" : [ 19.5, 273.0, 132.5, 273.0 ]
								}

							}
, 							{
								"patchline" : 								{
									"source" : [ "obj-38", 0 ],
									"destination" : [ "obj-59", 0 ],
									"hidden" : 0,
									"midpoints" : [ 450.5, 273.0, 132.5, 273.0 ]
								}

							}
, 							{
								"patchline" : 								{
									"source" : [ "obj-37", 0 ],
									"destination" : [ "obj-59", 0 ],
									"hidden" : 0,
									"midpoints" : [ 372.5, 273.0, 132.5, 273.0 ]
								}

							}
, 							{
								"patchline" : 								{
									"source" : [ "obj-36", 0 ],
									"destination" : [ "obj-59", 0 ],
									"hidden" : 0,
									"midpoints" : [ 292.5, 273.0, 132.5, 273.0 ]
								}

							}
, 							{
								"patchline" : 								{
									"source" : [ "obj-35", 0 ],
									"destination" : [ "obj-59", 0 ],
									"hidden" : 0,
									"midpoints" : [ 208.5, 273.0, 132.5, 273.0 ]
								}

							}
, 							{
								"patchline" : 								{
									"source" : [ "obj-34", 0 ],
									"destination" : [ "obj-59", 0 ],
									"hidden" : 0,
									"midpoints" : [ 127.5, 270.0, 132.5, 270.0 ]
								}

							}
, 							{
								"patchline" : 								{
									"source" : [ "obj-3", 0 ],
									"destination" : [ "obj-9", 0 ],
									"hidden" : 0,
									"midpoints" : [ 180.5, 56.0, 172.0, 56.0, 172.0, 74.0, 172.5, 74.0 ]
								}

							}
, 							{
								"patchline" : 								{
									"source" : [ "obj-3", 0 ],
									"destination" : [ "obj-39", 0 ],
									"hidden" : 0,
									"midpoints" : [ 180.5, 75.0, 19.5, 75.0 ]
								}

							}
, 							{
								"patchline" : 								{
									"source" : [ "obj-28", 0 ],
									"destination" : [ "obj-42", 0 ],
									"hidden" : 0,
									"midpoints" : [  ]
								}

							}
, 							{
								"patchline" : 								{
									"source" : [ "obj-2", 0 ],
									"destination" : [ "obj-8", 0 ],
									"hidden" : 0,
									"midpoints" : [ 109.5, 56.0, 151.0, 56.0, 151.0, 110.0, 101.5, 110.0 ]
								}

							}
, 							{
								"patchline" : 								{
									"source" : [ "obj-2", 0 ],
									"destination" : [ "obj-39", 0 ],
									"hidden" : 0,
									"midpoints" : [ 109.5, 75.0, 19.5, 75.0 ]
								}

							}
, 							{
								"patchline" : 								{
									"source" : [ "obj-12", 0 ],
									"destination" : [ "obj-38", 0 ],
									"hidden" : 0,
									"midpoints" : [ 371.5, 193.5, 450.5, 193.5 ]
								}

							}
, 							{
								"patchline" : 								{
									"source" : [ "obj-11", 0 ],
									"destination" : [ "obj-37", 0 ],
									"hidden" : 0,
									"midpoints" : [ 301.5, 198.0, 372.5, 198.0 ]
								}

							}
, 							{
								"patchline" : 								{
									"source" : [ "obj-10", 0 ],
									"destination" : [ "obj-36", 0 ],
									"hidden" : 0,
									"midpoints" : [ 232.5, 193.5, 292.5, 193.5 ]
								}

							}
, 							{
								"patchline" : 								{
									"source" : [ "obj-1", 0 ],
									"destination" : [ "obj-7", 0 ],
									"hidden" : 0,
									"midpoints" : [ 60.5, 56.0, 49.0, 56.0, 49.0, 74.0, 49.5, 74.0 ]
								}

							}
, 							{
								"patchline" : 								{
									"source" : [ "obj-1", 0 ],
									"destination" : [ "obj-39", 0 ],
									"hidden" : 0,
									"midpoints" : [ 60.5, 75.0, 19.5, 75.0 ]
								}

							}
 ]
					}
,
					"saved_object_attributes" : 					{
						"default_fontname" : "Arial",
						"default_fontsize" : 12.0,
						"fontname" : "Arial",
						"globalpatchername" : "",
						"default_fontface" : 0,
						"fontface" : 0,
						"fontsize" : 12.0
					}

				}

			}
, 			{
				"box" : 				{
					"maxclass" : "button",
					"numinlets" : 1,
					"numoutlets" : 1,
					"id" : "obj-6",
					"outlettype" : [ "bang" ],
					"patching_rect" : [ 475.0, 38.0, 20.0, 20.0 ]
				}

			}
, 			{
				"box" : 				{
					"maxclass" : "message",
					"text" : "0.45",
					"numinlets" : 2,
					"numoutlets" : 1,
					"id" : "obj-4",
					"fontname" : "Arial",
					"outlettype" : [ "" ],
					"patching_rect" : [ 512.0, 82.0, 34.0, 18.0 ],
					"fontsize" : 12.0
				}

			}
, 			{
				"box" : 				{
					"maxclass" : "message",
					"text" : "20",
					"numinlets" : 2,
					"numoutlets" : 1,
					"id" : "obj-3",
					"fontname" : "Arial",
					"outlettype" : [ "" ],
					"patching_rect" : [ 475.0, 83.0, 32.5, 18.0 ],
					"fontsize" : 12.0
				}

			}
, 			{
				"box" : 				{
					"maxclass" : "newobj",
					"text" : "loadbang",
					"numinlets" : 1,
					"numoutlets" : 1,
					"id" : "obj-2",
					"fontname" : "Arial",
					"outlettype" : [ "bang" ],
					"patching_rect" : [ 498.0, 37.0, 60.0, 20.0 ],
					"fontsize" : 12.0
				}

			}
, 			{
				"box" : 				{
					"maxclass" : "flonum",
					"maximum" : 1.0,
					"numinlets" : 1,
					"numoutlets" : 2,
					"id" : "obj-55",
					"presentation_rect" : [ 211.0, 12.0, 50.0, 20.0 ],
					"fontname" : "Arial",
					"outlettype" : [ "float", "bang" ],
					"patching_rect" : [ 484.0, 138.0, 50.0, 20.0 ],
					"presentation" : 1,
					"fontsize" : 12.0,
					"minimum" : -1.0
				}

			}
, 			{
				"box" : 				{
					"maxclass" : "newobj",
					"text" : "* 1.",
					"numinlets" : 2,
					"numoutlets" : 1,
					"id" : "obj-56",
					"fontname" : "Arial",
					"outlettype" : [ "float" ],
					"patching_rect" : [ 484.0, 180.0, 32.5, 20.0 ],
					"fontsize" : 12.0
				}

			}
, 			{
				"box" : 				{
					"maxclass" : "toggle",
					"numinlets" : 1,
					"numoutlets" : 1,
					"id" : "obj-30",
					"presentation_rect" : [ 90.0, 14.0, 20.0, 20.0 ],
					"outlettype" : [ "int" ],
					"patching_rect" : [ 355.0, 139.0, 20.0, 20.0 ],
					"presentation" : 1
				}

			}
, 			{
				"box" : 				{
					"maxclass" : "number",
					"numinlets" : 1,
					"numoutlets" : 2,
					"id" : "obj-20",
					"presentation_rect" : [ 151.0, 13.0, 50.0, 20.0 ],
					"fontname" : "Arial",
					"outlettype" : [ "int", "bang" ],
					"patching_rect" : [ 429.0, 139.0, 50.0, 20.0 ],
					"presentation" : 1,
					"fontsize" : 12.0
				}

			}
, 			{
				"box" : 				{
					"maxclass" : "slider",
					"size" : 1000.0,
					"numinlets" : 1,
					"numoutlets" : 1,
					"id" : "obj-29",
					"outlettype" : [ "" ],
					"patching_rect" : [ 429.0, 49.0, 18.0, 64.0 ],
					"floatoutput" : 1
				}

			}
, 			{
				"box" : 				{
					"maxclass" : "newobj",
					"text" : "p osc",
					"numinlets" : 3,
					"numoutlets" : 1,
					"id" : "obj-1",
					"fontname" : "Arial",
					"outlettype" : [ "float" ],
					"patching_rect" : [ 381.0, 140.0, 39.0, 20.0 ],
					"fontsize" : 12.0,
					"patcher" : 					{
						"fileversion" : 1,
						"rect" : [ 775.0, 59.0, 259.0, 327.0 ],
						"bglocked" : 0,
						"defrect" : [ 775.0, 59.0, 259.0, 327.0 ],
						"openrect" : [ 0.0, 0.0, 0.0, 0.0 ],
						"openinpresentation" : 0,
						"default_fontsize" : 12.0,
						"default_fontface" : 0,
						"default_fontname" : "Arial",
						"gridonopen" : 0,
						"gridsize" : [ 15.0, 15.0 ],
						"gridsnaponopen" : 0,
						"toolbarvisible" : 1,
						"boxanimatetime" : 200,
						"imprint" : 0,
						"enablehscroll" : 1,
						"enablevscroll" : 1,
						"devicewidth" : 0.0,
						"boxes" : [ 							{
								"box" : 								{
									"maxclass" : "inlet",
									"numinlets" : 0,
									"numoutlets" : 1,
									"id" : "obj-22",
									"outlettype" : [ "" ],
									"patching_rect" : [ 151.0, 66.0, 25.0, 25.0 ],
									"comment" : "reset"
								}

							}
, 							{
								"box" : 								{
									"maxclass" : "inlet",
									"numinlets" : 0,
									"numoutlets" : 1,
									"id" : "obj-21",
									"outlettype" : [ "int" ],
									"patching_rect" : [ 103.0, 66.0, 25.0, 25.0 ],
									"comment" : "interval"
								}

							}
, 							{
								"box" : 								{
									"maxclass" : "outlet",
									"numinlets" : 1,
									"numoutlets" : 0,
									"id" : "obj-20",
									"patching_rect" : [ 63.0, 278.0, 25.0, 25.0 ],
									"comment" : ""
								}

							}
, 							{
								"box" : 								{
									"maxclass" : "inlet",
									"hint" : "",
									"annotation" : "",
									"numinlets" : 0,
									"numoutlets" : 1,
									"id" : "obj-19",
									"outlettype" : [ "int" ],
									"patching_rect" : [ 62.0, 32.0, 25.0, 25.0 ],
									"comment" : "switch on/off"
								}

							}
, 							{
								"box" : 								{
									"maxclass" : "message",
									"text" : "set 0",
									"numinlets" : 2,
									"numoutlets" : 1,
									"id" : "obj-15",
									"fontname" : "Arial",
									"outlettype" : [ "" ],
									"patching_rect" : [ 151.0, 113.0, 37.0, 18.0 ],
									"fontsize" : 12.0
								}

							}
, 							{
								"box" : 								{
									"maxclass" : "button",
									"numinlets" : 1,
									"numoutlets" : 1,
									"id" : "obj-14",
									"outlettype" : [ "bang" ],
									"patching_rect" : [ 179.0, 142.0, 20.0, 20.0 ]
								}

							}
, 							{
								"box" : 								{
									"maxclass" : "newobj",
									"text" : "/ 10.",
									"numinlets" : 2,
									"numoutlets" : 1,
									"id" : "obj-13",
									"fontname" : "Arial",
									"outlettype" : [ "float" ],
									"patching_rect" : [ 63.0, 220.0, 34.0, 20.0 ],
									"fontsize" : 12.0
								}

							}
, 							{
								"box" : 								{
									"maxclass" : "newobj",
									"text" : "sin",
									"numinlets" : 1,
									"numoutlets" : 1,
									"id" : "obj-10",
									"fontname" : "Arial",
									"outlettype" : [ "float" ],
									"patching_rect" : [ 63.0, 246.0, 26.0, 20.0 ],
									"fontsize" : 12.0
								}

							}
, 							{
								"box" : 								{
									"maxclass" : "newobj",
									"text" : "counter",
									"numinlets" : 5,
									"numoutlets" : 4,
									"id" : "obj-9",
									"fontname" : "Arial",
									"outlettype" : [ "int", "", "", "int" ],
									"patching_rect" : [ 63.0, 189.0, 73.0, 20.0 ],
									"fontsize" : 12.0
								}

							}
, 							{
								"box" : 								{
									"maxclass" : "toggle",
									"numinlets" : 1,
									"numoutlets" : 1,
									"id" : "obj-2",
									"outlettype" : [ "int" ],
									"patching_rect" : [ 63.0, 71.0, 20.0, 20.0 ]
								}

							}
, 							{
								"box" : 								{
									"maxclass" : "newobj",
									"text" : "metro 50",
									"numinlets" : 2,
									"numoutlets" : 1,
									"id" : "obj-1",
									"fontname" : "Arial",
									"outlettype" : [ "bang" ],
									"patching_rect" : [ 63.0, 155.0, 58.0, 20.0 ],
									"fontsize" : 12.0
								}

							}
 ],
						"lines" : [ 							{
								"patchline" : 								{
									"source" : [ "obj-9", 0 ],
									"destination" : [ "obj-13", 0 ],
									"hidden" : 0,
									"midpoints" : [  ]
								}

							}
, 							{
								"patchline" : 								{
									"source" : [ "obj-22", 0 ],
									"destination" : [ "obj-15", 0 ],
									"hidden" : 0,
									"midpoints" : [  ]
								}

							}
, 							{
								"patchline" : 								{
									"source" : [ "obj-21", 0 ],
									"destination" : [ "obj-1", 1 ],
									"hidden" : 0,
									"midpoints" : [  ]
								}

							}
, 							{
								"patchline" : 								{
									"source" : [ "obj-2", 0 ],
									"destination" : [ "obj-1", 0 ],
									"hidden" : 0,
									"midpoints" : [  ]
								}

							}
, 							{
								"patchline" : 								{
									"source" : [ "obj-19", 0 ],
									"destination" : [ "obj-2", 0 ],
									"hidden" : 0,
									"midpoints" : [  ]
								}

							}
, 							{
								"patchline" : 								{
									"source" : [ "obj-15", 0 ],
									"destination" : [ "obj-9", 0 ],
									"hidden" : 0,
									"midpoints" : [ 160.5, 184.0, 72.5, 184.0 ]
								}

							}
, 							{
								"patchline" : 								{
									"source" : [ "obj-14", 0 ],
									"destination" : [ "obj-9", 0 ],
									"hidden" : 0,
									"midpoints" : [ 188.5, 180.0, 72.5, 180.0 ]
								}

							}
, 							{
								"patchline" : 								{
									"source" : [ "obj-13", 0 ],
									"destination" : [ "obj-10", 0 ],
									"hidden" : 0,
									"midpoints" : [  ]
								}

							}
, 							{
								"patchline" : 								{
									"source" : [ "obj-10", 0 ],
									"destination" : [ "obj-20", 0 ],
									"hidden" : 0,
									"midpoints" : [  ]
								}

							}
, 							{
								"patchline" : 								{
									"source" : [ "obj-1", 0 ],
									"destination" : [ "obj-9", 0 ],
									"hidden" : 0,
									"midpoints" : [  ]
								}

							}
 ]
					}
,
					"saved_object_attributes" : 					{
						"default_fontname" : "Arial",
						"default_fontsize" : 12.0,
						"fontname" : "Arial",
						"globalpatchername" : "",
						"default_fontface" : 0,
						"fontface" : 0,
						"fontsize" : 12.0
					}

				}

			}
 ],
		"lines" : [ 			{
				"patchline" : 				{
					"source" : [ "obj-64", 0 ],
					"destination" : [ "obj-67", 0 ],
					"hidden" : 0,
					"midpoints" : [  ]
				}

			}
, 			{
				"patchline" : 				{
					"source" : [ "obj-61", 3 ],
					"destination" : [ "obj-45", 0 ],
					"hidden" : 0,
					"midpoints" : [ 326.0, 255.0, 433.5, 255.0 ]
				}

			}
, 			{
				"patchline" : 				{
					"source" : [ "obj-61", 2 ],
					"destination" : [ "obj-39", 0 ],
					"hidden" : 0,
					"midpoints" : [ 312.5, 75.0, 221.0, 75.0, 221.0, 12.0, 43.0, 12.0 ]
				}

			}
, 			{
				"patchline" : 				{
					"source" : [ "obj-61", 1 ],
					"destination" : [ "obj-30", 0 ],
					"hidden" : 0,
					"midpoints" : [ 299.0, 96.0, 364.5, 96.0 ]
				}

			}
, 			{
				"patchline" : 				{
					"source" : [ "obj-60", 0 ],
					"destination" : [ "obj-61", 0 ],
					"hidden" : 0,
					"midpoints" : [  ]
				}

			}
, 			{
				"patchline" : 				{
					"source" : [ "obj-6", 0 ],
					"destination" : [ "obj-4", 0 ],
					"hidden" : 0,
					"midpoints" : [ 484.5, 70.0, 521.5, 70.0 ]
				}

			}
, 			{
				"patchline" : 				{
					"source" : [ "obj-6", 0 ],
					"destination" : [ "obj-3", 0 ],
					"hidden" : 0,
					"midpoints" : [ 484.5, 79.0, 484.5, 79.0 ]
				}

			}
, 			{
				"patchline" : 				{
					"source" : [ "obj-57", 0 ],
					"destination" : [ "obj-33", 0 ],
					"hidden" : 0,
					"midpoints" : [  ]
				}

			}
, 			{
				"patchline" : 				{
					"source" : [ "obj-56", 0 ],
					"destination" : [ "obj-41", 0 ],
					"hidden" : 0,
					"midpoints" : [  ]
				}

			}
, 			{
				"patchline" : 				{
					"source" : [ "obj-55", 0 ],
					"destination" : [ "obj-56", 1 ],
					"hidden" : 0,
					"midpoints" : [ 493.5, 172.0, 507.0, 172.0 ]
				}

			}
, 			{
				"patchline" : 				{
					"source" : [ "obj-54", 0 ],
					"destination" : [ "obj-36", 5 ],
					"hidden" : 0,
					"midpoints" : [ 136.0, 62.0, 120.5, 62.0 ]
				}

			}
, 			{
				"patchline" : 				{
					"source" : [ "obj-53", 0 ],
					"destination" : [ "obj-36", 4 ],
					"hidden" : 0,
					"midpoints" : [ 117.0, 62.0, 108.900002, 62.0 ]
				}

			}
, 			{
				"patchline" : 				{
					"source" : [ "obj-52", 0 ],
					"destination" : [ "obj-36", 3 ],
					"hidden" : 0,
					"midpoints" : [ 99.0, 74.0, 97.300003, 74.0 ]
				}

			}
, 			{
				"patchline" : 				{
					"source" : [ "obj-51", 0 ],
					"destination" : [ "obj-36", 2 ],
					"hidden" : 0,
					"midpoints" : [ 80.0, 65.0, 85.699997, 65.0 ]
				}

			}
, 			{
				"patchline" : 				{
					"source" : [ "obj-50", 0 ],
					"destination" : [ "obj-48", 0 ],
					"hidden" : 0,
					"midpoints" : [ 472.5, 399.0, 472.5, 399.0 ]
				}

			}
, 			{
				"patchline" : 				{
					"source" : [ "obj-45", 0 ],
					"destination" : [ "obj-33", 0 ],
					"hidden" : 0,
					"midpoints" : [ 433.5, 310.0, 472.5, 310.0 ]
				}

			}
, 			{
				"patchline" : 				{
					"source" : [ "obj-41", 0 ],
					"destination" : [ "obj-43", 0 ],
					"hidden" : 0,
					"midpoints" : [  ]
				}

			}
, 			{
				"patchline" : 				{
					"source" : [ "obj-40", 0 ],
					"destination" : [ "obj-36", 1 ],
					"hidden" : 0,
					"midpoints" : [ 61.0, 62.0, 74.099998, 62.0 ]
				}

			}
, 			{
				"patchline" : 				{
					"source" : [ "obj-4", 0 ],
					"destination" : [ "obj-55", 0 ],
					"hidden" : 0,
					"midpoints" : [ 521.5, 124.0, 493.5, 124.0 ]
				}

			}
, 			{
				"patchline" : 				{
					"source" : [ "obj-39", 0 ],
					"destination" : [ "obj-36", 0 ],
					"hidden" : 0,
					"midpoints" : [ 43.0, 65.0, 62.5, 65.0 ]
				}

			}
, 			{
				"patchline" : 				{
					"source" : [ "obj-37", 0 ],
					"destination" : [ "obj-38", 0 ],
					"hidden" : 0,
					"midpoints" : [  ]
				}

			}
, 			{
				"patchline" : 				{
					"source" : [ "obj-36", 0 ],
					"destination" : [ "obj-64", 0 ],
					"hidden" : 0,
					"midpoints" : [  ]
				}

			}
, 			{
				"patchline" : 				{
					"source" : [ "obj-34", 0 ],
					"destination" : [ "obj-15", 0 ],
					"hidden" : 0,
					"midpoints" : [  ]
				}

			}
, 			{
				"patchline" : 				{
					"source" : [ "obj-333", 0 ],
					"destination" : [ "obj-23", 0 ],
					"hidden" : 0,
					"midpoints" : [ 250.5, 172.0, 172.5, 172.0 ]
				}

			}
, 			{
				"patchline" : 				{
					"source" : [ "obj-33", 0 ],
					"destination" : [ "obj-50", 0 ],
					"hidden" : 0,
					"midpoints" : [ 472.5, 339.0, 472.5, 339.0 ]
				}

			}
, 			{
				"patchline" : 				{
					"source" : [ "obj-33", 3 ],
					"destination" : [ "obj-21", 0 ],
					"hidden" : 0,
					"midpoints" : [ 513.0, 339.0, 620.5, 339.0 ]
				}

			}
, 			{
				"patchline" : 				{
					"source" : [ "obj-30", 0 ],
					"destination" : [ "obj-1", 0 ],
					"hidden" : 0,
					"midpoints" : [ 364.5, 162.0, 378.0, 162.0, 378.0, 135.0, 390.5, 135.0 ]
				}

			}
, 			{
				"patchline" : 				{
					"source" : [ "obj-3", 0 ],
					"destination" : [ "obj-29", 0 ],
					"hidden" : 0,
					"midpoints" : [ 484.5, 103.0, 458.0, 103.0, 458.0, 46.0, 438.5, 46.0 ]
				}

			}
, 			{
				"patchline" : 				{
					"source" : [ "obj-29", 0 ],
					"destination" : [ "obj-20", 0 ],
					"hidden" : 0,
					"midpoints" : [  ]
				}

			}
, 			{
				"patchline" : 				{
					"source" : [ "obj-28", 0 ],
					"destination" : [ "obj-14", 0 ],
					"hidden" : 0,
					"midpoints" : [  ]
				}

			}
, 			{
				"patchline" : 				{
					"source" : [ "obj-23", 0 ],
					"destination" : [ "obj-67", 0 ],
					"hidden" : 0,
					"midpoints" : [ 172.5, 205.0, 118.0, 205.0, 118.0, 133.0, 63.5, 133.0 ]
				}

			}
, 			{
				"patchline" : 				{
					"source" : [ "obj-22", 1 ],
					"destination" : [ "obj-25", 0 ],
					"hidden" : 0,
					"midpoints" : [ 670.5, 398.0, 549.5, 398.0 ]
				}

			}
, 			{
				"patchline" : 				{
					"source" : [ "obj-21", 0 ],
					"destination" : [ "obj-22", 0 ],
					"hidden" : 0,
					"midpoints" : [  ]
				}

			}
, 			{
				"patchline" : 				{
					"source" : [ "obj-20", 0 ],
					"destination" : [ "obj-1", 1 ],
					"hidden" : 0,
					"midpoints" : [ 438.5, 159.0, 423.0, 159.0, 423.0, 135.0, 400.5, 135.0 ]
				}

			}
, 			{
				"patchline" : 				{
					"source" : [ "obj-2", 0 ],
					"destination" : [ "obj-4", 0 ],
					"hidden" : 0,
					"midpoints" : [ 507.5, 67.0, 521.5, 67.0 ]
				}

			}
, 			{
				"patchline" : 				{
					"source" : [ "obj-2", 0 ],
					"destination" : [ "obj-3", 0 ],
					"hidden" : 0,
					"midpoints" : [ 507.5, 70.0, 484.5, 70.0 ]
				}

			}
, 			{
				"patchline" : 				{
					"source" : [ "obj-1", 0 ],
					"destination" : [ "obj-56", 0 ],
					"hidden" : 0,
					"midpoints" : [ 390.5, 177.0, 493.5, 177.0 ]
				}

			}
, 			{
				"patchline" : 				{
					"source" : [ "obj-25", 0 ],
					"destination" : [ "obj-87", 0 ],
					"hidden" : 0,
					"midpoints" : [  ]
				}

			}
, 			{
				"patchline" : 				{
					"source" : [ "obj-87", 0 ],
					"destination" : [ "obj-48", 0 ],
					"hidden" : 0,
					"midpoints" : [ 549.5, 453.0, 518.0, 453.0, 518.0, 421.0, 472.5, 421.0 ]
				}

			}
 ]
	}

}
