#N canvas 9 32 350 188 10;
#X obj 147 103 bng 15 250 50 0 \$0-reload empty Reload -40 7 0 10 -262144
-1 -1;
#X obj -74 -40 vradio 15 1 0 3 \$0-dur empty empty 0 -8 0 10 -228856
-258113 -1 1;
#X text -77 -61 Cars duration;
#X obj -152 -42 tgl 15 0 \$0-play empty Play -4 -10 0 10 -262144 -1
-1 0 1;
#X obj -119 -40 vsl 15 128 10 100 0 0 \$0-rate empty Rate -4 -12 0
10 -262144 -1 -1 1600 1;
#X text -53 -26 half note;
#X text -53 -11 whole note;
#X obj 106 -41 vradio 15 1 0 3 \$0-vpos empty empty 0 -8 0 10 -228856
-258113 -1 1;
#X text 125 -44 top;
#X text 126 -27 over;
#X text 126 -10 bottom;
#X text 42 -63 Stretch;
#X obj 50 -41 vradio 15 1 0 4 \$0-stretch empty empty 0 -8 0 10 -228856
-258113 -1 1;
#X text 69 -44 h;
#X text 70 -27 hv;
#X text 70 -10 H;
#X text 70 4 Hv;
#N canvas 553 28 583 447 inside 0;
#X obj -157 238 cnv 15 250 180 empty empty OSC_Comm 20 12 0 12 -204800
-66577 0;
#X obj -153 359 dumpOSC 7001;
#X obj -153 390 print ITLOut;
#X obj -56 358 dumpOSC 7002;
#X obj -56 389 print ITL;
#X obj 10 326 sendOSC;
#X msg -150 293 connect localhost 7000;
#X obj -150 263 loadbang;
#X obj 10 292 prepend send;
#X obj 111 238 cnv 15 230 180 empty empty Init 20 12 0 12 -204800 -66577
0;
#X obj 195 303 getdir;
#X obj 144 278 t b b b b;
#X obj 195 332 prepend /ITL rootPath;
#X obj 274 247 loadbang;
#X msg 149 358 /ITL load sync.interlude;
#X obj 10 265 r sync;
#X obj 149 389 s sync;
#X obj 180 246 r \$0-reload;
#X obj -174 -13 cnv 15 170 160 empty empty Playing 20 12 0 12 -261682
-66577 0;
#X obj -156 51 metro 41.66;
#X msg -156 79 /ITL/scene/car* clock;
#X obj -156 114 s sync;
#X obj -155 16 r \$0-play;
#X obj -83 18 r \$0-rate;
#X obj 5 -13 cnv 15 390 185 empty empty parameters 20 12 0 12 -261682
-66577 0;
#X obj 44 45 route 0 1 2;
#X obj 36 71 bng 15 250 50 0 empty empty empty 17 7 0 10 -262144 -1
-1;
#X obj 63 71 bng 15 250 50 0 empty empty empty 17 7 0 10 -262144 -1
-1;
#X obj 91 71 bng 15 250 50 0 empty empty empty 17 7 0 10 -262144 -1
-1;
#X msg 20 95 4;
#X msg 60 95 2;
#X msg 97 95 1;
#X msg 20 125 /ITL/scene/car* duration 1 \$1;
#X obj 19 149 s sync;
#X obj 146 98 s sync;
#X obj 146 70 prepend /ITL/scene/sync car* myGuidoFile;
#N canvas 273 60 573 327 vstretch 0;
#X msg 296 144 syncOver;
#X msg 320 168 syncBottom;
#X obj 269 90 route 0 1 2;
#X obj 268 48 inlet;
#X obj 73 48 inlet;
#X obj 74 90 route 0 1 2 3;
#X msg 115 135 hv;
#X msg 150 136 H;
#X msg 192 135 Hv;
#X msg 73 136 h;
#X obj 151 288 outlet;
#X obj 202 190 bng 15 250 50 0 empty empty empty 17 7 0 10 -262144
-1 -1;
#X obj 152 228 pack s s;
#X obj 268 199 symbol;
#X msg 268 122 syncTop;
#X obj 151 261 route list;
#X connect 0 0 13 0;
#X connect 1 0 13 0;
#X connect 2 0 14 0;
#X connect 2 1 0 0;
#X connect 2 2 1 0;
#X connect 3 0 2 0;
#X connect 4 0 5 0;
#X connect 5 0 9 0;
#X connect 5 1 6 0;
#X connect 5 2 7 0;
#X connect 5 3 8 0;
#X connect 6 0 12 0;
#X connect 7 0 12 0;
#X connect 8 0 12 0;
#X connect 9 0 12 0;
#X connect 11 0 12 0;
#X connect 12 0 15 0;
#X connect 13 0 12 1;
#X connect 13 0 11 0;
#X connect 14 0 13 0;
#X connect 15 0 10 0;
#X restore 146 41 pd vstretch;
#X obj 44 14 r \$0-dur;
#X obj 121 0 r \$0-stretch;
#X obj 209 2 r \$0-vpos;
#X msg -155 186 /ITL/scene fullscreen \$1;
#X obj -156 157 r $fs;
#X obj -155 213 s sync;
#X connect 1 0 2 0;
#X connect 3 0 4 0;
#X connect 6 0 5 0;
#X connect 7 0 6 0;
#X connect 8 0 5 0;
#X connect 10 0 12 0;
#X connect 11 2 14 0;
#X connect 11 3 10 0;
#X connect 12 0 16 0;
#X connect 13 0 11 0;
#X connect 14 0 16 0;
#X connect 15 0 8 0;
#X connect 17 0 11 0;
#X connect 19 0 20 0;
#X connect 20 0 21 0;
#X connect 22 0 19 0;
#X connect 23 0 19 1;
#X connect 25 0 26 0;
#X connect 25 1 27 0;
#X connect 25 2 28 0;
#X connect 26 0 29 0;
#X connect 27 0 30 0;
#X connect 28 0 31 0;
#X connect 29 0 32 0;
#X connect 30 0 32 0;
#X connect 31 0 32 0;
#X connect 32 0 33 0;
#X connect 35 0 34 0;
#X connect 36 0 35 0;
#X connect 37 0 25 0;
#X connect 38 0 36 0;
#X connect 39 0 36 1;
#X connect 40 0 42 0;
#X connect 41 0 40 0;
#X restore -161 101 pd inside;
#X text 103 -63 Vertical Pos;
#X text -93 43 This patch shows components synchronization:;
#X text -92 55 the cars are synchronized to the score.;
#X obj 14 99 tgl 15 0 $fs empty Full_screen -24 -7 0 10 -262144 -1
-1 0 1;
#X text -54 -41 quarter note;
