#N canvas 37 69 203 219 10;
#X obj 42 177 bng 15 250 50 0 \$0-reload empty Reload -50 7 0 10 -262144
-1 -1;
#X obj -10 67 tgl 15 0 $a $ia empty 4 22 0 10 -228856 -258113 -1 1
1;
#X obj 8 67 tgl 15 0 $b $ib empty 2 22 0 10 -228856 -258113 -1 1 1
;
#X obj 26 67 tgl 15 0 $c $ic empty 4 22 0 10 -228856 -258113 -1 1 1
;
#X obj -60 29 tgl 15 0 \$0-play empty empty 17 7 0 10 -262144 -1 -1
0 1;
#X text -84 12 Start/Stop;
#X obj -59 64 vsl 15 100 3 20 0 0 \$0-rate empty Rate -4 -9 0 10 -262144
-1 -1 0 1;
#N canvas 497 109 562 482 inside 0;
#X obj -170 250 cnv 15 250 180 empty empty OSC_Comm 20 12 0 12 -204800
-66577 0;
#X obj -166 371 dumpOSC 7001;
#X obj -166 402 print ITLOut;
#X obj -69 370 dumpOSC 7002;
#X obj -69 401 print ITL;
#X obj -3 338 sendOSC;
#X msg -163 305 connect localhost 7000;
#X obj -163 275 loadbang;
#X obj -3 304 prepend send;
#X obj 98 250 cnv 15 230 180 empty empty Init 20 12 0 12 -204800 -66577
0;
#X obj 182 315 getdir;
#X obj 131 290 t b b b b;
#X obj 241 258 loadbang;
#N canvas 612 528 331 325 osc 0;
#X obj 72 40 inlet;
#X obj 118 41 inlet;
#X obj 72 69 tgl 15 0 empty empty empty 17 7 0 10 -262144 -1 -1 0 1
;
#X obj 72 137 counter;
#X obj 72 195 sin;
#X obj 72 231 outlet;
#X obj 72 165 / 100;
#X obj 72 105 metro 3;
#X connect 0 0 2 0;
#X connect 1 0 7 1;
#X connect 2 0 7 0;
#X connect 3 0 6 0;
#X connect 4 0 5 0;
#X connect 6 0 4 0;
#X connect 7 0 3 0;
#X restore -150 96 pd osc;
#X obj 160 258 r \$0-reload;
#X obj -117 70 r \$0-rate;
#X obj -150 46 r \$0-play;
#X obj 91 -18 r $b;
#X obj 41 -9 r $a;
#X obj 182 337 prepend /ITL rootPath;
#X obj 188 357 prepend /ITL/scene rootPath;
#X obj -3 277 r moving;
#X msg 110 378 /ITL load moving.inscore;
#X obj 111 402 s moving;
#X obj -150 146 s coord;
#X obj 142 -11 r $c;
#X obj -27 83 switch 2;
#X obj 43 84 switch 2;
#X obj 199 83 switch 2;
#X obj 81 20 r coord;
#X obj 80 187 s moving;
#X obj 105 84 switch 2;
#X msg -27 111 /ITL/scene/p1 x \$1;
#X msg 201 140 /ITL/scene/p3 x \$1;
#X msg 104 112 /ITL/scene/p2 y \$1;
#X msg 43 141 /ITL/scene/p2 x \$1;
#X obj -150 119 * 0.39;
#X obj 241 -10 loadbang;
#X msg 243 14 1;
#X obj 221 41 s $ia;
#X obj 265 40 s $ib;
#X obj 309 39 s $ic;
#X connect 1 0 2 0;
#X connect 3 0 4 0;
#X connect 6 0 5 0;
#X connect 7 0 6 0;
#X connect 8 0 5 0;
#X connect 10 0 19 0;
#X connect 10 0 20 0;
#X connect 11 2 22 0;
#X connect 11 3 10 0;
#X connect 12 0 11 0;
#X connect 13 0 36 0;
#X connect 14 0 11 0;
#X connect 15 0 13 1;
#X connect 16 0 13 0;
#X connect 17 0 26 0;
#X connect 17 0 28 0;
#X connect 18 0 27 0;
#X connect 19 0 23 0;
#X connect 20 0 23 0;
#X connect 21 0 8 0;
#X connect 22 0 23 0;
#X connect 25 0 31 0;
#X connect 26 0 32 0;
#X connect 27 0 35 0;
#X connect 28 0 33 0;
#X connect 29 0 26 1;
#X connect 29 0 27 1;
#X connect 29 0 28 1;
#X connect 29 0 31 1;
#X connect 31 0 34 0;
#X connect 32 0 30 0;
#X connect 33 0 30 0;
#X connect 34 0 30 0;
#X connect 35 0 30 0;
#X connect 36 0 24 0;
#X connect 37 0 38 0;
#X connect 38 0 39 0;
#X connect 38 0 40 0;
#X connect 38 0 41 0;
#X restore -83 175 pd inside;
#X text -13 45 Movements;
