{
	"patcher" : 	{
		"fileversion" : 1,
		"rect" : [ 121.0, 44.0, 858.0, 631.0 ],
		"bglocked" : 0,
		"defrect" : [ 121.0, 44.0, 858.0, 631.0 ],
		"openrect" : [ 121.0, 44.0, 222.0, 128.0 ],
		"openinpresentation" : 1,
		"default_fontsize" : 12.0,
		"default_fontface" : 0,
		"default_fontname" : "Arial",
		"gridonopen" : 0,
		"gridsize" : [ 15.0, 15.0 ],
		"gridsnaponopen" : 0,
		"toolbarvisible" : 1,
		"boxanimatetime" : 200,
		"imprint" : 0,
		"enablehscroll" : 1,
		"enablevscroll" : 1,
		"devicewidth" : 0.0,
		"boxes" : [ 			{
				"box" : 				{
					"maxclass" : "newobj",
					"text" : "p rootpath",
					"numinlets" : 1,
					"numoutlets" : 1,
					"id" : "obj-9",
					"fontname" : "Arial",
					"outlettype" : [ "" ],
					"patching_rect" : [ 393.0, 569.0, 65.0, 20.0 ],
					"fontsize" : 12.0,
					"patcher" : 					{
						"fileversion" : 1,
						"rect" : [ 25.0, 69.0, 312.0, 240.0 ],
						"bglocked" : 0,
						"defrect" : [ 25.0, 69.0, 312.0, 240.0 ],
						"openrect" : [ 0.0, 0.0, 0.0, 0.0 ],
						"openinpresentation" : 0,
						"default_fontsize" : 12.0,
						"default_fontface" : 0,
						"default_fontname" : "Arial",
						"gridonopen" : 0,
						"gridsize" : [ 15.0, 15.0 ],
						"gridsnaponopen" : 0,
						"toolbarvisible" : 1,
						"boxanimatetime" : 200,
						"imprint" : 0,
						"enablehscroll" : 1,
						"enablevscroll" : 1,
						"devicewidth" : 0.0,
						"boxes" : [ 							{
								"box" : 								{
									"maxclass" : "newobj",
									"text" : "prepend /ITL/scene rootPath",
									"numinlets" : 1,
									"numoutlets" : 1,
									"id" : "obj-3",
									"fontname" : "Arial",
									"outlettype" : [ "" ],
									"patching_rect" : [ 58.0, 116.0, 163.0, 20.0 ],
									"fontsize" : 12.0
								}

							}
, 							{
								"box" : 								{
									"maxclass" : "outlet",
									"numinlets" : 1,
									"numoutlets" : 0,
									"id" : "obj-2",
									"patching_rect" : [ 36.0, 151.0, 25.0, 25.0 ],
									"comment" : ""
								}

							}
, 							{
								"box" : 								{
									"maxclass" : "inlet",
									"numinlets" : 0,
									"numoutlets" : 1,
									"id" : "obj-1",
									"outlettype" : [ "" ],
									"patching_rect" : [ 36.0, 31.0, 25.0, 25.0 ],
									"comment" : ""
								}

							}
, 							{
								"box" : 								{
									"maxclass" : "newobj",
									"text" : "prepend /ITL rootPath",
									"numinlets" : 1,
									"numoutlets" : 1,
									"id" : "obj-6",
									"fontname" : "Arial",
									"outlettype" : [ "" ],
									"patching_rect" : [ 36.0, 76.0, 127.0, 20.0 ],
									"fontsize" : 12.0
								}

							}
 ],
						"lines" : [ 							{
								"patchline" : 								{
									"source" : [ "obj-1", 0 ],
									"destination" : [ "obj-6", 0 ],
									"hidden" : 0,
									"midpoints" : [  ]
								}

							}
, 							{
								"patchline" : 								{
									"source" : [ "obj-1", 0 ],
									"destination" : [ "obj-3", 0 ],
									"hidden" : 0,
									"midpoints" : [  ]
								}

							}
, 							{
								"patchline" : 								{
									"source" : [ "obj-3", 0 ],
									"destination" : [ "obj-2", 0 ],
									"hidden" : 0,
									"midpoints" : [  ]
								}

							}
, 							{
								"patchline" : 								{
									"source" : [ "obj-6", 0 ],
									"destination" : [ "obj-2", 0 ],
									"hidden" : 0,
									"midpoints" : [  ]
								}

							}
 ]
					}
,
					"saved_object_attributes" : 					{
						"default_fontname" : "Arial",
						"default_fontsize" : 12.0,
						"fontname" : "Arial",
						"globalpatchername" : "",
						"default_fontface" : 0,
						"fontface" : 0,
						"fontsize" : 12.0
					}

				}

			}
, 			{
				"box" : 				{
					"maxclass" : "comment",
					"text" : "Audio setup",
					"numinlets" : 1,
					"numoutlets" : 0,
					"id" : "obj-27",
					"presentation_rect" : [ 36.0, 106.0, 62.0, 18.0 ],
					"fontname" : "Arial",
					"patching_rect" : [ 453.0, 258.0, 62.0, 18.0 ],
					"presentation" : 1,
					"fontsize" : 10.0
				}

			}
, 			{
				"box" : 				{
					"maxclass" : "button",
					"numinlets" : 1,
					"numoutlets" : 1,
					"id" : "obj-25",
					"presentation_rect" : [ 13.0, 104.0, 20.0, 20.0 ],
					"outlettype" : [ "bang" ],
					"patching_rect" : [ 457.0, 280.0, 20.0, 20.0 ],
					"presentation" : 1
				}

			}
, 			{
				"box" : 				{
					"maxclass" : "message",
					"text" : "open",
					"numinlets" : 2,
					"numoutlets" : 1,
					"id" : "obj-14",
					"fontname" : "Arial",
					"outlettype" : [ "" ],
					"patching_rect" : [ 453.0, 311.0, 37.0, 18.0 ],
					"fontsize" : 12.0
				}

			}
, 			{
				"box" : 				{
					"maxclass" : "message",
					"text" : "100",
					"numinlets" : 2,
					"hidden" : 1,
					"numoutlets" : 1,
					"id" : "obj-5",
					"fontname" : "Arial",
					"outlettype" : [ "" ],
					"patching_rect" : [ 528.0, 136.0, 32.5, 18.0 ],
					"fontsize" : 12.0
				}

			}
, 			{
				"box" : 				{
					"maxclass" : "comment",
					"text" : "This patch only plays a sound file and send 'clock' messages. The player is controlled by INScore using the interaction features.",
					"linecount" : 4,
					"presentation_linecount" : 5,
					"textcolor" : [ 0.282353, 0.282353, 0.282353, 1.0 ],
					"numinlets" : 1,
					"numoutlets" : 0,
					"frgb" : [ 0.282353, 0.282353, 0.282353, 1.0 ],
					"id" : "obj-49",
					"presentation_rect" : [ 10.0, 16.0, 204.0, 87.0 ],
					"fontname" : "Arial",
					"patching_rect" : [ 42.0, 320.0, 249.0, 71.0 ],
					"presentation" : 1,
					"fontsize" : 14.0
				}

			}
, 			{
				"box" : 				{
					"maxclass" : "newobj",
					"text" : "route 1 0",
					"numinlets" : 1,
					"numoutlets" : 3,
					"id" : "obj-44",
					"fontname" : "Arial",
					"outlettype" : [ "", "", "" ],
					"patching_rect" : [ 288.0, 51.0, 58.0, 20.0 ],
					"fontsize" : 12.0
				}

			}
, 			{
				"box" : 				{
					"maxclass" : "message",
					"text" : "pause",
					"numinlets" : 2,
					"numoutlets" : 1,
					"id" : "obj-43",
					"fontname" : "Arial",
					"outlettype" : [ "" ],
					"patching_rect" : [ 344.0, 81.0, 43.0, 18.0 ],
					"fontsize" : 12.0
				}

			}
, 			{
				"box" : 				{
					"maxclass" : "message",
					"text" : "resume",
					"numinlets" : 2,
					"numoutlets" : 1,
					"id" : "obj-42",
					"fontname" : "Arial",
					"outlettype" : [ "" ],
					"patching_rect" : [ 288.0, 81.0, 51.0, 18.0 ],
					"fontsize" : 12.0
				}

			}
, 			{
				"box" : 				{
					"maxclass" : "message",
					"text" : "seek $1",
					"numinlets" : 2,
					"numoutlets" : 1,
					"id" : "obj-35",
					"fontname" : "Arial",
					"outlettype" : [ "" ],
					"patching_rect" : [ 230.0, 199.0, 53.0, 18.0 ],
					"fontsize" : 12.0
				}

			}
, 			{
				"box" : 				{
					"maxclass" : "newobj",
					"text" : "p date",
					"numinlets" : 1,
					"numoutlets" : 2,
					"id" : "obj-34",
					"fontname" : "Arial",
					"outlettype" : [ "", "float" ],
					"patching_rect" : [ 205.0, 124.0, 44.0, 20.0 ],
					"fontsize" : 12.0,
					"patcher" : 					{
						"fileversion" : 1,
						"rect" : [ 661.0, 110.0, 355.0, 309.0 ],
						"bglocked" : 0,
						"defrect" : [ 661.0, 110.0, 355.0, 309.0 ],
						"openrect" : [ 0.0, 0.0, 0.0, 0.0 ],
						"openinpresentation" : 0,
						"default_fontsize" : 12.0,
						"default_fontface" : 0,
						"default_fontname" : "Arial",
						"gridonopen" : 0,
						"gridsize" : [ 15.0, 15.0 ],
						"gridsnaponopen" : 0,
						"toolbarvisible" : 1,
						"boxanimatetime" : 200,
						"imprint" : 0,
						"enablehscroll" : 1,
						"enablevscroll" : 1,
						"devicewidth" : 0.0,
						"boxes" : [ 							{
								"box" : 								{
									"maxclass" : "outlet",
									"numinlets" : 1,
									"numoutlets" : 0,
									"id" : "obj-8",
									"patching_rect" : [ 223.0, 230.0, 25.0, 25.0 ],
									"comment" : ""
								}

							}
, 							{
								"box" : 								{
									"maxclass" : "newobj",
									"text" : "* 3333.",
									"numinlets" : 2,
									"numoutlets" : 1,
									"id" : "obj-7",
									"fontname" : "Arial",
									"outlettype" : [ "float" ],
									"patching_rect" : [ 223.0, 188.0, 49.0, 20.0 ],
									"fontsize" : 12.0
								}

							}
, 							{
								"box" : 								{
									"maxclass" : "newobj",
									"text" : "/ 1.",
									"numinlets" : 2,
									"numoutlets" : 1,
									"id" : "obj-6",
									"fontname" : "Arial",
									"outlettype" : [ "float" ],
									"patching_rect" : [ 223.0, 160.0, 32.5, 20.0 ],
									"fontsize" : 12.0
								}

							}
, 							{
								"box" : 								{
									"maxclass" : "outlet",
									"numinlets" : 1,
									"numoutlets" : 0,
									"id" : "obj-5",
									"patching_rect" : [ 133.0, 234.0, 25.0, 25.0 ],
									"comment" : ""
								}

							}
, 							{
								"box" : 								{
									"maxclass" : "newobj",
									"text" : "pack 1 1",
									"numinlets" : 2,
									"numoutlets" : 1,
									"id" : "obj-4",
									"fontname" : "Arial",
									"outlettype" : [ "" ],
									"patching_rect" : [ 133.0, 160.0, 56.0, 20.0 ],
									"fontsize" : 12.0
								}

							}
, 							{
								"box" : 								{
									"maxclass" : "newobj",
									"text" : "if $i1 >= 0 then $i1",
									"numinlets" : 1,
									"numoutlets" : 1,
									"id" : "obj-2",
									"fontname" : "Arial",
									"outlettype" : [ "" ],
									"patching_rect" : [ 34.0, 119.0, 109.0, 20.0 ],
									"fontsize" : 12.0
								}

							}
, 							{
								"box" : 								{
									"maxclass" : "inlet",
									"numinlets" : 0,
									"numoutlets" : 1,
									"id" : "obj-1",
									"outlettype" : [ "" ],
									"patching_rect" : [ 120.0, 25.0, 25.0, 25.0 ],
									"comment" : ""
								}

							}
, 							{
								"box" : 								{
									"maxclass" : "newobj",
									"text" : "unpack 1 1",
									"numinlets" : 1,
									"numoutlets" : 2,
									"id" : "obj-29",
									"fontname" : "Arial",
									"outlettype" : [ "int", "int" ],
									"patching_rect" : [ 120.0, 78.0, 69.0, 20.0 ],
									"fontsize" : 12.0
								}

							}
, 							{
								"box" : 								{
									"maxclass" : "message",
									"text" : "date $1 $2",
									"numinlets" : 2,
									"numoutlets" : 1,
									"id" : "obj-27",
									"fontname" : "Arial",
									"outlettype" : [ "" ],
									"patching_rect" : [ 133.0, 188.0, 67.0, 18.0 ],
									"fontsize" : 12.0
								}

							}
 ],
						"lines" : [ 							{
								"patchline" : 								{
									"source" : [ "obj-1", 0 ],
									"destination" : [ "obj-29", 0 ],
									"hidden" : 0,
									"midpoints" : [  ]
								}

							}
, 							{
								"patchline" : 								{
									"source" : [ "obj-2", 0 ],
									"destination" : [ "obj-4", 0 ],
									"hidden" : 0,
									"midpoints" : [ 43.5, 149.0, 142.5, 149.0 ]
								}

							}
, 							{
								"patchline" : 								{
									"source" : [ "obj-2", 0 ],
									"destination" : [ "obj-6", 0 ],
									"hidden" : 0,
									"midpoints" : [ 43.5, 148.5, 232.5, 148.5 ]
								}

							}
, 							{
								"patchline" : 								{
									"source" : [ "obj-27", 0 ],
									"destination" : [ "obj-5", 0 ],
									"hidden" : 0,
									"midpoints" : [  ]
								}

							}
, 							{
								"patchline" : 								{
									"source" : [ "obj-29", 0 ],
									"destination" : [ "obj-2", 0 ],
									"hidden" : 0,
									"midpoints" : [ 129.5, 108.0, 43.5, 108.0 ]
								}

							}
, 							{
								"patchline" : 								{
									"source" : [ "obj-29", 1 ],
									"destination" : [ "obj-4", 1 ],
									"hidden" : 0,
									"midpoints" : [  ]
								}

							}
, 							{
								"patchline" : 								{
									"source" : [ "obj-29", 1 ],
									"destination" : [ "obj-6", 1 ],
									"hidden" : 0,
									"midpoints" : [ 179.5, 128.0, 246.0, 128.0 ]
								}

							}
, 							{
								"patchline" : 								{
									"source" : [ "obj-4", 0 ],
									"destination" : [ "obj-27", 0 ],
									"hidden" : 0,
									"midpoints" : [  ]
								}

							}
, 							{
								"patchline" : 								{
									"source" : [ "obj-6", 0 ],
									"destination" : [ "obj-7", 0 ],
									"hidden" : 0,
									"midpoints" : [  ]
								}

							}
, 							{
								"patchline" : 								{
									"source" : [ "obj-7", 0 ],
									"destination" : [ "obj-8", 0 ],
									"hidden" : 0,
									"midpoints" : [  ]
								}

							}
 ]
					}
,
					"saved_object_attributes" : 					{
						"default_fontname" : "Arial",
						"default_fontsize" : 12.0,
						"fontname" : "Arial",
						"globalpatchername" : "",
						"default_fontface" : 0,
						"fontface" : 0,
						"fontsize" : 12.0
					}

				}

			}
, 			{
				"box" : 				{
					"maxclass" : "newobj",
					"text" : "route 1",
					"numinlets" : 1,
					"numoutlets" : 2,
					"id" : "obj-26",
					"fontname" : "Arial",
					"outlettype" : [ "", "" ],
					"patching_rect" : [ 151.0, 182.0, 48.0, 20.0 ],
					"fontsize" : 12.0
				}

			}
, 			{
				"box" : 				{
					"maxclass" : "newobj",
					"text" : "s interact",
					"numinlets" : 1,
					"numoutlets" : 0,
					"id" : "obj-23",
					"fontname" : "Arial",
					"patching_rect" : [ 56.0, 284.0, 59.0, 20.0 ],
					"fontsize" : 12.0
				}

			}
, 			{
				"box" : 				{
					"maxclass" : "newobj",
					"text" : "prepend /ITL/scene/cursor",
					"numinlets" : 1,
					"numoutlets" : 1,
					"id" : "obj-22",
					"fontname" : "Arial",
					"outlettype" : [ "" ],
					"patching_rect" : [ 56.0, 254.0, 151.0, 20.0 ],
					"fontsize" : 12.0
				}

			}
, 			{
				"box" : 				{
					"maxclass" : "message",
					"text" : "date 0 1",
					"numinlets" : 2,
					"numoutlets" : 1,
					"id" : "obj-18",
					"fontname" : "Arial",
					"outlettype" : [ "" ],
					"patching_rect" : [ 108.0, 218.0, 54.0, 18.0 ],
					"fontsize" : 12.0
				}

			}
, 			{
				"box" : 				{
					"maxclass" : "message",
					"text" : "clock",
					"numinlets" : 2,
					"numoutlets" : 1,
					"id" : "obj-20",
					"fontname" : "Arial",
					"outlettype" : [ "" ],
					"patching_rect" : [ 56.0, 220.0, 38.0, 18.0 ],
					"fontsize" : 12.0
				}

			}
, 			{
				"box" : 				{
					"maxclass" : "newobj",
					"text" : "tempo 72 1 96",
					"numinlets" : 4,
					"numoutlets" : 1,
					"id" : "obj-21",
					"fontname" : "Arial",
					"outlettype" : [ "int" ],
					"patching_rect" : [ 56.0, 184.0, 87.0, 20.0 ],
					"fontsize" : 12.0
				}

			}
, 			{
				"box" : 				{
					"maxclass" : "gswitch2",
					"numinlets" : 2,
					"numoutlets" : 2,
					"id" : "obj-13",
					"outlettype" : [ "", "" ],
					"patching_rect" : [ 466.0, 208.0, 39.0, 32.0 ]
				}

			}
, 			{
				"box" : 				{
					"maxclass" : "gain~",
					"numinlets" : 2,
					"interp" : 83.654709,
					"numoutlets" : 2,
					"id" : "obj-12",
					"outlettype" : [ "signal", "int" ],
					"patching_rect" : [ 395.0, 167.0, 20.0, 140.0 ]
				}

			}
, 			{
				"box" : 				{
					"maxclass" : "button",
					"numinlets" : 1,
					"numoutlets" : 1,
					"id" : "obj-17",
					"outlettype" : [ "bang" ],
					"patching_rect" : [ 424.0, 170.0, 20.0, 20.0 ]
				}

			}
, 			{
				"box" : 				{
					"maxclass" : "message",
					"text" : "1",
					"numinlets" : 2,
					"hidden" : 1,
					"numoutlets" : 1,
					"id" : "obj-16",
					"fontname" : "Arial",
					"outlettype" : [ "" ],
					"patching_rect" : [ 394.0, 48.0, 32.5, 18.0 ],
					"fontsize" : 12.0
				}

			}
, 			{
				"box" : 				{
					"maxclass" : "newobj",
					"text" : "loadbang",
					"numinlets" : 1,
					"numoutlets" : 1,
					"id" : "obj-15",
					"fontname" : "Arial",
					"outlettype" : [ "bang" ],
					"patching_rect" : [ 467.0, 10.0, 60.0, 20.0 ],
					"fontsize" : 12.0
				}

			}
, 			{
				"box" : 				{
					"maxclass" : "message",
					"text" : "open gamme.wav",
					"numinlets" : 2,
					"hidden" : 1,
					"numoutlets" : 1,
					"id" : "obj-78",
					"fontname" : "Arial",
					"outlettype" : [ "" ],
					"patching_rect" : [ 420.0, 87.0, 105.0, 18.0 ],
					"fontsize" : 12.0
				}

			}
, 			{
				"box" : 				{
					"maxclass" : "ezdac~",
					"varname" : "autohelp_dac[1]",
					"numinlets" : 2,
					"numoutlets" : 0,
					"id" : "obj-11",
					"local" : 1,
					"patching_rect" : [ 379.0, 348.0, 45.0, 45.0 ]
				}

			}
, 			{
				"box" : 				{
					"maxclass" : "newobj",
					"text" : "sfplay~",
					"numinlets" : 2,
					"numoutlets" : 2,
					"id" : "obj-24",
					"fontname" : "Arial",
					"outlettype" : [ "signal", "bang" ],
					"patching_rect" : [ 394.0, 129.0, 49.0, 20.0 ],
					"fontsize" : 12.0,
					"save" : [ "#N", "sfplay~", "", 1, 120960, 0, "", ";" ]
				}

			}
, 			{
				"box" : 				{
					"maxclass" : "toggle",
					"numinlets" : 1,
					"numoutlets" : 1,
					"id" : "obj-10",
					"outlettype" : [ "int" ],
					"patching_rect" : [ 250.0, 16.0, 20.0, 20.0 ]
				}

			}
, 			{
				"box" : 				{
					"maxclass" : "newobj",
					"text" : "print",
					"numinlets" : 1,
					"numoutlets" : 0,
					"id" : "obj-7",
					"fontname" : "Arial",
					"patching_rect" : [ 157.0, 101.0, 34.0, 20.0 ],
					"fontsize" : 12.0
				}

			}
, 			{
				"box" : 				{
					"maxclass" : "newobj",
					"text" : "conformpath native boot",
					"numinlets" : 1,
					"numoutlets" : 2,
					"id" : "obj-36",
					"fontname" : "Arial",
					"outlettype" : [ "", "int" ],
					"patching_rect" : [ 393.0, 544.0, 139.0, 20.0 ],
					"fontsize" : 12.0
				}

			}
, 			{
				"box" : 				{
					"maxclass" : "message",
					"text" : "/ITL load interact.inscore",
					"numinlets" : 2,
					"numoutlets" : 1,
					"id" : "obj-8",
					"fontname" : "Arial",
					"outlettype" : [ "" ],
					"patching_rect" : [ 309.0, 510.0, 141.0, 18.0 ],
					"fontsize" : 12.0
				}

			}
, 			{
				"box" : 				{
					"maxclass" : "message",
					"text" : "path",
					"numinlets" : 2,
					"numoutlets" : 1,
					"id" : "obj-4",
					"fontname" : "Arial",
					"outlettype" : [ "" ],
					"patching_rect" : [ 456.0, 494.0, 34.0, 18.0 ],
					"fontsize" : 12.0
				}

			}
, 			{
				"box" : 				{
					"maxclass" : "newobj",
					"text" : "thispatcher",
					"numinlets" : 1,
					"numoutlets" : 2,
					"id" : "obj-3",
					"fontname" : "Arial",
					"outlettype" : [ "", "" ],
					"patching_rect" : [ 456.0, 519.0, 69.0, 20.0 ],
					"fontsize" : 12.0,
					"save" : [ "#N", "thispatcher", ";", "#Q", "end", ";" ]
				}

			}
, 			{
				"box" : 				{
					"maxclass" : "comment",
					"text" : "Initialization",
					"numinlets" : 1,
					"numoutlets" : 0,
					"id" : "obj-32",
					"fontname" : "Arial",
					"patching_rect" : [ 441.0, 436.0, 91.0, 23.0 ],
					"fontface" : 1,
					"fontsize" : 14.0
				}

			}
, 			{
				"box" : 				{
					"maxclass" : "comment",
					"text" : "reload",
					"numinlets" : 1,
					"numoutlets" : 0,
					"id" : "obj-46",
					"presentation_rect" : [ 151.0, 104.0, 43.0, 18.0 ],
					"fontname" : "Arial",
					"patching_rect" : [ 306.0, 460.0, 41.0, 18.0 ],
					"presentation" : 1,
					"fontsize" : 10.0
				}

			}
, 			{
				"box" : 				{
					"maxclass" : "button",
					"numinlets" : 1,
					"numoutlets" : 1,
					"id" : "obj-45",
					"presentation_rect" : [ 190.0, 103.0, 20.0, 20.0 ],
					"outlettype" : [ "bang" ],
					"patching_rect" : [ 310.0, 432.0, 20.0, 20.0 ],
					"presentation" : 1
				}

			}
, 			{
				"box" : 				{
					"maxclass" : "newobj",
					"text" : "s interact",
					"numinlets" : 1,
					"numoutlets" : 0,
					"id" : "obj-38",
					"fontname" : "Arial",
					"patching_rect" : [ 325.0, 594.0, 59.0, 20.0 ],
					"fontsize" : 12.0
				}

			}
, 			{
				"box" : 				{
					"maxclass" : "newobj",
					"text" : "t b b b b",
					"numinlets" : 1,
					"numoutlets" : 4,
					"id" : "obj-6",
					"fontname" : "Arial",
					"outlettype" : [ "bang", "bang", "bang", "bang" ],
					"patching_rect" : [ 349.0, 461.0, 59.5, 20.0 ],
					"fontsize" : 12.0
				}

			}
, 			{
				"box" : 				{
					"maxclass" : "newobj",
					"text" : "loadbang",
					"numinlets" : 1,
					"numoutlets" : 1,
					"id" : "obj-28",
					"fontname" : "Arial",
					"outlettype" : [ "bang" ],
					"patching_rect" : [ 349.0, 432.0, 60.0, 20.0 ],
					"fontsize" : 12.0
				}

			}
, 			{
				"box" : 				{
					"maxclass" : "panel",
					"bgcolor" : [ 0.878431, 0.94902, 0.839216, 1.0 ],
					"numinlets" : 1,
					"numoutlets" : 0,
					"id" : "obj-31",
					"patching_rect" : [ 295.0, 426.0, 251.0, 197.0 ]
				}

			}
, 			{
				"box" : 				{
					"maxclass" : "comment",
					"text" : "OSC communication",
					"numinlets" : 1,
					"numoutlets" : 0,
					"id" : "obj-40",
					"fontname" : "Arial",
					"patching_rect" : [ 62.0, 436.0, 189.0, 23.0 ],
					"fontface" : 1,
					"fontsize" : 14.0
				}

			}
, 			{
				"box" : 				{
					"maxclass" : "newobj",
					"text" : "print",
					"numinlets" : 1,
					"numoutlets" : 0,
					"id" : "obj-58",
					"fontname" : "Arial",
					"patching_rect" : [ 223.0, 477.0, 34.0, 20.0 ],
					"fontsize" : 12.0
				}

			}
, 			{
				"box" : 				{
					"maxclass" : "newobj",
					"text" : "r interact",
					"numinlets" : 0,
					"numoutlets" : 1,
					"id" : "obj-39",
					"fontname" : "Arial",
					"outlettype" : [ "" ],
					"patching_rect" : [ 63.0, 467.0, 57.0, 20.0 ],
					"fontsize" : 12.0
				}

			}
, 			{
				"box" : 				{
					"maxclass" : "newobj",
					"text" : "udpsend 127.0.0.1 7000",
					"numinlets" : 1,
					"numoutlets" : 0,
					"id" : "obj-72",
					"fontname" : "Arial",
					"patching_rect" : [ 63.0, 507.0, 136.0, 20.0 ],
					"fontsize" : 11.595187
				}

			}
, 			{
				"box" : 				{
					"maxclass" : "panel",
					"bgcolor" : [ 0.878431, 0.94902, 0.839216, 1.0 ],
					"numinlets" : 1,
					"numoutlets" : 0,
					"id" : "obj-47",
					"patching_rect" : [ 42.0, 425.0, 239.0, 191.0 ]
				}

			}
, 			{
				"box" : 				{
					"maxclass" : "newobj",
					"text" : "route /vol /play /date",
					"numinlets" : 1,
					"numoutlets" : 4,
					"id" : "obj-2",
					"fontname" : "Arial",
					"outlettype" : [ "", "", "", "" ],
					"patching_rect" : [ 57.0, 53.0, 119.0, 20.0 ],
					"fontsize" : 12.0
				}

			}
, 			{
				"box" : 				{
					"maxclass" : "newobj",
					"text" : "udpreceive 7100",
					"numinlets" : 1,
					"numoutlets" : 1,
					"id" : "obj-1",
					"fontname" : "Arial",
					"outlettype" : [ "" ],
					"patching_rect" : [ 57.0, 20.0, 99.0, 20.0 ],
					"fontsize" : 12.0
				}

			}
 ],
		"lines" : [ 			{
				"patchline" : 				{
					"source" : [ "obj-9", 0 ],
					"destination" : [ "obj-38", 0 ],
					"hidden" : 0,
					"midpoints" : [ 402.5, 589.0, 334.5, 589.0 ]
				}

			}
, 			{
				"patchline" : 				{
					"source" : [ "obj-36", 0 ],
					"destination" : [ "obj-9", 0 ],
					"hidden" : 0,
					"midpoints" : [  ]
				}

			}
, 			{
				"patchline" : 				{
					"source" : [ "obj-1", 0 ],
					"destination" : [ "obj-2", 0 ],
					"hidden" : 0,
					"midpoints" : [  ]
				}

			}
, 			{
				"patchline" : 				{
					"source" : [ "obj-10", 0 ],
					"destination" : [ "obj-11", 0 ],
					"hidden" : 0,
					"midpoints" : [ 259.5, 173.5, 388.5, 173.5 ]
				}

			}
, 			{
				"patchline" : 				{
					"source" : [ "obj-10", 0 ],
					"destination" : [ "obj-13", 0 ],
					"hidden" : 0,
					"midpoints" : [ 259.5, 155.0, 475.5, 155.0 ]
				}

			}
, 			{
				"patchline" : 				{
					"source" : [ "obj-10", 0 ],
					"destination" : [ "obj-21", 0 ],
					"hidden" : 0,
					"midpoints" : [ 259.5, 173.0, 65.5, 173.0 ]
				}

			}
, 			{
				"patchline" : 				{
					"source" : [ "obj-10", 0 ],
					"destination" : [ "obj-44", 0 ],
					"hidden" : 0,
					"midpoints" : [ 259.5, 43.5, 297.5, 43.5 ]
				}

			}
, 			{
				"patchline" : 				{
					"source" : [ "obj-12", 0 ],
					"destination" : [ "obj-11", 1 ],
					"hidden" : 0,
					"midpoints" : [  ]
				}

			}
, 			{
				"patchline" : 				{
					"source" : [ "obj-12", 0 ],
					"destination" : [ "obj-11", 0 ],
					"hidden" : 0,
					"midpoints" : [  ]
				}

			}
, 			{
				"patchline" : 				{
					"source" : [ "obj-13", 1 ],
					"destination" : [ "obj-16", 0 ],
					"hidden" : 0,
					"midpoints" : [ 495.5, 249.0, 442.0, 249.0, 442.0, 42.0, 403.5, 42.0 ]
				}

			}
, 			{
				"patchline" : 				{
					"source" : [ "obj-13", 1 ],
					"destination" : [ "obj-18", 0 ],
					"hidden" : 0,
					"midpoints" : [ 495.5, 249.0, 221.5, 249.0, 221.5, 208.0, 117.5, 208.0 ]
				}

			}
, 			{
				"patchline" : 				{
					"source" : [ "obj-14", 0 ],
					"destination" : [ "obj-11", 0 ],
					"hidden" : 0,
					"midpoints" : [  ]
				}

			}
, 			{
				"patchline" : 				{
					"source" : [ "obj-15", 0 ],
					"destination" : [ "obj-16", 0 ],
					"hidden" : 0,
					"midpoints" : [ 476.5, 38.0, 403.5, 38.0 ]
				}

			}
, 			{
				"patchline" : 				{
					"source" : [ "obj-15", 0 ],
					"destination" : [ "obj-43", 0 ],
					"hidden" : 0,
					"midpoints" : [ 476.5, 37.0, 353.5, 37.0 ]
				}

			}
, 			{
				"patchline" : 				{
					"source" : [ "obj-15", 0 ],
					"destination" : [ "obj-5", 0 ],
					"hidden" : 0,
					"midpoints" : [ 476.5, 62.5, 537.5, 62.5 ]
				}

			}
, 			{
				"patchline" : 				{
					"source" : [ "obj-15", 0 ],
					"destination" : [ "obj-78", 0 ],
					"hidden" : 0,
					"midpoints" : [ 476.5, 75.5, 429.5, 75.5 ]
				}

			}
, 			{
				"patchline" : 				{
					"source" : [ "obj-16", 0 ],
					"destination" : [ "obj-24", 0 ],
					"hidden" : 0,
					"midpoints" : [ 403.5, 97.0, 403.5, 97.0 ]
				}

			}
, 			{
				"patchline" : 				{
					"source" : [ "obj-17", 0 ],
					"destination" : [ "obj-13", 1 ],
					"hidden" : 0,
					"midpoints" : [ 433.5, 198.5, 495.5, 198.5 ]
				}

			}
, 			{
				"patchline" : 				{
					"source" : [ "obj-18", 0 ],
					"destination" : [ "obj-22", 0 ],
					"hidden" : 0,
					"midpoints" : [ 117.5, 246.5, 65.5, 246.5 ]
				}

			}
, 			{
				"patchline" : 				{
					"source" : [ "obj-2", 1 ],
					"destination" : [ "obj-10", 0 ],
					"hidden" : 0,
					"midpoints" : [ 99.833336, 82.0, 178.5, 82.0, 178.5, 6.0, 259.5, 6.0 ]
				}

			}
, 			{
				"patchline" : 				{
					"source" : [ "obj-2", 0 ],
					"destination" : [ "obj-12", 0 ],
					"hidden" : 0,
					"midpoints" : [ 66.5, 160.5, 403.0, 160.5 ]
				}

			}
, 			{
				"patchline" : 				{
					"source" : [ "obj-2", 2 ],
					"destination" : [ "obj-34", 0 ],
					"hidden" : 0,
					"midpoints" : [ 133.166672, 90.0, 214.5, 90.0 ]
				}

			}
, 			{
				"patchline" : 				{
					"source" : [ "obj-2", 3 ],
					"destination" : [ "obj-7", 0 ],
					"hidden" : 0,
					"midpoints" : [  ]
				}

			}
, 			{
				"patchline" : 				{
					"source" : [ "obj-20", 0 ],
					"destination" : [ "obj-22", 0 ],
					"hidden" : 0,
					"midpoints" : [  ]
				}

			}
, 			{
				"patchline" : 				{
					"source" : [ "obj-21", 0 ],
					"destination" : [ "obj-20", 0 ],
					"hidden" : 0,
					"midpoints" : [  ]
				}

			}
, 			{
				"patchline" : 				{
					"source" : [ "obj-22", 0 ],
					"destination" : [ "obj-23", 0 ],
					"hidden" : 0,
					"midpoints" : [  ]
				}

			}
, 			{
				"patchline" : 				{
					"source" : [ "obj-24", 0 ],
					"destination" : [ "obj-12", 0 ],
					"hidden" : 0,
					"midpoints" : [  ]
				}

			}
, 			{
				"patchline" : 				{
					"source" : [ "obj-24", 1 ],
					"destination" : [ "obj-17", 0 ],
					"hidden" : 0,
					"midpoints" : [  ]
				}

			}
, 			{
				"patchline" : 				{
					"source" : [ "obj-25", 0 ],
					"destination" : [ "obj-14", 0 ],
					"hidden" : 0,
					"midpoints" : [  ]
				}

			}
, 			{
				"patchline" : 				{
					"source" : [ "obj-26", 0 ],
					"destination" : [ "obj-18", 0 ],
					"hidden" : 0,
					"midpoints" : [ 160.5, 209.5, 117.5, 209.5 ]
				}

			}
, 			{
				"patchline" : 				{
					"source" : [ "obj-28", 0 ],
					"destination" : [ "obj-6", 0 ],
					"hidden" : 0,
					"midpoints" : [  ]
				}

			}
, 			{
				"patchline" : 				{
					"source" : [ "obj-3", 1 ],
					"destination" : [ "obj-36", 0 ],
					"hidden" : 0,
					"midpoints" : [ 515.5, 539.0, 402.5, 539.0 ]
				}

			}
, 			{
				"patchline" : 				{
					"source" : [ "obj-34", 0 ],
					"destination" : [ "obj-22", 0 ],
					"hidden" : 0,
					"midpoints" : [ 214.5, 249.5, 65.5, 249.5 ]
				}

			}
, 			{
				"patchline" : 				{
					"source" : [ "obj-34", 1 ],
					"destination" : [ "obj-35", 0 ],
					"hidden" : 0,
					"midpoints" : [ 239.5, 171.0, 239.5, 171.0 ]
				}

			}
, 			{
				"patchline" : 				{
					"source" : [ "obj-35", 0 ],
					"destination" : [ "obj-24", 0 ],
					"hidden" : 0,
					"midpoints" : [ 239.5, 226.0, 318.0, 226.0, 318.0, 119.0, 403.5, 119.0 ]
				}

			}
, 			{
				"patchline" : 				{
					"source" : [ "obj-39", 0 ],
					"destination" : [ "obj-72", 0 ],
					"hidden" : 0,
					"midpoints" : [  ]
				}

			}
, 			{
				"patchline" : 				{
					"source" : [ "obj-4", 0 ],
					"destination" : [ "obj-3", 0 ],
					"hidden" : 0,
					"midpoints" : [  ]
				}

			}
, 			{
				"patchline" : 				{
					"source" : [ "obj-42", 0 ],
					"destination" : [ "obj-24", 0 ],
					"hidden" : 0,
					"midpoints" : [ 297.5, 113.5, 403.5, 113.5 ]
				}

			}
, 			{
				"patchline" : 				{
					"source" : [ "obj-43", 0 ],
					"destination" : [ "obj-24", 0 ],
					"hidden" : 0,
					"midpoints" : [ 353.5, 113.5, 403.5, 113.5 ]
				}

			}
, 			{
				"patchline" : 				{
					"source" : [ "obj-44", 0 ],
					"destination" : [ "obj-42", 0 ],
					"hidden" : 0,
					"midpoints" : [  ]
				}

			}
, 			{
				"patchline" : 				{
					"source" : [ "obj-44", 1 ],
					"destination" : [ "obj-43", 0 ],
					"hidden" : 0,
					"midpoints" : [ 317.0, 75.5, 353.5, 75.5 ]
				}

			}
, 			{
				"patchline" : 				{
					"source" : [ "obj-45", 0 ],
					"destination" : [ "obj-6", 0 ],
					"hidden" : 0,
					"midpoints" : [ 319.5, 454.0, 358.5, 454.0 ]
				}

			}
, 			{
				"patchline" : 				{
					"source" : [ "obj-5", 0 ],
					"destination" : [ "obj-12", 0 ],
					"hidden" : 0,
					"midpoints" : [ 537.5, 160.0, 403.0, 160.0 ]
				}

			}
, 			{
				"patchline" : 				{
					"source" : [ "obj-6", 3 ],
					"destination" : [ "obj-4", 0 ],
					"hidden" : 0,
					"midpoints" : [ 399.0, 489.0, 465.5, 489.0 ]
				}

			}
, 			{
				"patchline" : 				{
					"source" : [ "obj-6", 2 ],
					"destination" : [ "obj-8", 0 ],
					"hidden" : 0,
					"midpoints" : [ 385.5, 496.0, 318.5, 496.0 ]
				}

			}
, 			{
				"patchline" : 				{
					"source" : [ "obj-78", 0 ],
					"destination" : [ "obj-24", 0 ],
					"hidden" : 0,
					"midpoints" : [ 429.5, 118.5, 403.5, 118.5 ]
				}

			}
, 			{
				"patchline" : 				{
					"source" : [ "obj-8", 0 ],
					"destination" : [ "obj-38", 0 ],
					"hidden" : 0,
					"midpoints" : [ 318.5, 579.0, 334.5, 579.0 ]
				}

			}
 ]
	}

}
