{
	"patcher" : 	{
		"fileversion" : 1,
		"rect" : [ 25.0, 69.0, 348.0, 292.0 ],
		"bglocked" : 0,
		"defrect" : [ 25.0, 69.0, 348.0, 292.0 ],
		"openrect" : [ 25.0, 69.0, 348.0, 292.0 ],
		"openinpresentation" : 1,
		"default_fontsize" : 12.0,
		"default_fontface" : 0,
		"default_fontname" : "Arial",
		"gridonopen" : 0,
		"gridsize" : [ 15.0, 15.0 ],
		"gridsnaponopen" : 0,
		"toolbarvisible" : 1,
		"boxanimatetime" : 200,
		"imprint" : 0,
		"enablehscroll" : 1,
		"enablevscroll" : 1,
		"devicewidth" : 0.0,
		"boxes" : [ 			{
				"box" : 				{
					"maxclass" : "toggle",
					"presentation_rect" : [ 92.0, 230.0, 15.0, 15.0 ],
					"outlettype" : [ "int" ],
					"patching_rect" : [ 619.0, 83.0, 20.0, 20.0 ],
					"presentation" : 1,
					"id" : "obj-333",
					"numinlets" : 1,
					"numoutlets" : 1
				}

			}
, 			{
				"box" : 				{
					"maxclass" : "comment",
					"text" : "Full screen",
					"presentation_rect" : [ 22.0, 226.0, 68.0, 20.0 ],
					"patching_rect" : [ 543.0, 78.0, 69.0, 20.0 ],
					"fontsize" : 12.0,
					"presentation" : 1,
					"id" : "obj-328",
					"numinlets" : 1,
					"numoutlets" : 0,
					"fontname" : "Arial"
				}

			}
, 			{
				"box" : 				{
					"maxclass" : "message",
					"text" : "/ITL/scene fullscreen $1",
					"outlettype" : [ "" ],
					"patching_rect" : [ 541.0, 110.0, 138.0, 18.0 ],
					"fontsize" : 12.0,
					"id" : "obj-62",
					"numinlets" : 2,
					"numoutlets" : 1,
					"fontname" : "Arial"
				}

			}
, 			{
				"box" : 				{
					"maxclass" : "message",
					"text" : "bench synccars.txt",
					"outlettype" : [ "" ],
					"patching_rect" : [ 38.0, 50.0, 110.0, 18.0 ],
					"fontsize" : 12.0,
					"id" : "obj-61",
					"numinlets" : 2,
					"numoutlets" : 1,
					"fontname" : "Arial"
				}

			}
, 			{
				"box" : 				{
					"maxclass" : "newobj",
					"text" : "s bench",
					"patching_rect" : [ 20.0, 268.5, 53.0, 20.0 ],
					"fontsize" : 12.0,
					"id" : "obj-55",
					"numinlets" : 1,
					"numoutlets" : 0,
					"fontname" : "Arial"
				}

			}
, 			{
				"box" : 				{
					"maxclass" : "message",
					"text" : "100",
					"outlettype" : [ "" ],
					"patching_rect" : [ 922.0, 280.0, 32.5, 18.0 ],
					"fontsize" : 12.0,
					"id" : "obj-99",
					"numinlets" : 2,
					"numoutlets" : 1,
					"fontname" : "Arial"
				}

			}
, 			{
				"box" : 				{
					"maxclass" : "comment",
					"text" : "2",
					"fontface" : 1,
					"patching_rect" : [ 374.0, 690.0, 26.0, 20.0 ],
					"fontsize" : 12.0,
					"id" : "obj-98",
					"numinlets" : 1,
					"numoutlets" : 0,
					"fontname" : "Arial"
				}

			}
, 			{
				"box" : 				{
					"maxclass" : "message",
					"text" : "60",
					"outlettype" : [ "" ],
					"patching_rect" : [ 369.0, 650.0, 32.5, 18.0 ],
					"fontsize" : 12.0,
					"id" : "obj-96",
					"numinlets" : 2,
					"numoutlets" : 1,
					"fontname" : "Arial"
				}

			}
, 			{
				"box" : 				{
					"maxclass" : "button",
					"presentation_rect" : [ 271.0, 181.0, 20.0, 20.0 ],
					"outlettype" : [ "bang" ],
					"patching_rect" : [ 369.0, 623.0, 20.0, 20.0 ],
					"presentation" : 1,
					"id" : "obj-97",
					"numinlets" : 1,
					"numoutlets" : 1
				}

			}
, 			{
				"box" : 				{
					"maxclass" : "comment",
					"text" : "1",
					"fontface" : 1,
					"patching_rect" : [ 309.0, 689.0, 26.0, 20.0 ],
					"fontsize" : 12.0,
					"id" : "obj-95",
					"numinlets" : 1,
					"numoutlets" : 0,
					"fontname" : "Arial"
				}

			}
, 			{
				"box" : 				{
					"maxclass" : "message",
					"text" : "60",
					"outlettype" : [ "" ],
					"patching_rect" : [ 305.0, 652.0, 32.5, 18.0 ],
					"fontsize" : 12.0,
					"id" : "obj-94",
					"numinlets" : 2,
					"numoutlets" : 1,
					"fontname" : "Arial"
				}

			}
, 			{
				"box" : 				{
					"maxclass" : "button",
					"presentation_rect" : [ 204.0, 181.0, 20.0, 20.0 ],
					"outlettype" : [ "bang" ],
					"patching_rect" : [ 305.0, 625.0, 20.0, 20.0 ],
					"presentation" : 1,
					"id" : "obj-93",
					"numinlets" : 1,
					"numoutlets" : 1
				}

			}
, 			{
				"box" : 				{
					"maxclass" : "comment",
					"text" : "reset",
					"presentation_rect" : [ 229.0, 181.0, 42.0, 20.0 ],
					"fontface" : 1,
					"patching_rect" : [ 245.0, 609.0, 52.0, 20.0 ],
					"fontsize" : 12.0,
					"presentation" : 1,
					"id" : "obj-92",
					"numinlets" : 1,
					"numoutlets" : 0,
					"fontname" : "Arial"
				}

			}
, 			{
				"box" : 				{
					"maxclass" : "comment",
					"text" : "dy",
					"presentation_rect" : [ 215.0, 165.0, 30.0, 20.0 ],
					"fontface" : 1,
					"patching_rect" : [ 841.0, 626.0, 52.0, 20.0 ],
					"fontsize" : 12.0,
					"presentation" : 1,
					"id" : "obj-91",
					"numinlets" : 1,
					"numoutlets" : 0,
					"fontname" : "Arial"
				}

			}
, 			{
				"box" : 				{
					"maxclass" : "comment",
					"text" : "dy",
					"presentation_rect" : [ 282.0, 165.0, 28.0, 20.0 ],
					"fontface" : 1,
					"patching_rect" : [ 898.0, 628.0, 52.0, 20.0 ],
					"fontsize" : 12.0,
					"presentation" : 1,
					"id" : "obj-90",
					"numinlets" : 1,
					"numoutlets" : 0,
					"fontname" : "Arial"
				}

			}
, 			{
				"box" : 				{
					"maxclass" : "comment",
					"text" : "Tempo",
					"presentation_rect" : [ 236.0, 165.0, 52.0, 20.0 ],
					"fontface" : 1,
					"patching_rect" : [ 231.0, 185.0, 52.0, 20.0 ],
					"fontsize" : 12.0,
					"presentation" : 1,
					"id" : "obj-89",
					"numinlets" : 1,
					"numoutlets" : 0,
					"fontname" : "Arial"
				}

			}
, 			{
				"box" : 				{
					"maxclass" : "message",
					"text" : "/ITL/scene/car1 clock",
					"outlettype" : [ "" ],
					"patching_rect" : [ 39.0, 207.0, 124.0, 18.0 ],
					"fontsize" : 12.0,
					"id" : "obj-88",
					"numinlets" : 2,
					"numoutlets" : 1,
					"fontname" : "Arial"
				}

			}
, 			{
				"box" : 				{
					"maxclass" : "message",
					"text" : "/ITL/scene/car2 clock",
					"outlettype" : [ "" ],
					"patching_rect" : [ 88.0, 230.0, 124.0, 18.0 ],
					"fontsize" : 12.0,
					"id" : "obj-86",
					"numinlets" : 2,
					"numoutlets" : 1,
					"fontname" : "Arial"
				}

			}
, 			{
				"box" : 				{
					"maxclass" : "newobj",
					"text" : "s sync",
					"patching_rect" : [ 88.0, 267.5, 45.0, 20.0 ],
					"fontsize" : 12.0,
					"id" : "obj-87",
					"numinlets" : 1,
					"numoutlets" : 0,
					"fontname" : "Arial"
				}

			}
, 			{
				"box" : 				{
					"maxclass" : "newobj",
					"text" : "p time",
					"outlettype" : [ "int" ],
					"color" : [ 0.827451, 0.827451, 0.827451, 1.0 ],
					"patching_rect" : [ 125.0, 183.0, 44.0, 20.0 ],
					"fontsize" : 12.0,
					"id" : "obj-85",
					"numinlets" : 2,
					"numoutlets" : 1,
					"fontname" : "Arial",
					"patcher" : 					{
						"fileversion" : 1,
						"rect" : [ 470.0, 194.0, 347.0, 215.0 ],
						"bglocked" : 0,
						"defrect" : [ 470.0, 194.0, 347.0, 215.0 ],
						"openrect" : [ 470.0, 194.0, 347.0, 215.0 ],
						"openinpresentation" : 1,
						"default_fontsize" : 12.0,
						"default_fontface" : 0,
						"default_fontname" : "Arial",
						"gridonopen" : 0,
						"gridsize" : [ 15.0, 15.0 ],
						"gridsnaponopen" : 0,
						"toolbarvisible" : 1,
						"boxanimatetime" : 200,
						"imprint" : 0,
						"enablehscroll" : 1,
						"enablevscroll" : 1,
						"devicewidth" : 0.0,
						"boxes" : [ 							{
								"box" : 								{
									"maxclass" : "outlet",
									"patching_rect" : [ 72.0, 334.0, 25.0, 25.0 ],
									"id" : "obj-4",
									"numinlets" : 1,
									"numoutlets" : 0,
									"comment" : ""
								}

							}
, 							{
								"box" : 								{
									"maxclass" : "inlet",
									"outlettype" : [ "int" ],
									"patching_rect" : [ 202.0, 36.0, 25.0, 25.0 ],
									"id" : "obj-2",
									"numinlets" : 0,
									"numoutlets" : 1,
									"comment" : ""
								}

							}
, 							{
								"box" : 								{
									"maxclass" : "inlet",
									"outlettype" : [ "" ],
									"patching_rect" : [ 277.0, 39.0, 25.0, 25.0 ],
									"id" : "obj-1",
									"numinlets" : 0,
									"numoutlets" : 1,
									"comment" : ""
								}

							}
, 							{
								"box" : 								{
									"maxclass" : "newobj",
									"text" : "zl slice 2",
									"outlettype" : [ "", "" ],
									"patching_rect" : [ 105.0, 69.5, 57.0, 20.0 ],
									"fontsize" : 12.0,
									"id" : "obj-67",
									"numinlets" : 2,
									"numoutlets" : 2,
									"fontname" : "Arial"
								}

							}
, 							{
								"box" : 								{
									"maxclass" : "newobj",
									"text" : "zl slice 2",
									"outlettype" : [ "", "" ],
									"patching_rect" : [ 68.0, 41.5, 57.0, 20.0 ],
									"fontsize" : 12.0,
									"id" : "obj-65",
									"numinlets" : 2,
									"numoutlets" : 2,
									"fontname" : "Arial"
								}

							}
, 							{
								"box" : 								{
									"maxclass" : "newobj",
									"text" : "route play tempo dest",
									"outlettype" : [ "", "", "", "" ],
									"patching_rect" : [ 71.0, 122.0, 126.0, 20.0 ],
									"fontsize" : 12.0,
									"id" : "obj-58",
									"numinlets" : 1,
									"numoutlets" : 4,
									"fontname" : "Arial"
								}

							}
, 							{
								"box" : 								{
									"maxclass" : "newobj",
									"text" : "r time",
									"outlettype" : [ "" ],
									"patching_rect" : [ 68.0, 15.5, 40.0, 20.0 ],
									"fontsize" : 12.0,
									"id" : "obj-57",
									"numinlets" : 0,
									"numoutlets" : 1,
									"fontname" : "Arial"
								}

							}
, 							{
								"box" : 								{
									"maxclass" : "newobj",
									"text" : "prepend tempo",
									"outlettype" : [ "" ],
									"patching_rect" : [ 144.0, 192.0, 91.0, 20.0 ],
									"fontsize" : 12.0,
									"id" : "obj-16",
									"numinlets" : 1,
									"numoutlets" : 1,
									"fontname" : "Arial"
								}

							}
, 							{
								"box" : 								{
									"maxclass" : "toggle",
									"presentation_rect" : [ 91.0, 11.0, 20.0, 20.0 ],
									"outlettype" : [ "int" ],
									"patching_rect" : [ 72.0, 263.0, 20.0, 20.0 ],
									"presentation" : 1,
									"id" : "obj-12",
									"numinlets" : 1,
									"numoutlets" : 1
								}

							}
, 							{
								"box" : 								{
									"maxclass" : "newobj",
									"text" : "tempo 60 1 96",
									"outlettype" : [ "int" ],
									"patching_rect" : [ 72.0, 297.0, 87.0, 20.0 ],
									"fontsize" : 12.0,
									"id" : "obj-11",
									"numinlets" : 4,
									"numoutlets" : 1,
									"fontname" : "Arial"
								}

							}
 ],
						"lines" : [ 							{
								"patchline" : 								{
									"source" : [ "obj-67", 0 ],
									"destination" : [ "obj-58", 0 ],
									"hidden" : 0,
									"midpoints" : [ 114.5, 109.0, 80.5, 109.0 ]
								}

							}
, 							{
								"patchline" : 								{
									"source" : [ "obj-67", 1 ],
									"destination" : [ "obj-58", 0 ],
									"hidden" : 0,
									"midpoints" : [ 152.5, 109.0, 80.5, 109.0 ]
								}

							}
, 							{
								"patchline" : 								{
									"source" : [ "obj-65", 1 ],
									"destination" : [ "obj-67", 0 ],
									"hidden" : 0,
									"midpoints" : [  ]
								}

							}
, 							{
								"patchline" : 								{
									"source" : [ "obj-65", 0 ],
									"destination" : [ "obj-58", 0 ],
									"hidden" : 0,
									"midpoints" : [  ]
								}

							}
, 							{
								"patchline" : 								{
									"source" : [ "obj-58", 1 ],
									"destination" : [ "obj-16", 0 ],
									"hidden" : 0,
									"midpoints" : [ 116.166664, 177.0, 153.5, 177.0 ]
								}

							}
, 							{
								"patchline" : 								{
									"source" : [ "obj-58", 0 ],
									"destination" : [ "obj-12", 0 ],
									"hidden" : 0,
									"midpoints" : [ 80.5, 258.0, 81.5, 258.0 ]
								}

							}
, 							{
								"patchline" : 								{
									"source" : [ "obj-57", 0 ],
									"destination" : [ "obj-65", 0 ],
									"hidden" : 0,
									"midpoints" : [  ]
								}

							}
, 							{
								"patchline" : 								{
									"source" : [ "obj-2", 0 ],
									"destination" : [ "obj-12", 0 ],
									"hidden" : 0,
									"midpoints" : [ 211.5, 249.0, 81.5, 249.0 ]
								}

							}
, 							{
								"patchline" : 								{
									"source" : [ "obj-16", 0 ],
									"destination" : [ "obj-11", 1 ],
									"hidden" : 0,
									"midpoints" : [ 153.5, 282.0, 104.166664, 282.0 ]
								}

							}
, 							{
								"patchline" : 								{
									"source" : [ "obj-12", 0 ],
									"destination" : [ "obj-11", 0 ],
									"hidden" : 0,
									"midpoints" : [  ]
								}

							}
, 							{
								"patchline" : 								{
									"source" : [ "obj-11", 0 ],
									"destination" : [ "obj-4", 0 ],
									"hidden" : 0,
									"midpoints" : [  ]
								}

							}
, 							{
								"patchline" : 								{
									"source" : [ "obj-1", 0 ],
									"destination" : [ "obj-16", 0 ],
									"hidden" : 0,
									"midpoints" : [ 286.5, 177.0, 153.5, 177.0 ]
								}

							}
 ]
					}
,
					"saved_object_attributes" : 					{
						"default_fontsize" : 12.0,
						"fontface" : 0,
						"fontsize" : 12.0,
						"default_fontface" : 0,
						"globalpatchername" : "",
						"default_fontname" : "Arial",
						"fontname" : "Arial"
					}

				}

			}
, 			{
				"box" : 				{
					"maxclass" : "slider",
					"presentation_rect" : [ 257.0, 22.0, 20.0, 140.0 ],
					"outlettype" : [ "" ],
					"size" : 250.0,
					"patching_rect" : [ 203.0, 28.0, 20.0, 140.0 ],
					"presentation" : 1,
					"id" : "obj-83",
					"numinlets" : 1,
					"numoutlets" : 1
				}

			}
, 			{
				"box" : 				{
					"maxclass" : "message",
					"text" : "100",
					"outlettype" : [ "" ],
					"patching_rect" : [ 786.0, 281.0, 32.5, 18.0 ],
					"fontsize" : 12.0,
					"id" : "obj-78",
					"numinlets" : 2,
					"numoutlets" : 1,
					"fontname" : "Arial"
				}

			}
, 			{
				"box" : 				{
					"maxclass" : "message",
					"text" : "/ITL/scene/car2 dy $1",
					"outlettype" : [ "" ],
					"patching_rect" : [ 924.0, 558.0, 126.0, 18.0 ],
					"fontsize" : 12.0,
					"id" : "obj-65",
					"numinlets" : 2,
					"numoutlets" : 1,
					"fontname" : "Arial"
				}

			}
, 			{
				"box" : 				{
					"maxclass" : "newobj",
					"text" : "s sync",
					"patching_rect" : [ 924.0, 593.0, 45.0, 20.0 ],
					"fontsize" : 12.0,
					"id" : "obj-66",
					"numinlets" : 1,
					"numoutlets" : 0,
					"fontname" : "Arial"
				}

			}
, 			{
				"box" : 				{
					"maxclass" : "newobj",
					"text" : "/ -600.",
					"outlettype" : [ "float" ],
					"patching_rect" : [ 924.0, 524.0, 45.0, 20.0 ],
					"fontsize" : 12.0,
					"id" : "obj-67",
					"numinlets" : 2,
					"numoutlets" : 1,
					"fontname" : "Arial"
				}

			}
, 			{
				"box" : 				{
					"maxclass" : "newobj",
					"text" : "- 100.",
					"outlettype" : [ "float" ],
					"patching_rect" : [ 924.0, 491.0, 41.0, 20.0 ],
					"fontsize" : 12.0,
					"id" : "obj-68",
					"numinlets" : 2,
					"numoutlets" : 1,
					"fontname" : "Arial"
				}

			}
, 			{
				"box" : 				{
					"maxclass" : "slider",
					"floatoutput" : 1,
					"presentation_rect" : [ 282.0, 22.0, 20.0, 140.0 ],
					"outlettype" : [ "" ],
					"size" : 200.0,
					"patching_rect" : [ 924.0, 338.0, 20.0, 140.0 ],
					"presentation" : 1,
					"id" : "obj-69",
					"numinlets" : 1,
					"numoutlets" : 1
				}

			}
, 			{
				"box" : 				{
					"maxclass" : "message",
					"text" : "/ITL/scene/car1 dy $1",
					"outlettype" : [ "" ],
					"patching_rect" : [ 786.0, 558.0, 126.0, 18.0 ],
					"fontsize" : 12.0,
					"id" : "obj-63",
					"numinlets" : 2,
					"numoutlets" : 1,
					"fontname" : "Arial"
				}

			}
, 			{
				"box" : 				{
					"maxclass" : "newobj",
					"text" : "s sync",
					"patching_rect" : [ 786.0, 593.0, 45.0, 20.0 ],
					"fontsize" : 12.0,
					"id" : "obj-64",
					"numinlets" : 1,
					"numoutlets" : 0,
					"fontname" : "Arial"
				}

			}
, 			{
				"box" : 				{
					"maxclass" : "newobj",
					"text" : "/ -600.",
					"outlettype" : [ "float" ],
					"patching_rect" : [ 786.0, 524.0, 45.0, 20.0 ],
					"fontsize" : 12.0,
					"id" : "obj-60",
					"numinlets" : 2,
					"numoutlets" : 1,
					"fontname" : "Arial"
				}

			}
, 			{
				"box" : 				{
					"maxclass" : "newobj",
					"text" : "- 100.",
					"outlettype" : [ "float" ],
					"patching_rect" : [ 786.0, 491.0, 41.0, 20.0 ],
					"fontsize" : 12.0,
					"id" : "obj-59",
					"numinlets" : 2,
					"numoutlets" : 1,
					"fontname" : "Arial"
				}

			}
, 			{
				"box" : 				{
					"maxclass" : "comment",
					"text" : "Car 2",
					"presentation_rect" : [ 258.0, 1.0, 46.0, 23.0 ],
					"fontface" : 1,
					"patching_rect" : [ 915.0, 309.0, 45.0, 23.0 ],
					"fontsize" : 14.0,
					"presentation" : 1,
					"id" : "obj-57",
					"numinlets" : 1,
					"numoutlets" : 0,
					"fontname" : "Arial"
				}

			}
, 			{
				"box" : 				{
					"maxclass" : "comment",
					"text" : "Car 1",
					"presentation_rect" : [ 193.0, 1.0, 44.0, 23.0 ],
					"fontface" : 1,
					"patching_rect" : [ 765.0, 307.0, 45.0, 23.0 ],
					"fontsize" : 14.0,
					"presentation" : 1,
					"id" : "obj-56",
					"numinlets" : 1,
					"numoutlets" : 0,
					"fontname" : "Arial"
				}

			}
, 			{
				"box" : 				{
					"maxclass" : "slider",
					"floatoutput" : 1,
					"presentation_rect" : [ 216.0, 22.0, 20.0, 140.0 ],
					"outlettype" : [ "" ],
					"size" : 200.0,
					"patching_rect" : [ 786.0, 338.0, 20.0, 140.0 ],
					"presentation" : 1,
					"id" : "obj-54",
					"numinlets" : 1,
					"numoutlets" : 1
				}

			}
, 			{
				"box" : 				{
					"maxclass" : "button",
					"outlettype" : [ "bang" ],
					"patching_rect" : [ 744.0, 12.0, 20.0, 20.0 ],
					"id" : "obj-53",
					"numinlets" : 1,
					"numoutlets" : 1
				}

			}
, 			{
				"box" : 				{
					"maxclass" : "message",
					"text" : "0",
					"outlettype" : [ "" ],
					"patching_rect" : [ 745.0, 42.0, 32.5, 18.0 ],
					"fontsize" : 12.0,
					"id" : "obj-52",
					"numinlets" : 2,
					"numoutlets" : 1,
					"fontname" : "Arial"
				}

			}
, 			{
				"box" : 				{
					"maxclass" : "message",
					"text" : "1",
					"outlettype" : [ "" ],
					"patching_rect" : [ 1019.0, 38.0, 32.5, 18.0 ],
					"fontsize" : 12.0,
					"id" : "obj-51",
					"numinlets" : 2,
					"numoutlets" : 1,
					"fontname" : "Arial"
				}

			}
, 			{
				"box" : 				{
					"maxclass" : "message",
					"text" : "/ITL/scene/sync car* myGuidoFile",
					"outlettype" : [ "" ],
					"patching_rect" : [ 291.0, 438.0, 190.0, 18.0 ],
					"fontsize" : 12.0,
					"id" : "obj-13",
					"numinlets" : 2,
					"numoutlets" : 1,
					"fontname" : "Arial"
				}

			}
, 			{
				"box" : 				{
					"maxclass" : "newobj",
					"text" : "p switch",
					"outlettype" : [ "", "" ],
					"patching_rect" : [ 823.0, 32.0, 54.0, 20.0 ],
					"fontsize" : 12.0,
					"id" : "obj-84",
					"numinlets" : 2,
					"numoutlets" : 2,
					"fontname" : "Arial",
					"patcher" : 					{
						"fileversion" : 1,
						"rect" : [ 917.0, 544.0, 640.0, 480.0 ],
						"bglocked" : 0,
						"defrect" : [ 917.0, 544.0, 640.0, 480.0 ],
						"openrect" : [ 0.0, 0.0, 0.0, 0.0 ],
						"openinpresentation" : 0,
						"default_fontsize" : 12.0,
						"default_fontface" : 0,
						"default_fontname" : "Arial",
						"gridonopen" : 0,
						"gridsize" : [ 15.0, 15.0 ],
						"gridsnaponopen" : 0,
						"toolbarvisible" : 1,
						"boxanimatetime" : 200,
						"imprint" : 0,
						"enablehscroll" : 1,
						"enablevscroll" : 1,
						"devicewidth" : 0.0,
						"boxes" : [ 							{
								"box" : 								{
									"maxclass" : "outlet",
									"patching_rect" : [ 117.0, 131.0, 25.0, 25.0 ],
									"id" : "obj-4",
									"numinlets" : 1,
									"numoutlets" : 0,
									"comment" : ""
								}

							}
, 							{
								"box" : 								{
									"maxclass" : "outlet",
									"patching_rect" : [ 231.0, 131.0, 25.0, 25.0 ],
									"id" : "obj-3",
									"numinlets" : 1,
									"numoutlets" : 0,
									"comment" : ""
								}

							}
, 							{
								"box" : 								{
									"maxclass" : "inlet",
									"outlettype" : [ "int" ],
									"patching_rect" : [ 225.0, 44.0, 25.0, 25.0 ],
									"id" : "obj-2",
									"numinlets" : 0,
									"numoutlets" : 1,
									"comment" : ""
								}

							}
, 							{
								"box" : 								{
									"maxclass" : "inlet",
									"outlettype" : [ "int" ],
									"patching_rect" : [ 119.0, 43.0, 25.0, 25.0 ],
									"id" : "obj-1",
									"numinlets" : 0,
									"numoutlets" : 1,
									"comment" : ""
								}

							}
, 							{
								"box" : 								{
									"maxclass" : "newobj",
									"text" : "if $i1 == 1 then 0",
									"outlettype" : [ "" ],
									"patching_rect" : [ 226.0, 82.0, 100.0, 20.0 ],
									"fontsize" : 12.0,
									"id" : "obj-83",
									"numinlets" : 1,
									"numoutlets" : 1,
									"fontname" : "Arial"
								}

							}
, 							{
								"box" : 								{
									"maxclass" : "newobj",
									"text" : "if $i1 == 1 then 0",
									"outlettype" : [ "" ],
									"patching_rect" : [ 120.0, 82.0, 100.0, 20.0 ],
									"fontsize" : 12.0,
									"id" : "obj-78",
									"numinlets" : 1,
									"numoutlets" : 1,
									"fontname" : "Arial"
								}

							}
 ],
						"lines" : [ 							{
								"patchline" : 								{
									"source" : [ "obj-83", 0 ],
									"destination" : [ "obj-4", 0 ],
									"hidden" : 0,
									"midpoints" : [  ]
								}

							}
, 							{
								"patchline" : 								{
									"source" : [ "obj-78", 0 ],
									"destination" : [ "obj-3", 0 ],
									"hidden" : 0,
									"midpoints" : [  ]
								}

							}
, 							{
								"patchline" : 								{
									"source" : [ "obj-2", 0 ],
									"destination" : [ "obj-83", 0 ],
									"hidden" : 0,
									"midpoints" : [  ]
								}

							}
, 							{
								"patchline" : 								{
									"source" : [ "obj-1", 0 ],
									"destination" : [ "obj-78", 0 ],
									"hidden" : 0,
									"midpoints" : [  ]
								}

							}
 ]
					}
,
					"saved_object_attributes" : 					{
						"default_fontsize" : 12.0,
						"fontface" : 0,
						"fontsize" : 12.0,
						"default_fontface" : 0,
						"globalpatchername" : "",
						"default_fontname" : "Arial",
						"fontname" : "Arial"
					}

				}

			}
, 			{
				"box" : 				{
					"maxclass" : "toggle",
					"presentation_rect" : [ 18.0, 91.0, 20.0, 20.0 ],
					"outlettype" : [ "int" ],
					"patching_rect" : [ 830.0, 101.0, 20.0, 20.0 ],
					"presentation" : 1,
					"id" : "obj-77",
					"numinlets" : 1,
					"numoutlets" : 1
				}

			}
, 			{
				"box" : 				{
					"maxclass" : "comment",
					"text" : "H",
					"presentation_rect" : [ 19.0, 69.0, 20.0, 23.0 ],
					"fontface" : 1,
					"patching_rect" : [ 830.0, 77.0, 20.0, 23.0 ],
					"fontsize" : 14.0,
					"presentation" : 1,
					"id" : "obj-73",
					"numinlets" : 1,
					"numoutlets" : 0,
					"fontname" : "Arial"
				}

			}
, 			{
				"box" : 				{
					"maxclass" : "newobj",
					"text" : "p syncoptions",
					"outlettype" : [ "" ],
					"patching_rect" : [ 834.0, 163.0, 84.0, 20.0 ],
					"fontsize" : 12.0,
					"id" : "obj-7",
					"numinlets" : 4,
					"numoutlets" : 1,
					"fontname" : "Arial",
					"patcher" : 					{
						"fileversion" : 1,
						"rect" : [ 1480.0, 327.0, 389.0, 522.0 ],
						"bglocked" : 0,
						"defrect" : [ 1480.0, 327.0, 389.0, 522.0 ],
						"openrect" : [ 0.0, 0.0, 0.0, 0.0 ],
						"openinpresentation" : 0,
						"default_fontsize" : 12.0,
						"default_fontface" : 0,
						"default_fontname" : "Arial",
						"gridonopen" : 0,
						"gridsize" : [ 15.0, 15.0 ],
						"gridsnaponopen" : 0,
						"toolbarvisible" : 1,
						"boxanimatetime" : 200,
						"imprint" : 0,
						"enablehscroll" : 1,
						"enablevscroll" : 1,
						"devicewidth" : 0.0,
						"boxes" : [ 							{
								"box" : 								{
									"maxclass" : "message",
									"text" : "1",
									"outlettype" : [ "" ],
									"patching_rect" : [ 297.0, 250.0, 32.5, 18.0 ],
									"fontsize" : 12.0,
									"id" : "obj-8",
									"numinlets" : 2,
									"numoutlets" : 1,
									"fontname" : "Arial"
								}

							}
, 							{
								"box" : 								{
									"maxclass" : "message",
									"text" : "0",
									"outlettype" : [ "" ],
									"patching_rect" : [ 251.0, 251.0, 32.5, 18.0 ],
									"fontsize" : 12.0,
									"id" : "obj-55",
									"numinlets" : 2,
									"numoutlets" : 1,
									"fontname" : "Arial"
								}

							}
, 							{
								"box" : 								{
									"maxclass" : "newobj",
									"text" : "zl reg",
									"outlettype" : [ "", "" ],
									"patching_rect" : [ 105.0, 283.0, 40.0, 20.0 ],
									"fontsize" : 12.0,
									"id" : "obj-88",
									"numinlets" : 2,
									"numoutlets" : 2,
									"fontname" : "Arial"
								}

							}
, 							{
								"box" : 								{
									"maxclass" : "newobj",
									"text" : "route 0",
									"outlettype" : [ "", "" ],
									"patching_rect" : [ 76.0, 178.0, 48.0, 20.0 ],
									"fontsize" : 12.0,
									"id" : "obj-89",
									"numinlets" : 1,
									"numoutlets" : 2,
									"fontname" : "Arial"
								}

							}
, 							{
								"box" : 								{
									"maxclass" : "message",
									"text" : "nth 0 $1",
									"outlettype" : [ "" ],
									"patching_rect" : [ 105.0, 212.0, 54.0, 18.0 ],
									"fontsize" : 12.0,
									"id" : "obj-90",
									"numinlets" : 2,
									"numoutlets" : 1,
									"fontname" : "Arial"
								}

							}
, 							{
								"box" : 								{
									"maxclass" : "newobj",
									"text" : "coll",
									"outlettype" : [ "", "", "", "" ],
									"patching_rect" : [ 105.0, 247.0, 59.5, 20.0 ],
									"fontsize" : 12.0,
									"id" : "obj-91",
									"numinlets" : 1,
									"numoutlets" : 4,
									"fontname" : "Arial",
									"coll_data" : 									{
										"count" : 1,
										"data" : [ 											{
												"key" : 0,
												"value" : [ "v", "h", "hv", "H", "Hv" ]
											}
 ]
									}
,
									"saved_object_attributes" : 									{
										"embed" : 1
									}

								}

							}
, 							{
								"box" : 								{
									"maxclass" : "newobj",
									"text" : "p accum",
									"outlettype" : [ "int" ],
									"patching_rect" : [ 76.0, 147.0, 56.0, 20.0 ],
									"fontsize" : 12.0,
									"id" : "obj-128",
									"numinlets" : 2,
									"numoutlets" : 1,
									"fontname" : "Arial",
									"patcher" : 									{
										"fileversion" : 1,
										"rect" : [ 25.0, 69.0, 263.0, 337.0 ],
										"bglocked" : 0,
										"defrect" : [ 25.0, 69.0, 263.0, 337.0 ],
										"openrect" : [ 0.0, 0.0, 0.0, 0.0 ],
										"openinpresentation" : 0,
										"default_fontsize" : 12.0,
										"default_fontface" : 0,
										"default_fontname" : "Arial",
										"gridonopen" : 0,
										"gridsize" : [ 15.0, 15.0 ],
										"gridsnaponopen" : 0,
										"toolbarvisible" : 1,
										"boxanimatetime" : 200,
										"imprint" : 0,
										"enablehscroll" : 1,
										"enablevscroll" : 1,
										"devicewidth" : 0.0,
										"boxes" : [ 											{
												"box" : 												{
													"maxclass" : "button",
													"outlettype" : [ "bang" ],
													"patching_rect" : [ 88.0, 109.0, 20.0, 20.0 ],
													"id" : "obj-99",
													"numinlets" : 1,
													"numoutlets" : 1
												}

											}
, 											{
												"box" : 												{
													"maxclass" : "newobj",
													"text" : "zl reg",
													"outlettype" : [ "", "" ],
													"patching_rect" : [ 88.0, 152.0, 40.0, 20.0 ],
													"fontsize" : 12.0,
													"id" : "obj-100",
													"numinlets" : 2,
													"numoutlets" : 2,
													"fontname" : "Arial"
												}

											}
, 											{
												"box" : 												{
													"maxclass" : "newobj",
													"text" : "+",
													"outlettype" : [ "int" ],
													"patching_rect" : [ 88.0, 209.0, 32.5, 20.0 ],
													"fontsize" : 12.0,
													"id" : "obj-101",
													"numinlets" : 2,
													"numoutlets" : 1,
													"fontname" : "Arial"
												}

											}
, 											{
												"box" : 												{
													"maxclass" : "inlet",
													"outlettype" : [ "int" ],
													"patching_rect" : [ 125.0, 41.0, 25.0, 25.0 ],
													"id" : "obj-3",
													"numinlets" : 0,
													"numoutlets" : 1,
													"comment" : ""
												}

											}
, 											{
												"box" : 												{
													"maxclass" : "outlet",
													"patching_rect" : [ 88.0, 255.0, 25.0, 25.0 ],
													"id" : "obj-2",
													"numinlets" : 1,
													"numoutlets" : 0,
													"comment" : ""
												}

											}
, 											{
												"box" : 												{
													"maxclass" : "inlet",
													"outlettype" : [ "int" ],
													"patching_rect" : [ 52.0, 43.0, 25.0, 25.0 ],
													"id" : "obj-1",
													"numinlets" : 0,
													"numoutlets" : 1,
													"comment" : ""
												}

											}
 ],
										"lines" : [ 											{
												"patchline" : 												{
													"source" : [ "obj-99", 0 ],
													"destination" : [ "obj-100", 0 ],
													"hidden" : 0,
													"midpoints" : [ 97.5, 151.0, 97.5, 151.0 ]
												}

											}
, 											{
												"patchline" : 												{
													"source" : [ "obj-3", 0 ],
													"destination" : [ "obj-99", 0 ],
													"hidden" : 0,
													"midpoints" : [ 134.5, 87.0, 97.5, 87.0 ]
												}

											}
, 											{
												"patchline" : 												{
													"source" : [ "obj-3", 0 ],
													"destination" : [ "obj-101", 1 ],
													"hidden" : 0,
													"midpoints" : [ 134.5, 191.0, 111.0, 191.0 ]
												}

											}
, 											{
												"patchline" : 												{
													"source" : [ "obj-101", 0 ],
													"destination" : [ "obj-2", 0 ],
													"hidden" : 0,
													"midpoints" : [  ]
												}

											}
, 											{
												"patchline" : 												{
													"source" : [ "obj-100", 0 ],
													"destination" : [ "obj-101", 0 ],
													"hidden" : 0,
													"midpoints" : [ 97.5, 177.5, 97.5, 177.5 ]
												}

											}
, 											{
												"patchline" : 												{
													"source" : [ "obj-1", 0 ],
													"destination" : [ "obj-100", 0 ],
													"hidden" : 0,
													"midpoints" : [ 61.5, 140.5, 97.5, 140.5 ]
												}

											}
 ]
									}
,
									"saved_object_attributes" : 									{
										"default_fontsize" : 12.0,
										"fontface" : 0,
										"fontsize" : 12.0,
										"default_fontface" : 0,
										"globalpatchername" : "",
										"default_fontname" : "Arial",
										"fontname" : "Arial"
									}

								}

							}
, 							{
								"box" : 								{
									"maxclass" : "newobj",
									"text" : "p accum",
									"outlettype" : [ "int" ],
									"patching_rect" : [ 38.0, 116.0, 56.0, 20.0 ],
									"fontsize" : 12.0,
									"id" : "obj-127",
									"numinlets" : 2,
									"numoutlets" : 1,
									"fontname" : "Arial",
									"patcher" : 									{
										"fileversion" : 1,
										"rect" : [ 25.0, 69.0, 263.0, 337.0 ],
										"bglocked" : 0,
										"defrect" : [ 25.0, 69.0, 263.0, 337.0 ],
										"openrect" : [ 0.0, 0.0, 0.0, 0.0 ],
										"openinpresentation" : 0,
										"default_fontsize" : 12.0,
										"default_fontface" : 0,
										"default_fontname" : "Arial",
										"gridonopen" : 0,
										"gridsize" : [ 15.0, 15.0 ],
										"gridsnaponopen" : 0,
										"toolbarvisible" : 1,
										"boxanimatetime" : 200,
										"imprint" : 0,
										"enablehscroll" : 1,
										"enablevscroll" : 1,
										"devicewidth" : 0.0,
										"boxes" : [ 											{
												"box" : 												{
													"maxclass" : "button",
													"outlettype" : [ "bang" ],
													"patching_rect" : [ 88.0, 109.0, 20.0, 20.0 ],
													"id" : "obj-99",
													"numinlets" : 1,
													"numoutlets" : 1
												}

											}
, 											{
												"box" : 												{
													"maxclass" : "newobj",
													"text" : "zl reg",
													"outlettype" : [ "", "" ],
													"patching_rect" : [ 88.0, 152.0, 40.0, 20.0 ],
													"fontsize" : 12.0,
													"id" : "obj-100",
													"numinlets" : 2,
													"numoutlets" : 2,
													"fontname" : "Arial"
												}

											}
, 											{
												"box" : 												{
													"maxclass" : "newobj",
													"text" : "+",
													"outlettype" : [ "int" ],
													"patching_rect" : [ 88.0, 209.0, 32.5, 20.0 ],
													"fontsize" : 12.0,
													"id" : "obj-101",
													"numinlets" : 2,
													"numoutlets" : 1,
													"fontname" : "Arial"
												}

											}
, 											{
												"box" : 												{
													"maxclass" : "inlet",
													"outlettype" : [ "int" ],
													"patching_rect" : [ 125.0, 41.0, 25.0, 25.0 ],
													"id" : "obj-3",
													"numinlets" : 0,
													"numoutlets" : 1,
													"comment" : ""
												}

											}
, 											{
												"box" : 												{
													"maxclass" : "outlet",
													"patching_rect" : [ 88.0, 255.0, 25.0, 25.0 ],
													"id" : "obj-2",
													"numinlets" : 1,
													"numoutlets" : 0,
													"comment" : ""
												}

											}
, 											{
												"box" : 												{
													"maxclass" : "inlet",
													"outlettype" : [ "int" ],
													"patching_rect" : [ 52.0, 43.0, 25.0, 25.0 ],
													"id" : "obj-1",
													"numinlets" : 0,
													"numoutlets" : 1,
													"comment" : ""
												}

											}
 ],
										"lines" : [ 											{
												"patchline" : 												{
													"source" : [ "obj-99", 0 ],
													"destination" : [ "obj-100", 0 ],
													"hidden" : 0,
													"midpoints" : [ 97.5, 151.0, 97.5, 151.0 ]
												}

											}
, 											{
												"patchline" : 												{
													"source" : [ "obj-3", 0 ],
													"destination" : [ "obj-99", 0 ],
													"hidden" : 0,
													"midpoints" : [ 134.5, 87.0, 97.5, 87.0 ]
												}

											}
, 											{
												"patchline" : 												{
													"source" : [ "obj-3", 0 ],
													"destination" : [ "obj-101", 1 ],
													"hidden" : 0,
													"midpoints" : [ 134.5, 191.0, 111.0, 191.0 ]
												}

											}
, 											{
												"patchline" : 												{
													"source" : [ "obj-101", 0 ],
													"destination" : [ "obj-2", 0 ],
													"hidden" : 0,
													"midpoints" : [  ]
												}

											}
, 											{
												"patchline" : 												{
													"source" : [ "obj-100", 0 ],
													"destination" : [ "obj-101", 0 ],
													"hidden" : 0,
													"midpoints" : [ 97.5, 177.5, 97.5, 177.5 ]
												}

											}
, 											{
												"patchline" : 												{
													"source" : [ "obj-1", 0 ],
													"destination" : [ "obj-100", 0 ],
													"hidden" : 0,
													"midpoints" : [ 61.5, 140.5, 97.5, 140.5 ]
												}

											}
 ]
									}
,
									"saved_object_attributes" : 									{
										"default_fontsize" : 12.0,
										"fontface" : 0,
										"fontsize" : 12.0,
										"default_fontface" : 0,
										"globalpatchername" : "",
										"default_fontname" : "Arial",
										"fontname" : "Arial"
									}

								}

							}
, 							{
								"box" : 								{
									"maxclass" : "newobj",
									"text" : "* 2",
									"outlettype" : [ "int" ],
									"patching_rect" : [ 75.0, 86.0, 32.5, 20.0 ],
									"fontsize" : 12.0,
									"id" : "obj-98",
									"numinlets" : 2,
									"numoutlets" : 1,
									"fontname" : "Arial"
								}

							}
, 							{
								"box" : 								{
									"maxclass" : "newobj",
									"text" : "* 4",
									"outlettype" : [ "int" ],
									"patching_rect" : [ 36.0, 86.0, 32.5, 20.0 ],
									"fontsize" : 12.0,
									"id" : "obj-97",
									"numinlets" : 2,
									"numoutlets" : 1,
									"fontname" : "Arial"
								}

							}
, 							{
								"box" : 								{
									"maxclass" : "toggle",
									"outlettype" : [ "int" ],
									"patching_rect" : [ 276.0, 278.0, 20.0, 20.0 ],
									"id" : "obj-146",
									"numinlets" : 1,
									"numoutlets" : 1
								}

							}
, 							{
								"box" : 								{
									"maxclass" : "gswitch2",
									"outlettype" : [ "", "" ],
									"patching_rect" : [ 277.0, 367.0, 39.0, 32.0 ],
									"id" : "obj-144",
									"numinlets" : 2,
									"numoutlets" : 2
								}

							}
, 							{
								"box" : 								{
									"maxclass" : "message",
									"text" : "$1 $2",
									"outlettype" : [ "" ],
									"patching_rect" : [ 307.0, 414.0, 41.0, 18.0 ],
									"fontsize" : 12.0,
									"id" : "obj-141",
									"numinlets" : 2,
									"numoutlets" : 1,
									"fontname" : "Arial"
								}

							}
, 							{
								"box" : 								{
									"maxclass" : "message",
									"text" : "$2",
									"outlettype" : [ "" ],
									"patching_rect" : [ 255.0, 414.0, 32.5, 18.0 ],
									"fontsize" : 12.0,
									"id" : "obj-140",
									"numinlets" : 2,
									"numoutlets" : 1,
									"fontname" : "Arial"
								}

							}
, 							{
								"box" : 								{
									"maxclass" : "newobj",
									"text" : "zl reg",
									"outlettype" : [ "", "" ],
									"patching_rect" : [ 211.0, 280.0, 40.0, 20.0 ],
									"fontsize" : 12.0,
									"id" : "obj-135",
									"numinlets" : 2,
									"numoutlets" : 2,
									"fontname" : "Arial"
								}

							}
, 							{
								"box" : 								{
									"maxclass" : "button",
									"outlettype" : [ "bang" ],
									"patching_rect" : [ 182.0, 224.0, 20.0, 20.0 ],
									"id" : "obj-134",
									"numinlets" : 1,
									"numoutlets" : 1
								}

							}
, 							{
								"box" : 								{
									"maxclass" : "newobj",
									"text" : "pack a syncOver",
									"outlettype" : [ "" ],
									"patching_rect" : [ 105.0, 328.0, 100.0, 20.0 ],
									"fontsize" : 12.0,
									"id" : "obj-132",
									"numinlets" : 2,
									"numoutlets" : 1,
									"fontname" : "Arial"
								}

							}
, 							{
								"box" : 								{
									"maxclass" : "message",
									"text" : "nth $1 1",
									"outlettype" : [ "" ],
									"patching_rect" : [ 211.0, 143.0, 54.0, 18.0 ],
									"fontsize" : 12.0,
									"id" : "obj-86",
									"numinlets" : 2,
									"numoutlets" : 1,
									"fontname" : "Arial"
								}

							}
, 							{
								"box" : 								{
									"maxclass" : "newobj",
									"text" : "coll",
									"outlettype" : [ "", "", "", "" ],
									"patching_rect" : [ 211.0, 172.0, 59.5, 20.0 ],
									"fontsize" : 12.0,
									"id" : "obj-87",
									"numinlets" : 1,
									"numoutlets" : 4,
									"fontname" : "Arial",
									"coll_data" : 									{
										"count" : 3,
										"data" : [ 											{
												"key" : 1,
												"value" : [ "syncTop" ]
											}
, 											{
												"key" : 2,
												"value" : [ "syncOver" ]
											}
, 											{
												"key" : 3,
												"value" : [ "syncBottom" ]
											}
 ]
									}
,
									"saved_object_attributes" : 									{
										"embed" : 1
									}

								}

							}
, 							{
								"box" : 								{
									"maxclass" : "newobj",
									"text" : "+ 1",
									"outlettype" : [ "int" ],
									"patching_rect" : [ 211.0, 112.0, 32.5, 20.0 ],
									"fontsize" : 12.0,
									"id" : "obj-85",
									"numinlets" : 2,
									"numoutlets" : 1,
									"fontname" : "Arial"
								}

							}
, 							{
								"box" : 								{
									"maxclass" : "outlet",
									"patching_rect" : [ 287.0, 478.0, 25.0, 25.0 ],
									"id" : "obj-5",
									"numinlets" : 1,
									"numoutlets" : 0,
									"comment" : ""
								}

							}
, 							{
								"box" : 								{
									"maxclass" : "inlet",
									"outlettype" : [ "" ],
									"patching_rect" : [ 211.0, 28.0, 25.0, 25.0 ],
									"id" : "obj-4",
									"numinlets" : 0,
									"numoutlets" : 1,
									"comment" : ""
								}

							}
, 							{
								"box" : 								{
									"maxclass" : "inlet",
									"outlettype" : [ "int" ],
									"patching_rect" : [ 113.0, 28.0, 25.0, 25.0 ],
									"id" : "obj-3",
									"numinlets" : 0,
									"numoutlets" : 1,
									"comment" : ""
								}

							}
, 							{
								"box" : 								{
									"maxclass" : "inlet",
									"outlettype" : [ "int" ],
									"patching_rect" : [ 75.0, 28.0, 25.0, 25.0 ],
									"id" : "obj-2",
									"numinlets" : 0,
									"numoutlets" : 1,
									"comment" : ""
								}

							}
, 							{
								"box" : 								{
									"maxclass" : "inlet",
									"outlettype" : [ "int" ],
									"patching_rect" : [ 36.0, 28.0, 25.0, 25.0 ],
									"id" : "obj-1",
									"numinlets" : 0,
									"numoutlets" : 1,
									"comment" : ""
								}

							}
 ],
						"lines" : [ 							{
								"patchline" : 								{
									"source" : [ "obj-98", 0 ],
									"destination" : [ "obj-127", 1 ],
									"hidden" : 0,
									"midpoints" : [  ]
								}

							}
, 							{
								"patchline" : 								{
									"source" : [ "obj-97", 0 ],
									"destination" : [ "obj-127", 0 ],
									"hidden" : 0,
									"midpoints" : [  ]
								}

							}
, 							{
								"patchline" : 								{
									"source" : [ "obj-91", 0 ],
									"destination" : [ "obj-88", 0 ],
									"hidden" : 0,
									"midpoints" : [  ]
								}

							}
, 							{
								"patchline" : 								{
									"source" : [ "obj-90", 0 ],
									"destination" : [ "obj-91", 0 ],
									"hidden" : 0,
									"midpoints" : [  ]
								}

							}
, 							{
								"patchline" : 								{
									"source" : [ "obj-89", 1 ],
									"destination" : [ "obj-90", 0 ],
									"hidden" : 0,
									"midpoints" : [  ]
								}

							}
, 							{
								"patchline" : 								{
									"source" : [ "obj-89", 0 ],
									"destination" : [ "obj-88", 0 ],
									"hidden" : 0,
									"midpoints" : [ 85.5, 240.0, 114.5, 240.0 ]
								}

							}
, 							{
								"patchline" : 								{
									"source" : [ "obj-89", 1 ],
									"destination" : [ "obj-8", 0 ],
									"hidden" : 0,
									"midpoints" : [ 114.5, 204.5, 306.5, 204.5 ]
								}

							}
, 							{
								"patchline" : 								{
									"source" : [ "obj-89", 0 ],
									"destination" : [ "obj-55", 0 ],
									"hidden" : 0,
									"midpoints" : [ 85.5, 241.0, 260.5, 241.0 ]
								}

							}
, 							{
								"patchline" : 								{
									"source" : [ "obj-88", 0 ],
									"destination" : [ "obj-132", 0 ],
									"hidden" : 0,
									"midpoints" : [  ]
								}

							}
, 							{
								"patchline" : 								{
									"source" : [ "obj-87", 0 ],
									"destination" : [ "obj-135", 0 ],
									"hidden" : 0,
									"midpoints" : [  ]
								}

							}
, 							{
								"patchline" : 								{
									"source" : [ "obj-87", 0 ],
									"destination" : [ "obj-134", 0 ],
									"hidden" : 0,
									"midpoints" : [ 220.5, 209.5, 191.5, 209.5 ]
								}

							}
, 							{
								"patchline" : 								{
									"source" : [ "obj-86", 0 ],
									"destination" : [ "obj-87", 0 ],
									"hidden" : 0,
									"midpoints" : [  ]
								}

							}
, 							{
								"patchline" : 								{
									"source" : [ "obj-85", 0 ],
									"destination" : [ "obj-86", 0 ],
									"hidden" : 0,
									"midpoints" : [  ]
								}

							}
, 							{
								"patchline" : 								{
									"source" : [ "obj-8", 0 ],
									"destination" : [ "obj-146", 0 ],
									"hidden" : 0,
									"midpoints" : [ 306.5, 272.5, 285.5, 272.5 ]
								}

							}
, 							{
								"patchline" : 								{
									"source" : [ "obj-55", 0 ],
									"destination" : [ "obj-146", 0 ],
									"hidden" : 0,
									"midpoints" : [ 260.5, 273.0, 285.5, 273.0 ]
								}

							}
, 							{
								"patchline" : 								{
									"source" : [ "obj-4", 0 ],
									"destination" : [ "obj-85", 0 ],
									"hidden" : 0,
									"midpoints" : [  ]
								}

							}
, 							{
								"patchline" : 								{
									"source" : [ "obj-3", 0 ],
									"destination" : [ "obj-128", 1 ],
									"hidden" : 0,
									"midpoints" : [  ]
								}

							}
, 							{
								"patchline" : 								{
									"source" : [ "obj-2", 0 ],
									"destination" : [ "obj-98", 0 ],
									"hidden" : 0,
									"midpoints" : [  ]
								}

							}
, 							{
								"patchline" : 								{
									"source" : [ "obj-146", 0 ],
									"destination" : [ "obj-144", 0 ],
									"hidden" : 0,
									"midpoints" : [  ]
								}

							}
, 							{
								"patchline" : 								{
									"source" : [ "obj-144", 1 ],
									"destination" : [ "obj-141", 0 ],
									"hidden" : 0,
									"midpoints" : [ 306.5, 406.0, 316.5, 406.0 ]
								}

							}
, 							{
								"patchline" : 								{
									"source" : [ "obj-144", 0 ],
									"destination" : [ "obj-140", 0 ],
									"hidden" : 0,
									"midpoints" : [ 286.5, 406.0, 264.5, 406.0 ]
								}

							}
, 							{
								"patchline" : 								{
									"source" : [ "obj-141", 0 ],
									"destination" : [ "obj-5", 0 ],
									"hidden" : 0,
									"midpoints" : [ 316.5, 454.5, 296.5, 454.5 ]
								}

							}
, 							{
								"patchline" : 								{
									"source" : [ "obj-140", 0 ],
									"destination" : [ "obj-5", 0 ],
									"hidden" : 0,
									"midpoints" : [ 264.5, 454.5, 296.5, 454.5 ]
								}

							}
, 							{
								"patchline" : 								{
									"source" : [ "obj-135", 0 ],
									"destination" : [ "obj-132", 1 ],
									"hidden" : 0,
									"midpoints" : [ 220.5, 320.5, 195.5, 320.5 ]
								}

							}
, 							{
								"patchline" : 								{
									"source" : [ "obj-134", 0 ],
									"destination" : [ "obj-88", 0 ],
									"hidden" : 0,
									"midpoints" : [ 191.5, 274.0, 114.5, 274.0 ]
								}

							}
, 							{
								"patchline" : 								{
									"source" : [ "obj-132", 0 ],
									"destination" : [ "obj-144", 1 ],
									"hidden" : 0,
									"midpoints" : [ 114.5, 354.0, 306.5, 354.0 ]
								}

							}
, 							{
								"patchline" : 								{
									"source" : [ "obj-128", 0 ],
									"destination" : [ "obj-89", 0 ],
									"hidden" : 0,
									"midpoints" : [  ]
								}

							}
, 							{
								"patchline" : 								{
									"source" : [ "obj-127", 0 ],
									"destination" : [ "obj-128", 0 ],
									"hidden" : 0,
									"midpoints" : [ 47.5, 142.5, 85.5, 142.5 ]
								}

							}
, 							{
								"patchline" : 								{
									"source" : [ "obj-1", 0 ],
									"destination" : [ "obj-97", 0 ],
									"hidden" : 0,
									"midpoints" : [  ]
								}

							}
 ]
					}
,
					"saved_object_attributes" : 					{
						"default_fontsize" : 12.0,
						"fontface" : 0,
						"fontsize" : 12.0,
						"default_fontface" : 0,
						"globalpatchername" : "",
						"default_fontname" : "Arial",
						"fontname" : "Arial"
					}

				}

			}
, 			{
				"box" : 				{
					"maxclass" : "comment",
					"text" : "bottom",
					"presentation_rect" : [ 120.0, 109.0, 51.0, 20.0 ],
					"patching_rect" : [ 947.0, 106.0, 45.0, 20.0 ],
					"fontsize" : 12.0,
					"presentation" : 1,
					"id" : "obj-81",
					"numinlets" : 1,
					"numoutlets" : 0,
					"fontname" : "Arial"
				}

			}
, 			{
				"box" : 				{
					"maxclass" : "comment",
					"text" : "over",
					"presentation_rect" : [ 120.0, 91.0, 52.0, 20.0 ],
					"patching_rect" : [ 947.0, 85.0, 45.0, 20.0 ],
					"fontsize" : 12.0,
					"presentation" : 1,
					"id" : "obj-80",
					"numinlets" : 1,
					"numoutlets" : 0,
					"fontname" : "Arial"
				}

			}
, 			{
				"box" : 				{
					"maxclass" : "radiogroup",
					"presentation_rect" : [ 102.0, 74.0, 18.0, 56.0 ],
					"outlettype" : [ "" ],
					"offset" : 18,
					"patching_rect" : [ 928.0, 67.0, 18.0, 56.0 ],
					"presentation" : 1,
					"id" : "obj-79",
					"numinlets" : 1,
					"numoutlets" : 1,
					"itemtype" : 0,
					"size" : 3,
					"value" : 1,
					"disabled" : [ 0, 0, 0 ]
				}

			}
, 			{
				"box" : 				{
					"maxclass" : "comment",
					"text" : "top",
					"presentation_rect" : [ 120.0, 73.0, 51.0, 20.0 ],
					"patching_rect" : [ 947.0, 65.0, 44.0, 20.0 ],
					"fontsize" : 12.0,
					"presentation" : 1,
					"id" : "obj-75",
					"numinlets" : 1,
					"numoutlets" : 0,
					"fontname" : "Arial"
				}

			}
, 			{
				"box" : 				{
					"maxclass" : "comment",
					"text" : "VPos",
					"presentation_rect" : [ 100.0, 49.0, 58.0, 23.0 ],
					"fontface" : 1,
					"patching_rect" : [ 920.0, 39.0, 46.0, 23.0 ],
					"fontsize" : 14.0,
					"presentation" : 1,
					"id" : "obj-76",
					"numinlets" : 1,
					"numoutlets" : 0,
					"fontname" : "Arial"
				}

			}
, 			{
				"box" : 				{
					"maxclass" : "newobj",
					"text" : "prepend /ITL/scene/sync car* myGuidoFile",
					"outlettype" : [ "" ],
					"patching_rect" : [ 834.0, 199.0, 237.0, 20.0 ],
					"fontsize" : 12.0,
					"id" : "obj-71",
					"numinlets" : 1,
					"numoutlets" : 1,
					"fontname" : "Arial"
				}

			}
, 			{
				"box" : 				{
					"maxclass" : "newobj",
					"text" : "s sync",
					"patching_rect" : [ 834.0, 232.0, 45.0, 20.0 ],
					"fontsize" : 12.0,
					"id" : "obj-70",
					"numinlets" : 1,
					"numoutlets" : 0,
					"fontname" : "Arial"
				}

			}
, 			{
				"box" : 				{
					"maxclass" : "comment",
					"text" : "v",
					"presentation_rect" : [ 72.0, 69.0, 20.0, 23.0 ],
					"fontface" : 1,
					"patching_rect" : [ 881.0, 77.0, 20.0, 23.0 ],
					"fontsize" : 14.0,
					"presentation" : 1,
					"id" : "obj-50",
					"numinlets" : 1,
					"numoutlets" : 0,
					"fontname" : "Arial"
				}

			}
, 			{
				"box" : 				{
					"maxclass" : "comment",
					"text" : "h",
					"presentation_rect" : [ 47.0, 69.0, 20.0, 23.0 ],
					"fontface" : 1,
					"patching_rect" : [ 853.0, 77.0, 20.0, 23.0 ],
					"fontsize" : 14.0,
					"presentation" : 1,
					"id" : "obj-49",
					"numinlets" : 1,
					"numoutlets" : 0,
					"fontname" : "Arial"
				}

			}
, 			{
				"box" : 				{
					"maxclass" : "comment",
					"text" : "Stretch",
					"presentation_rect" : [ 27.0, 49.0, 58.0, 23.0 ],
					"fontface" : 1,
					"patching_rect" : [ 839.0, 55.0, 58.0, 23.0 ],
					"fontsize" : 14.0,
					"presentation" : 1,
					"id" : "obj-48",
					"numinlets" : 1,
					"numoutlets" : 0,
					"fontname" : "Arial"
				}

			}
, 			{
				"box" : 				{
					"maxclass" : "toggle",
					"presentation_rect" : [ 70.0, 91.0, 20.0, 20.0 ],
					"outlettype" : [ "int" ],
					"patching_rect" : [ 882.0, 101.0, 20.0, 20.0 ],
					"presentation" : 1,
					"id" : "obj-37",
					"numinlets" : 1,
					"numoutlets" : 1
				}

			}
, 			{
				"box" : 				{
					"maxclass" : "toggle",
					"presentation_rect" : [ 44.0, 91.0, 20.0, 20.0 ],
					"outlettype" : [ "int" ],
					"patching_rect" : [ 855.0, 101.0, 20.0, 20.0 ],
					"presentation" : 1,
					"id" : "obj-6",
					"numinlets" : 1,
					"numoutlets" : 1
				}

			}
, 			{
				"box" : 				{
					"maxclass" : "newobj",
					"text" : "prepend /ITL rootPath",
					"outlettype" : [ "" ],
					"patching_rect" : [ 357.0, 391.0, 127.0, 20.0 ],
					"fontsize" : 12.0,
					"id" : "obj-19",
					"numinlets" : 1,
					"numoutlets" : 1,
					"fontname" : "Arial"
				}

			}
, 			{
				"box" : 				{
					"maxclass" : "newobj",
					"text" : "conformpath native boot",
					"outlettype" : [ "", "int" ],
					"patching_rect" : [ 357.0, 363.0, 139.0, 20.0 ],
					"fontsize" : 12.0,
					"id" : "obj-36",
					"numinlets" : 1,
					"numoutlets" : 2,
					"fontname" : "Arial"
				}

			}
, 			{
				"box" : 				{
					"maxclass" : "comment",
					"text" : "Note: the OSC communication bus is named \"sync\"",
					"linecount" : 2,
					"patching_rect" : [ 19.0, 511.0, 203.0, 39.0 ],
					"fontsize" : 14.0,
					"id" : "obj-35",
					"textcolor" : [ 0.282353, 0.282353, 0.282353, 1.0 ],
					"frgb" : [ 0.282353, 0.282353, 0.282353, 1.0 ],
					"numinlets" : 1,
					"numoutlets" : 0,
					"fontname" : "Arial"
				}

			}
, 			{
				"box" : 				{
					"maxclass" : "comment",
					"text" : "whole note",
					"presentation_rect" : [ 63.0, 198.0, 72.0, 20.0 ],
					"patching_rect" : [ 606.0, 297.0, 86.0, 20.0 ],
					"fontsize" : 12.0,
					"presentation" : 1,
					"id" : "obj-34",
					"numinlets" : 1,
					"numoutlets" : 0,
					"fontname" : "Arial"
				}

			}
, 			{
				"box" : 				{
					"maxclass" : "comment",
					"text" : "half note",
					"presentation_rect" : [ 63.0, 182.0, 63.0, 20.0 ],
					"patching_rect" : [ 606.0, 279.0, 86.0, 20.0 ],
					"fontsize" : 12.0,
					"presentation" : 1,
					"id" : "obj-33",
					"numinlets" : 1,
					"numoutlets" : 0,
					"fontname" : "Arial"
				}

			}
, 			{
				"box" : 				{
					"maxclass" : "comment",
					"text" : "quarter note",
					"presentation_rect" : [ 63.0, 165.0, 80.0, 20.0 ],
					"patching_rect" : [ 606.0, 260.0, 86.0, 20.0 ],
					"fontsize" : 12.0,
					"presentation" : 1,
					"id" : "obj-30",
					"numinlets" : 1,
					"numoutlets" : 0,
					"fontname" : "Arial"
				}

			}
, 			{
				"box" : 				{
					"maxclass" : "comment",
					"text" : "Cars duration",
					"presentation_rect" : [ 19.0, 139.0, 101.0, 23.0 ],
					"fontface" : 1,
					"patching_rect" : [ 549.0, 235.0, 104.0, 23.0 ],
					"fontsize" : 14.0,
					"presentation" : 1,
					"id" : "obj-29",
					"numinlets" : 1,
					"numoutlets" : 0,
					"fontname" : "Arial"
				}

			}
, 			{
				"box" : 				{
					"maxclass" : "message",
					"text" : "1",
					"outlettype" : [ "" ],
					"patching_rect" : [ 642.0, 398.0, 32.5, 18.0 ],
					"fontsize" : 12.0,
					"id" : "obj-27",
					"numinlets" : 2,
					"numoutlets" : 1,
					"fontname" : "Arial"
				}

			}
, 			{
				"box" : 				{
					"maxclass" : "newobj",
					"text" : "prepend /ITL/scene/car* duration 1",
					"outlettype" : [ "" ],
					"patching_rect" : [ 533.0, 436.0, 195.0, 20.0 ],
					"fontsize" : 12.0,
					"id" : "obj-26",
					"numinlets" : 1,
					"numoutlets" : 1,
					"fontname" : "Arial"
				}

			}
, 			{
				"box" : 				{
					"maxclass" : "message",
					"text" : "2",
					"outlettype" : [ "" ],
					"patching_rect" : [ 600.0, 398.0, 32.5, 18.0 ],
					"fontsize" : 12.0,
					"id" : "obj-25",
					"numinlets" : 2,
					"numoutlets" : 1,
					"fontname" : "Arial"
				}

			}
, 			{
				"box" : 				{
					"maxclass" : "message",
					"text" : "4",
					"outlettype" : [ "" ],
					"patching_rect" : [ 558.0, 398.0, 32.5, 18.0 ],
					"fontsize" : 12.0,
					"id" : "obj-24",
					"numinlets" : 2,
					"numoutlets" : 1,
					"fontname" : "Arial"
				}

			}
, 			{
				"box" : 				{
					"maxclass" : "button",
					"outlettype" : [ "bang" ],
					"patching_rect" : [ 627.0, 356.0, 20.0, 20.0 ],
					"id" : "obj-23",
					"numinlets" : 1,
					"numoutlets" : 1
				}

			}
, 			{
				"box" : 				{
					"maxclass" : "button",
					"outlettype" : [ "bang" ],
					"patching_rect" : [ 606.0, 356.0, 20.0, 20.0 ],
					"id" : "obj-22",
					"numinlets" : 1,
					"numoutlets" : 1
				}

			}
, 			{
				"box" : 				{
					"maxclass" : "button",
					"outlettype" : [ "bang" ],
					"patching_rect" : [ 584.0, 355.0, 20.0, 20.0 ],
					"id" : "obj-21",
					"numinlets" : 1,
					"numoutlets" : 1
				}

			}
, 			{
				"box" : 				{
					"maxclass" : "newobj",
					"text" : "route 0 1 2",
					"outlettype" : [ "", "", "", "" ],
					"patching_rect" : [ 584.0, 323.0, 68.0, 20.0 ],
					"fontsize" : 12.0,
					"id" : "obj-20",
					"numinlets" : 1,
					"numoutlets" : 4,
					"fontname" : "Arial"
				}

			}
, 			{
				"box" : 				{
					"maxclass" : "newobj",
					"text" : "s sync",
					"patching_rect" : [ 533.0, 465.0, 45.0, 20.0 ],
					"fontsize" : 12.0,
					"id" : "obj-18",
					"numinlets" : 1,
					"numoutlets" : 0,
					"fontname" : "Arial"
				}

			}
, 			{
				"box" : 				{
					"maxclass" : "radiogroup",
					"presentation_rect" : [ 38.0, 164.0, 19.0, 50.0 ],
					"outlettype" : [ "" ],
					"patching_rect" : [ 584.0, 263.0, 19.0, 50.0 ],
					"presentation" : 1,
					"id" : "obj-17",
					"numinlets" : 1,
					"numoutlets" : 1,
					"itemtype" : 0,
					"size" : 3,
					"value" : 0,
					"disabled" : [ 0, 0, 0 ]
				}

			}
, 			{
				"box" : 				{
					"maxclass" : "comment",
					"text" : "Tempo",
					"presentation_rect" : [ 168.0, 165.0, 48.0, 20.0 ],
					"fontface" : 1,
					"patching_rect" : [ 176.0, 186.0, 52.0, 20.0 ],
					"fontsize" : 12.0,
					"presentation" : 1,
					"id" : "obj-15",
					"numinlets" : 1,
					"numoutlets" : 0,
					"fontname" : "Arial"
				}

			}
, 			{
				"box" : 				{
					"maxclass" : "newobj",
					"text" : "s sync",
					"patching_rect" : [ 541.0, 140.0, 45.0, 20.0 ],
					"fontsize" : 12.0,
					"id" : "obj-11",
					"numinlets" : 1,
					"numoutlets" : 0,
					"fontname" : "Arial"
				}

			}
, 			{
				"box" : 				{
					"maxclass" : "slider",
					"presentation_rect" : [ 191.0, 22.0, 20.0, 140.0 ],
					"outlettype" : [ "" ],
					"size" : 250.0,
					"patching_rect" : [ 171.0, 28.0, 20.0, 140.0 ],
					"presentation" : 1,
					"id" : "obj-1",
					"numinlets" : 1,
					"numoutlets" : 1
				}

			}
, 			{
				"box" : 				{
					"maxclass" : "newobj",
					"text" : "p time",
					"outlettype" : [ "int" ],
					"color" : [ 0.827451, 0.827451, 0.827451, 1.0 ],
					"patching_rect" : [ 84.0, 149.0, 44.0, 20.0 ],
					"fontsize" : 12.0,
					"id" : "obj-214",
					"numinlets" : 2,
					"numoutlets" : 1,
					"fontname" : "Arial",
					"patcher" : 					{
						"fileversion" : 1,
						"rect" : [ 470.0, 194.0, 347.0, 215.0 ],
						"bglocked" : 0,
						"defrect" : [ 470.0, 194.0, 347.0, 215.0 ],
						"openrect" : [ 470.0, 194.0, 347.0, 215.0 ],
						"openinpresentation" : 1,
						"default_fontsize" : 12.0,
						"default_fontface" : 0,
						"default_fontname" : "Arial",
						"gridonopen" : 0,
						"gridsize" : [ 15.0, 15.0 ],
						"gridsnaponopen" : 0,
						"toolbarvisible" : 1,
						"boxanimatetime" : 200,
						"imprint" : 0,
						"enablehscroll" : 1,
						"enablevscroll" : 1,
						"devicewidth" : 0.0,
						"boxes" : [ 							{
								"box" : 								{
									"maxclass" : "outlet",
									"patching_rect" : [ 72.0, 338.0, 25.0, 25.0 ],
									"id" : "obj-4",
									"numinlets" : 1,
									"numoutlets" : 0,
									"comment" : ""
								}

							}
, 							{
								"box" : 								{
									"maxclass" : "inlet",
									"outlettype" : [ "int" ],
									"patching_rect" : [ 202.0, 36.0, 25.0, 25.0 ],
									"id" : "obj-2",
									"numinlets" : 0,
									"numoutlets" : 1,
									"comment" : ""
								}

							}
, 							{
								"box" : 								{
									"maxclass" : "inlet",
									"outlettype" : [ "" ],
									"patching_rect" : [ 277.0, 39.0, 25.0, 25.0 ],
									"id" : "obj-1",
									"numinlets" : 0,
									"numoutlets" : 1,
									"comment" : ""
								}

							}
, 							{
								"box" : 								{
									"maxclass" : "newobj",
									"text" : "zl slice 2",
									"outlettype" : [ "", "" ],
									"patching_rect" : [ 105.0, 69.5, 57.0, 20.0 ],
									"fontsize" : 12.0,
									"id" : "obj-67",
									"numinlets" : 2,
									"numoutlets" : 2,
									"fontname" : "Arial"
								}

							}
, 							{
								"box" : 								{
									"maxclass" : "newobj",
									"text" : "zl slice 2",
									"outlettype" : [ "", "" ],
									"patching_rect" : [ 68.0, 41.5, 57.0, 20.0 ],
									"fontsize" : 12.0,
									"id" : "obj-65",
									"numinlets" : 2,
									"numoutlets" : 2,
									"fontname" : "Arial"
								}

							}
, 							{
								"box" : 								{
									"maxclass" : "newobj",
									"text" : "route play tempo dest",
									"outlettype" : [ "", "", "", "" ],
									"patching_rect" : [ 71.0, 122.0, 126.0, 20.0 ],
									"fontsize" : 12.0,
									"id" : "obj-58",
									"numinlets" : 1,
									"numoutlets" : 4,
									"fontname" : "Arial"
								}

							}
, 							{
								"box" : 								{
									"maxclass" : "newobj",
									"text" : "r time",
									"outlettype" : [ "" ],
									"patching_rect" : [ 68.0, 15.5, 40.0, 20.0 ],
									"fontsize" : 12.0,
									"id" : "obj-57",
									"numinlets" : 0,
									"numoutlets" : 1,
									"fontname" : "Arial"
								}

							}
, 							{
								"box" : 								{
									"maxclass" : "newobj",
									"text" : "prepend tempo",
									"outlettype" : [ "" ],
									"patching_rect" : [ 144.0, 192.0, 91.0, 20.0 ],
									"fontsize" : 12.0,
									"id" : "obj-16",
									"numinlets" : 1,
									"numoutlets" : 1,
									"fontname" : "Arial"
								}

							}
, 							{
								"box" : 								{
									"maxclass" : "toggle",
									"presentation_rect" : [ 91.0, 11.0, 20.0, 20.0 ],
									"outlettype" : [ "int" ],
									"patching_rect" : [ 72.0, 263.0, 20.0, 20.0 ],
									"presentation" : 1,
									"id" : "obj-12",
									"numinlets" : 1,
									"numoutlets" : 1
								}

							}
, 							{
								"box" : 								{
									"maxclass" : "newobj",
									"text" : "tempo 60 1 96",
									"outlettype" : [ "int" ],
									"patching_rect" : [ 72.0, 297.0, 87.0, 20.0 ],
									"fontsize" : 12.0,
									"id" : "obj-11",
									"numinlets" : 4,
									"numoutlets" : 1,
									"fontname" : "Arial"
								}

							}
 ],
						"lines" : [ 							{
								"patchline" : 								{
									"source" : [ "obj-67", 0 ],
									"destination" : [ "obj-58", 0 ],
									"hidden" : 0,
									"midpoints" : [ 114.5, 109.0, 80.5, 109.0 ]
								}

							}
, 							{
								"patchline" : 								{
									"source" : [ "obj-67", 1 ],
									"destination" : [ "obj-58", 0 ],
									"hidden" : 0,
									"midpoints" : [ 152.5, 109.0, 80.5, 109.0 ]
								}

							}
, 							{
								"patchline" : 								{
									"source" : [ "obj-65", 1 ],
									"destination" : [ "obj-67", 0 ],
									"hidden" : 0,
									"midpoints" : [  ]
								}

							}
, 							{
								"patchline" : 								{
									"source" : [ "obj-65", 0 ],
									"destination" : [ "obj-58", 0 ],
									"hidden" : 0,
									"midpoints" : [  ]
								}

							}
, 							{
								"patchline" : 								{
									"source" : [ "obj-58", 1 ],
									"destination" : [ "obj-16", 0 ],
									"hidden" : 0,
									"midpoints" : [ 116.166664, 177.0, 153.5, 177.0 ]
								}

							}
, 							{
								"patchline" : 								{
									"source" : [ "obj-58", 0 ],
									"destination" : [ "obj-12", 0 ],
									"hidden" : 0,
									"midpoints" : [ 80.5, 258.0, 81.5, 258.0 ]
								}

							}
, 							{
								"patchline" : 								{
									"source" : [ "obj-57", 0 ],
									"destination" : [ "obj-65", 0 ],
									"hidden" : 0,
									"midpoints" : [  ]
								}

							}
, 							{
								"patchline" : 								{
									"source" : [ "obj-2", 0 ],
									"destination" : [ "obj-12", 0 ],
									"hidden" : 0,
									"midpoints" : [ 211.5, 249.0, 81.5, 249.0 ]
								}

							}
, 							{
								"patchline" : 								{
									"source" : [ "obj-16", 0 ],
									"destination" : [ "obj-11", 1 ],
									"hidden" : 0,
									"midpoints" : [ 153.5, 282.0, 104.166664, 282.0 ]
								}

							}
, 							{
								"patchline" : 								{
									"source" : [ "obj-12", 0 ],
									"destination" : [ "obj-11", 0 ],
									"hidden" : 0,
									"midpoints" : [  ]
								}

							}
, 							{
								"patchline" : 								{
									"source" : [ "obj-11", 0 ],
									"destination" : [ "obj-4", 0 ],
									"hidden" : 0,
									"midpoints" : [  ]
								}

							}
, 							{
								"patchline" : 								{
									"source" : [ "obj-1", 0 ],
									"destination" : [ "obj-16", 0 ],
									"hidden" : 0,
									"midpoints" : [ 286.5, 177.0, 153.5, 177.0 ]
								}

							}
 ]
					}
,
					"saved_object_attributes" : 					{
						"default_fontsize" : 12.0,
						"fontface" : 0,
						"fontsize" : 12.0,
						"default_fontface" : 0,
						"globalpatchername" : "",
						"default_fontname" : "Arial",
						"fontname" : "Arial"
					}

				}

			}
, 			{
				"box" : 				{
					"maxclass" : "comment",
					"text" : "This patch shows components synchronization : the cars are synchronized to the score.",
					"linecount" : 3,
					"presentation_linecount" : 3,
					"presentation_rect" : [ 118.0, 225.0, 201.0, 55.0 ],
					"patching_rect" : [ 276.0, 35.0, 203.0, 55.0 ],
					"fontsize" : 14.0,
					"presentation" : 1,
					"id" : "obj-16",
					"textcolor" : [ 0.282353, 0.282353, 0.282353, 1.0 ],
					"frgb" : [ 0.282353, 0.282353, 0.282353, 1.0 ],
					"numinlets" : 1,
					"numoutlets" : 0,
					"fontname" : "Arial"
				}

			}
, 			{
				"box" : 				{
					"maxclass" : "comment",
					"text" : "Play",
					"presentation_rect" : [ 27.0, 19.0, 38.0, 23.0 ],
					"fontface" : 1,
					"patching_rect" : [ 35.0, 115.0, 38.0, 23.0 ],
					"fontsize" : 14.0,
					"presentation" : 1,
					"id" : "obj-14",
					"numinlets" : 1,
					"numoutlets" : 0,
					"fontname" : "Arial"
				}

			}
, 			{
				"box" : 				{
					"maxclass" : "toggle",
					"presentation_rect" : [ 81.0, 19.0, 20.0, 20.0 ],
					"outlettype" : [ "int" ],
					"patching_rect" : [ 84.0, 117.0, 20.0, 20.0 ],
					"presentation" : 1,
					"id" : "obj-12",
					"numinlets" : 1,
					"numoutlets" : 1
				}

			}
, 			{
				"box" : 				{
					"maxclass" : "message",
					"text" : "/ITL load sync.inscore",
					"outlettype" : [ "" ],
					"patching_rect" : [ 270.0, 319.0, 127.0, 18.0 ],
					"fontsize" : 12.0,
					"id" : "obj-8",
					"numinlets" : 2,
					"numoutlets" : 1,
					"fontname" : "Arial"
				}

			}
, 			{
				"box" : 				{
					"maxclass" : "message",
					"text" : "path",
					"outlettype" : [ "" ],
					"patching_rect" : [ 417.0, 303.0, 34.0, 18.0 ],
					"fontsize" : 12.0,
					"id" : "obj-4",
					"numinlets" : 2,
					"numoutlets" : 1,
					"fontname" : "Arial"
				}

			}
, 			{
				"box" : 				{
					"maxclass" : "newobj",
					"text" : "thispatcher",
					"outlettype" : [ "", "" ],
					"patching_rect" : [ 417.0, 328.0, 69.0, 20.0 ],
					"fontsize" : 12.0,
					"id" : "obj-5",
					"numinlets" : 1,
					"numoutlets" : 2,
					"fontname" : "Arial",
					"save" : [ "#N", "thispatcher", ";", "#Q", "end", ";" ]
				}

			}
, 			{
				"box" : 				{
					"maxclass" : "comment",
					"text" : "Initialization",
					"fontface" : 1,
					"patching_rect" : [ 402.0, 245.0, 91.0, 23.0 ],
					"fontsize" : 14.0,
					"id" : "obj-32",
					"numinlets" : 1,
					"numoutlets" : 0,
					"fontname" : "Arial"
				}

			}
, 			{
				"box" : 				{
					"maxclass" : "comment",
					"text" : "reload",
					"presentation_rect" : [ 46.0, 259.0, 43.0, 18.0 ],
					"patching_rect" : [ 264.0, 267.0, 41.0, 18.0 ],
					"fontsize" : 10.0,
					"presentation" : 1,
					"id" : "obj-46",
					"numinlets" : 1,
					"numoutlets" : 0,
					"fontname" : "Arial"
				}

			}
, 			{
				"box" : 				{
					"maxclass" : "button",
					"presentation_rect" : [ 21.0, 256.0, 20.0, 20.0 ],
					"outlettype" : [ "bang" ],
					"patching_rect" : [ 271.0, 241.0, 20.0, 20.0 ],
					"presentation" : 1,
					"id" : "obj-45",
					"numinlets" : 1,
					"numoutlets" : 1
				}

			}
, 			{
				"box" : 				{
					"maxclass" : "newobj",
					"text" : "s sync",
					"patching_rect" : [ 271.0, 474.0, 45.0, 20.0 ],
					"fontsize" : 12.0,
					"id" : "obj-38",
					"numinlets" : 1,
					"numoutlets" : 0,
					"fontname" : "Arial"
				}

			}
, 			{
				"box" : 				{
					"maxclass" : "newobj",
					"text" : "t b b b b",
					"outlettype" : [ "bang", "bang", "bang", "bang" ],
					"patching_rect" : [ 310.0, 270.0, 59.5, 20.0 ],
					"fontsize" : 12.0,
					"id" : "obj-3",
					"numinlets" : 1,
					"numoutlets" : 4,
					"fontname" : "Arial"
				}

			}
, 			{
				"box" : 				{
					"maxclass" : "newobj",
					"text" : "loadbang",
					"outlettype" : [ "bang" ],
					"patching_rect" : [ 310.0, 241.0, 60.0, 20.0 ],
					"fontsize" : 12.0,
					"id" : "obj-28",
					"numinlets" : 1,
					"numoutlets" : 1,
					"fontname" : "Arial"
				}

			}
, 			{
				"box" : 				{
					"maxclass" : "panel",
					"bgcolor" : [ 0.878431, 0.94902, 0.839216, 1.0 ],
					"patching_rect" : [ 256.0, 235.0, 253.0, 269.0 ],
					"id" : "obj-31",
					"numinlets" : 1,
					"numoutlets" : 0
				}

			}
, 			{
				"box" : 				{
					"maxclass" : "comment",
					"text" : "OSC communication",
					"fontface" : 1,
					"patching_rect" : [ 24.0, 323.0, 189.0, 23.0 ],
					"fontsize" : 14.0,
					"id" : "obj-40",
					"numinlets" : 1,
					"numoutlets" : 0,
					"fontname" : "Arial"
				}

			}
, 			{
				"box" : 				{
					"maxclass" : "newobj",
					"text" : "print",
					"patching_rect" : [ 185.0, 364.0, 34.0, 20.0 ],
					"fontsize" : 12.0,
					"id" : "obj-58",
					"numinlets" : 1,
					"numoutlets" : 0,
					"fontname" : "Arial"
				}

			}
, 			{
				"box" : 				{
					"maxclass" : "newobj",
					"text" : "print ITL",
					"patching_rect" : [ 132.0, 465.0, 55.0, 20.0 ],
					"fontsize" : 12.0,
					"id" : "obj-41",
					"numinlets" : 1,
					"numoutlets" : 0,
					"fontname" : "Arial"
				}

			}
, 			{
				"box" : 				{
					"maxclass" : "newobj",
					"text" : "print ITLOut",
					"patching_rect" : [ 25.0, 465.0, 74.0, 20.0 ],
					"fontsize" : 12.0,
					"id" : "obj-42",
					"numinlets" : 1,
					"numoutlets" : 0,
					"fontname" : "Arial"
				}

			}
, 			{
				"box" : 				{
					"maxclass" : "newobj",
					"text" : "udpreceive 7002",
					"outlettype" : [ "" ],
					"patching_rect" : [ 132.0, 434.0, 99.0, 20.0 ],
					"fontsize" : 12.0,
					"id" : "obj-43",
					"numinlets" : 1,
					"numoutlets" : 1,
					"fontname" : "Arial"
				}

			}
, 			{
				"box" : 				{
					"maxclass" : "newobj",
					"text" : "udpreceive 7001",
					"outlettype" : [ "" ],
					"patching_rect" : [ 25.0, 432.0, 99.0, 20.0 ],
					"fontsize" : 12.0,
					"id" : "obj-44",
					"numinlets" : 1,
					"numoutlets" : 1,
					"fontname" : "Arial"
				}

			}
, 			{
				"box" : 				{
					"maxclass" : "newobj",
					"text" : "r sync",
					"outlettype" : [ "" ],
					"patching_rect" : [ 25.0, 354.0, 43.0, 20.0 ],
					"fontsize" : 12.0,
					"id" : "obj-39",
					"numinlets" : 0,
					"numoutlets" : 1,
					"fontname" : "Arial"
				}

			}
, 			{
				"box" : 				{
					"maxclass" : "newobj",
					"text" : "udpsend 127.0.0.1 7000",
					"patching_rect" : [ 25.0, 394.0, 136.0, 20.0 ],
					"fontsize" : 11.595187,
					"id" : "obj-72",
					"numinlets" : 1,
					"numoutlets" : 0,
					"fontname" : "Arial"
				}

			}
, 			{
				"box" : 				{
					"maxclass" : "panel",
					"bgcolor" : [ 0.878431, 0.94902, 0.839216, 1.0 ],
					"patching_rect" : [ 9.0, 313.0, 239.0, 191.0 ],
					"id" : "obj-47",
					"numinlets" : 1,
					"numoutlets" : 0
				}

			}
 ],
		"lines" : [ 			{
				"patchline" : 				{
					"source" : [ "obj-99", 0 ],
					"destination" : [ "obj-69", 0 ],
					"hidden" : 0,
					"midpoints" : [  ]
				}

			}
, 			{
				"patchline" : 				{
					"source" : [ "obj-97", 0 ],
					"destination" : [ "obj-96", 0 ],
					"hidden" : 0,
					"midpoints" : [  ]
				}

			}
, 			{
				"patchline" : 				{
					"source" : [ "obj-96", 0 ],
					"destination" : [ "obj-99", 0 ],
					"hidden" : 0,
					"midpoints" : [ 378.5, 674.0, 744.0, 674.0, 744.0, 270.0, 931.5, 270.0 ]
				}

			}
, 			{
				"patchline" : 				{
					"source" : [ "obj-96", 0 ],
					"destination" : [ "obj-83", 0 ],
					"hidden" : 0,
					"midpoints" : [ 378.5, 683.0, 237.5, 683.0, 237.5, 18.0, 212.5, 18.0 ]
				}

			}
, 			{
				"patchline" : 				{
					"source" : [ "obj-94", 0 ],
					"destination" : [ "obj-78", 0 ],
					"hidden" : 0,
					"midpoints" : [ 314.5, 679.0, 748.0, 679.0, 748.0, 271.0, 795.5, 271.0 ]
				}

			}
, 			{
				"patchline" : 				{
					"source" : [ "obj-94", 0 ],
					"destination" : [ "obj-1", 0 ],
					"hidden" : 0,
					"midpoints" : [ 314.5, 687.0, 236.5, 687.0, 236.5, 18.0, 180.5, 18.0 ]
				}

			}
, 			{
				"patchline" : 				{
					"source" : [ "obj-93", 0 ],
					"destination" : [ "obj-94", 0 ],
					"hidden" : 0,
					"midpoints" : [  ]
				}

			}
, 			{
				"patchline" : 				{
					"source" : [ "obj-88", 0 ],
					"destination" : [ "obj-87", 0 ],
					"hidden" : 0,
					"midpoints" : [ 48.5, 257.75, 97.5, 257.75 ]
				}

			}
, 			{
				"patchline" : 				{
					"source" : [ "obj-86", 0 ],
					"destination" : [ "obj-87", 0 ],
					"hidden" : 0,
					"midpoints" : [  ]
				}

			}
, 			{
				"patchline" : 				{
					"source" : [ "obj-85", 0 ],
					"destination" : [ "obj-86", 0 ],
					"hidden" : 0,
					"midpoints" : [ 134.5, 227.0, 97.5, 227.0 ]
				}

			}
, 			{
				"patchline" : 				{
					"source" : [ "obj-84", 0 ],
					"destination" : [ "obj-77", 0 ],
					"hidden" : 0,
					"midpoints" : [  ]
				}

			}
, 			{
				"patchline" : 				{
					"source" : [ "obj-84", 1 ],
					"destination" : [ "obj-6", 0 ],
					"hidden" : 0,
					"midpoints" : [  ]
				}

			}
, 			{
				"patchline" : 				{
					"source" : [ "obj-83", 0 ],
					"destination" : [ "obj-85", 1 ],
					"hidden" : 0,
					"midpoints" : [ 212.5, 180.0, 159.5, 180.0 ]
				}

			}
, 			{
				"patchline" : 				{
					"source" : [ "obj-8", 0 ],
					"destination" : [ "obj-38", 0 ],
					"hidden" : 0,
					"midpoints" : [ 279.5, 388.0, 280.5, 388.0 ]
				}

			}
, 			{
				"patchline" : 				{
					"source" : [ "obj-79", 0 ],
					"destination" : [ "obj-7", 3 ],
					"hidden" : 0,
					"midpoints" : [  ]
				}

			}
, 			{
				"patchline" : 				{
					"source" : [ "obj-78", 0 ],
					"destination" : [ "obj-54", 0 ],
					"hidden" : 0,
					"midpoints" : [ 795.5, 310.0, 795.5, 310.0 ]
				}

			}
, 			{
				"patchline" : 				{
					"source" : [ "obj-77", 0 ],
					"destination" : [ "obj-84", 0 ],
					"hidden" : 0,
					"midpoints" : [ 839.5, 130.0, 824.0, 130.0, 824.0, 22.0, 832.5, 22.0 ]
				}

			}
, 			{
				"patchline" : 				{
					"source" : [ "obj-77", 0 ],
					"destination" : [ "obj-7", 0 ],
					"hidden" : 0,
					"midpoints" : [  ]
				}

			}
, 			{
				"patchline" : 				{
					"source" : [ "obj-71", 0 ],
					"destination" : [ "obj-70", 0 ],
					"hidden" : 0,
					"midpoints" : [  ]
				}

			}
, 			{
				"patchline" : 				{
					"source" : [ "obj-7", 0 ],
					"destination" : [ "obj-71", 0 ],
					"hidden" : 0,
					"midpoints" : [  ]
				}

			}
, 			{
				"patchline" : 				{
					"source" : [ "obj-69", 0 ],
					"destination" : [ "obj-68", 0 ],
					"hidden" : 0,
					"midpoints" : [  ]
				}

			}
, 			{
				"patchline" : 				{
					"source" : [ "obj-68", 0 ],
					"destination" : [ "obj-67", 0 ],
					"hidden" : 0,
					"midpoints" : [  ]
				}

			}
, 			{
				"patchline" : 				{
					"source" : [ "obj-67", 0 ],
					"destination" : [ "obj-65", 0 ],
					"hidden" : 0,
					"midpoints" : [  ]
				}

			}
, 			{
				"patchline" : 				{
					"source" : [ "obj-65", 0 ],
					"destination" : [ "obj-66", 0 ],
					"hidden" : 0,
					"midpoints" : [ 933.5, 584.5, 933.5, 584.5 ]
				}

			}
, 			{
				"patchline" : 				{
					"source" : [ "obj-63", 0 ],
					"destination" : [ "obj-64", 0 ],
					"hidden" : 0,
					"midpoints" : [ 795.5, 584.5, 795.5, 584.5 ]
				}

			}
, 			{
				"patchline" : 				{
					"source" : [ "obj-62", 0 ],
					"destination" : [ "obj-11", 0 ],
					"hidden" : 0,
					"midpoints" : [  ]
				}

			}
, 			{
				"patchline" : 				{
					"source" : [ "obj-61", 0 ],
					"destination" : [ "obj-55", 0 ],
					"hidden" : 0,
					"midpoints" : [ 47.5, 102.75, 29.5, 102.75 ]
				}

			}
, 			{
				"patchline" : 				{
					"source" : [ "obj-60", 0 ],
					"destination" : [ "obj-63", 0 ],
					"hidden" : 0,
					"midpoints" : [  ]
				}

			}
, 			{
				"patchline" : 				{
					"source" : [ "obj-6", 0 ],
					"destination" : [ "obj-84", 1 ],
					"hidden" : 0,
					"midpoints" : [ 864.5, 130.0, 878.0, 130.0, 878.0, 22.0, 867.5, 22.0 ]
				}

			}
, 			{
				"patchline" : 				{
					"source" : [ "obj-6", 0 ],
					"destination" : [ "obj-7", 1 ],
					"hidden" : 0,
					"midpoints" : [  ]
				}

			}
, 			{
				"patchline" : 				{
					"source" : [ "obj-59", 0 ],
					"destination" : [ "obj-60", 0 ],
					"hidden" : 0,
					"midpoints" : [  ]
				}

			}
, 			{
				"patchline" : 				{
					"source" : [ "obj-54", 0 ],
					"destination" : [ "obj-59", 0 ],
					"hidden" : 0,
					"midpoints" : [  ]
				}

			}
, 			{
				"patchline" : 				{
					"source" : [ "obj-53", 0 ],
					"destination" : [ "obj-52", 0 ],
					"hidden" : 0,
					"midpoints" : [  ]
				}

			}
, 			{
				"patchline" : 				{
					"source" : [ "obj-53", 0 ],
					"destination" : [ "obj-51", 0 ],
					"hidden" : 0,
					"midpoints" : [ 753.5, 34.5, 1028.5, 34.5 ]
				}

			}
, 			{
				"patchline" : 				{
					"source" : [ "obj-52", 0 ],
					"destination" : [ "obj-77", 0 ],
					"hidden" : 0,
					"midpoints" : [ 754.5, 97.0, 839.5, 97.0 ]
				}

			}
, 			{
				"patchline" : 				{
					"source" : [ "obj-52", 0 ],
					"destination" : [ "obj-6", 0 ],
					"hidden" : 0,
					"midpoints" : [ 754.5, 96.0, 864.5, 96.0 ]
				}

			}
, 			{
				"patchline" : 				{
					"source" : [ "obj-52", 0 ],
					"destination" : [ "obj-37", 0 ],
					"hidden" : 0,
					"midpoints" : [ 754.5, 96.0, 891.5, 96.0 ]
				}

			}
, 			{
				"patchline" : 				{
					"source" : [ "obj-51", 0 ],
					"destination" : [ "obj-79", 0 ],
					"hidden" : 0,
					"midpoints" : [ 1028.5, 61.0, 937.5, 61.0 ]
				}

			}
, 			{
				"patchline" : 				{
					"source" : [ "obj-5", 1 ],
					"destination" : [ "obj-36", 0 ],
					"hidden" : 0,
					"midpoints" : [ 476.5, 355.0, 366.5, 355.0 ]
				}

			}
, 			{
				"patchline" : 				{
					"source" : [ "obj-45", 0 ],
					"destination" : [ "obj-97", 0 ],
					"hidden" : 0,
					"midpoints" : [ 280.5, 566.5, 378.5, 566.5 ]
				}

			}
, 			{
				"patchline" : 				{
					"source" : [ "obj-45", 0 ],
					"destination" : [ "obj-93", 0 ],
					"hidden" : 0,
					"midpoints" : [ 280.5, 566.5, 314.5, 566.5 ]
				}

			}
, 			{
				"patchline" : 				{
					"source" : [ "obj-45", 0 ],
					"destination" : [ "obj-3", 0 ],
					"hidden" : 0,
					"midpoints" : [ 280.5, 263.0, 319.5, 263.0 ]
				}

			}
, 			{
				"patchline" : 				{
					"source" : [ "obj-44", 0 ],
					"destination" : [ "obj-42", 0 ],
					"hidden" : 0,
					"midpoints" : [  ]
				}

			}
, 			{
				"patchline" : 				{
					"source" : [ "obj-43", 0 ],
					"destination" : [ "obj-41", 0 ],
					"hidden" : 0,
					"midpoints" : [  ]
				}

			}
, 			{
				"patchline" : 				{
					"source" : [ "obj-4", 0 ],
					"destination" : [ "obj-5", 0 ],
					"hidden" : 0,
					"midpoints" : [  ]
				}

			}
, 			{
				"patchline" : 				{
					"source" : [ "obj-39", 0 ],
					"destination" : [ "obj-72", 0 ],
					"hidden" : 0,
					"midpoints" : [  ]
				}

			}
, 			{
				"patchline" : 				{
					"source" : [ "obj-37", 0 ],
					"destination" : [ "obj-7", 2 ],
					"hidden" : 0,
					"midpoints" : [  ]
				}

			}
, 			{
				"patchline" : 				{
					"source" : [ "obj-36", 0 ],
					"destination" : [ "obj-19", 0 ],
					"hidden" : 0,
					"midpoints" : [  ]
				}

			}
, 			{
				"patchline" : 				{
					"source" : [ "obj-333", 0 ],
					"destination" : [ "obj-62", 0 ],
					"hidden" : 0,
					"midpoints" : [ 628.5, 104.0, 550.5, 104.0 ]
				}

			}
, 			{
				"patchline" : 				{
					"source" : [ "obj-3", 2 ],
					"destination" : [ "obj-8", 0 ],
					"hidden" : 0,
					"midpoints" : [ 346.5, 305.0, 279.5, 305.0 ]
				}

			}
, 			{
				"patchline" : 				{
					"source" : [ "obj-3", 1 ],
					"destination" : [ "obj-53", 0 ],
					"hidden" : 0,
					"midpoints" : [ 333.0, 299.0, 499.25, 299.0, 499.25, 5.0, 753.5, 5.0 ]
				}

			}
, 			{
				"patchline" : 				{
					"source" : [ "obj-3", 3 ],
					"destination" : [ "obj-4", 0 ],
					"hidden" : 0,
					"midpoints" : [ 360.0, 299.0, 426.5, 299.0 ]
				}

			}
, 			{
				"patchline" : 				{
					"source" : [ "obj-3", 0 ],
					"destination" : [ "obj-13", 0 ],
					"hidden" : 0,
					"midpoints" : [ 319.5, 363.5, 300.5, 363.5 ]
				}

			}
, 			{
				"patchline" : 				{
					"source" : [ "obj-28", 0 ],
					"destination" : [ "obj-3", 0 ],
					"hidden" : 0,
					"midpoints" : [  ]
				}

			}
, 			{
				"patchline" : 				{
					"source" : [ "obj-27", 0 ],
					"destination" : [ "obj-26", 0 ],
					"hidden" : 0,
					"midpoints" : [ 651.5, 426.0, 542.5, 426.0 ]
				}

			}
, 			{
				"patchline" : 				{
					"source" : [ "obj-26", 0 ],
					"destination" : [ "obj-18", 0 ],
					"hidden" : 0,
					"midpoints" : [ 542.5, 465.0, 542.5, 465.0 ]
				}

			}
, 			{
				"patchline" : 				{
					"source" : [ "obj-25", 0 ],
					"destination" : [ "obj-26", 0 ],
					"hidden" : 0,
					"midpoints" : [ 609.5, 426.0, 542.5, 426.0 ]
				}

			}
, 			{
				"patchline" : 				{
					"source" : [ "obj-24", 0 ],
					"destination" : [ "obj-26", 0 ],
					"hidden" : 0,
					"midpoints" : [ 567.5, 426.0, 542.5, 426.0 ]
				}

			}
, 			{
				"patchline" : 				{
					"source" : [ "obj-23", 0 ],
					"destination" : [ "obj-27", 0 ],
					"hidden" : 0,
					"midpoints" : [ 636.5, 393.0, 651.5, 393.0 ]
				}

			}
, 			{
				"patchline" : 				{
					"source" : [ "obj-22", 0 ],
					"destination" : [ "obj-25", 0 ],
					"hidden" : 0,
					"midpoints" : [ 615.5, 378.0, 609.5, 378.0 ]
				}

			}
, 			{
				"patchline" : 				{
					"source" : [ "obj-214", 0 ],
					"destination" : [ "obj-88", 0 ],
					"hidden" : 0,
					"midpoints" : [ 93.5, 187.5, 48.5, 187.5 ]
				}

			}
, 			{
				"patchline" : 				{
					"source" : [ "obj-21", 0 ],
					"destination" : [ "obj-24", 0 ],
					"hidden" : 0,
					"midpoints" : [ 593.5, 375.0, 567.5, 375.0 ]
				}

			}
, 			{
				"patchline" : 				{
					"source" : [ "obj-20", 2 ],
					"destination" : [ "obj-23", 0 ],
					"hidden" : 0,
					"midpoints" : [  ]
				}

			}
, 			{
				"patchline" : 				{
					"source" : [ "obj-20", 1 ],
					"destination" : [ "obj-22", 0 ],
					"hidden" : 0,
					"midpoints" : [  ]
				}

			}
, 			{
				"patchline" : 				{
					"source" : [ "obj-20", 0 ],
					"destination" : [ "obj-21", 0 ],
					"hidden" : 0,
					"midpoints" : [  ]
				}

			}
, 			{
				"patchline" : 				{
					"source" : [ "obj-19", 0 ],
					"destination" : [ "obj-38", 0 ],
					"hidden" : 0,
					"midpoints" : [ 366.5, 464.0, 280.5, 464.0 ]
				}

			}
, 			{
				"patchline" : 				{
					"source" : [ "obj-17", 0 ],
					"destination" : [ "obj-20", 0 ],
					"hidden" : 0,
					"midpoints" : [  ]
				}

			}
, 			{
				"patchline" : 				{
					"source" : [ "obj-13", 0 ],
					"destination" : [ "obj-38", 0 ],
					"hidden" : 0,
					"midpoints" : [ 300.5, 464.5, 280.5, 464.5 ]
				}

			}
, 			{
				"patchline" : 				{
					"source" : [ "obj-12", 0 ],
					"destination" : [ "obj-85", 0 ],
					"hidden" : 0,
					"midpoints" : [ 93.5, 176.0, 134.5, 176.0 ]
				}

			}
, 			{
				"patchline" : 				{
					"source" : [ "obj-12", 0 ],
					"destination" : [ "obj-61", 0 ],
					"hidden" : 0,
					"midpoints" : [ 93.5, 146.0, 67.0, 146.0, 67.0, 39.0, 47.5, 39.0 ]
				}

			}
, 			{
				"patchline" : 				{
					"source" : [ "obj-12", 0 ],
					"destination" : [ "obj-55", 0 ],
					"hidden" : 0,
					"midpoints" : [ 93.5, 186.25, 29.5, 186.25 ]
				}

			}
, 			{
				"patchline" : 				{
					"source" : [ "obj-12", 0 ],
					"destination" : [ "obj-214", 0 ],
					"hidden" : 0,
					"midpoints" : [  ]
				}

			}
, 			{
				"patchline" : 				{
					"source" : [ "obj-1", 0 ],
					"destination" : [ "obj-214", 1 ],
					"hidden" : 0,
					"midpoints" : [ 180.5, 168.0, 138.0, 168.0, 138.0, 144.0, 118.5, 144.0 ]
				}

			}
 ]
	}

}
