#N canvas 481 40 344 288 10;
#N canvas 310 347 754 536 inside 0;
#X obj 17 13 cnv 15 240 180 empty empty OSC_Comm 20 12 0 12 -204800
-66577 0;
#X obj 57 130 dumpOSC 7001;
#X obj 57 161 print ITLOut;
#X obj 154 129 dumpOSC 7002;
#X obj 154 160 print ITL;
#X obj 173 102 sendOSC;
#X msg 24 68 connect localhost 7000;
#X obj 24 38 loadbang;
#X obj 173 68 prepend send;
#X obj 333 32 inlet;
#X obj 333 58 sprintf /ITL/scene/%s;
#X obj 333 83 prepend set;
#X obj 276 81 r _dest;
#X obj 333 108 prepend /ITL/scene/*;
#X obj 173 41 r itl;
#X obj 333 133 s itl;
#X obj 17 229 r $i_x;
#X obj 17 254 / 100;
#X msg 29 281 x \$1;
#X obj 138 341 s _dest;
#X obj 18 306 s $i_xnum;
#X obj 82 254 / 100;
#X msg 94 281 y \$1;
#X obj 83 306 s $i_ynum;
#X msg 164 282 z \$1;
#X obj 152 255 / 10;
#X obj 153 307 s $i_znum;
#X obj 82 229 r $i_y;
#X obj 152 230 r $i_z;
#X obj 566 30 loadbang;
#X obj 545 31 bng 15 250 50 0 empty empty empty 17 7 0 10 -262144 -1
-1;
#X msg 566 60 0;
#X obj 516 98 s $i_xin;
#X obj 515 124 s $i_yin;
#X obj 514 147 s $i_zin;
#X obj 599 101 s $i_scalein;
#X msg 599 61 10;
#X obj 219 255 / 10;
#X obj 219 230 r $i_scale;
#X msg 231 282 scale \$1;
#X obj 220 307 s $i_scalenum;
#X obj 128 486 s _dest;
#X obj 11 376 r $i_r;
#X obj 76 376 r $i_g;
#X obj 146 377 r $i_b;
#X obj 213 377 r $i_a;
#X msg 19 426 red \$1;
#X msg 84 426 green \$1;
#X msg 154 427 blue \$1;
#X msg 221 427 alpha \$1;
#X obj 8 451 s $i_rnum;
#X obj 73 451 s $i_gnum;
#X obj 143 452 s $i_bnum;
#X obj 210 452 s $i_anum;
#X obj 346 319 s _dest;
#X obj 333 229 r $i_angle;
#X msg 344 260 angle \$1;
#X obj 333 285 s $i_anglenum;
#X obj 515 172 s $i_anglein;
#X obj 222 401 / 100;
#X obj 153 403 / 100;
#X obj 83 402 / 100;
#X obj 18 402 / 100;
#X connect 1 0 2 0;
#X connect 3 0 4 0;
#X connect 6 0 5 0;
#X connect 7 0 6 0;
#X connect 8 0 5 0;
#X connect 9 0 10 0;
#X connect 10 0 11 0;
#X connect 11 0 13 0;
#X connect 12 0 13 0;
#X connect 13 0 15 0;
#X connect 14 0 8 0;
#X connect 16 0 17 0;
#X connect 17 0 18 0;
#X connect 17 0 20 0;
#X connect 18 0 19 0;
#X connect 21 0 22 0;
#X connect 21 0 23 0;
#X connect 22 0 19 0;
#X connect 24 0 19 0;
#X connect 25 0 24 0;
#X connect 25 0 26 0;
#X connect 27 0 21 0;
#X connect 28 0 25 0;
#X connect 29 0 31 0;
#X connect 29 0 36 0;
#X connect 30 0 31 0;
#X connect 30 0 36 0;
#X connect 31 0 32 0;
#X connect 31 0 33 0;
#X connect 31 0 34 0;
#X connect 31 0 58 0;
#X connect 36 0 35 0;
#X connect 37 0 39 0;
#X connect 37 0 40 0;
#X connect 38 0 37 0;
#X connect 39 0 19 0;
#X connect 42 0 50 0;
#X connect 42 0 62 0;
#X connect 43 0 51 0;
#X connect 43 0 61 0;
#X connect 44 0 52 0;
#X connect 44 0 60 0;
#X connect 45 0 53 0;
#X connect 45 0 59 0;
#X connect 46 0 41 0;
#X connect 47 0 41 0;
#X connect 48 0 41 0;
#X connect 49 0 41 0;
#X connect 55 0 56 0;
#X connect 55 0 57 0;
#X connect 56 0 54 0;
#X connect 59 0 49 0;
#X connect 60 0 48 0;
#X connect 61 0 47 0;
#X connect 62 0 46 0;
#X restore -40 216 pd inside;
#X text -151 188 OSC dest address:;
#X msg -40 187 *;
#X obj -160 -42 cnv 15 340 30 empty empty empty 20 12 0 14 -261682
-66577 0;
#X text -146 -36 INScore;
#X obj -149 11 vsl 15 128 -100 100 0 0 $i_x $i_xin x 4 -9 0 10 -262144
-1 -1 6350 1;
#X obj -88 11 vsl 15 128 0 100 0 0 $i_z $i_zin z 4 -9 0 10 -262144
-1 -1 0 1;
#X obj -119 11 vsl 15 128 -100 100 0 0 $i_y $i_yin y 4 -9 0 10 -262144
-1 -1 6350 1;
#X obj -40 13 vsl 15 128 0 100 0 0 $i_scale $i_scalein scale -6 -9
0 10 -262144 -1 -1 1270 1;
#X obj 10 10 vsl 15 128 0 101 0 0 $i_r empty r 4 -9 0 10 -262144 -1
-1 0 1;
#X obj 67 10 vsl 15 128 0 101 0 0 $i_b empty b 4 -9 0 10 -262144 -1
-1 0 1;
#X obj 38 10 vsl 15 128 0 101 0 0 $i_g empty g 4 -9 0 10 -262144 -1
-1 0 1;
#X obj 96 11 vsl 15 128 0 101 0 0 $i_a empty a 4 -9 0 10 -262144 -1
-1 11600 1;
#X floatatom -149 154 4 -10 10 0 - #i_xnum #i_xv;
#X floatatom -119 154 4 -10 10 0 - #i_ynum #i_yv;
#X floatatom -88 154 4 -10 10 0 - #i_znum #i_zv;
#X floatatom -40 154 4 0 10 0 - #i_scalenum #i_scalev;
#X floatatom 8 154 4 0 255 0 - #i_rnum #i_rv;
#X floatatom 38 154 4 -10 10 0 - #i_gnum #i_gv;
#X floatatom 68 154 4 -10 10 0 - #i_bnum #i_bv;
#X floatatom 98 155 4 -10 10 0 - #i_anum #i_av;
#X obj 143 12 vsl 15 128 -360 360 0 0 $i_angle $i_anglein angle -6
-9 0 10 -262144 -1 -1 6350 1;
#X floatatom 142 155 4 0 0 0 - #i_anglenum #i_anglev;
#X connect 2 0 0 0;
