#N canvas 28 37 298 210 10;
#X obj 94 172 bng 15 250 50 0 \$0-reload empty Reload -50 7 0 10 -262144
-1 -1;
#X obj 5 98 tgl 15 0 $y empty y 4 22 0 10 -228856 -258113 -1 1 1;
#X obj 23 98 tgl 15 0 $th empty th 2 22 0 10 -228856 -258113 -1 0 1
;
#X obj 41 98 tgl 15 0 $h empty h 4 22 0 10 -228856 -258113 -1 0 1;
#X obj 59 98 tgl 15 0 $s empty s 4 22 0 10 -228856 -258113 -1 0 1;
#X obj 77 98 tgl 15 0 $b empty b 4 22 0 10 -228856 -258113 -1 0 1;
#X obj 95 98 tgl 15 0 $a empty a 4 22 0 10 -228856 -258113 -1 0 1;
#X obj -112 74 tgl 15 0 \$0-play empty empty 17 7 0 10 -262144 -1 -1
1 1;
#X text -136 57 Start/Stop;
#X obj -65 57 vsl 15 100 10 100 0 0 \$0-rate empty Rate -4 -9 0 10
-262144 -1 -1 1100 1;
#X obj -33 57 vsl 15 100 0 100 0 0 \$0-ampl empty Ampl -4 -9 0 10 -262144
-1 -1 0 1;
#N canvas 400 85 562 482 inside 0;
#X obj -170 250 cnv 15 250 180 empty empty OSC_Comm 20 12 0 12 -204800
-66577 0;
#X obj -166 371 dumpOSC 7001;
#X obj -166 402 print ITLOut;
#X obj -69 370 dumpOSC 7002;
#X obj -69 401 print ITL;
#X obj -3 338 sendOSC;
#X msg -163 305 connect localhost 7000;
#X obj -163 275 loadbang;
#X obj -3 304 prepend send;
#X obj 98 250 cnv 15 230 180 empty empty Init 20 12 0 12 -204800 -66577
0;
#X obj 182 315 getdir;
#X obj 131 290 t b b b b;
#X obj 182 344 prepend /ITL rootPath;
#X obj 241 258 loadbang;
#X obj -3 277 r sinus;
#X obj 136 401 s sinus;
#N canvas 612 528 331 325 osc 0;
#X obj 72 40 inlet;
#X obj 118 41 inlet;
#X obj 72 69 tgl 15 0 empty empty empty 17 7 0 10 -262144 -1 -1 1 1
;
#X obj 72 105 metro 50;
#X obj 72 137 counter;
#X obj 72 165 / 10;
#X obj 72 195 sin;
#X obj 72 231 outlet;
#X connect 0 0 2 0;
#X connect 1 0 3 1;
#X connect 2 0 3 0;
#X connect 3 0 4 0;
#X connect 4 0 5 0;
#X connect 5 0 6 0;
#X connect 6 0 7 0;
#X restore 157 87 pd osc;
#X obj 203 115 / 100;
#X obj 176 145 * 0.5;
#X msg 176 179 /ITL/scene/signal/[ythsba] \$1;
#X obj 176 214 s sinus;
#X obj 160 258 r \$0-reload;
#X obj 203 86 r \$0-ampl;
#X obj 190 47 r \$0-rate;
#X obj 157 23 r \$0-play;
#X obj -108 119 s sinus;
#N canvas 451 534 657 377 signal 0;
#X obj 70 -65 inlet;
#X obj 70 -25 route 1;
#X msg 70 3 y;
#X obj 295 117 coll;
#C flags 1 0;
#C 0 y 0.02 0.001 0.999 0.999 0.999;
#C restore;
#X obj 295 186 outlet;
#X obj 4 -34 bng 15 250 50 0 empty empty empty 17 7 0 10 -262144 -1
-1;
#X obj 159 -66 inlet;
#X obj 159 -26 route 1;
#X obj 244 -67 inlet;
#X obj 244 -27 route 1;
#X obj 327 -69 inlet;
#X obj 327 -29 route 1;
#X obj 418 -68 inlet;
#X obj 418 -28 route 1;
#X obj 511 -68 inlet;
#X obj 511 -28 route 1;
#X msg 159 2 t;
#X msg 191 2 0.02;
#X msg 244 1 h;
#X msg 327 -1 s;
#X msg 418 0 b;
#X msg 511 0 a;
#X obj 471 88 bng 15 250 50 0 empty empty empty 17 7 0 10 -262144 -1
-1;
#X msg 98 75 open;
#X obj 36 113 print;
#X obj 68 30 prepend nsub 0 1;
#X obj 159 54 prepend nsub 0 2;
#X obj 244 29 prepend nsub 0 3;
#X obj 327 53 prepend nsub 0 4;
#X obj 418 27 prepend nsub 0 5;
#X obj 511 51 prepend nsub 0 6;
#X msg 165 120 dump;
#X msg 471 117 flags 1 0;
#X msg 102 3 0.001;
#X msg 276 1 0.001;
#X msg 543 0 0.999;
#X msg 450 0 0.999;
#X msg 359 -1 0.999;
#X connect 0 0 1 0;
#X connect 0 0 5 0;
#X connect 1 0 2 0;
#X connect 1 1 33 0;
#X connect 2 0 25 0;
#X connect 3 0 4 0;
#X connect 5 0 3 0;
#X connect 6 0 7 0;
#X connect 6 0 5 0;
#X connect 7 0 16 0;
#X connect 7 1 17 0;
#X connect 8 0 9 0;
#X connect 8 0 5 0;
#X connect 9 0 18 0;
#X connect 9 1 34 0;
#X connect 10 0 11 0;
#X connect 10 0 5 0;
#X connect 11 0 19 0;
#X connect 11 1 37 0;
#X connect 12 0 13 0;
#X connect 12 0 5 0;
#X connect 13 0 20 0;
#X connect 13 1 36 0;
#X connect 14 0 15 0;
#X connect 14 0 5 0;
#X connect 15 0 21 0;
#X connect 15 1 35 0;
#X connect 16 0 26 0;
#X connect 17 0 26 0;
#X connect 18 0 27 0;
#X connect 19 0 28 0;
#X connect 20 0 29 0;
#X connect 21 0 30 0;
#X connect 22 0 32 0;
#X connect 23 0 3 0;
#X connect 25 0 3 0;
#X connect 26 0 3 0;
#X connect 27 0 3 0;
#X connect 28 0 3 0;
#X connect 29 0 3 0;
#X connect 30 0 3 0;
#X connect 31 0 3 0;
#X connect 32 0 3 0;
#X connect 33 0 25 0;
#X connect 34 0 27 0;
#X connect 35 0 30 0;
#X connect 36 0 29 0;
#X connect 37 0 28 0;
#X restore -108 60 pd signal;
#X obj -108 89 prepend /ITL/scene/signal/sig set;
#X obj -170 26 r $y;
#X obj -129 28 r $th;
#X obj -86 29 r $h;
#X obj -47 28 r $s;
#X obj -10 29 r $b;
#X obj 33 29 r $a;
#X msg 136 370 /ITL load sinus.inscore;
#X connect 1 0 2 0;
#X connect 3 0 4 0;
#X connect 6 0 5 0;
#X connect 7 0 6 0;
#X connect 8 0 5 0;
#X connect 10 0 12 0;
#X connect 11 2 34 0;
#X connect 11 3 10 0;
#X connect 12 0 15 0;
#X connect 13 0 11 0;
#X connect 14 0 8 0;
#X connect 16 0 18 0;
#X connect 17 0 18 1;
#X connect 18 0 19 0;
#X connect 19 0 20 0;
#X connect 21 0 11 0;
#X connect 22 0 17 0;
#X connect 23 0 16 1;
#X connect 24 0 16 0;
#X connect 26 0 27 0;
#X connect 27 0 25 0;
#X connect 28 0 26 0;
#X connect 29 0 26 1;
#X connect 30 0 26 2;
#X connect 31 0 26 3;
#X connect 32 0 26 4;
#X connect 33 0 26 5;
#X connect 34 0 15 0;
#X restore -66 173 pd inside;
#X text -129 7 Displays various graphic signals based;
#X text -129 19 on a single sinus values stream.;
#X text 11 73 Signal control;
