#N canvas 28 37 606 536 10;
#X obj -189 297 cnv 15 250 180 empty empty OSC_Comm 20 12 0 12 -204800
-66577 0;
#X obj -185 418 dumpOSC 7001;
#X obj -185 449 print ITLOut;
#X obj -88 417 dumpOSC 7002;
#X obj -88 448 print ITL;
#X obj -22 385 sendOSC;
#X msg -182 352 connect localhost 7000;
#X obj -182 322 loadbang;
#X obj -22 351 prepend send;
#X obj 79 297 cnv 15 230 180 empty empty Init 20 12 0 12 -204800 -66577
0;
#X obj 163 362 getdir;
#X obj 73 266 bng 15 250 50 0 empty empty empty 17 7 0 10 -262144 -1
-1;
#X obj 112 337 t b b b b;
#X obj 163 391 prepend /ITL rootPath;
#X text 58 246 Reload;
#X obj 150 306 loadbang;
#X obj -22 324 r sinus;
#X obj 117 448 s sinus;
#X msg 117 417 /ITL load sinus.interlude;
#X text -184 34 y;
#X text -168 34 th;
#X text -148 34 h;
#X text -129 34 s;
#X text -111 34 b;
#X text -91 34 a;
#X obj -163 141 s sinus;
#N canvas 451 534 657 377 signal 0;
#X obj 70 -65 inlet;
#X obj 70 -25 route 1;
#X msg 70 3 y;
#X obj 295 117 coll;
#C flags 1 0;
#C 0 y 0.02 0.001 0.999 0.999 0.999;
#C restore;
#X obj 295 186 outlet;
#X obj 4 -34 bng 15 250 50 0 empty empty empty 17 7 0 10 -262144 -1
-1;
#X obj 159 -66 inlet;
#X obj 159 -26 route 1;
#X obj 244 -67 inlet;
#X obj 244 -27 route 1;
#X obj 327 -69 inlet;
#X obj 327 -29 route 1;
#X obj 418 -68 inlet;
#X obj 418 -28 route 1;
#X obj 511 -68 inlet;
#X obj 511 -28 route 1;
#X msg 159 2 t;
#X msg 191 2 0.02;
#X msg 244 1 h;
#X msg 327 -1 s;
#X msg 418 0 b;
#X msg 511 0 a;
#X obj 471 88 bng 15 250 50 0 empty empty empty 17 7 0 10 -262144 -1
-1;
#X msg 98 75 open;
#X obj 36 113 print;
#X obj 68 30 prepend nsub 0 1;
#X obj 159 54 prepend nsub 0 2;
#X obj 244 29 prepend nsub 0 3;
#X obj 327 53 prepend nsub 0 4;
#X obj 418 27 prepend nsub 0 5;
#X obj 511 51 prepend nsub 0 6;
#X msg 165 120 dump;
#X msg 471 117 flags 1 0;
#X msg 102 3 0.001;
#X msg 276 1 0.001;
#X msg 543 0 0.999;
#X msg 450 0 0.999;
#X msg 359 -1 0.999;
#X connect 0 0 1 0;
#X connect 0 0 5 0;
#X connect 1 0 2 0;
#X connect 1 1 33 0;
#X connect 2 0 25 0;
#X connect 3 0 4 0;
#X connect 5 0 3 0;
#X connect 6 0 7 0;
#X connect 6 0 5 0;
#X connect 7 0 16 0;
#X connect 7 1 17 0;
#X connect 8 0 9 0;
#X connect 8 0 5 0;
#X connect 9 0 18 0;
#X connect 9 1 34 0;
#X connect 10 0 11 0;
#X connect 10 0 5 0;
#X connect 11 0 19 0;
#X connect 11 1 37 0;
#X connect 12 0 13 0;
#X connect 12 0 5 0;
#X connect 13 0 20 0;
#X connect 13 1 36 0;
#X connect 14 0 15 0;
#X connect 14 0 5 0;
#X connect 15 0 21 0;
#X connect 15 1 35 0;
#X connect 16 0 26 0;
#X connect 17 0 26 0;
#X connect 18 0 27 0;
#X connect 19 0 28 0;
#X connect 20 0 29 0;
#X connect 21 0 30 0;
#X connect 22 0 32 0;
#X connect 23 0 3 0;
#X connect 25 0 3 0;
#X connect 26 0 3 0;
#X connect 27 0 3 0;
#X connect 28 0 3 0;
#X connect 29 0 3 0;
#X connect 30 0 3 0;
#X connect 31 0 3 0;
#X connect 32 0 3 0;
#X connect 33 0 25 0;
#X connect 34 0 27 0;
#X connect 35 0 30 0;
#X connect 36 0 29 0;
#X connect 37 0 28 0;
#X restore -163 82 pd signal;
#X obj -186 54 tgl 15 0 empty empty empty 17 7 0 10 -262144 -1 -1 1
1;
#X obj -168 54 tgl 15 0 empty empty empty 17 7 0 10 -262144 -1 -1 0
1;
#X obj -150 54 tgl 15 0 empty empty empty 17 7 0 10 -262144 -1 -1 0
1;
#X obj -132 54 tgl 15 0 empty empty empty 17 7 0 10 -262144 -1 -1 0
1;
#X obj -114 54 tgl 15 0 empty empty empty 17 7 0 10 -262144 -1 -1 0
1;
#X obj -96 54 tgl 15 0 empty empty empty 17 7 0 10 -262144 -1 -1 0
1;
#N canvas 612 528 331 325 osc 0;
#X obj 72 40 inlet;
#X obj 118 41 inlet;
#X obj 72 69 tgl 15 0 empty empty empty 17 7 0 10 -262144 -1 -1 1 1
;
#X obj 72 105 metro 50;
#X obj 72 137 counter;
#X obj 72 165 / 10;
#X obj 72 195 sin;
#X obj 72 231 outlet;
#X connect 0 0 2 0;
#X connect 1 0 3 1;
#X connect 2 0 3 0;
#X connect 3 0 4 0;
#X connect 4 0 5 0;
#X connect 5 0 6 0;
#X connect 6 0 7 0;
#X restore 197 100 pd osc;
#X obj 197 61 tgl 15 0 empty empty empty 17 7 0 10 -262144 -1 -1 1
1;
#X text 173 33 Start/Stop;
#X obj 262 62 vsl 15 100 10 100 0 0 empty empty empty 0 -9 0 10 -262144
-1 -1 0 1;
#X text 257 32 Rate;
#X obj 299 63 vsl 15 100 0 100 0 0 empty empty empty 0 -9 0 10 -262144
-1 -1 0 1;
#X text 294 33 Ampl;
#X obj 299 173 / 100;
#X obj 197 171 * 0.5;
#X msg 197 205 /ITL/scene/signal/[ythsba] \$1;
#X obj 197 240 s sinus;
#X obj -163 111 prepend /ITL/scene/signal/sig set;
#X obj -22 269 print;
#X text -91 5 Displays various graphic signals based on a single sinus
values stream.;
#X connect 1 0 2 0;
#X connect 3 0 4 0;
#X connect 6 0 5 0;
#X connect 7 0 6 0;
#X connect 8 0 5 0;
#X connect 10 0 13 0;
#X connect 11 0 12 0;
#X connect 12 0 34 0;
#X connect 12 1 27 0;
#X connect 12 2 18 0;
#X connect 12 3 10 0;
#X connect 13 0 17 0;
#X connect 15 0 12 0;
#X connect 16 0 8 0;
#X connect 18 0 17 0;
#X connect 26 0 44 0;
#X connect 27 0 26 0;
#X connect 28 0 26 1;
#X connect 29 0 26 2;
#X connect 30 0 26 3;
#X connect 31 0 26 4;
#X connect 32 0 26 5;
#X connect 33 0 41 0;
#X connect 34 0 33 0;
#X connect 36 0 33 1;
#X connect 38 0 40 0;
#X connect 40 0 41 1;
#X connect 41 0 42 0;
#X connect 42 0 43 0;
#X connect 44 0 25 0;
