#N canvas 46 46 973 647 10;
#X obj -191 414 cnv 15 250 180 empty empty OSC_Comm 20 12 0 12 -204800
-66577 0;
#X obj -187 535 dumpOSC 7001;
#X obj -187 566 print ITLOut;
#X obj -90 534 dumpOSC 7002;
#X obj -90 565 print ITL;
#X obj -24 502 sendOSC;
#X msg -184 469 connect localhost 7000;
#X obj -184 439 loadbang;
#X obj -24 468 prepend send;
#X obj 77 414 cnv 15 230 180 empty empty Init 20 12 0 12 -204800 -66577
0;
#X obj 161 479 getdir;
#X obj 76 390 bng 15 250 50 0 empty empty empty 17 7 0 10 -262144 -1
-1;
#X obj 110 454 t b b b b;
#X obj 161 508 prepend /ITL rootPath;
#X text 61 370 Reload;
#X obj 148 423 loadbang;
#X obj 364 568 print;
#X msg 115 534 /ITL load siggraph.interlude;
#X obj -24 441 r sigplay;
#X obj 115 565 s sigplay;
#X obj -162 163 dac~;
#X text -184 42 Start/Stop;
#X obj -162 60 tgl 15 0 empty empty empty 17 7 0 10 -262144 -1 -1 1
1;
#X obj -162 133 readsf~ 2;
#X msg -113 104 open 07.wav;
#X obj -113 77 loadbang;
#X obj -162 86 t i b;
#X msg -38 257 /ITL/scene/signal/y \$1;
#X obj -38 285 s sigplay;
#X msg 13 95 vibrato 30 0.1;
#N canvas 404 548 270 210 pitchnorm 0;
#X obj 102 50 inlet;
#X obj 101 156 outlet;
#X obj 102 85 - 67;
#X text 43 19 Normalize pitch between -1 and 1;
#X obj 101 118 / 20;
#X connect 0 0 2 0;
#X connect 2 0 4 0;
#X connect 4 0 1 0;
#X restore -38 203 pd pitchnorm;
#N canvas 274 601 450 300 envnorm 0;
#X obj 137 59 inlet;
#X obj 137 205 outlet;
#X obj 137 85 - 50;
#X obj 137 113 / 50;
#X obj 137 142 max 0;
#X text 43 24 Normalize ampl envelope between 0 and 1;
#X obj 238 81 inlet;
#X obj 137 174 * 1;
#X obj 238 114 / 100;
#X connect 0 0 2 0;
#X connect 2 0 3 0;
#X connect 3 0 4 0;
#X connect 4 0 7 0;
#X connect 6 0 8 0;
#X connect 7 0 1 0;
#X connect 8 0 7 1;
#X restore 121 178 pd envnorm;
#X floatatom 121 202 5 0 0 0 - - -;
#X obj 121 258 s sigplay;
#X msg 121 230 /ITL/scene/signal/t \$1;
#X obj 326 66 vradio 15 1 0 3 empty empty empty 0 -8 0 10 -262144 -1
-1 2;
#X text 357 63 Pitch;
#X text 356 79 Envelope;
#X obj 326 127 route 0 1 2;
#X obj 306 256 prepend /ITL/scene/signal/sig set;
#X obj 306 286 s sigplay;
#X msg 275 163 y 0.01 0.001 0.999 0.999 0.999;
#X msg 306 194 0.001 t -0.5 0.999 0.999 0.999;
#X msg 339 220 y t -0.5 0.999 0.999 0.999 y 0.01 0.001 0.999 0.999
0.999;
#X msg 218 465 \; pd dsp 1;
#X obj 8 178 unpack;
#X floatatom -38 229 5 0 0 0 - - -;
#X obj -38 153 fiddle~ 1024;
#X obj 178 64 vsl 15 100 1 100 0 0 empty empty empty 0 -9 0 10 -262144
-1 -1 4900 1;
#X text 173 40 Ampl.;
#X msg 12 70 50;
#X obj 394 353 bng 15 250 50 0 empty empty empty 17 7 0 10 -262144
-1 -1;
#X obj 440 405 tgl 15 0 empty empty empty 17 7 0 10 -262144 -1 -1 1
1;
#X msg 366 380 /ITL load score.interlude;
#X obj 365 503 s sigplay;
#X obj -161 7 cnv 15 350 30 empty empty empty 20 12 0 14 -261682 -66577
0;
#X text -156 7 Displays various graphic signals based on an audio file
analysis.;
#X obj 358 316 cnv 15 280 30 empty empty empty 20 12 0 14 -261682 -66577
0;
#X text 374 322 Final scene with score and synchronization;
#X msg -251 232 /ITL/scene/myGraph date -1 2;
#X msg 440 465 /ITL/scene/my* clock;
#X msg -229 204 /ITL/scene/myEllipse date 0 1;
#X obj -267 174 bng 15 250 50 0 empty empty empty 17 7 0 10 -262144
-1 -1;
#X obj 274 32 cnv 15 180 30 empty empty empty 20 12 0 14 -261682 -66577
0;
#X text 291 36 Signal shape selection;
#X text 277 42 comment;
#X obj 440 434 metro 42.3;
#X connect 1 0 2 0;
#X connect 3 0 4 0;
#X connect 6 0 5 0;
#X connect 7 0 6 0;
#X connect 8 0 5 0;
#X connect 10 0 13 0;
#X connect 11 0 12 0;
#X connect 12 2 17 0;
#X connect 12 3 10 0;
#X connect 13 0 19 0;
#X connect 15 0 12 0;
#X connect 15 0 44 0;
#X connect 17 0 19 0;
#X connect 18 0 8 0;
#X connect 22 0 26 0;
#X connect 22 0 62 0;
#X connect 22 0 52 0;
#X connect 23 0 20 0;
#X connect 23 0 47 0;
#X connect 23 1 20 1;
#X connect 23 1 47 0;
#X connect 23 2 22 0;
#X connect 24 0 23 0;
#X connect 25 0 24 0;
#X connect 25 0 29 0;
#X connect 25 0 50 0;
#X connect 26 0 23 0;
#X connect 26 1 24 0;
#X connect 27 0 28 0;
#X connect 29 0 47 0;
#X connect 30 0 46 0;
#X connect 31 0 32 0;
#X connect 32 0 34 0;
#X connect 34 0 33 0;
#X connect 35 0 38 0;
#X connect 38 0 41 0;
#X connect 38 1 42 0;
#X connect 38 2 43 0;
#X connect 39 0 40 0;
#X connect 41 0 39 0;
#X connect 42 0 39 0;
#X connect 43 0 39 0;
#X connect 45 0 30 0;
#X connect 45 1 31 0;
#X connect 46 0 27 0;
#X connect 47 2 45 0;
#X connect 48 0 31 1;
#X connect 50 0 48 0;
#X connect 51 0 53 0;
#X connect 52 0 66 0;
#X connect 53 0 54 0;
#X connect 59 0 28 0;
#X connect 60 0 54 0;
#X connect 61 0 28 0;
#X connect 62 0 61 0;
#X connect 62 0 59 0;
#X connect 66 0 60 0;
