#N canvas 48 45 413 218 10;
#X obj -153 188 bng 15 250 50 0 \$0-reload empty empty 17 7 0 10 -262144
-1 -1;
#X text -134 187 Reload;
#X text -253 41 Start/Stop;
#X obj -231 59 tgl 15 0 \$0-play \$0-play-in empty 20 7 0 10 -228856
-1 -1 0 1;
#X obj -47 89 vradio 15 1 0 3 \$0-shape empty empty 0 -8 0 10 -228856
-258113 -1 0;
#X text -16 86 Pitch;
#X obj -155 63 vsl 15 100 1 100 0 0 \$0-ampl \$0-ampl-in Amplitude
-20 -12 0 10 -262144 -45076 -1 4900 1;
#X obj 5 188 bng 15 250 50 0 \$0-score empty empty 17 7 0 10 -262144
-1 -1;
#X obj -257 9 cnv 15 400 30 empty empty empty 20 12 0 14 -261682 -66577
0;
#X text -248 10 Displays various graphic signals based on an audio
file analysis.;
#X obj -64 152 cnv 15 210 30 empty empty empty 20 12 0 14 -261682 -66577
0;
#X obj -65 55 cnv 15 210 30 empty empty empty 20 12 0 14 -261682 -66577
0;
#X text -57 61 Signal shape selection;
#X text -17 103 Envelope;
#X text -16 120 Pitched envelope;
#N canvas 291 287 1026 546 inside 1;
#X obj -217 115 cnv 15 240 180 empty empty OSC_Comm 20 12 0 12 -204800
-66577 0;
#X obj -177 232 dumpOSC 7001;
#X obj -177 263 print ITLOut;
#X obj -80 231 dumpOSC 7002;
#X obj -80 262 print ITL;
#X obj -61 204 sendOSC;
#X msg -210 170 connect localhost 7000;
#X obj -210 140 loadbang;
#X obj -61 170 prepend send;
#X obj 29 114 cnv 15 230 180 empty empty Init 20 12 0 12 -204800 -66577
0;
#X obj 113 179 getdir;
#X obj 62 154 t b b b b;
#X obj 113 208 prepend /ITL rootPath;
#X obj 170 125 loadbang;
#X obj -61 143 r sigplay;
#X obj 113 266 s sigplay;
#X msg 170 165 \; pd dsp 1;
#X obj 93 124 r \$0-reload;
#X msg 32 208 50;
#X obj 32 267 s \$0-ampl-in;
#X obj 273 -199 cnv 15 420 240 empty empty Shape_selection 20 12 0
12 -228856 -66577 0;
#X obj 328 -146 route 0 1 2;
#X obj 308 -17 prepend /ITL/scene/signal/sig set;
#X obj 308 13 s sigplay;
#X msg 277 -110 y 0.01 0.001 0.999 0.999 0.999;
#X msg 308 -79 0.001 t -0.5 0.999 0.999 0.999;
#X msg 341 -53 y t -0.5 0.999 0.999 0.999 y 0.01 0.001 0.999 0.999
0.999;
#X obj 328 -174 r \$0-shape;
#X obj 530 53 cnv 15 240 180 empty empty Cursors_init_position 20 12
0 12 -228856 -66577 0;
#X msg 544 166 /ITL/scene/myGraph date -1 2;
#X msg 580 143 /ITL/scene/myEllipse date 0 1;
#X obj 542 118 bng 15 250 50 0 empty empty empty 17 7 0 10 -262144
-1 -1;
#X obj 581 206 s sigplay;
#X obj 542 83 r \$0-play;
#X obj 273 55 cnv 15 250 180 empty empty Score_management 20 12 0 12
-228856 -66577 0;
#X obj 282 114 tgl 15 0 empty empty empty 17 7 0 10 -262144 -1 -1 0
1;
#X obj 282 206 s sigplay;
#X msg 282 174 /ITL/scene/my* clock;
#X obj 282 143 metro 42.3;
#X obj 362 106 r \$0-score;
#X obj 282 84 r \$0-play;
#X obj -216 -199 cnv 15 440 300 empty empty Signals_generation 20 12
0 12 -228856 -66577 0;
#X obj -206 -58 dac~;
#X obj -206 -93 readsf~ 2;
#X msg -159 -113 open 07.wav;
#X obj -31 -166 loadbang;
#X obj -206 -135 t i b;
#X msg -82 36 /ITL/scene/signal/y \$1;
#X obj -82 64 s sigplay;
#X msg -31 -126 vibrato 30 0.1;
#N canvas 404 548 270 210 pitchnorm 0;
#X obj 102 50 inlet;
#X obj 101 156 outlet;
#X obj 102 85 - 67;
#X text 43 19 Normalize pitch between -1 and 1;
#X obj 101 118 / 20;
#X connect 0 0 2 0;
#X connect 2 0 4 0;
#X connect 4 0 1 0;
#X restore -82 -18 pd pitchnorm;
#N canvas 274 601 450 300 envnorm 0;
#X obj 137 59 inlet;
#X obj 137 205 outlet;
#X obj 137 85 - 50;
#X obj 137 113 / 50;
#X obj 137 142 max 0;
#X text 43 24 Normalize ampl envelope between 0 and 1;
#X obj 238 81 inlet;
#X obj 137 174 * 1;
#X obj 238 114 / 100;
#X connect 0 0 2 0;
#X connect 2 0 3 0;
#X connect 3 0 4 0;
#X connect 4 0 7 0;
#X connect 6 0 8 0;
#X connect 7 0 1 0;
#X connect 8 0 7 1;
#X restore 77 -43 pd envnorm;
#X floatatom 77 -19 5 0 0 0 - - -;
#X obj 77 37 s sigplay;
#X msg 77 9 /ITL/scene/signal/t \$1;
#X obj -36 -43 unpack;
#X floatatom -82 8 5 0 0 0 - - -;
#X obj -82 -67 fiddle~ 1024;
#X obj -156 -45 s \$0-play-in;
#X obj 134 -75 r \$0-ampl;
#X obj -206 -171 r \$0-play;
#X msg 67 234 /ITL load siggraph.inscore;
#X msg 361 143 /ITL load score.inscore;
#X obj -157 -136 dsp;
#X connect 1 0 2 0;
#X connect 3 0 4 0;
#X connect 6 0 5 0;
#X connect 7 0 6 0;
#X connect 8 0 5 0;
#X connect 10 0 12 0;
#X connect 11 1 18 0;
#X connect 11 2 61 0;
#X connect 11 3 10 0;
#X connect 12 0 15 0;
#X connect 13 0 11 0;
#X connect 13 0 16 0;
#X connect 14 0 8 0;
#X connect 17 0 11 0;
#X connect 18 0 19 0;
#X connect 21 0 24 0;
#X connect 21 1 25 0;
#X connect 21 2 26 0;
#X connect 22 0 23 0;
#X connect 24 0 22 0;
#X connect 25 0 22 0;
#X connect 26 0 22 0;
#X connect 27 0 21 0;
#X connect 29 0 32 0;
#X connect 30 0 32 0;
#X connect 31 0 30 0;
#X connect 31 0 29 0;
#X connect 33 0 31 0;
#X connect 35 0 38 0;
#X connect 37 0 36 0;
#X connect 38 0 37 0;
#X connect 39 0 62 0;
#X connect 40 0 35 0;
#X connect 43 0 42 0;
#X connect 43 0 57 0;
#X connect 43 1 42 1;
#X connect 43 1 57 0;
#X connect 43 2 58 0;
#X connect 44 0 43 0;
#X connect 45 0 44 0;
#X connect 45 0 49 0;
#X connect 46 0 43 0;
#X connect 46 1 44 0;
#X connect 47 0 48 0;
#X connect 49 0 57 0;
#X connect 50 0 56 0;
#X connect 51 0 52 0;
#X connect 52 0 54 0;
#X connect 54 0 53 0;
#X connect 55 0 50 0;
#X connect 55 1 51 0;
#X connect 56 0 47 0;
#X connect 57 2 55 0;
#X connect 59 0 51 1;
#X connect 60 0 46 0;
#X connect 60 0 63 0;
#X connect 61 0 15 0;
#X connect 62 0 36 0;
#X restore -235 187 pd inside;
#X text -52 153 Final scene with score;
#X text -50 165 and synchronization;
#X text -131 95 comment;
