#N canvas 425 488 334 122 10;
#X obj 145 94 bng 15 250 50 0 \$0-reload empty empty 17 7 0 10 -262144
-1 -1;
#X text 130 74 Reload;
#X text -118 44 Start/Stop;
#X obj -96 62 tgl 15 0 \$0-play \$0-playin empty 17 7 0 10 -262144
-1 -1 0 1;
#X obj -124 8 cnv 15 320 30 empty empty empty 20 12 0 14 -261682 -66577
0;
#N canvas 115 554 746 556 inside 0;
#X obj -194 321 cnv 15 250 180 empty empty OSC_Comm 20 12 0 12 -204800
-66577 0;
#X obj -190 442 dumpOSC 7001;
#X obj -190 473 print ITLOut;
#X obj -93 441 dumpOSC 7002;
#X obj -93 472 print ITL;
#X obj -27 409 sendOSC;
#X msg -187 376 connect localhost 7000;
#X obj -187 346 loadbang;
#X obj -27 375 prepend send;
#X obj -27 348 r turenas;
#X obj 70 321 cnv 15 230 180 empty empty Init 20 12 0 12 -204800 -66577
0;
#X obj 142 387 getdir;
#X obj 91 362 t b b b b;
#X obj 129 331 loadbang;
#X msg 199 373 \; pd dsp 1;
#X obj 78 476 s turenas;
#X obj 131 298 r \$0-reload;
#X obj -125 182 dac~;
#X obj -125 66 tgl 15 0 empty empty empty 17 7 0 10 -262144 -1 -1 0
1;
#X obj -125 152 readsf~ 2;
#X obj -76 96 loadbang;
#X obj -125 105 t i b;
#X obj 130 143 tgl 15 0 empty empty empty 17 7 0 10 -262144 -1 -1 0
1;
#X obj 25 257 s turenas;
#X obj 130 172 metro 41.66;
#X obj -12 159 route 0 1;
#X msg 130 214 /ITL/scene/[cs]* clock;
#X msg 13 191 /ITL/scene/[cs]* date 0 1;
#X obj -124 37 r \$0-play;
#X msg 77 451 /ITL load turenas.inscore;
#X obj 292 54 dumpOSC 7100;
#X obj 291 87 route /date /play;
#X obj 291 145 unpack 1 2;
#X obj 291 181 / 1;
#X msg 323 293 130.699;
#X obj 345 251 prepend set;
#X obj 292 221 >=;
#X obj 143 94 bng 15 250 50 0 empty empty empty 17 7 0 10 -262144 -1
-1;
#X floatatom 121 20 5 0 0 0 - - -;
#X floatatom 172 23 5 0 0 0 - - -;
#X obj 133 56 >;
#X obj 293 252 route 1;
#X obj 323 322 * 44100;
#X obj 324 354 * 4;
#X obj -43 35 r offset;
#X msg 5 80 0;
#X msg -205 138 0;
#X obj -205 106 prepend set;
#X obj 324 421 s offset;
#X obj 340 118 s \$0-playin;
#X obj -74 183 s \$0-playin;
#X msg -76 123 open Turenas_stereo.wav;
#X msg 324 389 open Turenas_stereo.wav \$1;
#X obj 142 414 prepend /ITL rootPath;
#X obj 153 434 prepend /ITL/scene rootPath;
#X connect 1 0 2 0;
#X connect 3 0 4 0;
#X connect 6 0 5 0;
#X connect 7 0 6 0;
#X connect 8 0 5 0;
#X connect 9 0 8 0;
#X connect 11 0 53 0;
#X connect 11 0 54 0;
#X connect 12 2 29 0;
#X connect 12 3 11 0;
#X connect 13 0 12 0;
#X connect 13 0 14 0;
#X connect 16 0 12 0;
#X connect 18 0 21 0;
#X connect 18 0 22 0;
#X connect 18 0 25 0;
#X connect 18 0 47 0;
#X connect 19 0 17 0;
#X connect 19 1 17 1;
#X connect 19 2 50 0;
#X connect 20 0 51 0;
#X connect 21 0 19 0;
#X connect 21 1 51 0;
#X connect 22 0 24 0;
#X connect 24 0 26 0;
#X connect 25 1 27 0;
#X connect 26 0 23 0;
#X connect 27 0 23 0;
#X connect 28 0 18 0;
#X connect 29 0 15 0;
#X connect 30 0 31 0;
#X connect 31 0 32 0;
#X connect 31 1 49 0;
#X connect 32 0 33 0;
#X connect 32 1 33 1;
#X connect 33 0 35 0;
#X connect 33 0 36 0;
#X connect 34 0 42 0;
#X connect 35 0 34 0;
#X connect 36 0 41 0;
#X connect 38 0 40 0;
#X connect 39 0 40 1;
#X connect 40 0 37 0;
#X connect 41 0 34 0;
#X connect 42 0 43 0;
#X connect 43 0 52 0;
#X connect 44 0 19 0;
#X connect 44 0 45 0;
#X connect 44 0 46 0;
#X connect 46 0 19 0;
#X connect 47 0 46 0;
#X connect 51 0 19 0;
#X connect 52 0 48 0;
#X connect 53 0 15 0;
#X connect 54 0 15 0;
#X restore -102 95 pd inside;
#X text -119 8 Turenas - John Chowning;
#X text -118 20 Analyse et transcription graphique: Laurent Pottier
;
