#N canvas 45 48 406 127 10;
#X obj 84 31 bng 15 250 50 0 \$0-reload empty empty 17 7 0 10 -262144
-1 -1;
#X text 102 30 Reload;
#X obj -135 30 bng 15 250 50 0 \$0-zoomout empty empty 17 7 0 10 -262144
-1 -1;
#X obj -136 10 bng 15 250 50 0 \$0-zoomin empty empty 17 7 0 10 -262144
-1 -1;
#X text -188 7 Zoom in;
#X obj -131 54 hsl 180 15 0 360 0 0 \$0-rotate empty empty -2 -8 0
10 -262144 -1 -1 0 1;
#X text -188 28 Zoom out;
#X text -187 54 Rotate;
#N canvas 774 41 558 392 inside 0;
#X obj -203 169 cnv 15 250 180 empty empty OSC_Comm 20 12 0 12 -204800
-66577 0;
#X obj -199 290 dumpOSC 7001;
#X obj -199 321 print ITLOut;
#X obj -102 289 dumpOSC 7002;
#X obj -102 320 print ITL;
#X obj -36 257 sendOSC;
#X msg -196 224 connect localhost 7000;
#X obj -196 194 loadbang;
#X obj -36 196 r scene;
#X obj -36 223 prepend send;
#X obj 65 169 cnv 15 230 180 empty empty Init 20 12 0 12 -204800 -66577
0;
#X obj 149 234 getdir;
#X obj 98 209 t b b b b;
#X obj 75 323 s scene;
#X obj 204 176 loadbang;
#X obj 129 175 r \$0-reload;
#X obj -182 103 s scene;
#X msg -182 73 /ITL/scene/* angle \$1;
#X obj -182 43 r \$0-rotate;
#X msg 30 51 0.9;
#X msg 82 50 1.1;
#X msg 20 81 /ITL/scene/* dscale \$1;
#X obj 20 114 s scene;
#X obj 93 18 r \$0-zoomin;
#X obj -3 18 r \$0-zoomout;
#X obj 149 256 prepend /ITL rootPath;
#X obj 155 277 prepend /ITL/scene rootPath;
#X msg 75 298 /ITL/scene load scene.inscore;
#X connect 1 0 2 0;
#X connect 3 0 4 0;
#X connect 6 0 5 0;
#X connect 7 0 6 0;
#X connect 8 0 9 0;
#X connect 9 0 5 0;
#X connect 11 0 25 0;
#X connect 11 0 26 0;
#X connect 12 2 27 0;
#X connect 12 3 11 0;
#X connect 14 0 12 0;
#X connect 15 0 12 0;
#X connect 17 0 16 0;
#X connect 18 0 17 0;
#X connect 19 0 21 0;
#X connect 20 0 21 0;
#X connect 21 0 22 0;
#X connect 23 0 20 0;
#X connect 24 0 19 0;
#X connect 25 0 13 0;
#X connect 26 0 13 0;
#X connect 27 0 13 0;
#X restore 83 54 pd inside;
#X text -183 84 This patch loads the 'scene.interlude' file and provides
basic interaction.;
