#N canvas 60 48 567 445 10;
#X obj -57 145 print;
#X obj -227 176 cnv 15 250 180 empty empty OSC_Comm 20 12 0 12 -204800
-66577 0;
#X obj -223 297 dumpOSC 7001;
#X obj -223 328 print ITLOut;
#X obj -126 296 dumpOSC 7002;
#X obj -126 327 print ITL;
#X obj -60 264 sendOSC;
#X msg -220 231 connect localhost 7000;
#X obj -220 201 loadbang;
#X obj -60 203 r scene;
#X obj -60 230 prepend send;
#X obj 41 176 cnv 15 230 180 empty empty Init 20 12 0 12 -204800 -66577
0;
#X obj 125 241 getdir;
#X obj 35 145 bng 15 250 50 0 empty empty empty 17 7 0 10 -262144 -1
-1;
#X obj 74 216 t b b b b;
#X obj 125 270 prepend /ITL rootPath;
#X obj 79 327 s scene;
#X msg 79 296 /ITL load scene.interlude;
#X text 20 125 Reload;
#X obj 112 185 loadbang;
#X obj 80 17 bng 15 250 50 0 empty empty empty 17 7 0 10 -262144 -1
-1;
#X obj 131 17 bng 15 250 50 0 empty empty empty 17 7 0 10 -262144 -1
-1;
#X text 115 -4 Zoom in;
#X msg 79 44 0.9;
#X msg 131 43 1.1;
#X msg 69 74 /ITL/scene/* dscale \$1;
#X obj 69 107 s scene;
#X obj -182 103 s scene;
#X msg -182 73 /ITL/scene/* angle \$1;
#X msg -182 11 0;
#X obj -179 42 hsl 180 15 0 360 0 0 empty empty empty -2 -8 0 10 -262144
-1 -1 0 1;
#X text 58 -3 Zoom out;
#X text -186 -11 Rotate;
#X connect 2 0 3 0;
#X connect 4 0 5 0;
#X connect 7 0 6 0;
#X connect 8 0 7 0;
#X connect 9 0 10 0;
#X connect 10 0 6 0;
#X connect 12 0 15 0;
#X connect 13 0 14 0;
#X connect 14 2 17 0;
#X connect 14 3 12 0;
#X connect 15 0 16 0;
#X connect 17 0 16 0;
#X connect 19 0 14 0;
#X connect 20 0 23 0;
#X connect 21 0 24 0;
#X connect 23 0 25 0;
#X connect 24 0 25 0;
#X connect 25 0 26 0;
#X connect 28 0 27 0;
#X connect 29 0 30 0;
#X connect 30 0 28 0;
