#N canvas 60 48 526 402 10;
#X obj -57 145 print;
#X obj -227 176 cnv 15 250 180 empty empty OSC_Comm 20 12 0 12 -204800
-66577 0;
#X obj -223 297 dumpOSC 7001;
#X obj -223 328 print ITLOut;
#X obj -126 296 dumpOSC 7002;
#X obj -126 327 print ITL;
#X obj -60 264 sendOSC;
#X msg -220 231 connect localhost 7000;
#X obj -220 201 loadbang;
#X obj -60 230 prepend send;
#X obj 41 176 cnv 15 230 180 empty empty Init 20 12 0 12 -204800 -66577
0;
#X obj 125 239 getdir;
#X obj 35 145 bng 15 250 50 0 empty empty empty 17 7 0 10 -262144 -1
-1;
#X obj 74 216 t b b b b;
#X obj 125 262 prepend /ITL rootPath;
#X text 20 125 Reload;
#X obj 112 185 loadbang;
#X obj -60 203 r live;
#X msg 44 306 /ITL load init.interlude;
#X msg 75 283 /ITL load liveCoding.interlude;
#X obj 79 332 s live;
#X text -189 8 This patch only loads the 'liveCoding.interlude' file
and sets a fileWatcher message to reload the file when modified (and
saved).;
#X text -185 57 You can now close the patch and edit the "liveCoding.interlude"
file.;
#X connect 2 0 3 0;
#X connect 4 0 5 0;
#X connect 7 0 6 0;
#X connect 8 0 7 0;
#X connect 9 0 6 0;
#X connect 11 0 14 0;
#X connect 12 0 13 0;
#X connect 13 1 18 0;
#X connect 13 2 19 0;
#X connect 13 3 11 0;
#X connect 14 0 20 0;
#X connect 16 0 13 0;
#X connect 17 0 9 0;
#X connect 18 0 20 0;
#X connect 19 0 20 0;
