#N canvas 27 94 366 149 10;
#X obj -226 98 bng 15 250 50 0 \$0-reload empty empty 17 7 0 10 -262144
-1 -1;
#X text -205 97 Reload;
#X text -233 7 This patch only loads the 'liveCoding.interlude' file
and sets a fileWatcher message to reload the file when modified (and
saved).;
#X text -229 56 You can now close the patch and edit the "liveCoding.interlude"
file.;
#N canvas 295 727 556 237 inside 0;
#X obj -210 16 cnv 15 250 180 empty empty OSC_Comm 20 12 0 12 -204800
-66577 0;
#X obj -206 137 dumpOSC 7001;
#X obj -206 168 print ITLOut;
#X obj -109 136 dumpOSC 7002;
#X obj -109 167 print ITL;
#X obj -43 104 sendOSC;
#X msg -203 71 connect localhost 7000;
#X obj -203 41 loadbang;
#X obj -43 70 prepend send;
#X obj -43 43 r live;
#X obj 59 15 cnv 15 230 180 empty empty Init 20 12 0 12 -204800 -66577
0;
#X obj 146 81 getdir;
#X obj 95 58 t b b b b;
#X obj 146 104 prepend /ITL rootPath;
#X obj 209 27 loadbang;
#X msg 65 148 /ITL load init.interlude;
#X msg 96 125 /ITL load liveCoding.interlude;
#X obj 100 174 s live;
#X obj 120 28 r \$0-reload;
#X connect 1 0 2 0;
#X connect 3 0 4 0;
#X connect 6 0 5 0;
#X connect 7 0 6 0;
#X connect 8 0 5 0;
#X connect 9 0 8 0;
#X connect 11 0 13 0;
#X connect 12 1 15 0;
#X connect 12 2 16 0;
#X connect 12 3 11 0;
#X connect 13 0 17 0;
#X connect 14 0 12 0;
#X connect 15 0 17 0;
#X connect 16 0 17 0;
#X connect 18 0 12 0;
#X restore -226 124 pd inside;
