{
	"patcher" : 	{
		"fileversion" : 1,
		"rect" : [ 25.0, 69.0, 766.0, 664.0 ],
		"bglocked" : 0,
		"defrect" : [ 25.0, 69.0, 766.0, 664.0 ],
		"openrect" : [ 25.0, 69.0, 186.0, 205.0 ],
		"openinpresentation" : 1,
		"default_fontsize" : 12.0,
		"default_fontface" : 0,
		"default_fontname" : "Arial",
		"gridonopen" : 0,
		"gridsize" : [ 15.0, 15.0 ],
		"gridsnaponopen" : 0,
		"toolbarvisible" : 1,
		"boxanimatetime" : 200,
		"imprint" : 0,
		"boxes" : [ 			{
				"box" : 				{
					"maxclass" : "newobj",
					"text" : "prepend /ITL rootPath",
					"fontsize" : 12.0,
					"numinlets" : 1,
					"patching_rect" : [ 352.0, 397.0, 127.0, 20.0 ],
					"numoutlets" : 1,
					"outlettype" : [ "" ],
					"fontname" : "Arial",
					"id" : "obj-2"
				}

			}
, 			{
				"box" : 				{
					"maxclass" : "newobj",
					"text" : "conformpath native boot",
					"fontsize" : 12.0,
					"numinlets" : 1,
					"patching_rect" : [ 352.0, 373.0, 139.0, 20.0 ],
					"numoutlets" : 2,
					"outlettype" : [ "", "int" ],
					"fontname" : "Arial",
					"id" : "obj-36"
				}

			}
, 			{
				"box" : 				{
					"maxclass" : "newobj",
					"text" : "prepend /ITL/scene/sync",
					"fontsize" : 12.0,
					"numinlets" : 1,
					"patching_rect" : [ 272.0, 131.0, 142.0, 20.0 ],
					"numoutlets" : 1,
					"outlettype" : [ "" ],
					"fontname" : "Arial",
					"id" : "obj-26"
				}

			}
, 			{
				"box" : 				{
					"maxclass" : "newobj",
					"text" : "route 0 1",
					"fontsize" : 12.0,
					"numinlets" : 1,
					"patching_rect" : [ 305.0, 72.0, 58.0, 20.0 ],
					"numoutlets" : 3,
					"outlettype" : [ "", "", "" ],
					"fontname" : "Arial",
					"id" : "obj-24"
				}

			}
, 			{
				"box" : 				{
					"maxclass" : "message",
					"text" : "myScore",
					"fontsize" : 12.0,
					"numinlets" : 2,
					"patching_rect" : [ 272.0, 103.0, 58.0, 18.0 ],
					"numoutlets" : 1,
					"outlettype" : [ "" ],
					"fontname" : "Arial",
					"id" : "obj-23"
				}

			}
, 			{
				"box" : 				{
					"maxclass" : "newobj",
					"text" : "s sync",
					"fontsize" : 12.0,
					"numinlets" : 1,
					"patching_rect" : [ 272.0, 159.0, 45.0, 20.0 ],
					"numoutlets" : 0,
					"fontname" : "Arial",
					"id" : "obj-21"
				}

			}
, 			{
				"box" : 				{
					"maxclass" : "message",
					"text" : "myScore:system window Hv",
					"fontsize" : 12.0,
					"numinlets" : 2,
					"patching_rect" : [ 340.0, 102.0, 161.0, 18.0 ],
					"numoutlets" : 1,
					"outlettype" : [ "" ],
					"fontname" : "Arial",
					"id" : "obj-20"
				}

			}
, 			{
				"box" : 				{
					"maxclass" : "comment",
					"text" : "Sync",
					"presentation_rect" : [ 69.0, 141.0, 45.0, 23.0 ],
					"fontface" : 1,
					"fontsize" : 14.0,
					"numinlets" : 1,
					"patching_rect" : [ 297.0, 22.0, 44.0, 23.0 ],
					"numoutlets" : 0,
					"presentation" : 1,
					"fontname" : "Arial",
					"id" : "obj-19"
				}

			}
, 			{
				"box" : 				{
					"maxclass" : "toggle",
					"presentation_rect" : [ 78.0, 166.0, 20.0, 20.0 ],
					"numinlets" : 1,
					"patching_rect" : [ 305.0, 47.0, 20.0, 20.0 ],
					"numoutlets" : 1,
					"presentation" : 1,
					"outlettype" : [ "int" ],
					"id" : "obj-18"
				}

			}
, 			{
				"box" : 				{
					"maxclass" : "comment",
					"text" : "Direction",
					"presentation_rect" : [ 14.0, 61.0, 70.0, 23.0 ],
					"fontface" : 1,
					"fontsize" : 14.0,
					"numinlets" : 1,
					"patching_rect" : [ 6.0, 65.0, 71.0, 23.0 ],
					"numoutlets" : 0,
					"presentation" : 1,
					"fontname" : "Arial",
					"id" : "obj-13"
				}

			}
, 			{
				"box" : 				{
					"maxclass" : "message",
					"text" : "/ITL/scene/myScore ddate 1 96",
					"fontsize" : 12.0,
					"numinlets" : 2,
					"patching_rect" : [ 37.0, 195.0, 177.0, 18.0 ],
					"numoutlets" : 1,
					"outlettype" : [ "" ],
					"fontname" : "Arial",
					"id" : "obj-11"
				}

			}
, 			{
				"box" : 				{
					"maxclass" : "radiogroup",
					"presentation_rect" : [ 38.0, 86.0, 18.0, 42.0 ],
					"numinlets" : 1,
					"offset" : 20,
					"patching_rect" : [ 24.0, 79.0, 18.0, 42.0 ],
					"numoutlets" : 1,
					"presentation" : 1,
					"outlettype" : [ "" ],
					"id" : "obj-10",
					"itemtype" : 0,
					"size" : 2,
					"value" : 1,
					"disabled" : [ 0, 0 ]
				}

			}
, 			{
				"box" : 				{
					"maxclass" : "gswitch2",
					"numinlets" : 2,
					"patching_rect" : [ 24.0, 133.0, 39.0, 32.0 ],
					"numoutlets" : 2,
					"int" : 1,
					"outlettype" : [ "", "" ],
					"id" : "obj-7"
				}

			}
, 			{
				"box" : 				{
					"maxclass" : "message",
					"text" : "/ITL/scene/myScore ddate -1 96",
					"fontsize" : 12.0,
					"numinlets" : 2,
					"patching_rect" : [ 74.0, 173.0, 181.0, 18.0 ],
					"numoutlets" : 1,
					"outlettype" : [ "" ],
					"fontname" : "Arial",
					"id" : "obj-16"
				}

			}
, 			{
				"box" : 				{
					"maxclass" : "newobj",
					"text" : "s sync",
					"fontsize" : 12.0,
					"numinlets" : 1,
					"patching_rect" : [ 45.0, 227.5, 45.0, 20.0 ],
					"numoutlets" : 0,
					"fontname" : "Arial",
					"id" : "obj-17"
				}

			}
, 			{
				"box" : 				{
					"maxclass" : "comment",
					"text" : "Tempo",
					"presentation_rect" : [ 122.0, 163.0, 58.0, 23.0 ],
					"fontface" : 1,
					"fontsize" : 14.0,
					"numinlets" : 1,
					"patching_rect" : [ 24.0, 15.0, 58.0, 23.0 ],
					"numoutlets" : 0,
					"presentation" : 1,
					"fontname" : "Arial",
					"id" : "obj-15"
				}

			}
, 			{
				"box" : 				{
					"maxclass" : "slider",
					"presentation_rect" : [ 141.0, 19.0, 20.0, 140.0 ],
					"size" : 250.0,
					"numinlets" : 1,
					"patching_rect" : [ 166.0, 10.0, 20.0, 140.0 ],
					"numoutlets" : 1,
					"presentation" : 1,
					"outlettype" : [ "" ],
					"id" : "obj-1"
				}

			}
, 			{
				"box" : 				{
					"maxclass" : "newobj",
					"text" : "p time",
					"color" : [ 0.827451, 0.827451, 0.827451, 1.0 ],
					"fontsize" : 12.0,
					"numinlets" : 2,
					"patching_rect" : [ 79.0, 76.0, 44.0, 20.0 ],
					"numoutlets" : 1,
					"outlettype" : [ "int" ],
					"fontname" : "Arial",
					"id" : "obj-214",
					"patcher" : 					{
						"fileversion" : 1,
						"rect" : [ 470.0, 194.0, 347.0, 215.0 ],
						"bglocked" : 0,
						"defrect" : [ 470.0, 194.0, 347.0, 215.0 ],
						"openrect" : [ 470.0, 194.0, 347.0, 215.0 ],
						"openinpresentation" : 1,
						"default_fontsize" : 12.0,
						"default_fontface" : 0,
						"default_fontname" : "Arial",
						"gridonopen" : 0,
						"gridsize" : [ 15.0, 15.0 ],
						"gridsnaponopen" : 0,
						"toolbarvisible" : 1,
						"boxanimatetime" : 200,
						"imprint" : 0,
						"boxes" : [ 							{
								"box" : 								{
									"maxclass" : "outlet",
									"numinlets" : 1,
									"patching_rect" : [ 72.0, 335.0, 25.0, 25.0 ],
									"numoutlets" : 0,
									"id" : "obj-4",
									"comment" : ""
								}

							}
, 							{
								"box" : 								{
									"maxclass" : "inlet",
									"numinlets" : 0,
									"patching_rect" : [ 202.0, 36.0, 25.0, 25.0 ],
									"numoutlets" : 1,
									"outlettype" : [ "int" ],
									"id" : "obj-2",
									"comment" : ""
								}

							}
, 							{
								"box" : 								{
									"maxclass" : "inlet",
									"numinlets" : 0,
									"patching_rect" : [ 277.0, 39.0, 25.0, 25.0 ],
									"numoutlets" : 1,
									"outlettype" : [ "" ],
									"id" : "obj-1",
									"comment" : ""
								}

							}
, 							{
								"box" : 								{
									"maxclass" : "newobj",
									"text" : "zl slice 2",
									"fontsize" : 12.0,
									"numinlets" : 2,
									"patching_rect" : [ 105.0, 69.5, 57.0, 20.0 ],
									"numoutlets" : 2,
									"outlettype" : [ "", "" ],
									"fontname" : "Arial",
									"id" : "obj-67"
								}

							}
, 							{
								"box" : 								{
									"maxclass" : "newobj",
									"text" : "zl slice 2",
									"fontsize" : 12.0,
									"numinlets" : 2,
									"patching_rect" : [ 68.0, 41.5, 57.0, 20.0 ],
									"numoutlets" : 2,
									"outlettype" : [ "", "" ],
									"fontname" : "Arial",
									"id" : "obj-65"
								}

							}
, 							{
								"box" : 								{
									"maxclass" : "newobj",
									"text" : "route play tempo dest",
									"fontsize" : 12.0,
									"numinlets" : 1,
									"patching_rect" : [ 71.0, 122.0, 126.0, 20.0 ],
									"numoutlets" : 4,
									"outlettype" : [ "", "", "", "" ],
									"fontname" : "Arial",
									"id" : "obj-58"
								}

							}
, 							{
								"box" : 								{
									"maxclass" : "newobj",
									"text" : "r time",
									"fontsize" : 12.0,
									"numinlets" : 0,
									"patching_rect" : [ 68.0, 15.5, 40.0, 20.0 ],
									"numoutlets" : 1,
									"outlettype" : [ "" ],
									"fontname" : "Arial",
									"id" : "obj-57"
								}

							}
, 							{
								"box" : 								{
									"maxclass" : "newobj",
									"text" : "prepend tempo",
									"fontsize" : 12.0,
									"numinlets" : 1,
									"patching_rect" : [ 144.0, 192.0, 91.0, 20.0 ],
									"numoutlets" : 1,
									"outlettype" : [ "" ],
									"fontname" : "Arial",
									"id" : "obj-16"
								}

							}
, 							{
								"box" : 								{
									"maxclass" : "toggle",
									"presentation_rect" : [ 91.0, 11.0, 20.0, 20.0 ],
									"numinlets" : 1,
									"patching_rect" : [ 72.0, 263.0, 20.0, 20.0 ],
									"numoutlets" : 1,
									"presentation" : 1,
									"outlettype" : [ "int" ],
									"id" : "obj-12"
								}

							}
, 							{
								"box" : 								{
									"maxclass" : "newobj",
									"text" : "tempo 60 1 96",
									"fontsize" : 12.0,
									"numinlets" : 4,
									"patching_rect" : [ 72.0, 297.0, 87.0, 20.0 ],
									"numoutlets" : 1,
									"outlettype" : [ "int" ],
									"fontname" : "Arial",
									"id" : "obj-11"
								}

							}
 ],
						"lines" : [ 							{
								"patchline" : 								{
									"source" : [ "obj-11", 0 ],
									"destination" : [ "obj-4", 0 ],
									"hidden" : 0,
									"midpoints" : [  ]
								}

							}
, 							{
								"patchline" : 								{
									"source" : [ "obj-67", 1 ],
									"destination" : [ "obj-58", 0 ],
									"hidden" : 0,
									"midpoints" : [ 152.5, 109.0, 80.5, 109.0 ]
								}

							}
, 							{
								"patchline" : 								{
									"source" : [ "obj-67", 0 ],
									"destination" : [ "obj-58", 0 ],
									"hidden" : 0,
									"midpoints" : [ 114.5, 109.0, 80.5, 109.0 ]
								}

							}
, 							{
								"patchline" : 								{
									"source" : [ "obj-65", 1 ],
									"destination" : [ "obj-67", 0 ],
									"hidden" : 0,
									"midpoints" : [  ]
								}

							}
, 							{
								"patchline" : 								{
									"source" : [ "obj-65", 0 ],
									"destination" : [ "obj-58", 0 ],
									"hidden" : 0,
									"midpoints" : [  ]
								}

							}
, 							{
								"patchline" : 								{
									"source" : [ "obj-57", 0 ],
									"destination" : [ "obj-65", 0 ],
									"hidden" : 0,
									"midpoints" : [  ]
								}

							}
, 							{
								"patchline" : 								{
									"source" : [ "obj-12", 0 ],
									"destination" : [ "obj-11", 0 ],
									"hidden" : 0,
									"midpoints" : [  ]
								}

							}
, 							{
								"patchline" : 								{
									"source" : [ "obj-16", 0 ],
									"destination" : [ "obj-11", 1 ],
									"hidden" : 0,
									"midpoints" : [ 153.5, 282.0, 104.166664, 282.0 ]
								}

							}
, 							{
								"patchline" : 								{
									"source" : [ "obj-58", 0 ],
									"destination" : [ "obj-12", 0 ],
									"hidden" : 0,
									"midpoints" : [ 80.5, 258.0, 81.5, 258.0 ]
								}

							}
, 							{
								"patchline" : 								{
									"source" : [ "obj-58", 1 ],
									"destination" : [ "obj-16", 0 ],
									"hidden" : 0,
									"midpoints" : [ 116.166664, 177.0, 153.5, 177.0 ]
								}

							}
, 							{
								"patchline" : 								{
									"source" : [ "obj-1", 0 ],
									"destination" : [ "obj-16", 0 ],
									"hidden" : 0,
									"midpoints" : [ 286.5, 177.0, 153.5, 177.0 ]
								}

							}
, 							{
								"patchline" : 								{
									"source" : [ "obj-2", 0 ],
									"destination" : [ "obj-12", 0 ],
									"hidden" : 0,
									"midpoints" : [ 211.5, 249.0, 81.5, 249.0 ]
								}

							}
 ]
					}
,
					"saved_object_attributes" : 					{
						"fontface" : 0,
						"fontsize" : 12.0,
						"globalpatchername" : "",
						"default_fontface" : 0,
						"default_fontname" : "Arial",
						"fontname" : "Arial",
						"default_fontsize" : 12.0
					}

				}

			}
, 			{
				"box" : 				{
					"maxclass" : "comment",
					"text" : "Play",
					"presentation_rect" : [ 27.0, 19.0, 38.0, 23.0 ],
					"fontface" : 1,
					"fontsize" : 14.0,
					"numinlets" : 1,
					"patching_rect" : [ 26.0, 42.0, 38.0, 23.0 ],
					"numoutlets" : 0,
					"presentation" : 1,
					"fontname" : "Arial",
					"id" : "obj-14"
				}

			}
, 			{
				"box" : 				{
					"maxclass" : "toggle",
					"presentation_rect" : [ 81.0, 19.0, 20.0, 20.0 ],
					"numinlets" : 1,
					"patching_rect" : [ 79.0, 44.0, 20.0, 20.0 ],
					"numoutlets" : 1,
					"presentation" : 1,
					"outlettype" : [ "int" ],
					"id" : "obj-12"
				}

			}
, 			{
				"box" : 				{
					"maxclass" : "message",
					"text" : "/ITL load sync.interlude",
					"fontsize" : 12.0,
					"numinlets" : 2,
					"patching_rect" : [ 270.0, 341.0, 135.0, 18.0 ],
					"numoutlets" : 1,
					"outlettype" : [ "" ],
					"fontname" : "Arial",
					"id" : "obj-8"
				}

			}
, 			{
				"box" : 				{
					"maxclass" : "message",
					"text" : "path",
					"fontsize" : 12.0,
					"numinlets" : 2,
					"patching_rect" : [ 416.0, 305.0, 34.0, 18.0 ],
					"numoutlets" : 1,
					"outlettype" : [ "" ],
					"fontname" : "Arial",
					"id" : "obj-4"
				}

			}
, 			{
				"box" : 				{
					"maxclass" : "newobj",
					"text" : "thispatcher",
					"fontsize" : 12.0,
					"numinlets" : 1,
					"patching_rect" : [ 416.0, 330.0, 69.0, 20.0 ],
					"numoutlets" : 2,
					"outlettype" : [ "", "" ],
					"fontname" : "Arial",
					"id" : "obj-5",
					"save" : [ "#N", "thispatcher", ";", "#Q", "end", ";" ]
				}

			}
, 			{
				"box" : 				{
					"maxclass" : "comment",
					"text" : "Initialization",
					"fontface" : 1,
					"fontsize" : 14.0,
					"numinlets" : 1,
					"patching_rect" : [ 402.0, 267.0, 91.0, 23.0 ],
					"numoutlets" : 0,
					"fontname" : "Arial",
					"id" : "obj-32"
				}

			}
, 			{
				"box" : 				{
					"maxclass" : "comment",
					"text" : "reload",
					"presentation_rect" : [ 11.0, 149.0, 43.0, 18.0 ],
					"fontsize" : 10.0,
					"numinlets" : 1,
					"patching_rect" : [ 264.0, 289.0, 41.0, 18.0 ],
					"numoutlets" : 0,
					"presentation" : 1,
					"fontname" : "Arial",
					"id" : "obj-46"
				}

			}
, 			{
				"box" : 				{
					"maxclass" : "button",
					"presentation_rect" : [ 18.0, 169.0, 20.0, 20.0 ],
					"numinlets" : 1,
					"patching_rect" : [ 271.0, 263.0, 20.0, 20.0 ],
					"numoutlets" : 1,
					"presentation" : 1,
					"outlettype" : [ "bang" ],
					"id" : "obj-45"
				}

			}
, 			{
				"box" : 				{
					"maxclass" : "newobj",
					"text" : "s sync",
					"fontsize" : 12.0,
					"numinlets" : 1,
					"patching_rect" : [ 270.0, 417.0, 45.0, 20.0 ],
					"numoutlets" : 0,
					"fontname" : "Arial",
					"id" : "obj-38"
				}

			}
, 			{
				"box" : 				{
					"maxclass" : "newobj",
					"text" : "t b b b b",
					"fontsize" : 12.0,
					"numinlets" : 1,
					"patching_rect" : [ 310.0, 292.0, 59.5, 20.0 ],
					"numoutlets" : 4,
					"outlettype" : [ "bang", "bang", "bang", "bang" ],
					"fontname" : "Arial",
					"id" : "obj-3"
				}

			}
, 			{
				"box" : 				{
					"maxclass" : "newobj",
					"text" : "loadbang",
					"fontsize" : 12.0,
					"numinlets" : 1,
					"patching_rect" : [ 310.0, 263.0, 60.0, 20.0 ],
					"numoutlets" : 1,
					"outlettype" : [ "bang" ],
					"fontname" : "Arial",
					"id" : "obj-28"
				}

			}
, 			{
				"box" : 				{
					"maxclass" : "panel",
					"numinlets" : 1,
					"bgcolor" : [ 0.878431, 0.94902, 0.839216, 1.0 ],
					"patching_rect" : [ 256.0, 257.0, 251.0, 197.0 ],
					"numoutlets" : 0,
					"id" : "obj-31"
				}

			}
, 			{
				"box" : 				{
					"maxclass" : "comment",
					"text" : "OSC communication",
					"fontface" : 1,
					"fontsize" : 14.0,
					"numinlets" : 1,
					"patching_rect" : [ 23.0, 267.0, 189.0, 23.0 ],
					"numoutlets" : 0,
					"fontname" : "Arial",
					"id" : "obj-40"
				}

			}
, 			{
				"box" : 				{
					"maxclass" : "newobj",
					"text" : "print",
					"fontsize" : 12.0,
					"numinlets" : 1,
					"patching_rect" : [ 184.0, 308.0, 34.0, 20.0 ],
					"numoutlets" : 0,
					"fontname" : "Arial",
					"id" : "obj-58"
				}

			}
, 			{
				"box" : 				{
					"maxclass" : "newobj",
					"text" : "print ITL",
					"fontsize" : 12.0,
					"numinlets" : 1,
					"patching_rect" : [ 131.0, 409.0, 55.0, 20.0 ],
					"numoutlets" : 0,
					"fontname" : "Arial",
					"id" : "obj-41"
				}

			}
, 			{
				"box" : 				{
					"maxclass" : "newobj",
					"text" : "print ITLOut",
					"fontsize" : 12.0,
					"numinlets" : 1,
					"patching_rect" : [ 24.0, 409.0, 74.0, 20.0 ],
					"numoutlets" : 0,
					"fontname" : "Arial",
					"id" : "obj-42"
				}

			}
, 			{
				"box" : 				{
					"maxclass" : "newobj",
					"text" : "udpreceive 7002",
					"fontsize" : 12.0,
					"numinlets" : 1,
					"patching_rect" : [ 131.0, 378.0, 99.0, 20.0 ],
					"numoutlets" : 1,
					"outlettype" : [ "" ],
					"fontname" : "Arial",
					"id" : "obj-43"
				}

			}
, 			{
				"box" : 				{
					"maxclass" : "newobj",
					"text" : "udpreceive 7001",
					"fontsize" : 12.0,
					"numinlets" : 1,
					"patching_rect" : [ 24.0, 376.0, 99.0, 20.0 ],
					"numoutlets" : 1,
					"outlettype" : [ "" ],
					"fontname" : "Arial",
					"id" : "obj-44"
				}

			}
, 			{
				"box" : 				{
					"maxclass" : "newobj",
					"text" : "r sync",
					"fontsize" : 12.0,
					"numinlets" : 0,
					"patching_rect" : [ 24.0, 298.0, 43.0, 20.0 ],
					"numoutlets" : 1,
					"outlettype" : [ "" ],
					"fontname" : "Arial",
					"id" : "obj-39"
				}

			}
, 			{
				"box" : 				{
					"maxclass" : "newobj",
					"text" : "udpsend 127.0.0.1 7000",
					"fontsize" : 11.595187,
					"numinlets" : 1,
					"patching_rect" : [ 24.0, 338.0, 136.0, 20.0 ],
					"numoutlets" : 0,
					"fontname" : "Arial",
					"id" : "obj-72"
				}

			}
, 			{
				"box" : 				{
					"maxclass" : "panel",
					"numinlets" : 1,
					"bgcolor" : [ 0.878431, 0.94902, 0.839216, 1.0 ],
					"patching_rect" : [ 8.0, 257.0, 239.0, 191.0 ],
					"numoutlets" : 0,
					"id" : "obj-47"
				}

			}
 ],
		"lines" : [ 			{
				"patchline" : 				{
					"source" : [ "obj-2", 0 ],
					"destination" : [ "obj-38", 0 ],
					"hidden" : 0,
					"midpoints" : [ 361.5, 417.0, 327.0, 417.0, 327.0, 402.0, 279.5, 402.0 ]
				}

			}
, 			{
				"patchline" : 				{
					"source" : [ "obj-5", 1 ],
					"destination" : [ "obj-36", 0 ],
					"hidden" : 0,
					"midpoints" : [ 475.5, 362.0, 361.5, 362.0 ]
				}

			}
, 			{
				"patchline" : 				{
					"source" : [ "obj-36", 0 ],
					"destination" : [ "obj-2", 0 ],
					"hidden" : 0,
					"midpoints" : [  ]
				}

			}
, 			{
				"patchline" : 				{
					"source" : [ "obj-16", 0 ],
					"destination" : [ "obj-17", 0 ],
					"hidden" : 0,
					"midpoints" : [ 83.5, 219.75, 54.5, 219.75 ]
				}

			}
, 			{
				"patchline" : 				{
					"source" : [ "obj-1", 0 ],
					"destination" : [ "obj-214", 1 ],
					"hidden" : 0,
					"midpoints" : [ 175.5, 154.0, 144.5, 154.0, 144.5, 66.0, 113.5, 66.0 ]
				}

			}
, 			{
				"patchline" : 				{
					"source" : [ "obj-3", 3 ],
					"destination" : [ "obj-4", 0 ],
					"hidden" : 0,
					"midpoints" : [ 360.0, 321.0, 392.75, 321.0, 392.75, 295.0, 425.5, 295.0 ]
				}

			}
, 			{
				"patchline" : 				{
					"source" : [ "obj-4", 0 ],
					"destination" : [ "obj-5", 0 ],
					"hidden" : 0,
					"midpoints" : [  ]
				}

			}
, 			{
				"patchline" : 				{
					"source" : [ "obj-28", 0 ],
					"destination" : [ "obj-3", 0 ],
					"hidden" : 0,
					"midpoints" : [  ]
				}

			}
, 			{
				"patchline" : 				{
					"source" : [ "obj-45", 0 ],
					"destination" : [ "obj-3", 0 ],
					"hidden" : 0,
					"midpoints" : [ 280.5, 285.0, 319.5, 285.0 ]
				}

			}
, 			{
				"patchline" : 				{
					"source" : [ "obj-43", 0 ],
					"destination" : [ "obj-41", 0 ],
					"hidden" : 0,
					"midpoints" : [  ]
				}

			}
, 			{
				"patchline" : 				{
					"source" : [ "obj-44", 0 ],
					"destination" : [ "obj-42", 0 ],
					"hidden" : 0,
					"midpoints" : [  ]
				}

			}
, 			{
				"patchline" : 				{
					"source" : [ "obj-3", 2 ],
					"destination" : [ "obj-8", 0 ],
					"hidden" : 0,
					"midpoints" : [ 346.5, 327.0, 279.5, 327.0 ]
				}

			}
, 			{
				"patchline" : 				{
					"source" : [ "obj-39", 0 ],
					"destination" : [ "obj-72", 0 ],
					"hidden" : 0,
					"midpoints" : [  ]
				}

			}
, 			{
				"patchline" : 				{
					"source" : [ "obj-8", 0 ],
					"destination" : [ "obj-38", 0 ],
					"hidden" : 0,
					"midpoints" : [ 279.5, 381.0, 279.5, 381.0 ]
				}

			}
, 			{
				"patchline" : 				{
					"source" : [ "obj-12", 0 ],
					"destination" : [ "obj-214", 0 ],
					"hidden" : 0,
					"midpoints" : [  ]
				}

			}
, 			{
				"patchline" : 				{
					"source" : [ "obj-10", 0 ],
					"destination" : [ "obj-7", 0 ],
					"hidden" : 0,
					"midpoints" : [  ]
				}

			}
, 			{
				"patchline" : 				{
					"source" : [ "obj-214", 0 ],
					"destination" : [ "obj-7", 1 ],
					"hidden" : 0,
					"midpoints" : [ 88.5, 114.0, 53.5, 114.0 ]
				}

			}
, 			{
				"patchline" : 				{
					"source" : [ "obj-7", 0 ],
					"destination" : [ "obj-11", 0 ],
					"hidden" : 0,
					"midpoints" : [ 33.5, 176.0, 46.5, 176.0 ]
				}

			}
, 			{
				"patchline" : 				{
					"source" : [ "obj-7", 1 ],
					"destination" : [ "obj-16", 0 ],
					"hidden" : 0,
					"midpoints" : [ 53.5, 168.5, 83.5, 168.5 ]
				}

			}
, 			{
				"patchline" : 				{
					"source" : [ "obj-11", 0 ],
					"destination" : [ "obj-17", 0 ],
					"hidden" : 0,
					"midpoints" : [ 46.5, 219.75, 54.5, 219.75 ]
				}

			}
, 			{
				"patchline" : 				{
					"source" : [ "obj-18", 0 ],
					"destination" : [ "obj-24", 0 ],
					"hidden" : 0,
					"midpoints" : [  ]
				}

			}
, 			{
				"patchline" : 				{
					"source" : [ "obj-24", 0 ],
					"destination" : [ "obj-23", 0 ],
					"hidden" : 0,
					"midpoints" : [ 314.5, 97.0, 281.5, 97.0 ]
				}

			}
, 			{
				"patchline" : 				{
					"source" : [ "obj-24", 1 ],
					"destination" : [ "obj-20", 0 ],
					"hidden" : 0,
					"midpoints" : [ 334.0, 96.5, 349.5, 96.5 ]
				}

			}
, 			{
				"patchline" : 				{
					"source" : [ "obj-23", 0 ],
					"destination" : [ "obj-26", 0 ],
					"hidden" : 0,
					"midpoints" : [  ]
				}

			}
, 			{
				"patchline" : 				{
					"source" : [ "obj-20", 0 ],
					"destination" : [ "obj-26", 0 ],
					"hidden" : 0,
					"midpoints" : [ 349.5, 125.0, 281.5, 125.0 ]
				}

			}
, 			{
				"patchline" : 				{
					"source" : [ "obj-26", 0 ],
					"destination" : [ "obj-21", 0 ],
					"hidden" : 0,
					"midpoints" : [ 281.5, 154.5, 281.5, 154.5 ]
				}

			}
 ]
	}

}
