#N canvas 797 113 298 210 10;
#X obj 94 172 bng 15 250 50 0 \$0-reload empty Reload -50 7 0 10 -262144
-1 -1;
#X obj -112 74 tgl 15 0 \$0-play empty empty 17 7 0 10 -262144 -1 -1
1 1;
#X text -136 57 Start/Stop;
#X obj -65 57 vsl 15 100 10 100 0 0 \$0-rate empty Rate -4 -9 0 10
-262144 -1 -1 7300 1;
#X obj -33 57 vsl 15 100 0 100 0 0 \$0-ampl empty Ampl -4 -9 0 10 -262144
-1 -1 6300 1;
#N canvas 384 313 562 482 inside 1;
#X obj -170 250 cnv 15 250 180 empty empty OSC_Comm 20 12 0 12 -204800
-66577 0;
#X obj -166 371 dumpOSC 7001;
#X obj -166 402 print ITLOut;
#X obj -69 370 dumpOSC 7002;
#X obj -69 401 print ITL;
#X obj -3 338 sendOSC;
#X msg -163 305 connect localhost 7000;
#X obj -163 275 loadbang;
#X obj -3 304 prepend send;
#X obj 98 250 cnv 15 230 180 empty empty Init 20 12 0 12 -204800 -66577
0;
#X obj 182 315 getdir;
#X obj 131 290 t b b b b;
#X obj 241 258 loadbang;
#X obj -3 277 r sinus;
#X obj 111 402 s sinus;
#N canvas 612 528 331 325 osc 0;
#X obj 72 40 inlet;
#X obj 118 41 inlet;
#X obj 72 69 tgl 15 0 empty empty empty 17 7 0 10 -262144 -1 -1 1 1
;
#X obj 72 105 metro 50;
#X obj 72 137 counter;
#X obj 72 165 / 10;
#X obj 72 195 sin;
#X obj 72 231 outlet;
#X connect 0 0 2 0;
#X connect 1 0 3 1;
#X connect 2 0 3 0;
#X connect 3 0 4 0;
#X connect 4 0 5 0;
#X connect 5 0 6 0;
#X connect 6 0 7 0;
#X restore 157 87 pd osc;
#X obj 203 115 / 100;
#X obj 176 145 * 0.5;
#X obj 176 214 s sinus;
#X obj 160 258 r \$0-reload;
#X obj 203 86 r \$0-ampl;
#X obj 190 47 r \$0-rate;
#X obj 157 23 r \$0-play;
#X msg 110 378 /ITL load sinus.inscore;
#X obj 182 337 prepend /ITL rootPath;
#X obj 188 357 prepend /ITL/scene rootPath;
#X msg 176 179 /ITL/scene/signal/sig \$1;
#X connect 1 0 2 0;
#X connect 3 0 4 0;
#X connect 6 0 5 0;
#X connect 7 0 6 0;
#X connect 8 0 5 0;
#X connect 10 0 24 0;
#X connect 10 0 25 0;
#X connect 11 2 23 0;
#X connect 11 3 10 0;
#X connect 12 0 11 0;
#X connect 13 0 8 0;
#X connect 15 0 17 0;
#X connect 16 0 17 1;
#X connect 17 0 26 0;
#X connect 19 0 11 0;
#X connect 20 0 16 0;
#X connect 21 0 15 1;
#X connect 22 0 15 0;
#X connect 23 0 14 0;
#X connect 24 0 14 0;
#X connect 25 0 14 0;
#X connect 26 0 18 0;
#X restore -66 173 pd inside;
#X text -129 7 Displays various graphic signals based;
#X text -129 19 on a single sinus values stream.;
