#N canvas 13 35 401 189 10;
#X obj 70 74 bng 15 250 50 0 \$0-reload empty Reload -50 7 0 10 -262144
-1 -1;
#X obj -168 -70 vradio 15 1 0 4 \$0-map empty empty 0 -8 0 10 -228856
-258113 -1 0;
#X obj 35 -70 vradio 15 1 0 3 \$0-vpos \$1-vpos empty 0 -8 0 10 -228856
-258113 -1 2;
#X text 54 -73 top;
#X text 55 -56 over;
#X text 55 -39 bottom;
#X text -52 -91 Stretch;
#X obj -44 -68 vradio 15 1 0 4 \$0-stretch \$1-stretch empty 0 -8 0
10 -228856 -258113 -1 1;
#X text -25 -71 h;
#X text -24 -54 hv;
#X text -24 -37 H;
#X text -24 -23 Hv;
#X obj -94 -71 bng 15 250 50 0 $nosync empty empty 17 7 0 10 -262144
-1 -1;
#X text -108 -91 No Sync;
#X text -148 -71 map1;
#X text -147 -55 map2;
#X text -147 -40 map3;
#X text -146 -25 mapd;
#X text -176 -91 TGV maps;
#N canvas 261 345 990 592 inside 0;
#X obj -146 257 cnv 15 250 180 empty empty OSC_Comm 20 12 0 12 -204800
-66577 0;
#X obj -142 378 dumpOSC 7001;
#X obj -142 409 print ITLOut;
#X obj -45 377 dumpOSC 7002;
#X obj -45 408 print ITL;
#X obj 21 345 sendOSC;
#X msg -139 312 connect localhost 7000;
#X obj -139 282 loadbang;
#X obj 21 311 prepend send;
#X obj 122 257 cnv 15 230 180 empty empty Init 20 12 0 12 -204800 -66577
0;
#X obj 189 323 getdir;
#X obj 138 298 t b b b b;
#X obj 189 352 prepend /ITL rootPath;
#X obj 265 267 loadbang;
#X obj 21 284 r sync;
#X obj 143 409 s sync;
#X obj 178 265 r \$0-reload;
#X obj -164 -3 cnv 15 170 160 empty empty Playing 20 12 0 12 -261682
-66577 0;
#X obj -146 61 metro 41.66;
#X obj -146 124 s sync;
#X obj -145 26 r \$0-play;
#X obj -73 28 r \$0-rate;
#X obj 20 -4 cnv 15 390 185 empty empty parameters 20 12 0 12 -261682
-66577 0;
#X obj 27 157 s sync;
#X obj 30 46 route 0 1 2 3;
#X obj 26 131 prepend /ITL/scene/tgv mapf;
#X msg 26 75 tgv.map;
#X msg 50 99 tgv2.map;
#X msg 81 76 tgv3.map;
#X msg 113 99 tgvd.map;
#X obj 209 157 s sync;
#N canvas 273 60 573 327 vstretch 0;
#X msg 296 144 syncOver;
#X msg 320 168 syncBottom;
#X obj 269 90 route 0 1 2;
#X obj 268 48 inlet;
#X obj 73 48 inlet;
#X obj 74 90 route 0 1 2 3;
#X msg 115 135 hv;
#X msg 150 136 H;
#X msg 192 135 Hv;
#X msg 73 136 h;
#X obj 151 288 outlet;
#X obj 202 190 bng 15 250 50 0 empty empty empty 17 7 0 10 -262144
-1 -1;
#X obj 152 228 pack s s;
#X obj 268 199 symbol;
#X msg 268 122 syncTop;
#X obj 151 261 route list;
#X connect 0 0 13 0;
#X connect 1 0 13 0;
#X connect 2 0 14 0;
#X connect 2 1 0 0;
#X connect 2 2 1 0;
#X connect 3 0 2 0;
#X connect 4 0 5 0;
#X connect 5 0 9 0;
#X connect 5 1 6 0;
#X connect 5 2 7 0;
#X connect 5 3 8 0;
#X connect 6 0 12 0;
#X connect 7 0 12 0;
#X connect 8 0 12 0;
#X connect 9 0 12 0;
#X connect 11 0 12 0;
#X connect 12 0 15 0;
#X connect 13 0 12 1;
#X connect 13 0 11 0;
#X connect 14 0 13 0;
#X connect 15 0 10 0;
#X restore 162 41 pd vstretch;
#X obj 162 67 prepend /ITL/scene/sync tgv myGuidoFile;
#X msg 240 125 /ITL/scene/sync tgv;
#X obj 29 21 r \$0-map;
#X obj 240 101 r $nosync;
#X msg 115 444 2;
#X msg 77 443 1;
#X obj 77 492 s \$1-stretch;
#X obj 115 471 s \$1-vpos;
#X obj 142 14 r \$0-stretch;
#X obj 237 13 r \$0-vpos;
#X msg -146 89 /ITL/scene/tgv clock;
#X msg -135 200 /ITL/scene fullscreen \$1;
#X obj -136 171 r $fs;
#X obj -135 227 s sync;
#X msg 143 378 /ITL load syncsegments.inscore;
#X obj 375 250 cnv 15 390 185 empty empty date 20 12 0 12 -261682 -66577
0;
#X obj 395 363 s sync;
#X msg 395 336 /ITL/scene/tgv date \$1 8;
#X obj 395 275 r \$0-date;
#X obj 432 408 print;
#X obj 395 307 int;
#X connect 1 0 2 0;
#X connect 3 0 4 0;
#X connect 6 0 5 0;
#X connect 7 0 6 0;
#X connect 8 0 5 0;
#X connect 10 0 12 0;
#X connect 11 1 37 0;
#X connect 11 1 36 0;
#X connect 11 2 46 0;
#X connect 11 3 10 0;
#X connect 12 0 15 0;
#X connect 13 0 11 0;
#X connect 14 0 8 0;
#X connect 16 0 11 0;
#X connect 18 0 42 0;
#X connect 20 0 18 0;
#X connect 21 0 18 1;
#X connect 24 0 26 0;
#X connect 24 1 27 0;
#X connect 24 2 28 0;
#X connect 24 3 29 0;
#X connect 25 0 23 0;
#X connect 26 0 25 0;
#X connect 27 0 25 0;
#X connect 28 0 25 0;
#X connect 29 0 25 0;
#X connect 31 0 32 0;
#X connect 32 0 30 0;
#X connect 33 0 30 0;
#X connect 34 0 24 0;
#X connect 35 0 33 0;
#X connect 36 0 39 0;
#X connect 37 0 38 0;
#X connect 40 0 31 0;
#X connect 41 0 31 1;
#X connect 42 0 19 0;
#X connect 43 0 45 0;
#X connect 44 0 43 0;
#X connect 46 0 15 0;
#X connect 49 0 48 0;
#X connect 50 0 52 0;
#X connect 52 0 49 0;
#X restore -257 69 pd inside;
#X obj -250 -74 tgl 15 0 \$0-play empty Play -4 -10 0 10 -262144 -1
-1 0 1;
#X obj -218 -72 vsl 15 128 10 100 0 0 \$0-rate empty Rate -4 -12 0
10 -262144 -1 -1 0 1;
#X text 13 -91 Vertical Pos;
#X text -175 1 This patch shows components synchronization:;
#X text -176 16 the train is segmented using various mapping;
#X text -176 29 files and synchronized to the score;
#X obj -75 74 tgl 15 0 $fs empty Full_screen -24 -8 0 10 -262144 -1
-1 0 1;
#X obj -168 43 hsl 300 12 -32 216 0 0 \$0-date empty empty -2 -8 0
10 -262144 -1 -1 6300 1;
