#N canvas 64 182 777 497 10;
#X obj -2 170 print;
#X obj -172 201 cnv 15 250 180 empty empty OSC_Comm 20 12 0 12 -204800
-66577 0;
#X obj -168 322 dumpOSC 7001;
#X obj -168 353 print ITLOut;
#X obj -71 321 dumpOSC 7002;
#X obj -71 352 print ITL;
#X obj -5 289 sendOSC;
#X msg -165 256 connect localhost 7000;
#X obj -165 226 loadbang;
#X obj -5 255 prepend send;
#X obj 96 201 cnv 15 230 180 empty empty Init 20 12 0 12 -204800 -66577
0;
#X obj 180 266 getdir;
#X obj 90 170 bng 15 250 50 0 empty empty empty 17 7 0 10 -262144 -1
-1;
#X obj 129 241 t b b b b;
#X obj 180 295 prepend /ITL rootPath;
#X text 75 150 Reload;
#X obj 167 210 loadbang;
#X obj -5 228 r sync;
#X obj 134 352 s sync;
#X obj 50 -48 vradio 15 1 0 4 empty empty empty 0 -8 0 10 -262144 -1
-1 0;
#X obj -1 127 s sync;
#X obj -167 -25 metro 41.66;
#X obj -185 38 s sync;
#X obj -167 -54 tgl 15 0 empty empty empty 17 7 0 10 -262144 -1 -1
0 1;
#X text -173 -76 Play;
#X obj -43 -51 vsl 15 128 10 100 0 0 empty empty empty 0 -9 0 10 -262144
-1 -1 1100 1;
#X text -48 -75 Rate;
#X obj 449 -37 vradio 15 1 0 3 empty empty empty 0 -8 0 10 -262144
-1 -1 2;
#X text 446 -62 VPos;
#X text 468 -40 top;
#X text 469 -23 over;
#X text 469 -6 bottom;
#X text 318 -65 Stretch;
#X obj 325 114 s sync;
#N canvas 273 60 573 327 vstretch 0;
#X msg 296 144 syncOver;
#X msg 320 168 syncBottom;
#X obj 269 90 route 0 1 2;
#X obj 268 48 inlet;
#X obj 73 48 inlet;
#X obj 74 90 route 0 1 2 3;
#X msg 115 135 hv;
#X msg 150 136 H;
#X msg 192 135 Hv;
#X msg 73 136 h;
#X obj 151 288 outlet;
#X obj 202 190 bng 15 250 50 0 empty empty empty 17 7 0 10 -262144
-1 -1;
#X obj 152 228 pack s s;
#X obj 268 199 symbol;
#X msg 268 122 syncTop;
#X obj 151 261 route list;
#X connect 0 0 13 0;
#X connect 1 0 13 0;
#X connect 2 0 14 0;
#X connect 2 1 0 0;
#X connect 2 2 1 0;
#X connect 3 0 2 0;
#X connect 4 0 5 0;
#X connect 5 0 9 0;
#X connect 5 1 6 0;
#X connect 5 2 7 0;
#X connect 5 3 8 0;
#X connect 6 0 12 0;
#X connect 7 0 12 0;
#X connect 8 0 12 0;
#X connect 9 0 12 0;
#X connect 11 0 12 0;
#X connect 12 0 15 0;
#X connect 13 0 12 1;
#X connect 13 0 11 0;
#X connect 14 0 13 0;
#X connect 15 0 10 0;
#X restore 325 47 pd vstretch;
#X obj 326 -42 vradio 15 1 0 4 empty empty empty 0 -8 0 10 -262144
-1 -1 1;
#X text 345 -45 h;
#X text 346 -28 hv;
#X text 346 -11 H;
#X text 346 3 Hv;
#X obj 187 -35 bng 15 250 50 0 empty empty empty 17 7 0 10 -262144
-1 -1;
#X text 173 -63 No Sync;
#X msg 134 321 /ITL load syncsegments.interlude;
#X msg -185 3 /ITL/scene/tgv clock;
#X obj 325 82 prepend /ITL/scene/sync tgv myGuidoFile;
#X msg 187 28 /ITL/scene/sync tgv;
#X msg 478 -74 2;
#X msg 298 -76 1;
#X obj 386 -94 loadbang;
#X text 70 -49 map1;
#X text 71 -33 map2;
#X text 71 -18 map3;
#X text 72 -3 mapd;
#X obj 50 16 route 0 1 2 3;
#X obj -2 101 prepend /ITL/scene/tgv mapf;
#X msg -2 45 tgv.map;
#X text 38 -73 TGV maps;
#X msg 22 69 tgv2.map;
#X msg 77 44 tgv3.map;
#X msg 85 69 tgvd.map;
#X connect 2 0 3 0;
#X connect 4 0 5 0;
#X connect 7 0 6 0;
#X connect 8 0 7 0;
#X connect 9 0 6 0;
#X connect 11 0 14 0;
#X connect 12 0 13 0;
#X connect 13 2 42 0;
#X connect 13 3 11 0;
#X connect 14 0 18 0;
#X connect 16 0 13 0;
#X connect 17 0 9 0;
#X connect 19 0 53 0;
#X connect 21 0 43 0;
#X connect 23 0 21 0;
#X connect 25 0 21 1;
#X connect 27 0 34 1;
#X connect 34 0 44 0;
#X connect 35 0 34 0;
#X connect 40 0 45 0;
#X connect 42 0 18 0;
#X connect 43 0 22 0;
#X connect 44 0 33 0;
#X connect 45 0 33 0;
#X connect 46 0 27 0;
#X connect 47 0 35 0;
#X connect 48 0 47 0;
#X connect 48 0 46 0;
#X connect 53 0 55 0;
#X connect 53 1 57 0;
#X connect 53 2 58 0;
#X connect 53 3 59 0;
#X connect 54 0 20 0;
#X connect 55 0 54 0;
#X connect 57 0 54 0;
#X connect 58 0 54 0;
#X connect 59 0 54 0;
