#N canvas 299 76 554 508 10;
#X obj -34 233 print;
#X obj -204 264 cnv 15 250 180 empty empty OSC_Comm 20 12 0 12 -204800
-66577 0;
#X obj -200 385 dumpOSC 7001;
#X obj -200 416 print ITLOut;
#X obj -103 384 dumpOSC 7002;
#X obj -103 415 print ITL;
#X obj -37 352 sendOSC;
#X msg -197 319 connect localhost 7000;
#X obj -197 289 loadbang;
#X obj -37 318 prepend send;
#X obj 64 264 cnv 15 230 180 empty empty Init 20 12 0 12 -204800 -66577
0;
#X obj 148 329 getdir;
#X obj 58 233 bng 15 250 50 0 empty empty empty 17 7 0 10 -262144 -1
-1;
#X obj 97 304 t b b b b;
#X obj 148 358 prepend /ITL rootPath;
#X text 43 213 Reload;
#X obj 135 273 loadbang;
#X obj -37 291 r demo;
#X obj 148 398 s demo;
#X text -137 53 Play;
#X obj -134 73 tgl 15 0 empty empty empty 17 7 0 10 -262144 -1 -1 1
1;
#X obj -112 168 qlist;
#X msg -62 135 read demo.osc;
#X obj -62 110 loadbang;
#X obj 152 87 route play tempo dest;
#X obj 152 27 zl slice 2;
#X obj 209 54 zl slice 2;
#X obj 152 128 tgl 15 0 empty empty empty 17 7 0 10 -262144 -1 -1 1
1;
#X obj 152 218 s demo;
#X obj -110 134 bng 15 250 50 0 empty empty empty 17 7 0 10 -262144
-1 -1;
#X obj 152 165 metro 25;
#X msg -159 133 rewind;
#X obj -134 100 route 0 1;
#X obj 234 163 / 1;
#X obj 221 115 t b f;
#X text 49 53 The 'time' bus;
#X text 48 65 is used by the;
#X text 48 78 demo.osc qlist;
#X obj 152 0 r demotime;
#X floatatom 270 164 5 0 0 0 - - -;
#X floatatom 269 139 5 0 0 0 - - -;
#X msg 221 139 2500;
#X msg 152 192 /ITL/scene/slave* clock;
#X connect 2 0 3 0;
#X connect 4 0 5 0;
#X connect 7 0 6 0;
#X connect 8 0 7 0;
#X connect 9 0 6 0;
#X connect 11 0 14 0;
#X connect 12 0 13 0;
#X connect 13 3 11 0;
#X connect 14 0 18 0;
#X connect 16 0 13 0;
#X connect 17 0 9 0;
#X connect 20 0 32 0;
#X connect 22 0 21 0;
#X connect 23 0 22 0;
#X connect 24 0 27 0;
#X connect 24 1 34 0;
#X connect 24 1 40 0;
#X connect 25 0 24 0;
#X connect 25 1 26 0;
#X connect 26 0 24 0;
#X connect 26 1 24 0;
#X connect 27 0 30 0;
#X connect 29 0 21 0;
#X connect 30 0 42 0;
#X connect 31 0 21 0;
#X connect 32 0 31 0;
#X connect 32 1 29 0;
#X connect 33 0 30 1;
#X connect 33 0 39 0;
#X connect 34 0 41 0;
#X connect 34 1 33 1;
#X connect 38 0 25 0;
#X connect 41 0 33 0;
#X connect 42 0 28 0;
