#N canvas 338 28 224 162 10;
#X obj -109 -57 cnv 15 220 30 empty empty empty 20 12 0 14 -261682
-66577 0;
#X text -96 -51 INScore Player;
#X obj -87 -2 tgl 15 0 \$0-play \$0-play-in empty 20 7 0 10 -228856
-1 -1 0 1;
#N canvas 69 24 1036 714 inside 0;
#X obj 278 309 cnv 15 250 180 empty empty Clocks 20 12 0 12 -228856
-66577 0;
#X obj 287 367 tgl 15 0 empty empty empty 17 7 0 10 -262144 -1 -1 0
1;
#X obj 287 396 metro 42.3;
#X obj 287 334 r \$0-play;
#X msg 287 427 /ITL/scene/cursor clock;
#X obj 287 459 s itl;
#X obj 28 309 cnv 15 240 180 empty empty OSC_Comm 20 12 0 12 -204800
-66577 0;
#X obj 68 426 dumpOSC 7001;
#X obj 68 457 print ITLOut;
#X obj 165 425 dumpOSC 7002;
#X obj 165 456 print ITL;
#X obj 184 398 sendOSC;
#X msg 35 364 connect localhost 7000;
#X obj 35 334 loadbang;
#X obj 184 364 prepend send;
#X obj 184 337 r itl;
#X obj 89 63 readsf~ 2;
#X obj 120 -70 openpanel;
#X obj 120 -95 bng 15 250 50 0 empty empty empty 17 7 0 10 -262144
-1 -1;
#X obj 90 97 dac~;
#X msg 120 -11 /Users/fober/Desktop/Interludes/papers/LAC2012/demo/curseurs/07.wav
;
#X obj 120 -42 prepend set;
#X obj 120 31 prepend open;
#X obj 63 -38 route 1;
#X obj 26 -79 r \$0-play;
#X obj 120 -122 r \$0-open;
#X obj 608 383 r \$0-fullscreen;
#X msg 609 413 /ITL/scene fullscreen \$1;
#X obj 608 441 s itl;
#X msg 159 63 /ITL/scene/cursor date 0 1;
#X obj 159 94 s itl;
#X obj 652 313 qlist;
#X obj 651 257 openpanel;
#X obj 651 232 bng 15 250 50 0 empty empty empty 17 7 0 10 -262144
-1 -1;
#X obj 651 205 r \$0-openmap;
#X obj 651 285 prepend read;
#X msg 734 287 clear;
#X obj 735 205 r \$0-clearmap;
#X obj 578 207 r \$0-play;
#X msg 579 279 rewind;
#X obj 578 229 route 0;
#X obj 616 259 bng 15 250 50 0 empty empty empty 17 7 0 10 -262144
-1 -1;
#X obj 344 368 r _tempo;
#X obj 13 -39 dsp;
#X obj 241 90 loadbang;
#X msg 241 250 /ITL/scene/signal/y \$1;
#X msg 241 119 vibrato 30 0.1;
#N canvas 404 548 270 210 pitchnorm 0;
#X obj 102 50 inlet;
#X obj 101 156 outlet;
#X obj 102 85 - 67;
#X text 43 19 Normalize pitch between -1 and 1;
#X obj 101 118 / 20;
#X connect 0 0 2 0;
#X connect 2 0 4 0;
#X connect 4 0 1 0;
#X restore 241 196 pd pitchnorm;
#N canvas 274 601 450 300 envnorm 0;
#X obj 137 59 inlet;
#X obj 137 205 outlet;
#X obj 137 85 - 50;
#X obj 137 113 / 50;
#X obj 137 142 max 0;
#X text 43 24 Normalize ampl envelope between 0 and 1;
#X obj 238 81 inlet;
#X obj 137 174 * 1;
#X obj 238 114 / 100;
#X connect 0 0 2 0;
#X connect 2 0 3 0;
#X connect 3 0 4 0;
#X connect 4 0 7 0;
#X connect 6 0 8 0;
#X connect 7 0 1 0;
#X connect 8 0 7 1;
#X restore 396 199 pd envnorm;
#X floatatom 396 223 5 0 0 0 - - -;
#X msg 396 251 /ITL/scene/signal/t \$1;
#X obj 287 171 unpack;
#X floatatom 241 222 5 0 0 0 - - -;
#X obj 241 147 fiddle~ 1024;
#X obj 453 167 r \$0-ampl;
#X obj 140 117 s \$0-play-in;
#X obj 241 278 s itl;
#X obj 396 279 s itl;
#X connect 1 0 2 0;
#X connect 2 0 4 0;
#X connect 3 0 1 0;
#X connect 4 0 5 0;
#X connect 7 0 8 0;
#X connect 9 0 10 0;
#X connect 12 0 11 0;
#X connect 13 0 12 0;
#X connect 14 0 11 0;
#X connect 15 0 14 0;
#X connect 16 0 19 0;
#X connect 16 0 53 0;
#X connect 16 1 19 1;
#X connect 16 2 55 0;
#X connect 17 0 21 0;
#X connect 18 0 17 0;
#X connect 20 0 22 0;
#X connect 21 0 20 0;
#X connect 22 0 16 0;
#X connect 23 0 20 0;
#X connect 23 0 29 0;
#X connect 24 0 23 0;
#X connect 24 0 16 0;
#X connect 24 0 43 0;
#X connect 25 0 18 0;
#X connect 26 0 27 0;
#X connect 27 0 28 0;
#X connect 29 0 30 0;
#X connect 32 0 35 0;
#X connect 33 0 32 0;
#X connect 34 0 33 0;
#X connect 35 0 31 0;
#X connect 36 0 31 0;
#X connect 37 0 36 0;
#X connect 38 0 40 0;
#X connect 39 0 31 0;
#X connect 40 0 39 0;
#X connect 40 1 41 0;
#X connect 41 0 31 0;
#X connect 42 0 2 1;
#X connect 44 0 46 0;
#X connect 45 0 56 0;
#X connect 46 0 53 0;
#X connect 47 0 52 0;
#X connect 48 0 49 0;
#X connect 49 0 50 0;
#X connect 50 0 57 0;
#X connect 51 0 47 0;
#X connect 51 1 48 0;
#X connect 52 0 45 0;
#X connect 53 2 51 0;
#X connect 54 0 48 1;
#X restore -105 69 pd inside;
#X text -110 -22 Start/Stop;
#X text -39 -22 Open sound file;
#X obj -10 -3 bng 15 250 50 0 \$0-open empty empty 17 7 0 10 -262144
-1 -1;
#X obj -29 70 tgl 15 0 \$0-fullscreen empty empty 20 7 0 10 -228856
-1 -1 0 1;
#X text -10 69 Full screen;
#X text 33 4 Tempo map;
#X obj 35 23 bng 15 250 50 0 \$0-openmap empty empty 17 7 0 10 -262144
-1 -1;
#X obj 35 40 bng 15 250 50 0 \$0-clearmap empty empty 17 7 0 10 -262144
-1 -1;
#X text 56 21 Open;
#X text 57 39 Clear;
